<svg width="499" height="268" viewBox="0 0 499 268" fill="none" xmlns="http://www.w3.org/2000/svg">
<g clip-path="url(#clip0_62_491)">
<path d="M495.11 129.81C493.65 134.36 488.46 137.68 482.03 135.74C481.83 137.26 482.37 138.46 482.62 139.8L479.81 140.05C479.6 138.65 478.68 137.07 476.88 135.54C475.2 134.11 458.64 124.83 457.57 125.07L454.27 128.32C453.36 128.36 452.2 127.15 452.32 126.45C452.42 125.85 458.53 119.41 459.77 116.91C459.84 116.77 459.91 116.63 459.98 116.48L462.84 117.18C461.7 119.4 460.65 121.85 459.89 122.75C466.42 124.67 486.18 138.62 491.36 130.95C491.78 130.33 492.08 129.73 492.27 129.15L495.11 129.81Z" fill="#E37091"/>
<path d="M473.34 114.66C478.89 116.33 494.9 121.33 492.27 129.15C492.08 129.73 491.78 130.33 491.36 130.95C486.18 138.62 466.42 124.67 459.89 122.75C460.65 121.85 461.7 119.4 462.84 117.18C463.99 114.92 465.24 112.9 466.39 112.95C467.38 112.99 471.99 114.26 473.34 114.66Z" fill="white"/>
<path d="M479.81 140.05C480.29 143.41 476.61 145.71 470.9 143.74C464.54 141.54 457.41 135.96 450.81 133.31C449.47 132.77 447.96 133 446.61 132.46C437.61 128.84 425.77 124.86 422.62 116.45C421.4 113.19 421.48 109.26 423.55 104.42L421.37 103.94L418.3 110.16C413.11 109.54 414.27 103.24 415.37 99.43C416.58 95.22 421 83.37 426.62 87.89L423.89 97.25L425.85 98.33C427.01 93.51 428.79 90 431.09 87.53C436.52 81.71 444.88 81.68 454.94 83.91C458.64 84.72 471.85 87.72 467.73 93.48C465.32 96.85 456.92 93.42 452.9 94.28C447.2 95.51 444.09 101.17 437.22 100.55C435.45 100.39 433.5 97.7 432.49 101.21C438.93 109.16 448.33 97.99 454.27 97.31C460.31 96.62 484.44 101.08 489.7 103.94C493.12 105.8 498.27 111.51 493.48 114.54C488.44 117.73 471.76 110.36 465.73 109.45L466.28 103.88C462.43 101.07 463.58 106.3 462.82 108.81C462.14 111.08 461.03 114.25 459.98 116.48C459.91 116.63 459.84 116.77 459.77 116.91C458.53 119.41 452.42 125.85 452.32 126.45C452.2 127.15 453.36 128.36 454.27 128.32L457.57 125.07C458.64 124.83 475.2 134.11 476.88 135.54C478.68 137.07 479.6 138.65 479.81 140.05Z" fill="white"/>
<path d="M492.27 129.15C494.9 121.33 478.89 116.33 473.34 114.66C471.99 114.26 467.38 112.99 466.39 112.95C465.24 112.9 463.99 114.92 462.84 117.18L459.98 116.48C461.03 114.25 462.14 111.08 462.82 108.81C463.58 106.3 462.43 101.07 466.28 103.88L465.73 109.45C471.76 110.36 488.44 117.73 493.48 114.54C498.27 111.51 493.12 105.8 489.7 103.94C484.44 101.08 460.31 96.62 454.27 97.31C448.33 97.99 438.93 109.16 432.49 101.21C433.5 97.7 435.45 100.39 437.22 100.55C444.09 101.17 447.2 95.51 452.9 94.28C456.92 93.42 465.32 96.85 467.73 93.48C471.85 87.72 458.64 84.72 454.94 83.91C444.88 81.68 436.52 81.71 431.09 87.53L429.08 85.65C433.09 78.13 446.71 79.16 453.99 80.56C461.42 81.99 475.86 85.41 470.09 95.71C478.06 97.57 488.37 98.35 494.79 103.88C498.68 107.24 500.23 113.41 495.66 116.9C494.01 118.15 492.13 117.88 490.69 118.91C495.15 122.04 496.24 126.29 495.11 129.81L492.27 129.15Z" fill="#E37091"/>
<path d="M470.9 143.74C476.61 145.71 480.29 143.41 479.81 140.05L482.62 139.8C482.78 140.63 482.82 141.52 482.5 142.58C478.84 154.83 460.54 141.22 454.35 138.44C442.7 133.19 429.99 132.33 421.94 121.13C421.29 120.23 420.49 118.32 419.82 116.65L422.62 116.45C425.77 124.86 437.61 128.84 446.61 132.46C447.96 133 449.47 132.77 450.81 133.31C457.41 135.96 464.54 141.54 470.9 143.74Z" fill="#E37091"/>
<path d="M416.78 17.1101C422.18 27.6501 417.53 39.3101 409.54 59.3401C405.7 68.9701 401.54 76.9101 397.45 83.7501L367.62 72.5101L363.54 83.3301L391.13 93.7401C390.17 95.1801 389.23 96.5801 388.31 97.9401C375.85 116.41 364.82 127.94 354.28 138.84C339.55 154.07 333.01 158.18 326.71 160.95C316.66 165.38 307.32 166.38 300.98 166.51C284.51 166.92 268.03 167.32 251.56 167.74C250.59 166.45 249.54 165.24 248.41 164.11C257.24 161.35 266.03 157.08 274.41 150.41C277.54 147.91 282.29 144.18 286.9 139.24C301.37 129.87 314.77 120.91 327.51 104.77C341.99 86.4401 357.53 56.4101 348.57 46.7001C346.46 44.4101 343.63 43.5901 341.65 43.5901C319.07 43.6201 296.49 43.6601 273.92 43.6901C273.33 29.1501 272.74 14.6101 272.15 0.0700684H382.2C386.29 0.310068 409.03 2.00007 416.78 17.1101Z" fill="#E37091"/>
<path d="M415.37 99.4299C414.27 103.24 413.11 109.54 418.3 110.16L421.37 103.94L423.55 104.42C421.48 109.26 421.4 113.19 422.62 116.45L419.82 116.65C419.23 115.18 418.73 113.9 418.5 113.68C417.44 112.61 414.49 113.59 412.29 109.79C410.58 106.83 412 104.3 411.21 101.31L391.13 93.7399C393.17 90.6599 395.3 87.3599 397.45 83.7499L415.63 90.6099C418.19 85.0899 423.59 81.0199 429.08 85.6499L431.09 87.5299C428.79 89.9999 427.01 93.5099 425.85 98.3299L423.89 97.2499L426.62 87.8899C421 83.3699 416.58 95.2199 415.37 99.4299Z" fill="#E37091"/>
<path d="M367.62 72.51L397.45 83.75C395.3 87.36 393.17 90.66 391.13 93.74L363.54 83.33L367.62 72.51Z" fill="#E37091"/>
<path d="M272.03 63.4599C286.92 71.2299 301.13 88.5399 300.98 107.87C300.88 121.11 294.05 131.61 286.9 139.24C286.64 139.41 286.37 139.59 286.1 139.76C276 146.28 262.39 154.1 245.29 161.34C241.18 158.12 236.24 155.82 230.51 154.63C230.12 152.77 229.61 150.88 228.98 148.94L218.01 153.77C217.61 153.79 217.2 153.82 216.79 153.85L218.43 163.12C218.47 165.24 218.25 167.22 217.81 169.06C213.64 169.29 209.58 169.4 205.66 169.5C179.63 170.22 152.62 170.96 129.28 151.94C108.12 134.7 102.3 110.41 100.6 99.7799L134.4 108.87L137.4 97.6999L99.48 87.5099C99.3 78.1399 100.52 64.3299 107.21 49.5399C110.02 43.3199 116.71 28.9999 131.98 17.7199C145 8.0999 157.54 5.6499 172.16 2.7999C183.72 0.549904 191.99 0.229904 221.56 0.0699043C236.1 -0.0100957 253.11 -0.0300957 272.15 0.0699043H270.25C271.47 14.6099 272.7 29.1499 273.92 43.6899C269.86 43.6199 261.83 43.4899 253.62 43.3499C248.69 32.2699 237.59 24.5499 224.68 24.5499C211.77 24.5499 201.29 31.8499 196.17 42.4299H196.09C186.31 42.3199 187.56 42.4299 186.63 42.3699C181.26 32.4899 170.8 25.7799 158.77 25.7799C149.75 25.7799 141.61 29.5499 135.85 35.5999C130.42 41.2899 127.1 48.9799 127.1 57.4599C127.1 74.9499 141.28 89.1299 158.77 89.1299C176.26 89.1299 189.52 75.8499 190.4 59.1499C191.3 59.1699 192.22 59.1899 193.15 59.2099C194.66 75.2999 208.2 87.8899 224.68 87.8899C241.16 87.8899 254.68 75.3199 256.21 59.2599C262.52 59.6699 266.91 60.7899 272.03 63.4599ZM245.76 124.06C252.1 112.64 253.88 95.6299 248.05 92.3599C241.92 88.9099 234.01 104.44 211.01 110.31C206.01 111.58 195.34 114.3 182.75 111.45C166.42 107.75 159.72 97.5999 154.48 100.76C149.71 103.64 150.72 114.84 153.33 121.98C158.92 137.26 175.14 143 179.54 144.56C189.41 148.05 198.03 147.5 203.69 147.14C208.81 146.82 215.92 146.36 224.1 142.72C227.88 141.04 239.11 136.04 245.76 124.06Z" fill="#E37091"/>
<path d="M296.82 240.73C304.53 236.79 310.19 230.62 314.35 222.52C317.82 215.76 320.25 207.67 321.94 198.42C322.15 197.26 321.66 195.76 323.23 195.2C324.11 217.1 312.87 233.06 297.05 241.17L296.82 240.73Z" fill="white"/>
<path d="M286.1 139.76C286.37 139.59 286.64 139.41 286.9 139.24C282.29 144.18 277.54 147.91 274.41 150.41C266.03 157.08 257.24 161.35 248.41 164.11C247.43 163.12 246.39 162.2 245.29 161.34C262.39 154.1 276 146.28 286.1 139.76Z" fill="#E37091"/>
<path d="M272.15 0.0700684C272.74 14.6101 273.33 29.1501 273.92 43.6901C272.7 29.1501 271.47 14.6101 270.25 0.0700684H272.15Z" fill="#E37091"/>
<path d="M250.03 237.84C270.98 247.15 300.03 242.46 311.95 221.52L314.35 222.52C310.19 230.62 304.53 236.79 296.82 240.73C289.03 244.71 279.16 246.4 266.64 245.5C258.27 244.89 253.79 242.88 248.81 240.41L250.03 237.84Z" fill="#E37091"/>
<path d="M325.18 192.42C330.05 195.9 323.6 215.64 321.38 220.59C311.67 242.21 291.59 251.13 268.53 250.32C260.25 250.03 241.78 245.82 236.31 239.39C231.69 233.98 239.06 232.52 239.51 231.61C239.64 231.34 240.64 226.14 240.65 225.74C240.68 223.9 238.21 221.21 237.79 217.82C236.96 211.17 241.12 207.18 246.88 204.97L247.21 204.03C247.96 188.09 244.41 173.33 231.24 168.42C231.25 168.36 231.25 168.3 231.26 168.24C238.03 168.07 244.79 167.9 251.56 167.74C257.64 175.83 260.61 186.9 260.22 199.59C267.17 200.35 267.44 206.13 274.51 203.61C284.63 200.01 281.21 187.68 293.41 183.74C306.54 179.5 311.16 184.99 321.19 191.15C322.5 191.96 324.42 191.87 325.18 192.42ZM260.65 226.62C255.49 229.25 249.52 229.96 244.06 227.8L243.56 234.33C245.6 235.66 247.77 236.83 250.03 237.84L248.81 240.41C246.21 239.12 243.47 237.7 239.96 236.3C238.64 235.77 238.09 235.3 238.63 237.16C257.04 249.53 279.78 250.04 297.05 241.17C312.87 233.06 324.11 217.1 323.23 195.2C321.66 195.76 322.15 197.26 321.94 198.42C320.25 207.67 317.82 215.76 314.35 222.52L311.95 221.52C314.74 216.62 320.05 200.65 318.81 195.48C318.14 192.71 309.5 187.98 306.68 187.15C295.43 183.84 286.89 189.85 284.93 201.11C284.18 205.41 283.93 206.49 287.04 209.92C287.81 210.78 289.31 210.84 289.53 211.09C290.1 211.73 290 212.64 290.18 213.44C284.85 215.23 281.28 210.17 280.78 205.36L270.9 208.98C271.61 212.51 272.09 217.42 267.61 218.32C264.21 216.51 268.19 213.24 267.44 210.01C266.83 207.42 263.23 203.8 260.3 204.57C261.07 212.88 259.86 221.01 249.53 216.19C247.28 215.56 248.03 208.71 245.75 209.81C240.37 212.41 240.8 219.15 244.66 223.05C249.28 227.72 258.07 222.43 259.81 224.09L260.65 226.62Z" fill="#E37091"/>
<path d="M251.56 167.74C244.79 167.9 238.03 168.07 231.26 168.24C231.28 168.1 231.29 167.97 231.3 167.83C236.95 167.07 242.69 165.91 248.41 164.11C249.54 165.24 250.59 166.45 251.56 167.74Z" fill="#E37091"/>
<path d="M244.57 59.08C249.2 59.03 252.96 59.05 256.21 59.26C254.68 75.32 241.15 87.89 224.68 87.89C208.21 87.89 194.66 75.3 193.15 59.21C194.31 59.23 195.49 59.26 196.7 59.28C199.54 59.33 202.25 59.36 204.84 59.39C206.36 68.97 214.66 76.3 224.68 76.3C234.7 76.3 243.18 68.82 244.57 59.08Z" fill="white"/>
<path d="M245.75 209.81C248.03 208.71 247.28 215.56 249.53 216.19C259.86 221.01 261.07 212.88 260.3 204.57C263.23 203.8 266.83 207.42 267.44 210.01C268.19 213.24 264.21 216.51 267.61 218.32C272.09 217.42 271.61 212.51 270.9 208.98L280.78 205.36C281.28 210.17 284.85 215.23 290.18 213.44C290 212.64 290.1 211.73 289.53 211.09C289.31 210.84 287.81 210.78 287.04 209.92C283.93 206.49 284.18 205.41 284.93 201.11C286.89 189.85 295.43 183.84 306.68 187.15C309.5 187.98 318.14 192.71 318.81 195.48C320.05 200.65 314.74 216.62 311.95 221.52C300.03 242.46 270.98 247.15 250.03 237.84C247.77 236.83 245.6 235.66 243.56 234.33L244.06 227.8C249.52 229.96 255.49 229.25 260.65 226.62L259.81 224.09C258.07 222.43 249.28 227.72 244.66 223.05C240.8 219.15 240.37 212.41 245.75 209.81Z" fill="white"/>
<path d="M245.29 161.34C246.39 162.2 247.43 163.12 248.41 164.11C242.69 165.91 236.95 167.07 231.3 167.83C231.34 167.49 231.37 167.15 231.39 166.8C236.25 165.04 240.89 163.21 245.29 161.34Z" fill="#E37091"/>
<path d="M256.21 59.2601C252.96 59.0501 249.2 59.0301 244.57 59.0801C244.7 58.1401 244.77 57.1901 244.77 56.2201C244.77 51.2101 242.94 46.6401 239.9 43.1201C244.05 43.1901 248.86 43.2701 253.62 43.3501C255.37 47.2801 256.35 51.6401 256.35 56.2201C256.35 57.2401 256.3 58.2601 256.21 59.2601Z" fill="white"/>
<path d="M244.77 56.22C244.77 57.19 244.7 58.14 244.57 59.08C235.54 59.18 223.19 59.57 204.84 59.39C204.68 58.36 204.59 57.3 204.59 56.22C204.59 53.23 205.24 50.4 206.41 47.86C207.58 48.46 208.9 48.8 210.3 48.8C214.14 48.8 217.39 46.27 218.47 42.78C221.95 42.84 225.41 42.88 228.89 42.94C230.56 42.97 234.7 43.03 239.9 43.12C242.94 46.64 244.77 51.21 244.77 56.22Z" fill="#E37091"/>
<path d="M239.96 236.3C243.47 237.7 246.21 239.12 248.81 240.41C253.79 242.88 258.27 244.89 266.64 245.5C279.16 246.4 289.03 244.71 296.82 240.73L297.05 241.17C279.78 250.04 257.04 249.53 238.63 237.16C238.09 235.3 238.64 235.77 239.96 236.3Z" fill="white"/>
<path d="M244.57 59.0801C243.18 68.8201 234.8 76.3001 224.68 76.3001C214.56 76.3001 206.36 68.9701 204.84 59.3901C223.19 59.5701 235.54 59.1801 244.57 59.0801Z" fill="#E37091"/>
<path d="M245.29 161.34C240.89 163.21 236.25 165.04 231.39 166.8C231.7 162.98 231.42 158.91 230.51 154.63C236.24 155.82 241.18 158.12 245.29 161.34Z" fill="#E37091"/>
<path d="M231.39 166.8C231.37 167.15 231.34 167.49 231.3 167.83C230.87 167.89 230.45 167.95 230.03 168C229.67 167.89 229.29 167.78 228.91 167.68C229.75 167.39 230.57 167.09 231.39 166.8Z" fill="#E37091"/>
<path d="M231.3 167.83C231.29 167.97 231.28 168.1 231.26 168.24C231.1 168.25 230.94 168.25 230.78 168.26C230.53 168.16 230.29 168.08 230.03 168C230.45 167.95 230.87 167.89 231.3 167.83Z" fill="#E37091"/>
<path d="M230.78 168.26C230.94 168.25 231.1 168.25 231.26 168.24C231.26 168.3 231.26 168.36 231.24 168.42C231.09 168.36 230.94 168.3 230.78 168.26Z" fill="#E37091"/>
<path d="M230.78 168.26L227 168.35C228.01 168.24 229.01 168.13 230.03 168C230.29 168.08 230.53 168.16 230.78 168.26Z" fill="#E37091"/>
<path d="M228.98 148.94C229.61 150.88 230.12 152.77 230.51 154.63C226.69 153.83 222.52 153.53 218.01 153.77L228.98 148.94Z" fill="#E37091"/>
<path d="M228.91 167.68C229.29 167.78 229.67 167.89 230.03 168C229.01 168.13 228.01 168.24 227 168.35C227.64 168.13 228.28 167.9 228.91 167.68Z" fill="#E37091"/>
<path d="M228.91 167.68C226.05 166.92 222.78 166.57 219.07 166.72L218.43 163.12C218.4 160.39 217.95 157.43 217.02 154.21L218.01 153.77C222.52 153.53 226.69 153.83 230.51 154.63C231.42 158.91 231.7 162.98 231.39 166.8C230.57 167.09 229.75 167.39 228.91 167.68Z" fill="#E37091"/>
<path d="M226.99 168.35C223.89 168.67 220.83 168.89 217.81 169.06C218.25 167.22 218.47 165.24 218.43 163.12L219.07 166.72C222.78 166.57 226.05 166.92 228.91 167.68C228.28 167.9 227.64 168.13 227 168.35H226.99Z" fill="#E37091"/>
<path d="M218.47 42.7799C218.72 41.9799 218.86 41.1299 218.86 40.2399C218.86 39.1599 218.66 38.1199 218.29 37.1699C220.3 36.4899 222.45 36.1299 224.68 36.1299C230.77 36.1299 236.23 38.8399 239.9 43.1199C234.7 43.0299 230.56 42.9699 228.89 42.9399C225.41 42.8799 221.95 42.8399 218.47 42.7799Z" fill="#E37091"/>
<path d="M218.86 40.2399C218.86 41.1299 218.72 41.9799 218.47 42.7799C218.25 42.7799 218.02 42.7699 217.8 42.7699C214.68 42.7199 212.13 42.6699 209.88 42.6299C212.15 40.1599 215.04 38.2599 218.29 37.1699C218.66 38.1199 218.86 39.1599 218.86 40.2399Z" fill="white"/>
<path d="M217.8 42.7699C218.02 42.7699 218.25 42.7799 218.47 42.7799C217.39 46.2699 214.14 48.7999 210.3 48.7999C208.9 48.7999 207.58 48.4599 206.41 47.8599C207.29 45.9299 208.47 44.1699 209.88 42.6299C212.13 42.6699 214.68 42.7199 217.8 42.7699Z" fill="white"/>
<path d="M218.43 163.12L216.79 153.85C217.2 153.82 217.61 153.79 218.01 153.77L217.02 154.21C217.95 157.43 218.4 160.39 218.43 163.12Z" fill="#E37091"/>
<path d="M210.3 31.6799C213.94 31.6799 217.05 33.9599 218.29 37.1699C215.04 38.2599 212.15 40.1599 209.88 42.6299C206.93 42.5799 204.51 42.5399 202.04 42.5099C201.84 41.7899 201.73 41.0299 201.73 40.2399C201.73 35.5099 205.57 31.6799 210.3 31.6799Z" fill="white"/>
<path d="M209.88 42.63C208.47 44.17 207.29 45.93 206.41 47.86C204.29 46.79 202.68 44.85 202.04 42.51C204.51 42.54 206.93 42.58 209.88 42.63Z" fill="white"/>
<path d="M206.41 47.8599C205.24 50.3999 204.59 53.2299 204.59 56.2199C204.59 57.2999 204.68 58.3599 204.84 59.3899C202.25 59.3599 199.54 59.3299 196.7 59.2799C195.49 59.2599 194.31 59.2299 193.15 59.2099C193.06 58.2199 193.01 57.2299 193.01 56.2199C193.01 51.2799 194.14 46.5999 196.17 42.4299C198.32 42.4499 200.19 42.4799 202.04 42.5099C202.68 44.8499 204.29 46.7899 206.41 47.8599Z" fill="white"/>
<path d="M210.3 31.68C205.57 31.68 201.73 35.5101 201.73 40.2401C201.73 41.0301 201.84 41.79 202.04 42.51C200.19 42.48 198.32 42.4501 196.17 42.43C201.29 31.85 212.13 24.55 224.68 24.55C237.23 24.55 248.69 32.27 253.62 43.35C248.86 43.27 244.05 43.19 239.9 43.12C236.23 38.84 230.77 36.1301 224.68 36.1301C222.45 36.1301 220.3 36.49 218.29 37.17C217.05 33.96 213.94 31.68 210.3 31.68Z" fill="white"/>
<path d="M217.29 263.38C215.07 268.94 194.36 267.37 189.02 266.39C165.72 262.1 152.28 244.71 147.58 222.12C145.89 214.01 145.6 195.07 150.53 188.23C154.7 182.45 157.86 189.27 158.85 189.49C159.15 189.55 164.44 189.28 164.83 189.2C166.63 188.79 168.65 185.75 171.84 184.54C178.1 182.15 182.96 185.24 186.48 190.31L187.47 190.41C202.13 187.54 214.88 181.28 217.81 169.06C220.83 168.89 223.89 168.67 226.99 168.35H227L230.78 168.26C230.94 168.3 231.09 168.36 231.24 168.42C229.16 185.68 215.18 197.68 194.88 201.99C195.79 208.92 190.25 210.56 194.38 216.83C200.28 225.8 211.44 219.54 218.17 230.46C225.41 242.2 221.17 248 217.58 259.21C217.11 260.67 217.64 262.51 217.29 263.38ZM152.99 198.56C153.49 196.31 154.01 193.89 154.41 191.04C154.61 189.63 154.94 188.98 153.26 189.95C145.58 210.89 150.59 233.23 163.47 247.89C175.1 261.18 193.19 268.18 214.13 262.15C213.21 260.76 211.87 261.59 210.69 261.66C201.83 262.19 193.82 261.83 186.75 260.3L187.29 257.8C193.78 259.18 208.44 260.18 212.8 257.92C215.34 256.61 217.87 247.1 218.01 244.17C218.55 232.44 210.69 225.59 199.28 226.35C194.93 226.64 193.82 226.66 191.22 230.5C190.58 231.45 190.87 232.92 190.68 233.19C190.2 233.9 189.28 234.02 188.55 234.38C185.54 229.63 189.61 224.96 194.16 223.34L188.3 214.6C185.04 216.13 180.39 217.76 178.45 213.62C179.4 209.89 183.52 212.98 186.47 211.48C188.85 210.27 191.5 205.92 190.07 203.25C182.17 205.98 173.99 206.73 176.22 195.56C176.3 193.22 183.13 192.32 181.51 190.36C177.71 185.76 171.26 187.78 168.4 192.45C164.96 198.05 172.19 205.33 170.99 207.41L168.73 208.83C164.95 204.44 162.84 198.82 163.64 193L157.18 194.06C156.62 195.66 156.15 197.31 155.76 198.98L152.99 198.56Z" fill="#E37091"/>
<path d="M178.81 58.8101C182.18 58.9301 186.08 59.0401 190.4 59.1501C189.52 75.8501 175.69 89.1301 158.77 89.1301C141.85 89.1301 127.1 74.9501 127.1 57.4601C127.1 48.9801 130.42 41.2901 135.85 35.6001L137.79 36.0401C136.56 37.5201 135.83 39.4201 135.83 41.4801C135.83 44.8101 137.73 47.6901 140.5 49.1101C139.33 51.6501 138.68 54.4801 138.68 57.4601C138.68 68.5501 147.68 77.5401 158.77 77.5401C169.86 77.5401 178.12 69.2701 178.81 58.8101Z" fill="white"/>
<path d="M178.86 57.4599C178.86 51.8999 176.6 46.8699 172.96 43.2299C173.66 42.0699 175.93 42.2999 177.42 42.4099C180.44 42.6199 183.48 42.2299 186.5 42.3699H186.63C189.06 46.8499 190.44 51.9999 190.44 57.4599C190.44 58.0299 190.44 58.59 190.4 59.15C186.08 59.0399 182.18 58.93 178.81 58.8099C178.84 58.3699 178.86 57.9199 178.86 57.4599Z" fill="white"/>
<path d="M168.4 192.45C171.26 187.78 177.71 185.76 181.51 190.36C183.13 192.32 176.3 193.22 176.22 195.56C173.99 206.73 182.17 205.98 190.07 203.25C191.5 205.92 188.85 210.27 186.47 211.48C183.52 212.98 179.4 209.89 178.45 213.62C180.39 217.76 185.04 216.13 188.3 214.6L194.16 223.34C189.61 224.96 185.54 229.63 188.55 234.38C189.28 234.02 190.2 233.9 190.68 233.19C190.87 232.92 190.58 231.45 191.22 230.5C193.82 226.66 194.93 226.64 199.28 226.35C210.69 225.59 218.55 232.44 218.01 244.17C217.87 247.1 215.34 256.61 212.8 257.92C208.44 260.18 193.78 259.18 187.29 257.8C186.76 257.68 186.29 257.57 185.88 257.45C161.95 250.64 150.51 221.95 155.76 198.98C156.15 197.31 156.62 195.66 157.18 194.06L163.64 193C162.84 198.82 164.95 204.44 168.73 208.83L170.99 207.41C172.19 205.33 164.96 198.05 168.4 192.45Z" fill="white"/>
<path d="M172.96 43.23C176.6 46.87 178.86 51.9 178.86 57.46C178.86 57.92 178.84 58.37 178.81 58.81C176.66 58.74 174.72 58.67 173.01 58.6C173.01 57.18 172.99 55.96 172.97 54.96C172.96 54.33 172.92 52.6 172.81 50.33C172.77 49.42 172.77 49.56 172.76 49.17C172.73 48.51 172.72 47.74 172.81 44.85C172.86 43.46 172.87 43.37 172.96 43.23Z" fill="#E37091"/>
<path d="M158.77 37.3701C164.31 37.3701 169.32 39.6101 172.96 43.2301C172.87 43.3701 172.86 43.4601 172.81 44.8501C172.72 47.7401 172.73 48.5101 172.76 49.1701C172.77 49.5601 172.77 49.4201 172.81 50.3301C172.92 52.6001 172.96 54.3301 172.97 54.9601C172.99 55.9601 173.01 57.1801 173.01 58.6001C174.72 58.6701 176.66 58.7401 178.81 58.8101C178.12 69.2701 169.41 77.5401 158.77 77.5401C148.13 77.5401 138.68 68.5501 138.68 57.4601C138.68 54.4801 139.33 51.6501 140.5 49.1101C141.66 49.7001 142.99 50.0401 144.39 50.0401C149.12 50.0401 152.95 46.2101 152.95 41.4801C152.95 40.4001 152.75 39.3601 152.38 38.4101C154.38 37.7401 156.53 37.3701 158.77 37.3701Z" fill="#E37091"/>
<path d="M163.84 247.57C169.74 254.28 177.43 258.31 186.75 260.3C193.82 261.83 201.83 262.19 210.69 261.66C211.87 261.59 213.21 260.76 214.13 262.15C193.19 268.18 175.1 261.18 163.47 247.89L163.84 247.57Z" fill="white"/>
<path d="M155.76 198.98C150.51 221.95 161.95 250.64 185.88 257.45C186.29 257.57 186.76 257.68 187.29 257.8L186.75 260.3C177.43 258.31 169.74 254.28 163.84 247.57C158.01 240.93 153.94 231.67 151.82 219.14C150.24 209.83 151.56 204.88 152.99 198.56L155.76 198.98Z" fill="#E37091"/>
<path d="M152.38 38.4099C152.75 39.3599 152.95 40.3999 152.95 41.4799C152.95 46.2099 149.12 50.0399 144.39 50.0399C142.99 50.0399 141.66 49.6999 140.5 49.1099C142.79 44.0899 147.1 40.1799 152.38 38.4099Z" fill="white"/>
<path d="M152.99 198.56C151.56 204.88 150.24 209.83 151.82 219.14C153.94 231.67 158.01 240.93 163.84 247.57L163.47 247.89C150.59 233.23 145.58 210.89 153.26 189.95C154.94 188.98 154.61 189.63 154.41 191.04C154.01 193.89 153.49 196.31 152.99 198.56Z" fill="white"/>
<path d="M144.39 32.9199C148.04 32.9199 151.15 35.1999 152.38 38.4099C147.1 40.1799 142.79 44.0899 140.5 49.1099C137.73 47.6899 135.83 44.8099 135.83 41.4799C135.83 39.4199 136.56 37.5199 137.79 36.0399C139.35 34.1299 141.73 32.9199 144.39 32.9199Z" fill="white"/>
<path d="M186.5 42.37C183.48 42.23 180.44 42.62 177.42 42.41C175.93 42.3 173.66 42.07 172.96 43.23C169.32 39.61 164.31 37.37 158.77 37.37C156.53 37.37 154.38 37.74 152.38 38.41C151.15 35.2 148.04 32.92 144.39 32.92C141.73 32.92 139.35 34.13 137.79 36.04L135.85 35.6C141.61 29.55 149.75 25.78 158.77 25.78C170.8 25.78 181.26 32.49 186.63 42.37H186.5Z" fill="white"/>
<path d="M137.4 97.7L134.4 108.87L100.6 99.78C100.36 98.29 100.2 97.07 100.09 96.17C99.84 94.07 99.56 91.12 99.48 87.51L137.4 97.7Z" fill="#E37091"/>
<path d="M11.96 95.26C3.76001 92.8 3.87001 85.78 11.89 85.11C14.09 84.93 32.95 87.05 33.68 87.87L34.46 92.44C35.18 93 36.83 92.7 37.15 92.06C37.41 91.52 36.21 82.72 36.66 79.96C37.06 77.51 38.09 74 38.91 71.61C39.76 69.13 43.74 65.55 38.98 65.58L36.17 70.43C30.75 67.65 12.9 63.9 10.67 58.36C8.55001 53.11 16.06 51.48 19.92 51.97C25.86 52.71 48.06 63.17 52.56 67.26C56.99 71.28 58.1 85.83 67.97 83.14C69.2 79.7 66.05 80.75 64.52 79.84C58.58 76.34 59.36 69.92 55.44 65.6C52.68 62.55 43.86 60.44 43.87 56.3C43.89 49.22 56.36 54.49 59.84 55.99C69.3 60.05 76.07 64.94 77.08 72.84C77.52 76.19 76.92 80.08 75.05 84.68L77.26 84.94L80.51 75.76C87.71 75.36 84.39 87.56 82.92 91.69C81.58 95.42 78.84 101.22 74.27 98.69L75.41 91.84L73.36 90.96C69.26 109.32 51.34 103.48 38.27 100.27C36.86 99.93 35.76 98.86 34.37 98.51C28.3 97.02 20.61 97.12 14.46 95.87C13.59 95.7 12.76 95.5 11.96 95.26Z" fill="white"/>
<path d="M59.84 55.9901C56.36 54.4901 43.89 49.2201 43.87 56.3001C43.86 60.4401 52.68 62.5501 55.44 65.6001C59.36 69.9201 58.58 76.3401 64.52 79.8401C66.05 80.7501 69.2 79.7001 67.97 83.1401C58.1 85.8301 56.99 71.2801 52.56 67.2601C48.06 63.1701 25.86 52.7101 19.92 51.9701L20.3 49.0801C27.33 50.0301 34.42 54.1401 40.65 56.7201C41.98 45.0001 55.69 50.6501 62.57 53.8301C69.29 56.9401 80.96 64.0501 79.82 72.5001L77.08 72.8401C76.07 64.9401 69.3 60.0501 59.84 55.9901Z" fill="#E37091"/>
<path d="M11.89 85.11C3.87001 85.78 3.76001 92.8 11.96 95.26C12.76 95.5 13.59 95.7 14.46 95.87L13.85 98.58C6.91001 97.13 0.90001 94.25 3.22001 87.54C4.16001 84.81 6.42001 84.45 7.59001 82.27C3.43001 80.84 1.02001 77.9 0.26001 74.76L2.96001 74.3C5.02001 82.21 27.06 82.5 33.15 84.64C33.07 83.64 33.48 81.61 33.83 79.5L36.66 79.96C36.21 82.72 37.41 91.52 37.15 92.06C36.83 92.7 35.18 93 34.46 92.44L33.68 87.87C32.95 87.05 14.09 84.93 11.89 85.11Z" fill="#E37091"/>
<path d="M26.95 70.2201C28.28 70.6801 32.77 72.3501 33.59 72.8901C34.69 73.6101 34.31 76.6201 33.83 79.5001C33.48 81.6101 33.07 83.6401 33.15 84.6401C27.06 82.5001 5.02 82.2101 2.96 74.3001C2.85 73.8701 2.8 73.4101 2.81 72.9301C3.12 62.2401 21.06 68.2001 26.95 70.2201Z" fill="white"/>
<path d="M14.46 95.8701C20.61 97.1201 28.3 97.0201 34.37 98.5101C35.76 98.8601 36.86 99.9301 38.27 100.27C51.34 103.48 69.26 109.32 73.36 90.9601L75.41 91.8401L74.27 98.6901C78.84 101.22 81.58 95.4201 82.92 91.6901C84.39 87.5601 87.71 75.3601 80.51 75.7601L77.26 84.9401L75.05 84.6801C76.92 80.0801 77.52 76.1901 77.08 72.8401L79.82 72.5001C86.99 71.9401 88.99 78.4001 87.85 84.3801L99.48 87.5101C99.56 91.1201 99.84 94.0701 100.09 96.1701C100.2 97.0701 100.36 98.2901 100.6 99.7801L85.2 95.6401C82.8 97.6101 82.48 100.5 79.37 101.9C75.36 103.7 73.54 101.18 72.05 101.43C71.38 101.54 66.9 104.81 64.91 105.48C51.84 109.87 41.02 103.15 28.49 100.61C25.54 100.01 19.4 99.7501 13.85 98.5801L14.46 95.8701Z" fill="#E37091"/>
<path d="M26.95 70.22C21.06 68.2 3.12001 62.24 2.81001 72.93C2.80001 73.41 2.85001 73.87 2.96001 74.3L0.260013 74.76C-1.02999 69.39 2.50001 63.46 10.38 63.54C9.82001 61.87 8.13001 60.99 7.53001 59.01C5.84001 53.51 10.7 49.4 15.82 48.95C17.31 48.82 18.8 48.88 20.3 49.08L19.92 51.97C16.06 51.48 8.55001 53.11 10.67 58.36C12.9 63.9 30.75 67.65 36.17 70.43L38.98 65.58C43.74 65.55 39.76 69.13 38.91 71.61C38.09 74 37.06 77.51 36.66 79.96L33.83 79.5C34.31 76.62 34.69 73.61 33.59 72.89C32.77 72.35 28.28 70.68 26.95 70.22Z" fill="#E37091"/>
</g>
<defs>
<clipPath id="clip0_62_491">
<rect width="498.46" height="267.37" fill="white"/>
</clipPath>
</defs>
</svg>
