<svg width="497" height="259" viewBox="0 0 497 259" fill="none" xmlns="http://www.w3.org/2000/svg">
<g clip-path="url(#clip0_62_490)">
<path d="M493.59 59.3399C491.77 67.6199 469 66.1199 462.65 67.8099C462.81 66.8199 462.55 64.7499 462.37 62.6199C462.11 59.7399 461.97 56.7299 463.11 56.0999C463.97 55.6299 468.56 54.3199 469.91 53.9599C475.93 52.4099 494.21 47.8599 493.7 58.5099C493.69 58.7999 493.65 59.0799 493.59 59.3399Z" fill="white"/>
<path d="M458.11 74.8901C457.88 74.3201 459.75 65.6801 459.52 62.9001L462.37 62.6201C462.55 64.7501 462.81 66.8201 462.65 67.8101C469 66.1201 491.77 67.6201 493.59 59.3401L496.27 59.9001C495.44 63.2001 492.76 66.2401 488.23 67.4201C489.23 69.6801 491.45 70.2101 492.17 73.0001C493.85 79.4201 488.53 81.9201 482.08 82.9601L481.63 80.2401C482.06 80.1701 482.48 80.0901 482.89 80.0001C491.23 78.1901 491.66 71.2001 483.74 69.9201C481.57 69.5701 462.66 70.2301 461.87 70.9901L460.74 75.4701C459.99 75.9701 458.37 75.5501 458.11 74.8901Z" fill="#E37091"/>
<path d="M420.7 78.63C415.96 80.79 413.68 74.81 412.64 71C411.5 66.79 409.13 54.4 416.26 55.35L418.78 64.73L421 64.64C419.49 59.92 419.19 56 419.88 52.71C421.51 44.94 428.61 40.6 438.32 37.29C441.89 36.07 454.69 31.78 454.17 38.83C453.86 42.94 444.93 44.36 441.95 47.18C437.73 51.18 438.01 57.62 431.84 60.64C430.25 61.42 427.19 60.14 428.16 63.66C437.75 67.09 439.98 52.71 444.69 49.05C449.46 45.35 472.18 36.72 478.23 36.36H478.3C482.18 36.17 489.52 38.37 487.01 43.43C484.37 48.76 466.34 51.11 460.74 53.47L458.32 48.43C453.58 48.03 457.27 51.9 457.93 54.42C458.56 56.86 459.31 60.43 459.52 62.9C459.75 65.68 457.88 74.32 458.11 74.89C458.37 75.55 459.99 75.97 460.74 75.47L461.87 70.99C462.66 70.23 481.57 69.57 483.74 69.92C491.66 71.2 491.23 78.19 482.89 80C482.48 80.09 482.06 80.17 481.63 80.24C475.22 81.29 466.94 80.42 460.37 81.51C458.96 81.75 457.79 82.72 456.36 82.96C443.12 85.15 424.86 89.57 422.2 71.01L420.09 71.73L420.7 78.63Z" fill="white"/>
<path d="M457.93 54.4199C457.27 51.8999 453.58 48.0299 458.32 48.4299L460.74 53.4699C466.34 51.1099 484.37 48.7599 487.01 43.4299C489.52 38.3699 482.18 36.1699 478.3 36.3599H478.23L478.03 33.4599C479.58 33.3699 481.11 33.4299 482.61 33.6799C487.66 34.5199 492.18 38.9799 490.08 44.3099C489.33 46.2299 487.59 46.9799 486.9 48.5999C494.43 49.0999 497.54 54.8099 496.27 59.8999L493.59 59.3399C493.65 59.0799 493.69 58.7999 493.7 58.5099C494.21 47.8599 475.93 52.4099 469.91 53.9599C468.56 54.3199 463.97 55.6299 463.11 56.0999C461.97 56.7299 462.11 59.7399 462.37 62.6199L459.52 62.8999C459.31 60.4299 458.56 56.8599 457.93 54.4199Z" fill="#E37091"/>
<path d="M438.32 37.2899C428.61 40.5999 421.51 44.9399 419.88 52.7099L417.19 52.1699C416.71 43.6799 428.85 37.5099 435.77 34.9299C442.85 32.2999 456.92 27.7399 457.34 39.4899C463.69 37.4199 471.01 33.8999 478.03 33.4599L478.23 36.3599C472.18 36.7199 449.46 45.3499 444.69 49.0499C439.98 52.7099 437.75 67.0899 428.16 63.6599C427.19 60.1399 430.25 61.4199 431.84 60.6399C438.01 57.6199 437.73 51.1799 441.95 47.1799C444.93 44.3599 453.86 42.9399 454.17 38.8299C454.69 31.7799 441.89 36.0699 438.32 37.2899Z" fill="#E37091"/>
<path d="M422.2 71.0099C424.86 89.5699 443.12 85.1499 456.36 82.9599C457.79 82.7199 458.96 81.7499 460.37 81.5099C466.94 80.4199 475.22 81.2899 481.63 80.2399L482.08 82.9599C476.15 83.9299 469.27 83.6499 466.05 84.0499C453.4 85.6099 442.13 91.4599 429.48 86.0899C427.55 85.2699 423.36 81.6799 422.69 81.5099C421.24 81.1599 419.23 83.5199 415.39 81.4199C412.4 79.7899 412.3 76.8899 410.08 74.7499L394.12 77.7399C396.28 73.8199 398.43 69.5399 400.51 64.8199L408.3 63.3599C407.63 57.3299 410.11 51.0599 417.19 52.1699L419.88 52.7099C419.19 55.9999 419.49 59.9199 421 64.6399L418.78 64.7299L416.26 55.3499C409.13 54.3999 411.5 66.7899 412.64 70.9999C413.68 74.8099 415.96 80.7899 420.7 78.6299L420.09 71.7299L422.2 71.0099Z" fill="#E37091"/>
<path d="M410.11 17.0501C415.49 27.5601 410.86 39.1801 402.9 59.1401C402.12 61.1001 401.32 63.0001 400.51 64.8201L358.03 72.7901L360.16 84.1201L394.12 77.7401C389.87 85.5001 385.59 91.9001 381.74 97.6201C369.32 116.04 358.31 127.53 347.81 138.39C333.13 153.58 326.6 157.67 320.33 160.44C310.31 164.85 301 165.85 294.68 165.98C291.74 166.05 288.79 166.13 285.85 166.2C269.42 166.61 253 167.01 236.57 167.42C236.19 166.75 235.8 166.1 235.4 165.46C246.48 162.89 257.66 158.31 268.19 149.93C271.32 147.44 276.06 143.7 280.68 138.77C295.1 129.44 308.44 120.51 321.13 104.44C335.56 86.1601 351.05 56.2301 342.12 46.5401C340.02 44.2601 337.19 43.4401 335.22 43.4501C312.71 43.4801 290.21 43.5101 267.7 43.5401C267.12 29.0501 266.53 14.5601 265.94 0.0600586H375.64C379.72 0.310059 402.39 1.98006 410.11 17.0501Z" fill="#E37091"/>
<path d="M358.03 72.7901L400.51 64.8201C398.43 69.5401 396.28 73.8201 394.12 77.7401L360.16 84.1201L358.03 72.7901Z" fill="#E37091"/>
<path d="M265.82 63.2601C280.67 71.0001 294.83 88.2601 294.68 107.53C294.58 120.71 287.78 131.17 280.68 138.77L279.84 139.31C268.74 146.49 253.39 155.22 233.8 163.03C231.57 159.88 229.07 157.26 226.28 155.5C212.92 147.05 194.96 151.85 180.32 153.24V166.28L180.26 169.19C171.1 169.02 161.95 168.25 153.03 166.03C154.82 155.57 151.68 144.45 142.47 133.88L133.55 143.38C138.78 149.84 140.72 155.98 140.28 161.72C134.54 159.2 128.93 155.86 123.52 151.45C107.98 138.79 100.74 122.31 97.33 110.27L133.28 95.0501L128.79 84.4301L94.84 98.8101C94.65 97.6101 94.52 96.6201 94.43 95.8601C93.52 88.3301 92.28 69.7901 101.52 49.3801C104.32 43.1801 110.99 28.9001 126.21 17.6601C139.19 8.06009 151.7 5.63009 166.26 2.79009C177.79 0.540088 186.03 0.220088 215.51 0.0600885C230.01 -0.00991154 246.96 -0.0399115 265.94 0.0600885H264.05C265.27 14.5601 266.48 29.0501 267.7 43.5401C263.66 43.4701 255.66 43.3401 247.48 43.2101C242.56 32.1601 231.49 24.4601 218.62 24.4601C205.75 24.4601 195.3 31.7401 190.19 42.2901H190.12C180.37 42.1801 181.61 42.2801 180.69 42.2301C175.34 32.3801 164.91 25.7001 152.92 25.7001C143.93 25.7001 135.82 29.4601 130.06 35.4801C124.66 41.1501 121.35 48.8201 121.35 57.2701C121.35 74.7001 135.48 88.8401 152.92 88.8401C170.36 88.8401 183.57 75.6101 184.45 58.9601C185.35 58.9801 186.26 59.0001 187.19 59.0201C188.69 75.0601 202.19 87.6101 218.62 87.6101C235.05 87.6101 248.52 75.0801 250.05 59.0701C256.34 59.4801 260.72 60.6001 265.82 63.2601ZM239.64 123.66C245.95 112.28 247.73 95.3201 241.92 92.0601C235.8 88.6201 227.92 104.1 204.99 109.95C200.01 111.22 189.37 113.94 176.82 111.09C160.55 107.41 153.87 97.2801 148.65 100.43C143.88 103.31 144.9 114.47 147.5 121.59C153.07 136.82 169.23 142.54 173.62 144.09C183.46 147.58 192.06 147.03 197.7 146.67C202.8 146.35 209.89 145.89 218.05 142.26C221.81 140.59 233 135.61 239.64 123.66Z" fill="#E37091"/>
<path d="M295.86 242.37C292.37 241.49 271.11 224.82 270.91 222.32C279.2 210.14 272 187.46 283.27 177.58C294.27 167.93 308.86 178.3 312.62 189.93C316.73 202.64 310.82 224.24 303.71 235.37C302.03 237.99 299.28 243.23 295.86 242.37Z" fill="white"/>
<path d="M279.84 139.31L280.68 138.77C276.06 143.7 271.32 147.44 268.19 149.93C257.66 158.31 246.48 162.89 235.4 165.46C234.89 164.62 234.35 163.81 233.8 163.03C253.39 155.22 268.74 146.49 279.84 139.31Z" fill="#E37091"/>
<path d="M293.26 246.63C285.18 253.98 264.28 256.63 258.89 245.38C254.15 235.47 261.46 230.58 268.5 225.39C269.47 225.38 272.65 230.25 273.58 231.13C277.23 234.6 282.26 238.39 286.39 241.35C287.79 242.35 293.69 244.82 293.26 246.63Z" fill="white"/>
<path d="M265.94 0.0600586C266.53 14.5601 267.12 29.0501 267.7 43.5401C266.48 29.0501 265.27 14.5601 264.05 0.0600586H265.94Z" fill="#E37091"/>
<path d="M253.7 237.49C253.11 239.24 254.02 242.32 252.44 242.72C247.67 228.17 266 224.6 269.21 213.03C272.1 202.62 269.01 191.43 273.72 181.05C275.77 176.52 280.26 171.86 285.44 171.5L278.8 176.14C269.54 185.51 272.81 198.56 271.54 210.15C270.24 222.14 257.8 225.5 253.7 237.49Z" fill="white"/>
<path d="M253.27 226.63C251.25 228.67 250.71 232.23 247.19 231.09C239.26 228.54 246.71 212.33 250.33 208.05C252.32 205.71 254.08 204.03 257.27 206.2L256.78 212.32L260.72 211.49C264.6 201.13 264.02 188.1 270.66 179.31C266.77 187.5 267.99 196.37 267.18 204.92C266 217.47 261.17 218.68 253.27 226.63Z" fill="white"/>
<path d="M270.91 222.32C271.11 224.82 292.37 241.49 295.86 242.37C299.28 243.23 302.03 237.99 303.71 235.37C310.82 224.24 316.73 202.64 312.62 189.93C308.86 178.3 294.27 167.93 283.27 177.58C272 187.46 279.2 210.14 270.91 222.32ZM258.89 245.38C264.28 256.63 285.18 253.98 293.26 246.63C293.69 244.82 287.79 242.35 286.39 241.35C282.26 238.39 277.23 234.6 273.58 231.13C272.65 230.25 269.47 225.38 268.5 225.39C261.46 230.58 254.15 235.47 258.89 245.38ZM252.44 242.72C254.02 242.32 253.11 239.24 253.7 237.49C257.8 225.5 270.24 222.14 271.54 210.15C272.81 198.56 269.54 185.51 278.8 176.14L285.44 171.5C280.26 171.86 275.77 176.52 273.72 181.05C269.01 191.43 272.1 202.62 269.21 213.03C266 224.6 247.67 228.17 252.44 242.72ZM247.19 231.09C250.71 232.23 251.25 228.67 253.27 226.63C261.17 218.68 266 217.47 267.18 204.92C267.99 196.37 266.77 187.5 270.66 179.31C264.02 188.1 264.6 201.13 260.72 211.49L256.78 212.32L257.27 206.2C254.08 204.03 252.32 205.71 250.33 208.05C246.71 212.33 239.26 228.54 247.19 231.09ZM220.99 167.81C226.18 167.68 231.38 167.55 236.57 167.42C242.83 178.46 246.8 193.36 249.83 202.77L259.81 201.91C262.89 188.18 264.34 171.53 280.75 168.1C282.4 167.75 284.12 167.59 285.88 167.59C299.56 167.59 315.24 177.71 317.38 191.25C321.77 219.07 302.15 264.19 268.07 256.19C257.17 253.63 251.29 250.83 248.29 239.47C247.93 238.11 248.43 235.86 247.94 235.05C247.45 234.24 242.52 234.17 240.95 229.45C239.25 224.31 241.28 221.57 240.95 217.35C240.43 210.46 230.33 183.58 226.78 176.71C224.73 172.75 222.84 169.89 220.46 167.86C220.61 167.86 220.76 167.83 220.91 167.81H220.98H220.99Z" fill="#E37091"/>
<path d="M238.43 58.8901C243.05 58.8301 246.81 58.8601 250.05 59.0701C248.52 75.0801 235.03 87.6101 218.62 87.6101C202.21 87.6101 188.69 75.0601 187.19 59.0201C188.34 59.0401 189.52 59.0701 190.72 59.0901C193.55 59.1401 196.26 59.1801 198.84 59.2001C200.36 68.7501 208.64 76.0601 218.62 76.0601C228.6 76.0601 237.05 68.6001 238.43 58.8901Z" fill="white"/>
<path d="M238.64 56.03C238.64 51.04 236.82 46.49 233.8 42.98C237.94 43.05 242.74 43.13 247.48 43.21C249.22 47.13 250.19 51.47 250.19 56.03C250.19 57.06 250.14 58.07 250.05 59.07C246.81 58.86 243.05 58.83 238.43 58.89C238.57 57.96 238.64 57 238.64 56.03Z" fill="white"/>
<path d="M238.64 56.0299C238.64 56.9999 238.57 57.9599 238.43 58.8899C229.43 58.9899 217.12 59.3799 198.84 59.1999C198.68 58.1699 198.59 57.1099 198.59 56.0299C198.59 53.0599 199.24 50.2399 200.4 47.7099C201.56 48.2999 202.88 48.6399 204.28 48.6399C208.11 48.6399 211.36 46.1099 212.44 42.6299C215.9 42.6999 219.36 42.7399 222.81 42.7999C224.47 42.8299 228.61 42.8899 233.8 42.9799C236.82 46.4899 238.64 51.0399 238.64 56.0299Z" fill="#E37091"/>
<path d="M236.57 167.42C231.38 167.55 226.18 167.68 220.99 167.81C225.73 167.31 230.56 166.57 235.4 165.46C235.8 166.1 236.19 166.75 236.57 167.42Z" fill="#E37091"/>
<path d="M235.4 165.46C230.56 166.57 225.73 167.31 220.99 167.81H220.92C225.4 166.27 229.69 164.68 233.8 163.03C234.35 163.81 234.89 164.62 235.4 165.46Z" fill="#E37091"/>
<path d="M238.43 58.8899C237.05 68.5999 228.71 76.0599 218.62 76.0599C208.53 76.0599 200.36 68.7499 198.84 59.1999C217.12 59.3799 229.43 58.9899 238.43 58.8899Z" fill="#E37091"/>
<path d="M220.47 167.86C217.42 165.28 213.59 164.06 207.65 163.66L180.32 166.28V153.24C194.96 151.85 212.92 147.05 226.28 155.5C229.07 157.26 231.57 159.88 233.8 163.03C229.69 164.68 225.4 166.27 220.92 167.81C220.77 167.83 220.62 167.85 220.47 167.86Z" fill="#E37091"/>
<path d="M207.65 163.66C213.59 164.06 217.42 165.28 220.47 167.86C213.26 168.59 206.25 168.78 199.66 168.96C193.23 169.14 186.74 169.31 180.26 169.19L180.32 166.28L207.65 163.66Z" fill="#E37091"/>
<path d="M212.44 42.63C212.69 41.84 212.82 40.99 212.82 40.11C212.82 39.03 212.62 38 212.25 37.05C214.25 36.37 216.39 36.01 218.62 36.01C224.69 36.01 230.13 38.71 233.8 42.98C228.61 42.89 224.47 42.83 222.81 42.8C219.36 42.74 215.9 42.7 212.44 42.63Z" fill="#E37091"/>
<path d="M212.82 40.1101C212.82 40.9901 212.69 41.8401 212.44 42.6301C212.21 42.6301 211.99 42.62 211.76 42.62C208.66 42.57 206.12 42.5301 203.88 42.4901C206.13 40.0201 209.01 38.13 212.25 37.05C212.62 38 212.82 39.0301 212.82 40.1101Z" fill="white"/>
<path d="M211.76 42.62C211.99 42.62 212.21 42.63 212.44 42.63C211.36 46.11 208.11 48.64 204.28 48.64C202.88 48.64 201.56 48.3 200.4 47.71C201.28 45.78 202.45 44.02 203.88 42.49C206.12 42.53 208.66 42.57 211.76 42.62Z" fill="white"/>
<path d="M204.28 31.5801C207.91 31.5801 211.02 33.8501 212.25 37.0501C209.01 38.1301 206.13 40.0201 203.88 42.4901C200.93 42.4401 198.51 42.4001 196.05 42.3701C195.86 41.6501 195.75 40.8901 195.75 40.1101C195.75 35.4001 199.57 31.5801 204.28 31.5801Z" fill="white"/>
<path d="M203.88 42.4901C202.45 44.0201 201.28 45.7801 200.4 47.7101C198.29 46.6301 196.69 44.7001 196.05 42.3701C198.51 42.4001 200.93 42.4401 203.88 42.4901Z" fill="white"/>
<path d="M200.4 47.71C199.24 50.24 198.59 53.06 198.59 56.03C198.59 57.11 198.68 58.17 198.84 59.2C196.26 59.18 193.55 59.14 190.72 59.09C189.52 59.07 188.34 59.04 187.19 59.02C187.1 58.04 187.05 57.04 187.05 56.03C187.05 51.11 188.18 46.44 190.19 42.29C192.33 42.31 194.2 42.34 196.05 42.37C196.69 44.7 198.29 46.63 200.4 47.71Z" fill="white"/>
<path d="M204.28 31.58C199.57 31.58 195.75 35.4 195.75 40.11C195.75 40.89 195.86 41.65 196.05 42.37C194.2 42.34 192.33 42.31 190.19 42.29C195.3 31.74 206.11 24.46 218.62 24.46C231.13 24.46 242.56 32.16 247.48 43.21C242.74 43.13 237.94 43.05 233.8 42.98C230.13 38.71 224.69 36.01 218.62 36.01C216.39 36.01 214.25 36.37 212.25 37.05C211.02 33.85 207.91 31.58 204.28 31.58Z" fill="white"/>
<path d="M184.49 57.27C184.49 57.84 184.47 58.4 184.45 58.96C180.14 58.85 176.25 58.74 172.89 58.62C172.92 58.17 172.94 57.72 172.94 57.27C172.94 51.73 170.69 46.71 167.06 43.09C167.76 41.93 170.03 42.16 171.51 42.26C174.52 42.48 177.55 42.09 180.56 42.23H180.69C183.11 46.7 184.49 51.82 184.49 57.27Z" fill="white"/>
<path d="M172.89 58.62C176.25 58.74 180.14 58.85 184.45 58.96C183.57 75.61 169.79 88.84 152.92 88.84C136.05 88.84 121.35 74.7 121.35 57.27C121.35 48.82 124.66 41.15 130.06 35.48L132 35.91C130.79 37.39 130.05 39.28 130.05 41.34C130.05 44.66 131.94 47.54 134.71 48.95C133.55 51.48 132.9 54.3 132.9 57.27C132.9 68.33 141.86 77.29 152.92 77.29C163.98 77.29 172.2 69.05 172.89 58.62Z" fill="white"/>
<path d="M167.06 43.0901C170.69 46.7101 172.94 51.7301 172.94 57.2701C172.94 57.7201 172.92 58.1701 172.89 58.6201C170.74 58.5501 168.81 58.4801 167.11 58.4101C167.11 57.0001 167.09 55.7701 167.07 54.7801C167.07 54.1601 167.02 52.4301 166.92 50.1601C166.87 49.2601 166.87 49.3901 166.86 49.0101C166.84 48.3501 166.82 47.5801 166.92 44.7001C166.96 43.3401 166.97 43.2301 167.06 43.0901Z" fill="#E37091"/>
<path d="M152.92 37.24C158.44 37.24 163.44 39.47 167.06 43.09C166.97 43.23 166.96 43.34 166.92 44.7C166.82 47.58 166.84 48.35 166.86 49.01C166.86 49.39 166.86 49.26 166.92 50.16C167.02 52.43 167.06 54.16 167.07 54.78C167.09 55.77 167.11 57 167.11 58.41C168.81 58.48 170.74 58.55 172.89 58.62C172.2 69.05 163.53 77.29 152.92 77.29C142.31 77.29 132.9 68.33 132.9 57.27C132.9 54.3 133.55 51.48 134.71 48.95C135.87 49.54 137.19 49.88 138.58 49.88C143.3 49.88 147.12 46.06 147.12 41.34C147.12 40.26 146.92 39.23 146.55 38.28C148.55 37.6 150.69 37.24 152.92 37.24Z" fill="#E37091"/>
<path d="M176.36 243.44C176.48 249.41 156.87 256.04 151.59 257.22C128.54 262.37 109.43 251.66 96.31 232.76C91.6 225.98 83.95 208.72 85.81 200.51C87.38 193.59 92.94 198.61 93.93 198.43C94.23 198.37 98.98 196.06 99.3 195.83C100.8 194.76 101.47 191.18 103.92 188.82C108.73 184.19 114.4 185.13 119.6 188.41L120.55 188.11C131.18 180.92 139.52 171.97 140.28 161.72C144.46 163.56 148.72 164.97 153.03 166.03C151.12 177.2 143.61 187.63 131.86 195.85C135.4 201.86 130.95 205.52 137.18 209.66C146.1 215.59 153.89 205.5 164.33 212.89C175.55 220.84 173.92 227.81 174.99 239.5C175.13 241.03 176.34 242.5 176.36 243.44ZM92.12 209.24C91.7 206.92 91.22 204.44 90.46 201.58C90.1 200.21 90.14 199.49 88.98 201.03C90.11 223.64 103.88 242.44 121.88 250.66C137.56 257.84 156.45 256.96 172.97 243.55C171.59 242.62 170.69 243.91 169.63 244.43C162.14 248.15 155.03 250.86 148.29 252.29L147.76 249.78C154.59 248.25 167.14 243.75 170.11 240.18C171.92 237.99 170.54 228.27 169.52 225.53C165.45 214.56 155.56 211.34 145.39 216.49C141.52 218.45 140.5 218.9 139.62 223.43C139.4 224.56 140.24 225.79 140.17 226.12C140 226.96 139.21 227.42 138.68 228.04C134.07 224.85 135.98 218.98 139.52 215.72L130.74 209.98C128.34 212.66 124.71 215.97 121.32 212.93C120.74 209.14 125.72 210.37 127.85 207.83C129.55 205.8 130.29 200.77 127.93 198.88C121.76 204.46 114.54 208.35 112.23 197.23C111.39 195.05 117.31 191.56 115.06 190.4C109.78 187.66 104.66 192.02 103.84 197.43C102.87 203.9 112.34 207.76 112.06 210.14L110.54 212.33C105.35 209.77 101.23 205.43 99.69 199.78L94.18 203.28C94.3 205.11 94.53 206.94 94.87 208.76L92.12 209.24Z" fill="#E37091"/>
<path d="M142.47 133.88C151.68 144.45 154.82 155.57 153.03 166.03C148.72 164.97 144.46 163.56 140.28 161.72C140.72 155.98 138.78 149.84 133.55 143.38L142.47 133.88Z" fill="#E37091"/>
<path d="M146.55 38.28C146.92 39.23 147.12 40.26 147.12 41.34C147.12 46.06 143.3 49.88 138.58 49.88C137.19 49.88 135.87 49.54 134.71 48.95C136.99 43.94 141.28 40.04 146.55 38.28Z" fill="white"/>
<path d="M138.58 32.8101C142.22 32.8101 145.33 35.0801 146.55 38.2801C141.28 40.0401 136.99 43.9401 134.71 48.9501C131.94 47.5401 130.05 44.6601 130.05 41.3401C130.05 39.2801 130.79 37.3901 132 35.9101C133.56 34.0201 135.93 32.8101 138.58 32.8101Z" fill="white"/>
<path d="M172.97 243.55C156.45 256.96 137.56 257.84 121.88 250.66L122.09 250.21C130.18 253.82 138.89 254.29 148.29 252.29C155.03 250.86 162.14 248.15 169.63 244.43C170.69 243.91 171.59 242.62 172.97 243.55Z" fill="white"/>
<path d="M128.79 84.4299L133.28 95.0499L97.33 110.27C96.02 105.63 95.27 101.65 94.84 98.8099L128.79 84.4299Z" fill="#E37091"/>
<path d="M130.06 35.4799C135.82 29.4599 143.93 25.7 152.92 25.7C164.91 25.7 175.34 32.3799 180.69 42.2299H180.56C177.55 42.09 174.52 42.4799 171.51 42.2599C170.03 42.1599 167.76 41.93 167.06 43.08C163.44 39.47 158.44 37.24 152.92 37.24C150.69 37.24 148.55 37.5999 146.55 38.2799C145.33 35.0799 142.22 32.81 138.58 32.81C135.93 32.81 133.56 34.0199 132 35.91L130.06 35.4799Z" fill="white"/>
<path d="M99.69 199.78C101.23 205.43 105.35 209.77 110.54 212.33L112.06 210.14C112.34 207.76 102.87 203.9 103.84 197.43C104.66 192.02 109.78 187.66 115.06 190.4C117.31 191.56 111.39 195.05 112.23 197.23C114.54 208.35 121.76 204.46 127.93 198.88C130.29 200.77 129.55 205.8 127.85 207.83C125.72 210.37 120.74 209.14 121.32 212.93C124.71 215.97 128.34 212.66 130.74 209.98L139.52 215.72C135.98 218.98 134.07 224.85 138.68 228.04C139.21 227.42 140 226.96 140.17 226.12C140.24 225.79 139.4 224.56 139.62 223.43C140.5 218.9 141.52 218.45 145.39 216.49C155.56 211.34 165.45 214.56 169.52 225.53C170.54 228.27 171.92 237.99 170.11 240.18C167.14 243.75 154.59 248.25 147.76 249.78C146.79 250 145.93 250.16 145.23 250.24C120.75 253.31 99.19 231.73 94.87 208.76C94.53 206.94 94.3 205.11 94.18 203.28L99.69 199.78Z" fill="white"/>
<path d="M99.04 228.37C94.02 220.53 93.26 215.5 92.12 209.24L94.87 208.76C99.19 231.73 120.75 253.31 145.23 250.24C145.93 250.16 146.79 250 147.76 249.78L148.29 252.29C138.89 254.29 130.18 253.82 122.09 250.21C113.8 246.49 106.14 239.45 99.04 228.37Z" fill="#E37091"/>
<path d="M121.88 250.66C103.88 242.44 90.11 223.64 88.98 201.03C90.14 199.49 90.1 200.21 90.46 201.58C91.22 204.44 91.7 206.92 92.12 209.24C93.26 215.5 94.02 220.53 99.04 228.37C106.14 239.45 113.8 246.49 122.09 250.21L121.88 250.66Z" fill="white"/>
<path d="M32.53 125.14C26.56 126.28 10.24 134.29 5.08999 131.3C0.209987 128.48 5.08999 122.59 8.43999 120.6C13.56 117.54 37.42 112.14 43.46 112.58C49.41 113.02 59.21 123.77 65.31 115.61C64.17 112.14 62.33 114.9 60.58 115.13C53.76 116.03 50.43 110.51 44.71 109.51C40.67 108.81 32.44 112.57 29.91 109.31C29.3 108.53 29.04 107.79 29.04 107.09C29.04 102.8 39.12 100.09 42.26 99.26C56.41 95.54 67.28 96.49 71.82 112.47L73.72 111.32L70.63 102.11C76.05 97.38 80.92 109 82.3 113.14C83.54 116.9 84.95 123.13 79.81 123.95L76.49 117.88L74.35 118.44C76.59 123.15 76.83 127.05 75.77 130.34C72.99 138.87 61.33 143.32 52.5 147.29C51.17 147.88 49.65 147.72 48.35 148.3C41.87 151.21 35 157.05 28.75 159.49C22.9 161.78 19.06 159.35 19.8 155.74C20.07 154.44 20.92 153 22.47 151.56C24.08 150.07 40.2 140.17 41.28 140.36L44.69 143.47C45.6 143.47 46.72 142.22 46.57 141.53C46.45 140.94 40.1 134.77 38.77 132.32C37.57 130.15 36.22 126.76 35.4 124.38C34.55 121.91 35.49 116.66 31.76 119.6L32.53 125.14Z" fill="white"/>
<path d="M17.34 151.97C10.27 154.41 4.49 150.26 3.66 144.97L6.6 144.8C6.76 145.69 7.16 146.62 7.86 147.57C13.32 155 32.45 140.32 38.87 138.15C38.13 137.34 37.09 135.21 35.97 133.16L38.77 132.32C40.1 134.77 46.45 140.94 46.57 141.53C46.72 142.22 45.6 143.47 44.69 143.47L41.28 140.36C40.2 140.17 24.08 150.07 22.47 151.56C20.92 153 20.07 154.44 19.8 155.74L17.02 155.43C17.24 154.31 17.57 153.24 17.34 151.97Z" fill="#E37091"/>
<path d="M25.16 130.63C19.94 132.44 5.31999 137.63 6.59999 144.8L3.65999 144.97C3.15999 141.86 4.36999 138.35 8.03999 135.55C6.57999 134.58 4.70999 134.92 3.01999 133.74C-1.68001 130.45 -0.380007 124.24 3.35999 120.74C9.53999 114.98 19.77 113.79 27.64 111.62C26.64 109.99 26.18 108.52 26.15 107.2L29.04 107.09C29.04 107.79 29.3 108.53 29.91 109.31C32.44 112.57 40.67 108.81 44.71 109.51C50.43 110.51 53.76 116.03 60.58 115.13C62.33 114.9 64.17 112.14 65.31 115.61C59.21 123.77 49.41 113.02 43.46 112.58C37.42 112.14 13.56 117.54 8.43999 120.6C5.09999 122.59 0.209993 128.48 5.08999 131.3C10.24 134.29 26.56 126.28 32.53 125.14L31.76 119.6C35.49 116.66 34.55 121.91 35.4 124.38C36.22 126.76 37.57 130.15 38.77 132.32L35.97 133.16C34.66 130.79 33.23 128.55 32.01 128.65C31.03 128.73 26.49 130.17 25.16 130.63Z" fill="#E37091"/>
<path d="M38.87 138.15C32.45 140.32 13.32 155 7.86001 147.57C7.16001 146.62 6.76001 145.69 6.60001 144.8C5.32001 137.63 19.94 132.44 25.16 130.63C26.49 130.17 31.03 128.73 32.01 128.65C33.23 128.55 34.66 130.79 35.97 133.16C37.09 135.21 38.13 137.34 38.87 138.15Z" fill="white"/>
<path d="M29.04 107.09L26.15 107.2C25.93 100.36 36.92 97.33 43.08 95.89C50.27 94.21 63.8 92.64 68.09 99.97C73.38 95.13 78.91 98.98 81.69 104.38L94.84 98.81C95.27 101.65 96.02 105.63 97.33 110.27L86.51 114.85C85.84 117.87 87.36 120.33 85.77 123.35C83.73 127.22 80.75 126.36 79.74 127.46C79.51 127.72 79.02 129.17 78.44 130.78L75.77 130.34C76.83 127.05 76.59 123.15 74.35 118.44L76.49 117.88L79.81 123.95C84.95 123.13 83.54 116.9 82.3 113.14C80.92 109 76.05 97.38 70.63 102.11L73.72 111.32L71.82 112.47C67.28 96.49 56.41 95.54 42.26 99.26C39.12 100.09 29.04 102.8 29.04 107.09Z" fill="#E37091"/>
<path d="M19.8 155.74C19.06 159.35 22.9 161.78 28.75 159.49C35 157.05 41.87 151.21 48.35 148.3C49.65 147.72 51.17 147.88 52.5 147.29C61.33 143.32 72.99 138.87 75.77 130.34L78.44 130.78C77.86 132.39 77.19 134.16 76.62 135.03C69.04 146.5 56.42 147.86 45.02 153.55C38.96 156.58 21.28 170.85 17.14 158.79C16.7 157.5 16.82 156.44 17.02 155.43L19.8 155.74Z" fill="#E37091"/>
</g>
<defs>
<clipPath id="clip0_62_490">
<rect width="496.55" height="258.51" fill="white"/>
</clipPath>
</defs>
</svg>
