<svg width="497" height="328" viewBox="0 0 497 328" fill="none" xmlns="http://www.w3.org/2000/svg">
<g clip-path="url(#clip0_62_492)">
<path d="M417.093 169.863C420.42 166.198 430.817 156.369 434.268 163.766L426.835 171.91L428.283 173.968C431.937 169.569 435.557 166.877 439.2 165.542C447.55 162.477 455.979 166.605 465.018 173.821C468.367 176.491 480.292 186.116 473.232 189.916C469.114 192.133 462.303 184.465 457.778 183.345C451.385 181.75 445.4 185.946 438.725 181.897C437.006 180.845 436.372 177.147 433.6 180.212C436.18 191.489 451.295 184.827 457.665 187.1C464.147 189.407 486.435 205.966 490.35 211.486C492.896 215.083 495.272 223.441 488.902 224.131C482.193 224.855 468.922 209.065 463.254 205.14L466.591 199.757C464.079 194.984 462.631 200.865 460.617 203.037C458.671 205.129 455.719 208.036 453.478 209.744C450.967 211.667 441.554 215.15 441.158 215.716C440.683 216.372 441.271 218.17 442.21 218.589L447.177 216.926C448.387 217.22 460.584 234.899 461.568 237.183C462.563 239.479 462.756 241.436 462.382 242.918C461.387 246.854 456.363 247.51 451.408 242.533C446.045 237.127 441.599 227.909 436.202 221.925C435.116 220.715 433.464 220.195 432.367 218.973C425.171 210.977 415.374 201.261 415.939 191.342C416.177 187.236 418.191 183.085 422.92 179.013L420.951 177.441L414.717 182.225C409.762 179.013 414.084 173.188 417.093 169.863Z" fill="#FCEAEB"/>
<path d="M450.695 215.738C453.15 214.664 459.916 207.787 462.179 209.02C463.163 209.551 467.213 213.137 468.379 214.223C473.538 219.018 489.072 233.722 478.572 239.739C469.487 244.942 456.375 220.93 450.695 215.738Z" fill="#FCEAEB"/>
<path d="M450.695 215.739C456.375 220.93 469.487 244.943 478.572 239.74C489.072 233.722 473.538 219.019 468.379 214.223C467.213 213.137 463.163 209.552 462.179 209.02C459.916 207.787 453.15 214.664 450.695 215.739ZM457.665 187.1C451.295 184.827 436.18 191.489 433.6 180.212C436.372 177.147 437.006 180.845 438.725 181.897C445.4 185.947 451.385 181.75 457.778 183.345C462.303 184.465 469.114 192.133 473.232 189.917C480.292 186.116 468.367 176.491 465.019 173.822C455.979 166.605 447.55 162.477 439.201 165.542L437.888 162.715C445.706 157.071 459.034 164.909 465.72 169.953C472.565 175.111 485.519 185.777 474.533 193.355C481.695 199.225 491.787 205.141 495.543 213.963C497.828 219.313 496.324 226.348 489.943 227.603C487.635 228.056 485.859 226.857 483.89 227.185C490.701 239.57 476.581 249.128 466.704 239.955C466.025 240.973 465.81 242.013 465.584 243.065L462.382 242.918C462.756 241.436 462.563 239.48 461.568 237.184C460.584 234.899 448.387 217.22 447.177 216.926L442.21 218.589C441.271 218.17 440.683 216.372 441.158 215.716C441.554 215.15 450.967 211.667 453.478 209.744C455.719 208.036 458.672 205.129 460.617 203.037C462.631 200.865 464.079 194.984 466.591 199.757L463.254 205.141C468.922 209.065 482.193 224.855 488.902 224.131C495.272 223.441 492.896 215.083 490.35 211.486C486.435 205.966 464.147 189.408 457.665 187.1Z" fill="#E37091"/>
<path d="M434.053 53.2955C440.162 65.2168 434.901 78.405 425.873 101.049C418.802 118.761 410.78 131.395 403.754 141.891L382.009 118.75L372.472 127.697L396.14 152.885C384.34 169.173 373.637 180.336 363.353 190.968C346.688 208.205 339.277 212.843 332.15 215.987C320.791 220.998 310.224 222.129 303.051 222.276C299.702 222.355 296.353 222.445 293.004 222.525C274.37 222.988 255.725 223.441 237.091 223.905C236.661 223.147 236.22 222.4 235.768 221.676C248.337 218.77 261.031 213.567 272.979 204.054C276.531 201.227 281.905 196.997 287.132 191.409C303.514 180.822 318.652 170.688 333.066 152.444C349.448 131.701 367.03 97.7461 356.893 86.7522C354.506 84.1734 351.292 83.2346 349.052 83.2459C323.517 83.2799 297.971 83.3138 272.424 83.359C271.768 66.9134 271.101 50.4678 270.433 34.0222H394.93C399.568 34.2937 425.296 36.1939 434.053 53.2955Z" fill="#E37091"/>
<path d="M422.92 179.013C418.191 183.085 416.177 187.236 415.939 191.341L412.941 191.138C413.077 188.762 413.326 186.342 413.179 185.901C412.624 184.295 409.14 183.808 408.8 178.854C408.54 174.997 411.244 173.143 411.934 169.704L396.14 152.885C398.018 150.295 399.919 147.581 401.854 144.708C402.476 143.78 403.11 142.853 403.754 141.891L421.755 161.052C427.106 156.72 434.618 155.272 437.888 162.714L439.2 165.542C435.557 166.876 431.937 169.568 428.283 173.968L426.835 171.91L434.268 163.766C430.817 156.369 420.42 166.198 417.093 169.862C414.084 173.188 409.762 179.013 414.717 182.225L420.951 177.441L422.92 179.013Z" fill="#E37091"/>
<path d="M415.939 191.342C415.374 201.261 425.171 210.977 432.367 218.973C433.464 220.195 435.116 220.715 436.202 221.925C441.599 227.909 446.045 237.127 451.408 242.533C456.363 247.51 461.387 246.854 462.382 242.918L465.584 243.065C465.313 244.422 465.03 245.779 463.785 247.125C453.954 257.746 442.153 234.819 437.255 228.904C428.022 217.763 415.543 210.558 412.953 195.187C412.794 194.26 412.839 192.71 412.941 191.138L415.939 191.342Z" fill="#E37091"/>
<path d="M382.009 118.75L403.754 141.891C403.11 142.853 402.476 143.78 401.854 144.708C399.919 147.58 398.018 150.295 396.14 152.885L372.472 127.696L382.009 118.75Z" fill="#E37091"/>
<path d="M270.297 105.72C287.143 114.509 303.22 134.087 303.051 155.951C302.926 170.915 295.21 182.779 287.132 191.409C286.827 191.613 286.51 191.805 286.204 192.009C273.601 200.152 256.189 210.072 233.946 218.928C231.412 215.343 228.583 212.379 225.416 210.377C210.255 200.797 189.868 206.238 173.248 207.821V222.604L173.18 225.918C162.771 225.726 152.396 224.855 142.271 222.333C144.307 210.468 140.743 197.845 130.289 185.856L120.164 196.635C126.115 203.964 128.309 210.943 127.8 217.446C121.284 214.573 114.925 210.784 108.782 205.785C81.4931 183.56 76.7639 150.94 75.7683 142.706C75.2592 138.521 74.6709 131.339 75.4176 122.369L88.7339 147.264L100.274 141.1L79.3208 101.931C80.4975 98.0517 81.9683 94.0364 83.8124 89.9646C86.9916 82.9407 94.5605 66.7439 111.848 53.9743C126.578 43.0935 140.766 40.3337 157.295 37.1102C170.385 34.554 179.742 34.192 213.185 34.0224C229.647 33.9319 248.88 33.9093 270.433 34.0224H268.283C269.664 50.468 271.044 66.9136 272.424 83.3592C267.842 83.28 258.769 83.133 249.48 82.9747C243.902 70.4425 231.333 61.6994 216.715 61.6994C202.098 61.6994 190.241 69.9562 184.448 81.9341H184.369C173.282 81.8097 174.719 81.9115 173.666 81.8662C167.602 70.6913 155.768 63.1019 142.158 63.1019C131.952 63.1019 122.743 67.366 116.226 74.2089C110.094 80.6447 106.327 89.3425 106.327 98.9226C106.327 118.705 122.37 134.743 142.158 134.743C161.945 134.743 176.936 119.734 177.943 100.845C178.961 100.868 179.991 100.891 181.043 100.913C182.751 119.112 198.07 133.352 216.715 133.352C235.36 133.352 250.657 119.146 252.399 100.97C259.538 101.434 264.505 102.7 270.297 105.72ZM240.576 174.251C247.738 161.346 249.763 142.106 243.167 138.397C236.22 134.494 227.271 152.071 201.249 158.699C195.604 160.147 183.521 163.223 169.277 160C150.813 155.815 143.232 144.323 137.304 147.897C131.896 151.166 133.05 163.834 136.003 171.91C142.327 189.192 160.667 195.685 165.645 197.438C176.823 201.397 186.575 200.775 192.979 200.367C198.76 199.994 206.816 199.485 216.07 195.368C220.347 193.468 233.041 187.813 240.576 174.251Z" fill="#E37091"/>
<path d="M276.067 286.203C276.294 289.042 300.426 307.954 304.386 308.949C308.266 309.922 311.389 303.984 313.29 301.009C321.368 288.375 328.065 263.876 323.404 249.444C319.139 236.256 302.587 224.493 290.108 235.43C277.312 246.639 285.48 272.382 276.067 286.203ZM262.434 312.365C268.544 325.134 292.269 322.114 301.433 313.779C301.919 311.731 295.233 308.926 293.638 307.784C288.954 304.425 283.24 300.127 279.099 296.202C278.047 295.195 274.438 289.676 273.329 289.687C265.353 295.568 257.049 301.122 262.434 312.365ZM255.103 309.356C256.902 308.892 255.861 305.397 256.54 303.407C261.19 289.811 275.309 286 276.791 272.393C278.217 259.239 274.517 244.433 285.028 233.801L292.551 228.531C286.691 228.949 281.588 234.231 279.258 239.366C273.906 251.152 277.414 263.854 274.144 275.662C270.501 288.793 249.695 292.843 255.103 309.356ZM272.843 324.625C260.477 321.73 253.802 318.552 250.396 305.658C249.989 304.108 250.555 301.563 250 300.647C249.435 299.719 243.846 299.652 242.069 294.29C240.135 288.454 242.431 285.344 242.081 280.559C241.492 272.744 230.02 242.25 225.993 234.446C223.662 229.944 221.512 226.698 218.808 224.402C218.978 224.391 219.159 224.368 219.329 224.346L237.08 223.905C244.185 236.437 248.688 253.335 252.127 264.012L263.464 263.051C266.948 247.465 268.6 228.576 287.223 224.674C289.101 224.278 291.047 224.097 293.027 224.097C308.56 224.097 326.368 235.577 328.801 250.937C333.779 282.505 311.513 333.708 272.832 324.625H272.843ZM249.141 296.157C253.146 297.435 253.757 293.408 256.053 291.089C265.014 282.064 270.501 280.695 271.836 266.466C272.752 256.751 271.361 246.695 275.784 237.398C268.249 247.374 268.917 262.157 264.505 273.909L260.024 274.847L260.59 267.914C256.97 265.448 254.967 267.36 252.716 270.018C248.609 274.859 240.146 293.261 249.141 296.157Z" fill="#E37091"/>
<path d="M304.386 308.949C300.426 307.954 276.294 289.043 276.067 286.204C285.48 272.382 277.312 246.639 290.108 235.43C302.587 224.493 319.139 236.256 323.404 249.444C328.065 263.876 321.368 288.375 313.29 301.009C311.389 303.984 308.266 309.922 304.386 308.949Z" fill="#FCEAEB"/>
<path d="M286.204 192.009C286.51 191.805 286.827 191.613 287.132 191.409C281.905 196.997 276.531 201.227 272.979 204.055C261.031 213.567 248.337 218.77 235.768 221.677C235.179 220.727 234.568 219.81 233.946 218.928C256.189 210.072 273.601 200.153 286.204 192.009Z" fill="#E37091"/>
<path d="M301.433 313.779C292.269 322.115 268.544 325.135 262.434 312.365C257.049 301.122 265.353 295.569 273.329 289.687C274.438 289.687 278.047 295.196 279.099 296.202C283.24 300.127 288.954 304.425 293.638 307.784C295.233 308.927 301.919 311.732 301.433 313.779Z" fill="#FCEAEB"/>
<path d="M270.433 34.0222C271.101 50.4678 271.768 66.9134 272.424 83.359C271.044 66.9134 269.664 50.4678 268.283 34.0222H270.433Z" fill="#E37091"/>
<path d="M256.54 303.407C255.861 305.397 256.902 308.892 255.103 309.356C249.695 292.843 270.501 288.793 274.144 275.662C277.414 263.854 273.906 251.152 279.258 239.366C281.588 234.231 286.691 228.949 292.551 228.531L285.028 233.801C274.517 244.433 278.217 259.239 276.791 272.393C275.309 286 261.19 289.811 256.54 303.407Z" fill="#FCEAEB"/>
<path d="M256.053 291.09C253.757 293.408 253.146 297.435 249.141 296.157C240.146 293.261 248.609 274.859 252.716 270.018C254.967 267.36 256.97 265.448 260.59 267.914L260.024 274.848L264.505 273.909C268.917 262.157 268.249 247.374 275.784 237.398C271.361 246.696 272.752 256.751 271.836 266.466C270.501 280.695 265.014 282.064 256.053 291.09Z" fill="#FCEAEB"/>
<path d="M239.207 100.766C244.457 100.698 248.722 100.721 252.399 100.97C250.657 119.146 235.349 133.352 216.715 133.352C198.081 133.352 182.751 119.112 181.043 100.913C182.355 100.936 183.69 100.97 185.059 100.992C188.272 101.049 191.35 101.094 194.28 101.117C196 111.964 205.39 120.243 216.715 120.243C228.04 120.243 237.634 111.783 239.207 100.766Z" fill="#FCEAEB"/>
<path d="M239.445 97.5202C239.445 91.8649 237.374 86.6959 233.935 82.7146C238.641 82.7938 244.095 82.8843 249.48 82.9747C251.46 87.4198 252.557 92.3399 252.557 97.5202C252.557 98.6852 252.501 99.8388 252.399 100.97C248.722 100.721 244.457 100.698 239.207 100.766C239.365 99.7031 239.445 98.6286 239.445 97.5202Z" fill="#FCEAEB"/>
<path d="M239.445 97.5201C239.445 98.6285 239.365 99.703 239.207 100.766C228.991 100.879 215.029 101.32 194.28 101.117C194.099 99.9518 193.997 98.7416 193.997 97.5201C193.997 94.1608 194.733 90.9599 196.056 88.087C197.38 88.7543 198.862 89.1389 200.446 89.1389C204.802 89.1389 208.479 86.266 209.701 82.3186C213.627 82.3865 217.552 82.443 221.478 82.5109C223.368 82.5448 228.052 82.624 233.935 82.7145C237.374 86.6958 239.445 91.8648 239.445 97.5201Z" fill="#E37091"/>
<path d="M237.091 223.905L219.34 224.346C224.737 223.792 230.235 222.955 235.768 221.677C236.22 222.4 236.661 223.147 237.091 223.905Z" fill="#E37091"/>
<path d="M235.768 221.676C230.235 222.955 224.737 223.792 219.34 224.346C224.42 222.604 229.296 220.794 233.946 218.928C234.568 219.81 235.179 220.726 235.768 221.676Z" fill="#E37091"/>
<path d="M239.207 100.766C237.634 111.783 228.165 120.243 216.715 120.243C205.266 120.243 196 111.964 194.28 101.117C215.029 101.321 228.991 100.879 239.207 100.766Z" fill="#E37091"/>
<path d="M225.416 210.377C228.583 212.379 231.412 215.343 233.946 218.928C229.296 220.794 224.42 222.604 219.34 224.346C219.17 224.369 218.989 224.391 218.82 224.402C215.369 221.473 211.024 220.093 204.281 219.641L173.259 222.604V207.821C189.879 206.238 210.266 200.797 225.427 210.377H225.416Z" fill="#E37091"/>
<path d="M204.27 219.64C211.013 220.093 215.358 221.473 218.808 224.402C210.628 225.228 202.675 225.454 195.208 225.658C187.91 225.861 180.534 226.053 173.18 225.918L173.248 222.604L204.27 219.64Z" fill="#E37091"/>
<path d="M209.701 82.3186C209.984 81.4137 210.131 80.4523 210.131 79.457C210.131 78.2355 209.904 77.0592 209.486 75.9847C211.76 75.2268 214.192 74.8083 216.715 74.8083C223.605 74.8083 229.783 77.8735 233.935 82.7145C228.052 82.624 223.368 82.5448 221.478 82.5109C217.552 82.443 213.627 82.3865 209.701 82.3186Z" fill="#E37091"/>
<path d="M210.131 79.457C210.131 80.4523 209.984 81.4137 209.701 82.3186C209.452 82.3186 209.192 82.3072 208.943 82.3072C205.424 82.2507 202.539 82.1941 199.993 82.1489C202.562 79.3552 205.809 77.2175 209.486 75.9846C209.904 77.0591 210.131 78.2354 210.131 79.457Z" fill="#FCEAEB"/>
<path d="M208.943 82.307C209.192 82.307 209.452 82.3183 209.701 82.3183C208.479 86.2657 204.802 89.1386 200.446 89.1386C198.862 89.1386 197.38 88.7541 196.056 88.0867C197.052 85.9038 198.387 83.8905 199.993 82.1487C202.539 82.1939 205.424 82.2505 208.943 82.307Z" fill="#FCEAEB"/>
<path d="M200.446 69.7751C204.576 69.7751 208.094 72.354 209.486 75.9847C205.809 77.2175 202.562 79.3552 199.993 82.1489C196.645 82.1037 193.907 82.0585 191.112 82.0245C190.886 81.2102 190.761 80.3506 190.761 79.457C190.761 74.1071 195.095 69.7751 200.446 69.7751Z" fill="#FCEAEB"/>
<path d="M199.993 82.1491C198.387 83.8909 197.052 85.9042 196.056 88.0871C193.658 86.8656 191.836 84.6713 191.112 82.0247C193.907 82.0586 196.645 82.1038 199.993 82.1491Z" fill="#FCEAEB"/>
<path d="M196.056 88.0868C194.733 90.9597 193.997 94.1606 193.997 97.5198C193.997 98.7414 194.099 99.9516 194.28 101.117C191.35 101.094 188.272 101.049 185.059 100.992C183.69 100.97 182.355 100.936 181.043 100.913C180.941 99.7933 180.885 98.6622 180.885 97.5198C180.885 91.9324 182.163 86.6504 184.448 81.9338C186.881 81.9565 189.008 81.9904 191.112 82.0243C191.836 84.671 193.658 86.8653 196.056 88.0868Z" fill="#FCEAEB"/>
<path d="M200.446 69.775C195.095 69.775 190.761 74.1069 190.761 79.4569C190.761 80.3504 190.886 81.21 191.112 82.0244C189.008 81.9904 186.881 81.9565 184.448 81.9339C190.241 69.956 202.516 61.6992 216.715 61.6992C230.914 61.6992 243.902 70.4423 249.48 82.9745C244.095 82.884 238.641 82.7935 233.935 82.7143C229.783 77.8734 223.605 74.8082 216.715 74.8082C214.192 74.8082 211.76 75.2267 209.486 75.9845C208.094 72.3538 204.576 69.775 200.446 69.775Z" fill="#FCEAEB"/>
<path d="M177.943 100.846C173.044 100.721 168.643 100.597 164.83 100.45C164.864 99.9407 164.887 99.4317 164.887 98.9227C164.887 92.6454 162.33 86.9448 158.2 82.8391C159.004 81.527 161.572 81.7759 163.258 81.9003C166.674 82.1491 170.114 81.6967 173.531 81.8664H173.666C176.427 86.9335 177.988 92.7471 177.988 98.9227C177.988 99.5674 177.966 100.212 177.943 100.846Z" fill="#FCEAEB"/>
<path d="M164.83 100.449C168.643 100.596 173.044 100.721 177.943 100.845C176.936 119.734 161.3 134.743 142.157 134.743C123.015 134.743 106.327 118.705 106.327 98.9224C106.327 89.3423 110.094 80.6445 116.226 74.2087L118.41 74.6951C117.018 76.3691 116.192 78.5181 116.192 80.8594C116.192 84.6258 118.342 87.8833 121.487 89.4781C120.164 92.3509 119.428 95.5518 119.428 98.9224C119.428 111.477 129.599 121.645 142.157 121.645C154.716 121.645 164.05 112.292 164.83 100.449Z" fill="#FCEAEB"/>
<path d="M157.974 89.5571C157.952 88.8106 157.94 87.9284 158.042 84.6709C158.087 83.1327 158.099 82.997 158.2 82.8386C162.33 86.9444 164.887 92.6449 164.887 98.9223C164.887 99.4313 164.864 99.9403 164.83 100.449C162.387 100.381 160.192 100.291 158.268 100.212C158.268 98.6169 158.246 97.2257 158.223 96.106C158.2 95.3934 158.155 93.4367 158.042 90.8578C157.997 89.8399 157.997 89.9869 157.974 89.5571Z" fill="#E37091"/>
<path d="M142.157 76.1995C148.425 76.1995 154.094 78.733 158.2 82.8388C158.099 82.9971 158.087 83.1329 158.042 84.6711C157.94 87.9286 157.952 88.8108 157.974 89.5573C157.997 89.9871 157.997 89.84 158.042 90.858C158.155 93.4368 158.2 95.3935 158.223 96.1061C158.246 97.2259 158.268 98.6171 158.268 100.212C160.192 100.291 162.387 100.382 164.83 100.449C164.05 112.292 154.195 121.645 142.157 121.645C130.12 121.645 119.428 111.477 119.428 98.9224C119.428 95.5519 120.164 92.351 121.487 89.4781C122.811 90.1567 124.304 90.5413 125.888 90.5413C131.228 90.5413 135.573 86.2093 135.573 80.8594C135.573 79.6266 135.347 78.4616 134.928 77.3758C137.202 76.6066 139.635 76.1995 142.157 76.1995Z" fill="#E37091"/>
<path d="M168.756 310.159C168.903 316.934 146.638 324.456 140.653 325.79C114.484 331.649 92.7955 319.49 77.9066 298.045C72.5552 290.354 63.8775 270.764 65.9819 261.456C67.7695 253.606 74.0826 259.307 75.2026 259.092C75.542 259.024 80.9387 256.411 81.3007 256.14C82.9978 254.929 83.7558 250.869 86.539 248.188C92.0036 242.94 98.4411 244.003 104.336 247.725L105.41 247.385C117.471 239.23 126.929 229.073 127.8 217.446C132.552 219.527 137.383 221.122 142.271 222.332C140.11 235.011 131.579 246.831 118.252 256.162C122.268 262.983 117.222 267.134 124.293 271.839C134.408 278.569 143.266 267.122 155.1 275.503C167.84 284.529 165.984 292.435 167.206 305.691C167.365 307.422 168.734 309.107 168.756 310.159ZM73.0417 270.776C72.5891 268.31 72.0687 265.663 71.2654 262.666C70.8581 261.116 70.9034 260.291 69.5797 262.044C70.8694 287.696 86.5051 309.039 106.938 318.371C124.734 326.492 146.174 325.496 164.921 310.283C163.348 309.243 162.319 310.691 161.119 311.29C152 315.814 143.391 319.015 135.245 320.531L134.747 317.681C141.965 316.346 158.053 310.804 161.662 306.46C163.722 303.983 162.16 292.956 160.995 289.845C156.379 277.404 145.156 273.739 133.616 279.586C129.215 281.815 128.061 282.324 127.054 287.459C126.805 288.737 127.766 290.139 127.687 290.513C127.495 291.463 126.601 291.983 126.001 292.684C120.763 289.076 122.935 282.414 126.952 278.704L116.984 272.201C114.258 275.232 110.14 278.998 106.282 275.537C105.625 271.239 111.282 272.642 113.703 269.769C115.638 267.462 116.475 261.75 113.794 259.612C106.791 265.935 98.5995 270.346 95.9747 257.723C95.0243 255.257 101.733 251.299 99.1878 249.975C93.1915 246.865 87.3762 251.819 86.4598 257.961C85.3511 265.301 96.0991 269.678 95.771 272.382L94.0513 274.859C88.1682 271.963 83.4843 267.043 81.742 260.63L75.4855 264.6C75.6099 266.466 75.8362 268.344 76.1643 270.21L73.0417 270.776Z" fill="#E37091"/>
<path d="M130.289 185.856C140.743 197.845 144.307 210.468 142.271 222.332C137.383 221.122 132.552 219.527 127.8 217.446C128.309 210.943 126.115 203.964 120.164 196.635L130.289 185.856Z" fill="#E37091"/>
<path d="M134.928 77.3757C135.347 78.4615 135.573 79.6265 135.573 80.8594C135.573 86.2093 131.228 90.5413 125.888 90.5413C124.304 90.5413 122.811 90.1567 121.487 89.4781C124.078 83.8001 128.943 79.3777 134.928 77.3757Z" fill="#FCEAEB"/>
<path d="M125.888 71.1775C130.006 71.1775 133.525 73.7563 134.928 77.3757C128.943 79.3777 124.078 83.8001 121.487 89.478C118.342 87.8832 116.192 84.6258 116.192 80.8594C116.192 78.5181 117.018 76.3691 118.41 74.6951C120.186 72.5461 122.879 71.1775 125.888 71.1775Z" fill="#FCEAEB"/>
<path d="M164.921 310.284C146.174 325.496 124.734 326.492 106.938 318.371L107.175 317.839C115.876 321.73 125.209 322.409 135.245 320.531C143.391 319.016 152 315.815 161.119 311.29C162.319 310.691 163.348 309.243 164.921 310.284Z" fill="#FCEAEB"/>
<path d="M125.888 71.1776C122.879 71.1776 120.186 72.5462 118.41 74.6952L116.226 74.2088C122.743 67.3659 131.952 63.1018 142.158 63.1018C155.768 63.1018 167.602 70.6912 173.666 81.8661H173.531C170.114 81.6964 166.674 82.1489 163.258 81.9C161.572 81.7756 159.004 81.5268 158.2 82.8275C154.094 78.7331 148.425 76.1995 142.158 76.1995C139.635 76.1995 137.202 76.6067 134.928 77.3758C133.525 73.7564 130.007 71.1776 125.888 71.1776Z" fill="#FCEAEB"/>
<path d="M79.3208 101.931L100.274 141.1L88.7339 147.264L75.4176 122.369C75.938 116.261 77.0807 109.317 79.3208 101.931Z" fill="#E37091"/>
<path d="M81.742 260.63C83.4843 267.043 88.1682 271.963 94.0514 274.859L95.7711 272.382C96.0992 269.679 85.3511 265.302 86.4598 257.961C87.3762 251.819 93.1915 246.865 99.1878 249.976C101.733 251.299 95.0244 255.258 95.9747 257.723C98.5995 270.346 106.791 265.935 113.794 259.612C116.475 261.75 115.638 267.462 113.703 269.769C111.282 272.642 105.625 271.24 106.282 275.538C110.14 278.999 114.258 275.232 116.984 272.201L126.952 278.705C122.935 282.414 120.763 289.076 126.001 292.685C126.601 291.983 127.495 291.463 127.687 290.513C127.766 290.14 126.805 288.737 127.054 287.459C128.061 282.324 129.215 281.815 133.616 279.587C145.156 273.739 156.379 277.404 160.995 289.846C162.16 292.956 163.722 303.984 161.662 306.461C158.053 310.804 141.965 316.346 134.747 317.681C134.26 317.76 133.819 317.839 133.423 317.885C105.433 321.379 80.8029 296.485 76.1643 270.21C75.8362 268.344 75.6099 266.467 75.4855 264.6L81.742 260.63Z" fill="#FCEAEB"/>
<path d="M81.0066 293.069C75.146 283.93 74.3993 278.15 73.0417 270.776L76.1643 270.21C80.8029 296.485 105.433 321.379 133.423 317.884C133.819 317.839 134.26 317.76 134.747 317.681L135.245 320.531C125.209 322.409 115.876 321.73 107.175 317.839C97.751 313.62 89.062 305.646 81.0066 293.069Z" fill="#E37091"/>
<path d="M71.2654 262.666C72.0687 265.663 72.5891 268.31 73.0417 270.776C74.3993 278.15 75.1461 283.93 81.0066 293.069C89.062 305.646 97.751 313.62 107.175 317.839L106.938 318.371C86.5051 309.04 70.8695 287.696 69.5797 262.044C70.9034 260.291 70.8581 261.117 71.2654 262.666Z" fill="#FCEAEB"/>
<path d="M73.6074 72.6818C79.8752 65.6806 78.7212 56.1118 74.6369 44.8577C73.1774 40.8199 67.8826 26.4554 62.0221 31.9184C58.594 35.1193 63.6852 44.0208 63.3005 48.6581C62.7688 55.2409 56.863 59.5615 58.5827 67.1736C59.0239 69.1303 62.3275 70.9174 58.5261 72.5687C48.6718 66.5175 59.8159 54.336 59.7027 47.5723C59.5896 40.6954 51.0364 14.2852 47.0539 8.81087C44.4631 5.24803 37.3015 0.316606 34.6088 6.13025C32.8665 9.88537 36.2267 17.9611 39.519 25.1773L36.3398 26.3536C32.6628 18.5719 24.6301 3.74372 16.5068 10.9259C15.6696 11.6724 15.1265 12.566 14.8437 13.5839L11.6984 13.1315C13.8594 5.81356 23.0688 2.23941 30.1059 9.90799C31.0563 8.14354 30.4793 6.0737 31.6446 4.03779C34.8803 -1.6062 42.0306 -0.769212 46.3638 3.09901C53.5254 9.47819 55.9126 20.9245 59.171 29.5884C69.8738 21.6145 75.8362 37.3023 78.5289 45.4233C81.1763 53.3859 84.3328 68.5082 76.4924 74.1069L73.6074 72.6818Z" fill="#E37091"/>
<path d="M57.1119 85.4402L50.5839 89.8061C52.032 95.5293 58.9447 93.3011 63.0516 91.514C67.5885 89.5347 80.2372 82.8275 74.3315 77.1948L64.2396 81.6286L62.7462 79.604C67.6563 77.7151 71.1862 75.3851 73.6074 72.6819L76.4924 74.107C82.5 79.5927 78.7212 86.232 72.8946 89.9192L79.3208 101.931C77.0807 109.317 75.938 116.262 75.4176 122.369L61.5582 96.4454C58.0849 96.0043 55.4488 97.9724 51.8849 96.4907C47.2916 94.5792 47.9591 91.1295 46.6014 90.0889C46.262 89.8288 44.1576 89.3424 42.008 88.7769L42.7887 85.8474C46.6467 86.7862 51.0817 86.1302 56.2521 83.0763L57.1119 85.4402Z" fill="#E37091"/>
<path d="M74.6369 44.8578C78.7212 56.1119 79.8752 65.6806 73.6074 72.6819C71.1862 75.3851 67.6563 77.7151 62.7461 79.604L64.2396 81.6286L74.3314 77.1948C80.2372 82.8275 67.5884 89.5347 63.0516 91.514C58.9447 93.3011 52.032 95.5293 50.5838 89.8061L57.1119 85.4402L56.252 83.0763C51.0817 86.1302 46.6467 86.7862 42.7887 85.8474C32.9457 83.4948 26.7684 70.8609 21.4056 61.3374C20.5911 59.9009 20.625 58.1704 19.833 56.7566C16.6199 51.0447 11.2006 45.2424 7.44445 39.621C6.58461 38.3203 5.80396 37.0309 5.17039 35.7528C0.848528 27.0889 6.73169 21.7389 13.486 27.8467C15.3415 29.5093 28.1939 46.7127 28.0808 47.9569L24.9242 52.1305C25.0147 53.1598 26.5308 54.2909 27.3114 54.0533C27.9676 53.8497 34.292 46.0567 36.9055 44.2923C39.2475 42.7201 42.9357 40.8425 45.5492 39.6776C48.2419 38.456 54.2835 38.9763 50.5725 35.0628L44.3952 36.5106C43.6598 33.9431 41.6007 29.7355 39.519 25.1774C36.2267 17.9612 32.8665 9.88544 34.6088 6.13032C37.3015 0.316673 44.4631 5.24809 47.054 8.81093C51.0364 14.2853 59.5896 40.6955 59.7027 47.5724C59.8159 54.3361 48.6718 66.5176 58.5261 72.5688C62.3275 70.9174 59.0239 69.1304 58.5827 67.1736C56.863 59.5616 62.7688 55.2409 63.3005 48.6582C63.6852 44.0208 58.594 35.1194 62.0221 31.9185C67.8826 26.4555 73.1774 40.8199 74.6369 44.8578Z" fill="#FCEAEB"/>
<path d="M30.3322 45.0049C27.5604 38.7276 12.4791 22.0331 14.8437 13.5841C15.1265 12.5662 15.6696 11.6726 16.5068 10.9261C24.6301 3.74388 32.6629 18.5721 36.3398 26.3538C36.7698 27.2586 37.1318 28.073 37.4373 28.7403C38.0822 30.1881 40.1752 35.1873 40.3789 36.2732C40.8201 38.818 32.1424 43.0256 30.3322 45.0049Z" fill="#FCEAEB"/>
<path d="M37.7314 87.3405C23.9965 79.9547 21.1567 65.8278 13.5539 53.5331C11.8681 50.8186 7.79518 46.0342 4.54813 40.9444L7.44445 39.6211C11.2006 45.2425 16.6199 51.0448 19.833 56.7567C20.625 58.1705 20.591 59.901 21.4056 61.3374C26.7684 70.861 32.9457 83.4949 42.7887 85.8475L42.008 88.777C40.3449 88.3358 38.6365 87.8382 37.7314 87.3405Z" fill="#E37091"/>
<path d="M50.5725 35.0628C54.2835 38.9763 48.2419 38.456 45.5492 39.6776C42.9357 40.8426 39.2475 42.7201 36.9055 44.2923C34.292 46.0567 27.9676 53.8497 27.3114 54.0533C26.5308 54.2909 25.0147 53.1598 24.9242 52.1305L28.0808 47.9569C28.1939 46.7128 15.3415 29.5093 13.486 27.8467C6.7317 21.739 0.848537 27.0889 5.1704 35.7528C5.80397 37.0309 6.58462 38.3203 7.44446 39.621L4.54814 40.9444C-0.0226234 33.7847 -2.94158 26.0257 4.77441 22.5646C7.74993 21.23 9.79773 22.8248 12.513 22.1009C11.0536 18.8548 10.9178 15.7557 11.6984 13.1316L14.8437 13.584C12.4791 22.033 27.5603 38.7275 30.3322 45.0049C32.1424 43.0255 40.8201 38.818 40.3788 36.2731C40.1752 35.1873 38.0821 30.188 37.4373 28.7402C37.1318 28.0729 36.7697 27.2585 36.3398 26.3537L39.519 25.1774C41.6007 29.7356 43.6598 33.9431 44.3952 36.5106L50.5725 35.0628Z" fill="#E37091"/>
</g>
<defs>
<clipPath id="clip0_62_492">
<rect width="496.55" height="327.261" fill="white"/>
</clipPath>
</defs>
</svg>
