<svg width="2756" height="3057" viewBox="0 0 2756 3057" fill="none" xmlns="http://www.w3.org/2000/svg">
<g clip-path="url(#clip0_113_2)">
<path d="M2471.08 761.716C2418.64 757.831 2369.32 726.667 2390.01 668.138C2317.05 658.679 2283.86 545.422 2273.05 482.418C2262.24 419.413 2245.6 290.954 2346.26 306.156C2337.06 236.057 2311.9 150.418 2337.06 81.7543C2352.35 40.117 2397.44 8.69908 2439.58 35.1341C2454.78 44.6777 2458.33 60.64 2470.99 69.0857C2497.85 -35.4718 2626.37 -14.7799 2633.3 87.8351C2654.16 82.9366 2662.26 64.9473 2687.09 63.1737C2797.21 55.4037 2743.08 244.756 2739.45 303.2C2732.52 413.416 2764.36 518.65 2698.41 617.802C2688.36 632.92 2651.03 662.902 2648.58 668.223C2643.18 680.047 2660.07 700.907 2636.09 730.298C2617.42 753.186 2592.6 749.386 2570.81 764.841V1204.78H2470.99V761.716H2471.08ZM2558.48 655.638C2720.7 662.648 2712.17 500.069 2714.71 383.941C2714.96 371.357 2708.54 359.786 2708.79 347.371C2710.06 285.886 2733.45 211.311 2731.85 153.289C2729.74 79.3895 2670.96 64.5251 2647.4 129.979C2640.98 147.884 2616.41 309.957 2621.56 317.896L2657.87 334.618C2661 341.881 2654.75 354.972 2648.75 356.155C2643.6 357.168 2573 327.439 2549.02 324.99C2527.66 322.794 2496.07 323.554 2474.29 324.99C2451.74 326.51 2412.98 351.763 2423.87 312.068L2470.57 299.568C2459.51 248.05 2468.29 90.8756 2427.08 59.8799C2388.07 30.489 2357.58 89.4398 2353.02 122.716C2345.93 173.897 2383.42 382.505 2407.4 429.21C2430.96 475.154 2549.87 517.045 2505.28 593.225C2473.78 595.759 2489.57 571.857 2485.52 557.077C2469.64 499.647 2414.33 491.792 2387.14 449.479C2367.88 419.582 2370.08 341.29 2335.54 332.169C2276.43 316.46 2292.47 432.25 2297.12 464.682C2315.19 590.1 2359.44 673.543 2502.24 655.807L2499.54 674.81L2415.68 681.313C2396.26 740.433 2505.45 740.095 2543.11 737.055C2577.23 734.268 2631.69 724.471 2620.89 680.638L2561.27 674.726L2558.56 655.723L2558.48 655.638ZM2595.89 306.156C2591.5 247.627 2644.02 45.4378 2566.25 26.9418C2476.4 5.57418 2485.94 168.491 2489.57 222.206C2490.42 234.283 2494.3 275.414 2496.92 283.522C2503.08 302.271 2576.64 299.315 2595.89 306.156Z" fill="#FF00E7"/>
<path d="M2558.48 655.638L2561.18 674.641L2620.8 680.553C2631.61 724.302 2577.14 734.183 2543.03 736.97C2505.36 740.011 2396.17 740.349 2415.6 681.229L2499.45 674.726L2502.15 655.723C2359.35 673.459 2315.1 590.016 2297.03 464.597C2292.39 432.25 2276.34 316.375 2335.46 332.084C2369.99 341.29 2367.8 419.582 2387.05 449.395C2414.33 491.708 2469.56 499.562 2485.43 556.993C2489.49 571.773 2473.69 595.674 2505.19 593.14C2549.7 516.876 2430.88 474.985 2407.32 429.125C2383.34 382.421 2345.93 173.812 2352.94 122.631C2357.58 89.3554 2387.98 30.4045 2427 59.7955C2468.21 90.7911 2459.42 248.05 2470.49 299.484L2423.79 311.984C2412.89 351.678 2451.65 326.426 2474.2 324.906C2495.99 323.385 2527.57 322.71 2548.94 324.906C2572.92 327.355 2643.6 357.084 2648.67 356.07C2654.75 354.888 2660.91 341.797 2657.79 334.534L2621.48 317.811C2616.24 309.872 2640.81 147.799 2647.32 129.895C2670.88 64.5251 2729.65 79.305 2731.76 153.205C2733.37 211.311 2709.98 285.802 2708.71 347.287C2708.46 359.702 2714.87 371.272 2714.62 383.856C2712.09 500.069 2720.62 662.564 2558.39 655.554L2558.48 655.638Z" fill="white"/>
<path d="M2595.89 306.156C2576.64 299.315 2503.08 302.187 2496.92 283.522C2494.3 275.414 2490.42 234.283 2489.57 222.206C2485.94 168.491 2476.4 5.57417 2566.25 26.9417C2644.02 45.4378 2591.5 247.627 2595.89 306.156Z" fill="white"/>
<path d="M285.767 1208.66H185.952L185.614 768.811C163.826 753.271 138.999 757.156 120.336 734.268C96.3536 704.961 113.159 684.016 107.838 672.276C105.389 666.871 68.064 636.973 58.0149 621.856C-8.10684 522.703 23.6451 417.386 16.636 307.254C12.9204 248.725 -41.3788 59.5421 68.7396 67.1432C93.5669 68.8323 101.674 86.9061 122.532 91.8046C129.457 -10.8105 257.9 -31.5868 284.839 72.9707C297.505 64.525 301.052 48.4782 316.253 39.0191C358.307 12.5841 403.486 43.9176 418.771 85.5548C444.02 154.218 418.94 239.942 409.82 310.041C510.48 294.754 494.266 421.777 483.204 486.303C472.141 550.828 439.376 662.648 366.33 672.108C387.103 730.636 337.787 761.801 285.345 765.686L285.683 1208.75L285.767 1208.66ZM195.156 678.695L135.537 684.607C124.728 728.44 179.28 738.153 213.397 740.94C251.06 743.98 360.249 744.234 340.742 685.114L256.887 678.695L254.1 659.692C396.899 677.344 441.065 593.816 459.052 468.398C463.696 436.051 479.657 320.176 420.544 335.969C386.006 345.175 388.286 423.467 369.032 453.364C341.84 495.677 286.527 503.616 270.736 561.047C266.682 575.827 282.474 599.728 250.975 597.194C206.388 521.014 325.204 479.039 348.765 433.095C372.663 386.39 409.988 177.782 402.895 126.601C398.25 93.3248 367.765 34.3739 328.751 63.8494C287.625 94.9295 296.492 252.104 285.514 303.622L332.213 316.122C343.191 355.817 304.43 330.649 281.883 329.128C260.096 327.693 228.513 327.017 207.148 329.128C183.165 331.578 112.567 361.391 107.416 360.377C101.336 359.195 95.1714 346.104 98.2115 338.841L134.524 322.118C139.675 314.179 115.016 152.107 108.598 134.202C85.0378 68.8323 26.1785 83.6967 24.1518 157.596C22.5473 215.703 46.0235 290.194 47.3746 351.678C47.6279 364.093 41.21 375.664 41.4633 388.248C44.0812 504.461 35.721 666.956 197.943 659.861L195.241 678.949L195.156 678.695ZM259.167 287.407C261.785 279.299 265.669 238.168 266.429 226.091C269.976 172.376 279.434 9.45918 189.583 30.9112C111.807 49.4917 164.502 251.597 160.195 310.126C179.449 303.285 253.002 306.072 259.167 287.407Z" fill="#FF00E7"/>
<path d="M197.859 659.608L195.156 678.695L135.537 684.607C124.728 728.44 179.28 738.153 213.397 740.94C251.06 743.98 360.249 744.234 340.742 685.114L256.887 678.695L254.1 659.692C396.899 677.344 441.065 593.816 459.052 468.398C463.697 436.051 479.657 320.176 420.544 335.969C386.006 345.175 388.286 423.467 369.032 453.364C341.84 495.677 286.528 503.616 270.736 561.047C266.683 575.827 282.474 599.728 250.975 597.194C206.388 521.014 325.204 479.039 348.765 433.095C372.663 386.39 409.988 177.782 402.895 126.601C398.25 93.3248 367.765 34.374 328.751 63.8494C287.625 94.9295 296.492 252.104 285.514 303.622L332.213 316.122C343.191 355.817 304.43 330.649 281.883 329.128C260.096 327.693 228.513 327.017 207.148 329.128C183.165 331.578 112.567 361.391 107.416 360.377C101.336 359.195 95.1715 346.104 98.2115 338.841L134.524 322.118C139.675 314.179 115.016 152.107 108.598 134.202C85.0379 68.8324 26.1786 83.6968 24.1518 157.596C22.5474 215.703 46.0235 290.194 47.3747 351.678C47.628 364.093 41.2101 375.664 41.4634 388.248C44.0812 504.461 35.721 666.956 197.943 659.861L197.859 659.608Z" fill="white"/>
<path d="M160.195 310.126C179.449 303.285 253.002 306.072 259.167 287.407C261.785 279.299 265.669 238.168 266.429 226.091C269.976 172.376 279.434 9.45914 189.583 30.9112C111.808 49.4917 164.502 251.597 160.195 310.126Z" fill="white"/>
<path d="M2700.18 1038.9C2745.78 1127.92 2706.51 1226.4 2639.13 1395.48C2586.35 1527.74 2526.47 1622.08 2474.03 1700.45L2311.73 1527.66L2240.54 1594.46L2417.2 1782.55C2329.12 1904.16 2249.24 1987.52 2172.47 2066.91C2048.08 2195.62 1992.77 2230.25 1939.57 2253.73C1854.79 2291.15 1775.91 2299.59 1722.37 2300.69C1697.38 2301.28 1672.38 2301.96 1647.38 2302.55C1508.3 2306.01 1369.13 2309.39 1230.05 2312.85C1226.84 2307.19 1223.55 2301.62 1220.17 2296.21C1313.99 2274.51 1408.74 2235.66 1497.91 2164.63C1524.43 2143.51 1564.54 2111.93 1603.56 2070.21C1725.84 1991.15 1838.82 1915.48 1946.41 1779.25C2068.69 1624.36 2199.92 1370.82 2124.25 1288.73C2106.44 1269.47 2082.45 1262.46 2065.73 1262.55C1875.14 1262.8 1684.46 1263.05 1493.78 1263.39C1488.88 1140.59 1483.9 1017.79 1478.91 894.989H2408.16C2442.79 897.016 2634.82 911.205 2700.18 1038.9Z" fill="#FF00E7"/>
<path d="M2311.73 1527.66L2474.03 1700.45C2469.22 1707.63 2464.49 1714.56 2459.85 1721.48C2445.41 1742.94 2431.22 1763.21 2417.2 1782.55L2240.54 1594.46L2311.73 1527.66Z" fill="#FF00E7"/>
<path d="M1477.9 1430.36C1603.64 1495.98 1723.64 1642.18 1722.37 1805.43C1721.44 1917.17 1663.85 2005.77 1603.56 2070.21C1601.28 2071.73 1598.91 2073.16 1596.63 2074.68C1502.56 2135.49 1372.6 2209.56 1206.57 2275.69C1187.66 2248.92 1166.55 2226.79 1142.9 2211.84C1029.74 2140.31 877.569 2180.93 753.517 2192.75V2303.14L753.01 2327.88C675.32 2326.45 597.882 2319.94 522.302 2301.11C537.503 2212.52 510.902 2118.26 432.873 2028.74L357.294 2109.23C401.713 2163.95 418.095 2216.06 414.295 2264.63C365.654 2243.17 318.195 2214.88 272.34 2177.55C68.655 2011.59 33.3563 1768.02 25.925 1706.54C22.1249 1675.29 17.7337 1621.66 23.3072 1554.68L122.701 1740.57L208.836 1694.54L52.4413 1402.07C61.2237 1373.1 72.2018 1343.12 85.9666 1312.71C109.696 1260.26 166.191 1139.32 295.225 1043.97C405.175 962.724 511.071 942.116 634.447 918.046C732.152 898.959 801.989 896.256 1051.61 894.989C1174.48 894.314 1318.04 894.145 1478.91 894.989H1462.87C1473.17 1017.79 1483.47 1140.59 1493.78 1263.39C1459.58 1262.8 1391.85 1261.7 1322.52 1260.52C1280.89 1166.94 1187.07 1101.66 1077.96 1101.66C968.856 1101.66 880.356 1163.31 837.119 1252.75H836.528C753.77 1251.82 764.495 1252.58 756.642 1252.24C711.378 1168.8 623.047 1112.13 521.458 1112.13C445.287 1112.13 376.547 1143.97 327.906 1195.06C282.136 1243.12 254.015 1308.07 254.015 1379.6C254.015 1527.32 373.761 1647.08 521.458 1647.08C669.155 1647.08 781.047 1535 788.562 1393.96C796.163 1394.13 803.847 1394.3 811.701 1394.47C824.452 1530.36 938.793 1636.69 1077.96 1636.69C1217.13 1636.69 1331.3 1530.61 1344.31 1394.89C1397.59 1398.35 1434.66 1407.81 1477.9 1430.36ZM1256.06 1942.09C1309.51 1845.72 1324.63 1702.06 1275.4 1674.36C1223.55 1645.22 1156.75 1776.47 962.523 1825.96C920.384 1836.77 830.195 1859.74 723.876 1835.67C586.059 1804.42 529.48 1718.61 485.23 1745.3C444.865 1769.71 453.478 1864.3 475.519 1924.6C522.725 2053.65 659.612 2102.13 696.769 2115.22C780.202 2144.78 852.995 2140.14 900.792 2137.1C943.944 2134.31 1004.07 2130.51 1073.15 2099.77C1105.07 2085.58 1199.82 2043.35 1256.06 1942.09Z" fill="#FF00E7"/>
<path d="M1596.63 2074.68C1598.91 2073.16 1601.28 2071.73 1603.56 2070.21C1564.54 2111.93 1524.43 2143.51 1497.91 2164.63C1408.74 2235.66 1313.99 2274.51 1220.17 2296.21C1215.78 2289.12 1211.22 2282.28 1206.57 2275.69C1372.6 2209.56 1502.56 2135.49 1596.63 2074.68Z" fill="#FF00E7"/>
<path d="M1478.91 894.989C1483.9 1017.79 1488.88 1140.59 1493.78 1263.39C1483.47 1140.59 1473.17 1017.79 1462.87 894.989H1478.91Z" fill="#FF00E7"/>
<path d="M1245.84 1393.37C1285.02 1392.86 1316.86 1393.03 1344.31 1394.89C1331.3 1530.61 1217.04 1636.69 1077.96 1636.69C938.878 1636.69 824.453 1530.36 811.701 1394.47C821.497 1394.64 831.462 1394.89 841.68 1395.06C865.663 1395.48 888.632 1395.82 910.504 1395.99C923.34 1476.98 993.43 1538.8 1077.96 1538.8C1162.49 1538.8 1234.1 1475.63 1245.84 1393.37Z" fill="white"/>
<path d="M1247.61 1369.13C1247.61 1326.9 1232.16 1288.3 1206.49 1258.58C1241.62 1259.17 1282.32 1259.84 1322.52 1260.52C1337.3 1293.71 1345.49 1330.45 1345.49 1369.13C1345.49 1377.83 1345.07 1386.44 1344.31 1394.89C1316.86 1393.03 1285.02 1392.86 1245.84 1393.37C1247.02 1385.43 1247.61 1377.41 1247.61 1369.13Z" fill="white"/>
<path d="M1247.61 1369.13C1247.61 1377.41 1247.02 1385.43 1245.84 1393.37C1169.59 1394.21 1065.38 1397.51 910.504 1395.99C909.153 1387.29 908.393 1378.25 908.393 1369.13C908.393 1344.05 913.882 1320.15 923.762 1298.69C933.642 1303.68 944.705 1306.55 956.527 1306.55C989.039 1306.55 1016.48 1285.1 1025.6 1255.62C1054.91 1256.13 1084.21 1256.55 1113.51 1257.06C1127.62 1257.31 1162.58 1257.9 1206.49 1258.58C1232.16 1288.3 1247.61 1326.9 1247.61 1369.13Z" fill="#FF00F3"/>
<path d="M1230.05 2312.85L1097.55 2316.14C1137.83 2312.01 1178.87 2305.76 1220.17 2296.21C1223.55 2301.62 1226.84 2307.19 1230.05 2312.85Z" fill="#FF00E7"/>
<path d="M1220.17 2296.21C1178.87 2305.76 1137.83 2312.01 1097.55 2316.14C1135.47 2303.14 1171.87 2289.63 1206.57 2275.69C1211.22 2282.28 1215.78 2289.12 1220.17 2296.21Z" fill="#FF00E7"/>
<path d="M1245.84 1393.37C1234.1 1475.63 1163.42 1538.8 1077.96 1538.8C992.502 1538.8 923.34 1476.98 910.504 1395.99C1065.38 1397.51 1169.59 1394.21 1245.84 1393.37Z" fill="#FF00F3"/>
<path d="M1142.9 2211.84C1166.55 2226.79 1187.66 2248.92 1206.57 2275.69C1171.87 2289.63 1135.47 2303.14 1097.55 2316.14C1096.29 2316.31 1094.93 2316.48 1093.67 2316.57C1067.91 2294.69 1035.48 2284.39 985.154 2281.01L753.602 2303.14V2192.75C877.654 2180.93 1029.83 2140.31 1142.99 2211.84H1142.9Z" fill="#FF00E7"/>
<path d="M985.07 2281.01C1035.4 2284.39 1067.83 2294.69 1093.58 2316.57C1032.53 2322.73 973.163 2324.42 917.428 2325.94C862.96 2327.46 807.901 2328.9 753.011 2327.88L753.517 2303.14L985.07 2281.01Z" fill="#FF00E7"/>
<path d="M1025.6 1255.62C1027.72 1248.86 1028.81 1241.68 1028.81 1234.25C1028.81 1225.13 1027.12 1216.35 1024 1208.32C1040.97 1202.67 1059.13 1199.54 1077.96 1199.54C1129.39 1199.54 1175.5 1222.43 1206.49 1258.58C1162.58 1257.9 1127.62 1257.31 1113.51 1257.06C1084.21 1256.55 1054.91 1256.13 1025.6 1255.62Z" fill="#FF00F3"/>
<path d="M1028.81 1234.25C1028.81 1241.68 1027.72 1248.86 1025.6 1255.62C1023.75 1255.62 1021.8 1255.54 1019.95 1255.54C993.684 1255.11 972.15 1254.69 953.149 1254.35C972.319 1233.49 996.555 1217.53 1024 1208.32C1027.12 1216.35 1028.81 1225.13 1028.81 1234.25Z" fill="white"/>
<path d="M1019.95 1255.54C1021.8 1255.54 1023.75 1255.62 1025.6 1255.62C1016.48 1285.1 989.039 1306.55 956.527 1306.55C944.704 1306.55 933.642 1303.68 923.762 1298.69C931.193 1282.39 941.158 1267.36 953.149 1254.35C972.15 1254.69 993.684 1255.11 1019.95 1255.54Z" fill="white"/>
<path d="M956.527 1161.96C987.35 1161.96 1013.61 1181.21 1024 1208.32C996.554 1217.53 972.318 1233.49 953.149 1254.35C928.153 1254.02 907.716 1253.68 886.858 1253.42C885.169 1247.34 884.24 1240.92 884.24 1234.25C884.24 1194.3 916.583 1161.96 956.527 1161.96Z" fill="white"/>
<path d="M953.149 1254.35C941.158 1267.36 931.193 1282.39 923.762 1298.69C905.859 1289.57 892.263 1273.19 886.858 1253.42C907.717 1253.68 928.153 1254.02 953.149 1254.35Z" fill="white"/>
<path d="M923.761 1298.69C913.881 1320.14 908.392 1344.05 908.392 1369.13C908.392 1378.25 909.152 1387.29 910.503 1395.99C888.632 1395.82 865.662 1395.48 841.679 1395.06C831.461 1394.89 821.497 1394.64 811.701 1394.47C810.941 1386.11 810.519 1377.66 810.519 1369.13C810.519 1327.41 820.061 1287.97 837.119 1252.75C855.275 1252.92 871.151 1253.17 886.858 1253.42C892.263 1273.19 905.859 1289.57 923.761 1298.69Z" fill="white"/>
<path d="M956.527 1161.96C916.583 1161.96 884.24 1194.3 884.24 1234.25C884.24 1240.92 885.169 1247.34 886.858 1253.42C871.151 1253.17 855.275 1252.92 837.119 1252.75C880.356 1163.31 971.98 1101.66 1077.96 1101.66C1183.94 1101.66 1280.89 1166.94 1322.52 1260.52C1282.32 1259.84 1241.62 1259.17 1206.49 1258.58C1175.5 1222.43 1129.39 1199.54 1077.96 1199.54C1059.13 1199.54 1040.97 1202.67 1024 1208.32C1013.61 1181.21 987.35 1161.96 956.527 1161.96Z" fill="white"/>
<path d="M788.562 1393.96C751.997 1393.03 719.147 1392.1 690.689 1391C690.942 1387.2 691.111 1383.4 691.111 1379.6C691.111 1332.73 672.026 1290.16 641.203 1259.51C647.199 1249.71 666.368 1251.57 678.951 1252.5C704.454 1254.35 730.125 1250.97 755.628 1252.24H756.642C777.247 1290.08 788.9 1333.49 788.9 1379.6C788.9 1384.42 788.731 1389.23 788.562 1393.96Z" fill="white"/>
<path d="M690.689 1391C719.148 1392.1 751.997 1393.03 788.563 1393.96C781.047 1535 664.342 1647.08 521.458 1647.08C378.574 1647.08 254.016 1527.32 254.016 1379.6C254.016 1308.07 282.136 1243.12 327.906 1195.06L344.205 1198.7C333.818 1211.2 327.653 1227.24 327.653 1244.73C327.653 1272.85 343.698 1297.17 367.174 1309.08C357.294 1330.53 351.805 1354.43 351.805 1379.6C351.805 1473.35 427.722 1549.28 521.458 1549.28C615.194 1549.28 684.862 1479.43 690.689 1391Z" fill="white"/>
<path d="M639.514 1309.67C639.345 1304.1 639.261 1297.51 640.021 1273.19C640.359 1261.7 640.443 1260.69 641.203 1259.51C672.026 1290.16 691.111 1332.73 691.111 1379.6C691.111 1383.4 690.942 1387.2 690.689 1391C672.448 1390.5 656.066 1389.82 641.71 1389.23C641.71 1377.32 641.541 1366.93 641.372 1358.57C641.203 1353.25 640.865 1338.64 640.021 1319.38C639.683 1311.78 639.683 1312.88 639.514 1309.67Z" fill="#FF00F3"/>
<path d="M521.458 1209.93C568.241 1209.93 610.549 1228.85 641.203 1259.5C640.443 1260.69 640.359 1261.7 640.021 1273.19C639.261 1297.51 639.345 1304.1 639.514 1309.67C639.683 1312.88 639.683 1311.78 640.021 1319.38C640.866 1338.64 641.203 1353.25 641.372 1358.57C641.541 1366.93 641.71 1377.32 641.71 1389.23C656.066 1389.82 672.449 1390.5 690.689 1391C684.862 1479.43 611.309 1549.28 521.458 1549.28C431.607 1549.28 351.805 1473.35 351.805 1379.6C351.805 1354.43 357.294 1330.53 367.174 1309.08C377.054 1314.15 388.201 1317.02 400.024 1317.02C439.883 1317.02 472.31 1284.67 472.31 1244.73C472.31 1235.52 470.621 1226.82 467.497 1218.71C484.47 1212.97 502.626 1209.93 521.458 1209.93Z" fill="#FF00F3"/>
<path d="M432.874 2028.74C510.902 2118.26 537.503 2212.52 522.303 2301.11C485.822 2292.07 449.763 2280.17 414.295 2264.63C418.096 2216.06 401.713 2163.95 357.294 2109.23L432.874 2028.74Z" fill="#FF00E7"/>
<path d="M467.496 1218.71C470.621 1226.82 472.31 1235.52 472.31 1244.73C472.31 1284.67 439.882 1317.02 400.024 1317.02C388.201 1317.02 377.054 1314.15 367.174 1309.08C386.512 1266.68 422.824 1233.66 467.496 1218.71Z" fill="white"/>
<path d="M400.024 1172.43C430.762 1172.43 457.025 1191.69 467.496 1218.71C422.824 1233.66 386.512 1266.68 367.174 1309.08C343.698 1297.17 327.653 1272.85 327.653 1244.73C327.653 1227.24 333.817 1211.2 344.204 1198.7C357.462 1182.65 377.561 1172.43 400.024 1172.43Z" fill="white"/>
<path d="M400.024 1172.43C377.561 1172.43 357.463 1182.65 344.204 1198.7L327.906 1195.06C376.548 1143.97 445.287 1112.13 521.458 1112.13C623.047 1112.13 711.378 1168.8 756.642 1252.24H755.628C730.126 1250.97 704.454 1254.35 678.951 1252.5C666.368 1251.57 647.199 1249.71 641.203 1259.42C610.549 1228.85 568.241 1209.93 521.458 1209.93C502.626 1209.93 484.47 1212.97 467.497 1218.71C457.025 1191.69 430.762 1172.43 400.024 1172.43Z" fill="white"/>
<path d="M52.4412 1402.07L208.836 1694.54L122.701 1740.57L23.3071 1554.68C27.1917 1509.08 35.7208 1457.22 52.4412 1402.07Z" fill="#FF00E7"/>
<path d="M1514.13 2601.69C1593.17 2611.07 1645.7 2661.07 1612.09 2741.55C1670.1 2749.07 1722.54 2705.49 1776.34 2699.58C1889.49 2687.08 1996.57 2761.65 2001.89 2879.81C2002.91 2902.11 1987.2 2947.21 1989.22 2960.89C1989.9 2965.28 2049.44 2994.67 2003.75 3031.83C1952.24 3040.53 1898.36 3045.94 1846.34 3049.23C1679.64 3059.96 1480.86 3059.2 1314.92 3042.22C1286.12 3039.26 1222.11 3016.21 1216.96 3016.21C1211.81 3016.21 1147.8 3039.26 1119 3042.22C923.424 3062.15 672.28 3061.73 476.533 3041.38C463.866 3040.02 435.576 3035.46 426.202 3028.79C399.517 3009.7 407.033 2961.82 444.189 2965.28C389.384 2813.26 501.106 2675.59 662.822 2701.27C690.605 2705.66 803.51 2758.02 821.835 2741.55C780.203 2660.48 840.666 2607.52 919.793 2601.69V2300.94H1066.65V2605.24C1110.05 2628.89 1159.96 2635.48 1178.88 2688.85C1198.89 2745.27 1159.87 2751.1 1159.87 2773.14C1159.87 2779.47 1195.43 2835.81 1198.97 2864.69C1205.56 2918.74 1164.86 2953.2 1217.13 2986.48L1247.11 2955.31C1232.5 2924.99 1230.56 2884.03 1235.2 2850.67C1239 2823.48 1269.57 2782.09 1269.57 2773.14C1269.57 2761.74 1251.5 2749.07 1248.8 2730.66C1239.25 2665.88 1302.51 2619.01 1360.52 2615.71V2300.94H1514.38V2601.69H1514.13ZM1989.73 2993.49C1765.61 3008.52 1538.53 3018.83 1314.75 2993.49L1248.46 2996.95C1256.82 3009.87 1267.04 3006.66 1279.45 3007.76C1477.99 3026.17 1770.68 3038.93 1965.24 3007.42C1975.63 3005.73 1986.86 3007 1989.65 2993.49H1989.73ZM1408.74 2749.07L1413.13 2769.76C1386.95 2802.36 1339.32 2782.85 1309.18 2791.89C1267.04 2804.47 1253.78 2937.41 1294.99 2964.27L1727.78 2979.72L1936.02 2964.1C1988.3 2911.4 1962.71 2813.93 1909.17 2769.76C1811.89 2689.44 1672.72 2747.8 1649.75 2867.82L1626.02 2863.43C1618.67 2828.46 1638.94 2807.18 1647.05 2776.6C1618.59 2785.89 1588.44 2763.93 1566.15 2763.01C1539.97 2761.91 1507.79 2785.89 1486.26 2752.03C1480.69 2725.34 1564.8 2740.2 1580.76 2713.77C1599.08 2662.25 1554.83 2646.96 1514.38 2636.57C1505.26 2693.92 1428.16 2705.49 1385.68 2677.7C1373.44 2669.68 1366.94 2650.68 1362.8 2650C1326.91 2644.26 1257.41 2702.79 1292.29 2739.7C1323.45 2772.72 1399.45 2741.81 1408.74 2748.9V2749.07ZM444.105 3007.42C614.856 3017.98 786.874 3028.12 958.385 3021.7C1019.36 3019.42 1093.16 3014.01 1154.05 3007.51C1163.59 3006.49 1178.79 3004.21 1185.38 2996.95C1168.07 2986.23 1132.77 2992.31 1111.99 2993.49C883.903 3006.41 700.738 2998.05 475.773 2993.15C461.248 2992.81 438.363 2986.65 444.021 3007.42H444.105ZM509.467 2779.14C465.048 2823.9 449.087 2913.76 490.382 2964.6C562.584 2973.13 634.025 2970.94 706.565 2972.21C812.799 2973.98 920.891 2971.61 1028.14 2965.62C1056.85 2964.01 1108.36 2971.28 1131.67 2964.18C1174.31 2951.26 1170.51 2801.43 1111.91 2790.79C1078.21 2784.71 1010.07 2805.91 1017.67 2748.73C1055.5 2746.28 1087.84 2766.22 1124.58 2747.13C1181.24 2717.65 1101.94 2638.01 1066.9 2653.97C1059.21 2657.52 1050.01 2672.97 1036.58 2680.15C1005.68 2696.54 975.359 2696.28 945.296 2677.7C914.219 2658.53 924.944 2622.64 871.152 2654.56C796.079 2699.16 885.085 2749.49 940.82 2734.71L939.976 2758.36C931.869 2782.85 878.667 2763.51 861.271 2764.86C836.866 2766.81 804.185 2786.06 772.94 2776.69C783.665 2789.86 820.146 2859.62 789.83 2867.31C764.58 2873.73 761.793 2831.58 752.166 2814.86C700.907 2726.44 583.526 2704.65 509.636 2779.14H509.467Z" fill="#FF00E7"/>
<path d="M1408.74 2749.07C1399.36 2741.89 1323.36 2772.8 1292.29 2739.86C1257.41 2702.87 1326.91 2644.43 1362.8 2650.17C1366.85 2650.85 1373.44 2669.85 1385.68 2677.87C1428.16 2705.58 1505.26 2694.09 1514.38 2636.74C1554.83 2647.13 1599.08 2662.42 1580.76 2713.94C1564.8 2740.29 1480.77 2725.42 1486.26 2752.2C1507.88 2786.15 1539.97 2762.08 1566.15 2763.17C1588.44 2764.1 1618.5 2786.06 1647.05 2776.77C1638.94 2807.43 1618.67 2828.63 1626.02 2863.59L1649.75 2867.99C1672.8 2747.97 1811.89 2689.61 1909.17 2769.93C1962.71 2814.1 1988.3 2911.65 1936.02 2964.27L1727.78 2979.89L1294.99 2964.44C1253.78 2937.49 1267.04 2804.64 1309.18 2792.06C1339.32 2783.02 1386.95 2802.53 1413.13 2769.93L1408.74 2749.24V2749.07Z" fill="white"/>
<path d="M509.466 2779.14C583.357 2704.65 700.653 2726.44 751.997 2814.86C761.708 2831.58 764.411 2873.73 789.66 2867.31C819.892 2859.62 783.411 2789.86 772.771 2776.69C804.016 2786.06 836.697 2766.72 861.102 2764.86C878.498 2763.51 931.699 2782.77 939.806 2758.36L940.651 2734.71C885 2749.49 795.909 2699.16 870.982 2654.56C924.775 2622.64 914.135 2658.53 945.126 2677.7C975.189 2696.2 1005.42 2696.54 1036.41 2680.15C1049.84 2673.06 1059.04 2657.52 1066.73 2653.97C1101.77 2638.01 1181.07 2717.65 1124.41 2747.13C1087.67 2766.22 1055.41 2746.28 1017.5 2748.73C1009.9 2805.91 1078.05 2784.71 1111.74 2790.79C1170.35 2801.43 1174.15 2951.26 1131.5 2964.18C1108.28 2971.19 1056.68 2964.01 1027.97 2965.62C920.721 2971.61 812.63 2973.98 706.396 2972.21C633.856 2970.94 562.414 2973.13 490.212 2964.6C448.918 2913.76 464.878 2823.9 509.297 2779.14H509.466Z" fill="white"/>
<path d="M1989.73 2993.49C1986.86 3007.09 1975.71 3005.73 1965.33 3007.42C1770.68 3038.84 1478.07 3026.17 1279.53 3007.76C1267.12 3006.58 1256.9 3009.87 1248.54 2996.95L1314.83 2993.49C1538.62 3018.91 1765.69 3008.52 1989.82 2993.49H1989.73Z" fill="white"/>
<path d="M444.105 3007.42C438.447 2986.65 461.332 2992.81 475.857 2993.15C700.822 2998.05 883.987 3006.49 1112.08 2993.49C1132.77 2992.31 1168.15 2986.23 1185.46 2996.95C1178.87 3004.21 1163.67 3006.49 1154.13 3007.51C1093.25 3014.01 1019.44 3019.42 958.469 3021.7C786.958 3028.03 614.94 3017.98 444.189 3007.42H444.105Z" fill="white"/>
</g>
<defs>
<clipPath id="clip0_113_2">
<rect width="2756" height="3057" fill="white"/>
</clipPath>
</defs>
</svg>
