<svg width="561" height="516" viewBox="0 0 561 516" fill="none" xmlns="http://www.w3.org/2000/svg">
<g clip-path="url(#clip0_62_503)">
<path d="M560.75 143.14C560.67 195.67 542.08 248.86 511.49 291.55C448.65 379.23 369.96 455.52 280.38 515.61C190.79 455.52 112.1 379.23 49.26 291.55C18.66 248.86 0.0800288 195.67 2.87604e-05 143.14C-0.109971 66.3101 59.96 0.97009 136.8 9.03467e-05C201.23 -0.79991 261.53 47.2001 280.38 108.02C299.23 47.2101 359.52 -0.78991 423.96 9.03467e-05C500.79 0.96009 560.87 66.3001 560.76 143.13" fill="#7E7E7E"/>
<path d="M560.76 143.14C560.67 195.67 542.09 248.86 511.5 291.55C448.65 379.24 369.96 455.53 280.38 515.62V108.02C299.23 47.2099 359.52 -0.790144 423.96 0.00985598C500.8 0.969856 560.87 66.2999 560.76 143.14Z" fill="#505050"/>
<path d="M184.169 359.569C173.894 359.569 164.048 357.917 154.629 354.615C145.211 351.251 136.832 345.93 129.493 338.652C122.154 331.313 116.375 321.712 112.155 309.847C107.935 297.921 105.856 283.396 105.917 266.271C105.978 250.798 107.874 236.915 111.605 224.623C115.335 212.269 120.656 201.78 127.567 193.156C134.539 184.533 142.856 177.959 152.52 173.433C162.244 168.846 173.099 166.553 185.086 166.553C198.235 166.553 209.825 169.121 219.855 174.259C229.946 179.335 238.019 186.184 244.074 194.808C250.128 203.37 253.706 212.911 254.807 223.43H210.131C208.785 217.498 205.819 213.002 201.232 209.944C196.707 206.825 191.325 205.266 185.086 205.266C173.589 205.266 164.996 210.25 159.308 220.219C153.682 230.188 150.807 243.52 150.685 260.217H151.877C154.446 254.59 158.146 249.759 162.978 245.722C167.809 241.686 173.344 238.597 179.582 236.457C185.881 234.255 192.548 233.154 199.581 233.154C210.834 233.154 220.772 235.753 229.396 240.952C238.019 246.15 244.777 253.275 249.67 262.327C254.562 271.317 256.978 281.622 256.917 293.242C256.978 306.33 253.92 317.889 247.743 327.919C241.566 337.888 233.004 345.655 222.057 351.221C211.17 356.786 198.541 359.569 184.169 359.569ZM183.894 324.708C189.459 324.708 194.444 323.393 198.847 320.764C203.25 318.134 206.706 314.556 209.213 310.03C211.721 305.505 212.944 300.398 212.883 294.71C212.944 288.961 211.721 283.854 209.213 279.39C206.767 274.925 203.342 271.378 198.939 268.748C194.597 266.119 189.612 264.804 183.986 264.804C179.888 264.804 176.066 265.568 172.518 267.097C168.971 268.626 165.883 270.767 163.253 273.519C160.684 276.21 158.666 279.39 157.198 283.059C155.73 286.668 154.966 290.582 154.905 294.802C154.966 300.367 156.25 305.413 158.758 309.939C161.265 314.464 164.69 318.073 169.032 320.764C173.375 323.393 178.328 324.708 183.894 324.708Z" fill="#353535"/>
<path d="M331.987 357L407.762 206.917V205.725H319.144V169.121H454.732V206L378.681 357H331.987Z" fill="#8B8B8B"/>
</g>
<defs>
<clipPath id="clip0_62_503">
<rect width="560.76" height="515.62" fill="white"/>
</clipPath>
</defs>
</svg>
