<svg width="221" height="331" viewBox="0 0 221 331" fill="none" xmlns="http://www.w3.org/2000/svg">
<path d="M115.422 37.6382H105.561C100.339 37.6382 96.1062 41.8673 96.1062 47.0842V317.973C96.1062 323.19 100.339 327.419 105.561 327.419H115.422C120.643 327.419 124.877 323.19 124.877 317.973V47.0842C124.877 41.8673 120.643 37.6382 115.422 37.6382Z" fill="#534614"/>
<path d="M85.5972 312.837V324.892C85.5972 328.265 88.3346 331 91.7113 331H129.272C132.648 331 135.386 328.265 135.386 324.892V312.837C135.386 309.464 132.648 306.729 129.272 306.729H91.7113C88.3346 306.729 85.5972 309.464 85.5972 312.837Z" fill="#534614"/>
<path d="M191.273 110.549H29.7272C13.3093 110.549 0 123.846 0 140.248V188.613C0 205.015 13.3093 218.312 29.7272 218.312H191.273C207.691 218.312 221 205.015 221 188.613V140.248C221 123.846 207.691 110.549 191.273 110.549Z" fill="#82BB8A"/>
<path d="M143.803 0H77.1967C60.7788 0 47.4695 13.2967 47.4695 29.6991V134.723C47.4695 151.126 60.7788 164.423 77.1967 164.423H143.803C160.221 164.423 173.53 151.126 173.53 134.723V29.6991C173.53 13.2967 160.221 0 143.803 0Z" fill="#82BB8A"/>
</svg>
