<svg width="202" height="421" viewBox="0 0 202 421" fill="none" xmlns="http://www.w3.org/2000/svg">
<path d="M108.072 310.012H96.7383C91.5176 310.012 87.2854 314.243 87.2854 319.462V408.681C87.2854 413.9 91.5176 418.131 96.7383 418.131H108.072C113.293 418.131 117.525 413.9 117.525 408.681V319.462C117.525 314.243 113.293 310.012 108.072 310.012Z" fill="#534614"/>
<path d="M76.2598 407.562V414.889C76.2598 418.264 78.9965 421 82.3725 421H122.47C125.846 421 128.583 418.264 128.583 414.889V407.562C128.583 404.187 125.846 401.451 122.47 401.451H82.3725C78.9965 401.451 76.2598 404.187 76.2598 407.562Z" fill="#534614"/>
<path d="M83.2319 0.0162009H124.043C133.091 0.0162009 141.246 5.44648 144.749 13.7783L200.25 145.953C202.488 151.286 202.585 157.283 200.51 162.681L143.192 311.876C139.868 320.548 131.534 326.27 122.227 326.27H83.2319C74.2816 326.27 66.1744 320.953 62.6235 312.719L1.83626 172.034C-0.612088 166.361 -0.612088 159.909 1.83626 154.236L62.6235 13.5514C66.1744 5.33301 74.2816 0 83.2319 0V0.0162009Z" fill="#82BB8A"/>
</svg>
