<svg width="248" height="304" viewBox="0 0 248 304" fill="none" xmlns="http://www.w3.org/2000/svg">
<path d="M133.349 9.60986H114.652C109.421 9.60986 105.181 13.854 105.181 19.0895V290.943C105.181 296.179 109.421 300.423 114.652 300.423H133.349C138.579 300.423 142.819 296.179 142.819 290.943V19.0895C142.819 13.854 138.579 9.60986 133.349 9.60986Z" fill="#534614"/>
<path d="M91.4385 285.772V297.87C91.4385 301.255 94.1803 304 97.5626 304H150.421C153.803 304 156.545 301.255 156.545 297.87V285.772C156.545 282.387 153.803 279.642 150.421 279.642H97.5626C94.1803 279.642 91.4385 282.387 91.4385 285.772Z" fill="#534614"/>
<path d="M235.736 185.837H12.2643C5.49092 185.837 0 191.334 0 198.114V233.48C0 240.26 5.49092 245.756 12.2643 245.756H235.736C242.509 245.756 248 240.26 248 233.48V198.114C248 191.334 242.509 185.837 235.736 185.837Z" fill="#82BB8A"/>
<path d="M206.919 89.3984H41.0654C34.2919 89.3984 28.801 94.8948 28.801 101.675V137.041C28.801 143.821 34.2919 149.317 41.0654 149.317H206.919C213.692 149.317 219.183 143.821 219.183 137.041V101.675C219.183 94.8948 213.692 89.3984 206.919 89.3984Z" fill="#82BB8A"/>
<path d="M184.225 0H63.7585C56.9851 0 51.4941 5.49637 51.4941 12.2765V47.6423C51.4941 54.4224 56.9851 59.9187 63.7585 59.9187H184.225C190.999 59.9187 196.49 54.4224 196.49 47.6423V12.2765C196.49 5.49637 190.999 0 184.225 0Z" fill="#82BB8A"/>
</svg>
