<svg width="1440" height="525" viewBox="0 0 1440 525" fill="none" xmlns="http://www.w3.org/2000/svg">
<path d="M0 226.043C0 226.043 83.7933 43.9153 139.724 13.7631C171.213 -3.20288 252.971 -5.92222 282.835 13.7631C335.019 48.1568 362.352 192.077 414.81 226.043C451.824 250.004 501.255 255.477 537.704 230.661C588.999 195.72 591.052 51.7484 642.997 17.7652C676.726 -4.31454 786.552 -5.8196 820.812 15.4221C907.291 69.0394 872.125 199.773 956.516 235.33C994.761 251.441 1034.49 238.802 1045.42 235.33C1120.08 211.574 1117.31 141.863 1192.23 106.443C1231.76 87.7498 1291.38 77.8815 1335.75 103.45C1373.65 125.29 1440 243.967 1440 243.967V525H0V226.026V226.043Z" fill="#FEDBA7"/>
</svg>
