<svg width="1112" height="473" viewBox="0 0 1112 473" fill="none" xmlns="http://www.w3.org/2000/svg">
<g clip-path="url(#clip0_138_54)">
<path d="M1112 0H0V473H1112V0Z" fill="url(#paint0_linear_138_54)"/>
<path d="M179.99 320.076C178.657 320.036 177.512 320.029 176.253 319.956C171.004 319.653 166.497 318.491 163.652 316.667C160.835 317.31 157.831 317.48 154.76 317.346C150.431 317.155 146.619 316.31 144.328 314.775C141.643 312.978 141.661 310.613 144.45 308.761C147.051 307.035 151.37 305.944 156.244 305.814C156.056 303.923 158.873 302.219 162.91 301.493C166.948 300.767 171.831 301.139 174.798 302.515C178.667 300.634 185.089 300.294 189.559 301.749C194.113 299.254 202.047 298.327 208.629 299.496C215.136 300.655 218.686 303.58 217.005 306.558L216.423 307.584C220.911 307.461 224.996 308.125 227.784 309.576C230.066 310.768 231.137 312.472 230.132 314.18C233.672 314.201 236.724 314.848 238.583 316.025C240.263 317.09 240.714 318.48 239.522 319.823C237.822 321.736 233.202 322.928 228.385 322.809C225.85 322.747 223.681 322.35 221.794 321.635C217.381 323.671 209.991 323.736 205.897 321.751C197.333 324.574 185.221 323.964 179.972 320.072L179.99 320.076Z" fill="#EAB7F7"/>
<g clip-path="url(#clip1_138_54)">
<path d="M266.448 107.392C264.607 107.816 263.084 108.208 261.25 108.575C253.643 110.093 245.01 110.454 237.028 109.541C234.818 111.199 231.256 112.429 226.907 113.359C220.767 114.673 213.791 115.122 207.211 114.317C199.491 113.373 194.031 110.893 193.386 107.979C192.784 105.262 195.936 102.61 202.048 100.77C197.409 98.8552 197.147 96.0879 200.766 93.9111C204.385 91.7342 211.68 90.4182 218.777 90.821C219.492 87.4991 227.155 84.8947 236.419 84.8533C236.596 80.6486 244.889 76.9018 256.271 75.8231C267.525 74.7581 278.991 76.5763 283.708 80.2871L285.33 81.5645C290.946 79.8678 297.873 79.1311 304.906 79.6774C310.678 80.1271 316.054 81.537 318.71 83.6752C323.412 82.4612 328.929 82.0667 334.121 82.6488C338.802 83.173 342.634 84.4725 344.185 86.2962C346.402 88.8924 343.087 91.759 336.486 93.3179C333.002 94.1401 329.234 94.4822 325.098 94.3966C324.028 98.0744 314.46 100.726 304.453 100.077C299.757 106.026 282.405 109.629 266.448 107.389V107.392Z" fill="#EAB7F7"/>
<path d="M343.108 94.1649C341.267 94.5898 339.744 94.9815 337.91 95.3485C330.303 96.8659 321.67 97.2274 313.688 96.3141C311.478 97.9723 307.916 99.2028 303.567 100.133C297.427 101.446 290.451 101.896 283.871 101.09C276.151 100.146 270.691 97.666 270.046 94.7525C269.444 92.0349 272.596 89.3835 278.708 87.5433C274.069 85.6285 273.807 82.8613 277.426 80.6844C281.194 78.422 288.34 77.1915 295.437 77.5943C296.152 74.2725 303.815 71.668 313.079 71.6266C313.256 67.4219 321.55 63.6752 332.931 62.5964C344.312 61.5177 355.651 63.3496 360.368 67.0605L361.99 68.3379C367.607 66.6411 374.533 65.9045 381.566 66.4508C387.338 66.9005 392.714 68.3103 395.37 70.4485C400.072 69.2346 405.59 68.8401 410.781 69.4222C415.462 69.9464 419.294 71.2459 420.845 73.0696C423.062 75.6658 419.747 78.5324 413.147 80.0912C409.662 80.9134 405.894 81.2555 401.758 81.17C400.689 84.8477 391.12 87.4991 381.113 86.8508C376.417 92.7992 359.065 96.4024 343.108 94.1621V94.1649Z" fill="#EAB7F7"/>
<path d="M397.268 96.2922C395.143 96.1956 393.316 96.1459 391.29 96.0025C382.883 95.4093 375.447 93.6573 370.532 91.0473C366.19 91.8446 361.445 91.9798 356.537 91.6929C349.61 91.2873 343.363 89.9961 339.39 87.8C334.723 85.2258 334.241 81.9619 338.264 79.4926C342.018 77.1916 348.647 75.8259 356.374 75.8066C355.666 73.1883 359.766 70.9259 366.034 70.0513C372.557 69.1409 380.15 69.8527 385.164 71.8502C390.908 69.3781 401.05 69.1188 408.479 71.2763C415.172 67.9766 427.595 66.9557 438.317 68.7905C449.04 70.6252 455.202 74.7609 453.176 78.8222L452.475 80.2238C459.579 80.2017 466.236 81.2529 470.975 83.3497C474.863 85.0686 476.938 87.4606 475.72 89.7892C481.35 89.9354 486.35 90.9259 489.573 92.6172C492.477 94.1401 493.497 96.0797 491.896 97.8951C489.608 100.483 482.519 101.978 474.842 101.658C470.79 101.49 467.263 100.869 464.112 99.8237C457.532 102.494 445.804 102.34 438.856 99.4622C425.86 103.082 406.461 101.846 397.261 96.2922H397.268Z" fill="#EAB7F7"/>
<path d="M974.655 222.856C973.649 222.825 972.785 222.82 971.836 222.765C967.877 222.533 964.478 221.644 962.332 220.251C960.207 220.742 957.941 220.872 955.625 220.77C952.36 220.624 949.484 219.978 947.756 218.805C945.73 217.431 945.745 215.624 947.848 214.209C949.81 212.89 953.068 212.057 956.744 211.958C956.602 210.512 958.727 209.21 961.772 208.655C964.818 208.1 968.5 208.385 970.738 209.436C973.656 207.998 978.501 207.739 981.872 208.851C985.307 206.944 991.292 206.235 996.256 207.129C1001.16 208.015 1003.84 210.25 1002.57 212.526L1002.13 213.309C1005.52 213.216 1008.6 213.723 1010.7 214.832C1012.43 215.743 1013.23 217.045 1012.48 218.35C1015.15 218.367 1017.45 218.861 1018.85 219.76C1020.12 220.574 1020.46 221.636 1019.56 222.662C1018.28 224.125 1014.79 225.035 1011.16 224.944C1009.25 224.897 1007.61 224.594 1006.19 224.047C1002.86 225.604 997.283 225.653 994.195 224.136C987.736 226.293 978.6 225.827 974.641 222.853L974.655 222.856Z" fill="#EAB7F7"/>
<path d="M618.19 158.077C617.184 158.047 616.32 158.041 615.371 157.986C611.412 157.754 608.012 156.866 605.866 155.473C603.742 155.964 601.475 156.093 599.159 155.991C595.894 155.845 593.019 155.199 591.291 154.027C589.265 152.653 589.279 150.846 591.383 149.43C593.345 148.112 596.603 147.278 600.278 147.179C600.137 145.733 602.261 144.431 605.307 143.877C608.352 143.322 612.035 143.606 614.273 144.657C617.191 143.22 622.035 142.961 625.407 144.072C628.842 142.166 634.826 141.457 639.791 142.351C644.699 143.236 647.376 145.471 646.109 147.747L645.67 148.531C649.055 148.437 652.136 148.945 654.239 150.054C655.96 150.964 656.768 152.267 656.01 153.572C658.68 153.588 660.982 154.082 662.384 154.982C663.652 155.795 663.992 156.858 663.092 157.884C661.81 159.346 658.326 160.257 654.693 160.166C652.78 160.119 651.144 159.815 649.721 159.269C646.392 160.825 640.818 160.875 637.73 159.357C631.271 161.515 622.135 161.049 618.176 158.074L618.19 158.077Z" fill="#EAB7F7"/>
<path d="M619.118 96.7253C617 96.855 615.215 96.9985 613.161 97.0729C604.655 97.3847 596.284 96.4742 589.747 94.474C586.114 95.6962 581.637 96.3253 576.715 96.5598C569.76 96.8936 562.855 96.3059 557.515 94.6092C551.247 92.6172 548.527 89.5271 550.701 86.7267C552.727 84.1167 558.173 82.1081 565.603 81.2804C563.117 78.8305 565.504 76.2232 570.936 74.7251C576.368 73.2269 584.392 73.0559 590.604 74.4547C594.428 71.4722 604.018 70.1589 612.665 71.4584C616.83 67.5793 628.091 65.2948 639.692 65.9377C651.158 66.5722 660.075 69.9189 660.932 74.0436L661.223 75.4645C668.05 74.6975 675.189 75.0148 681.202 76.5377C686.131 77.7876 689.786 79.8734 690.218 82.2433C695.742 81.7936 701.238 82.224 705.509 83.5152C709.362 84.6795 711.678 86.4398 711.394 88.3545C710.984 91.0859 705.183 93.271 697.562 93.7649C693.547 94.027 689.722 93.798 685.961 93.1221C681.471 96.3832 670.061 97.4647 661.385 95.4203C651.364 100.268 631.823 101.109 619.132 96.7253H619.118Z" fill="#EAB7F7"/>
<path d="M708.519 92.1646C706.401 92.2943 704.617 92.4378 702.563 92.5123C694.057 92.824 685.685 91.9136 679.148 89.9133C675.515 91.1355 671.039 91.7646 666.116 91.9991C659.162 92.3329 652.256 91.7453 646.916 90.0485C640.648 88.0565 637.928 84.9664 640.103 82.166C642.128 79.556 647.575 77.5475 655.004 76.7198C652.518 74.2698 654.905 71.6625 660.337 70.1644C665.989 68.6056 673.794 68.4952 680.005 69.894C683.83 66.9115 693.419 65.5983 702.067 66.8978C706.231 63.0186 717.492 60.7342 729.093 61.377C740.694 62.0198 749.477 65.3582 750.334 69.4829L750.624 70.9038C757.451 70.1368 764.59 70.4541 770.603 71.9771C775.533 73.2269 779.187 75.3127 779.619 77.6827C785.144 77.233 790.64 77.6634 794.91 78.9546C798.763 80.1189 801.079 81.8791 800.796 83.7938C800.385 86.5253 794.585 88.7104 786.964 89.2042C782.948 89.4663 779.124 89.2373 775.363 88.5614C770.873 91.8225 759.463 92.9041 750.787 90.8596C740.765 95.7072 721.225 96.5487 708.533 92.1646H708.519Z" fill="#EAB7F7"/>
<path d="M810.726 93.9111C808.608 94.0408 806.823 94.1842 804.769 94.2587C796.263 94.5705 787.892 93.66 781.355 91.6598C777.721 92.882 773.245 93.511 768.323 93.7456C761.368 94.0794 754.463 93.4917 749.123 91.795C742.855 89.803 740.135 86.7129 742.309 83.9125C744.335 81.3025 749.781 79.2939 757.211 78.4662C754.725 76.0163 757.112 73.409 762.544 71.9109C768.196 70.352 776 70.2417 782.212 71.6405C786.036 68.658 795.626 67.3447 804.273 68.6442C808.438 64.7651 819.699 62.4806 831.3 63.1235C842.901 63.7663 851.683 67.1047 852.54 71.2294L852.83 72.6503C859.658 71.8833 866.797 72.2006 872.81 73.7235C877.739 74.9733 881.394 77.0592 881.826 79.4291C887.35 78.9794 892.846 79.4098 897.117 80.701C900.97 81.8653 903.286 83.6256 903.002 85.5403C902.592 88.2717 896.791 90.4568 889.17 90.9507C885.155 91.2128 881.33 90.9838 877.569 90.3079C873.079 93.569 861.669 94.6505 852.993 92.6061C842.972 97.4537 823.431 98.2951 810.74 93.9111H810.726Z" fill="#EAB7F7"/>
<path d="M901.529 98.4718C899.412 98.6014 897.627 98.7449 895.573 98.8194C887.067 99.1312 878.695 98.2207 872.158 96.2204C868.525 97.4427 864.049 98.0717 859.127 98.3062C852.172 98.6401 845.266 98.0524 839.926 96.3556C833.658 94.3636 830.939 91.2735 833.113 88.4732C835.139 85.8632 840.585 83.8546 848.014 83.0269C845.529 80.5769 847.915 77.9697 853.347 76.4715C858.999 74.9127 866.804 74.8023 873.015 76.2012C876.84 73.2187 886.429 71.9054 895.077 73.2049C899.242 69.3257 910.503 67.0413 922.104 67.6841C933.705 68.327 942.487 71.6654 943.344 75.7901L943.634 77.2109C950.462 76.4439 957.601 76.7612 963.614 78.2842C968.543 79.534 972.198 81.6198 972.63 83.9898C978.154 83.5401 983.65 83.9705 987.921 85.2617C991.773 86.426 994.089 88.1862 993.806 90.101C993.395 92.8324 987.595 95.0175 979.974 95.5114C975.958 95.7735 972.134 95.5445 968.373 94.8685C963.883 98.1297 952.473 99.2112 943.797 97.1668C933.776 102.014 914.235 102.856 901.543 98.4718H901.529Z" fill="#EAB7F7"/>
<path d="M958.266 150.666C957.303 151.411 956.559 152.06 955.511 152.755C951.191 155.627 944.413 157.743 936.424 158.645C936.849 160.508 935.546 162.29 933.166 163.984C929.802 166.379 924.54 168.219 917.889 168.917C910.077 169.737 902.046 168.793 897.485 166.47C893.228 164.304 892.223 161.41 894.829 158.576C888.271 157.934 884.234 155.655 884.276 153.061C884.319 150.468 888.653 147.83 895.197 146.682C891.21 143.733 894.078 139.931 901.834 137.956C896.182 134.372 897.995 129.477 906.104 126.186C914.121 122.93 926.303 122.061 935.397 124.202L938.535 124.939C940.921 122.332 945.752 120.26 952.437 119.247C957.919 118.417 964.4 118.48 969.591 119.724C971.879 117.716 975.987 116.229 981.171 115.63C985.845 115.092 990.867 115.384 994.691 116.596C1000.14 118.323 1001.31 121.432 997.892 124.128C996.094 125.551 993.381 126.627 989.776 127.422C993.947 130.746 989.542 134.984 980.215 136.538C984.464 142.538 974.818 149.207 958.266 150.664V150.666Z" fill="#EAB7F7"/>
<path d="M985.767 100.615C986.702 101.366 987.58 101.989 988.367 102.732C991.624 105.811 991.844 109.193 988.848 112.214C992.914 113.21 995.768 114.692 997.786 116.458C1000.64 118.949 1001.22 121.694 998.622 124.183C995.569 127.102 988.777 129.019 981.27 129.03C974.273 129.041 967.743 127.601 963.536 125.077C958.252 126.721 951.148 126.594 945.879 125.01C940.397 123.363 937.834 120.486 939.455 117.765C931.013 117.216 924.986 114.027 925.638 110.426C914.894 110.013 905.991 106.487 904.171 101.978C902.372 97.5199 907.967 93.2186 917.847 91.6929L921.254 91.1659C917.372 88.8483 916.055 86.0976 918.031 83.4103C919.653 81.2087 923.704 79.236 929.391 78.3807C926.672 76.4549 926.112 74.2808 928.031 72.3109C929.76 70.5369 933.4 69.1546 938.188 68.7021C945.015 68.0565 952.076 69.5767 955.518 72.2668C957.338 73.6849 957.898 75.1775 957.339 76.7777C966.659 77.4951 972.651 81.4266 970.179 85.2589C985.01 87.5709 992.8 94.6008 985.76 100.613L985.767 100.615Z" fill="#EAB7F7"/>
<path d="M893.575 181.755C892.612 182.5 891.868 183.148 890.82 183.843C886.5 186.715 879.722 188.832 871.733 189.734C872.158 191.596 870.855 193.378 868.475 195.072C865.111 197.467 859.849 199.308 853.198 200.006C845.387 200.825 837.355 199.881 832.794 197.558C828.537 195.393 827.532 192.498 830.138 189.665C823.58 189.022 819.543 186.743 819.585 184.15C819.635 181.451 823.962 178.919 830.506 177.771C826.519 174.821 829.387 171.02 837.143 169.044C831.491 165.46 833.304 160.566 841.413 157.274C849.431 154.019 861.612 153.15 870.706 155.291L873.844 156.027C876.23 153.42 881.061 151.348 887.746 150.335C893.228 149.505 899.709 149.568 904.9 150.813C907.188 148.804 911.296 147.317 916.48 146.718C921.154 146.18 926.176 146.473 930 147.684C935.454 149.411 936.615 152.52 933.201 155.216C931.402 156.64 928.69 157.716 925.085 158.51C929.257 161.835 924.851 166.073 915.524 167.626C919.773 173.627 910.127 180.295 893.575 181.752V181.755Z" fill="#EAB7F7"/>
<path d="M830.131 208.241C829.168 208.986 828.424 209.634 827.376 210.33C823.056 213.202 816.278 215.318 808.289 216.22C808.714 218.082 807.411 219.865 805.031 221.559C801.667 223.954 796.405 225.794 789.754 226.492C781.942 227.311 773.911 226.368 769.35 224.045C765.093 221.879 764.087 218.985 766.694 216.151C760.135 215.508 756.098 213.229 756.141 210.636C756.183 208.043 760.518 205.405 767.062 204.257C763.075 201.308 765.943 197.506 773.698 195.53C768.046 191.947 769.86 187.052 777.969 183.761C785.986 180.505 798.168 179.636 807.262 181.777L810.399 182.514C812.786 179.906 817.616 177.834 824.302 176.822C829.784 175.991 836.264 176.055 841.456 177.299C843.743 175.29 847.851 173.803 853.036 173.205C857.71 172.667 862.731 172.959 866.556 174.17C872.009 175.897 873.171 179.007 869.757 181.702C867.958 183.126 865.246 184.202 861.641 184.997C865.812 188.321 861.407 192.559 852.079 194.112C856.329 200.113 846.683 206.782 830.131 208.238V208.241Z" fill="#EAB7F7"/>
<path d="M746.304 240.748C744.859 241.363 743.697 241.912 742.217 242.472C736.077 244.79 728.095 246.119 719.78 246.155C718.909 247.993 716.423 249.576 712.967 250.959C708.08 252.915 701.748 254.14 694.85 254.118C686.762 254.093 679.672 252.344 676.875 249.632C674.261 247.102 675.281 244.207 679.75 241.749C673.879 240.444 671.549 237.829 673.376 235.335C675.281 232.741 681.188 230.749 688.284 230.33C686.471 227.071 691.854 223.708 700.679 222.616C697.697 218.574 702.81 214.046 712.889 211.72C722.967 209.394 735.184 209.855 742.479 212.865L744.993 213.903C749.087 211.64 755.164 210.148 762.296 209.869C768.146 209.64 774.35 210.379 778.493 212.12C782.077 210.424 787.056 209.419 792.467 209.383C797.34 209.353 801.978 210.159 804.833 211.726C808.898 213.958 807.885 217.075 802.736 219.319C800.024 220.502 796.674 221.258 792.651 221.647C794.386 225.286 787.226 228.909 777.176 229.43C777.148 235.655 763.259 241.073 746.318 240.748H746.304Z" fill="#EAB7F7"/>
<path d="M640.471 261.815C638.53 262.169 636.916 262.5 634.996 262.792C627.043 264.009 618.353 264.036 610.647 262.822C608.026 264.39 604.166 265.474 599.605 266.233C593.16 267.303 586.106 267.482 579.767 266.428C572.331 265.192 567.515 262.513 567.614 259.589C567.706 256.863 571.509 254.344 578.061 252.747C573.932 250.661 574.371 247.896 578.528 245.871C582.848 243.763 590.271 242.814 597.233 243.49C598.784 240.212 607.07 237.917 616.299 238.231C617.545 234.054 626.745 230.644 638.346 230.01C649.947 229.375 660.762 231.635 664.516 235.508L665.812 236.844C671.825 235.37 678.907 234.904 685.77 235.721C691.394 236.388 696.387 238 698.49 240.229C703.476 239.203 709.064 239.023 714.086 239.801C718.611 240.505 722.096 241.945 723.179 243.818C724.723 246.489 720.701 249.212 713.739 250.509C710.063 251.193 706.224 251.386 702.13 251.144C700.133 254.761 689.942 257.031 680.147 256.002C673.964 261.741 655.783 264.657 640.471 261.813V261.815Z" fill="#EAB7F7"/>
<path d="M208.004 129.726C206.729 130.429 205.717 131.047 204.385 131.696C198.868 134.377 191.191 136.176 182.791 136.692C182.458 138.59 180.418 140.323 177.33 141.915C172.975 144.163 166.933 145.761 159.957 146.136C151.77 146.578 144.085 145.231 140.445 142.665C137.053 140.273 137.223 137.305 141.012 134.579C134.687 133.608 131.557 131.113 132.669 128.501C133.823 125.783 139.206 123.441 146.253 122.607C143.455 119.437 147.896 115.749 156.487 114.137C152.273 110.247 156.097 105.402 165.595 102.481C175.092 99.5588 187.579 99.316 195.851 101.92L198.698 102.817C202.168 100.306 207.863 98.4552 214.995 97.7627C220.845 97.1943 227.332 97.5778 232.042 99.0898C235.165 97.1778 239.903 95.8783 245.357 95.5334C250.272 95.2216 255.201 95.7624 258.551 97.1723C263.325 99.1808 263.226 102.373 258.686 104.922C256.292 106.269 253.133 107.221 249.181 107.844C252.014 111.4 245.853 115.456 235.845 116.562C237.665 122.82 225.236 129.069 208.004 129.72V129.726Z" fill="#EAB7F7"/>
<path d="M170.276 168.037C170.227 169.215 170.276 170.217 170.092 171.356C169.356 176.077 165.517 180.61 159.228 184.031C161.699 186.147 162.5 188.677 162.216 191.411C161.82 195.277 159.065 199.034 153.76 201.824C147.535 205.099 139.135 206.313 132.364 204.853C126.047 203.493 121.889 200.304 121.11 196.129C114.396 197.274 108.149 195.715 105.295 192.581C102.441 189.447 103.447 185.002 108.149 181.708C101.208 179.324 99.5795 173.908 104.459 169.262C95.2805 166.605 91.4631 160.179 95.2026 153.845C98.8925 147.576 109.063 142.969 119.772 142.881L123.461 142.85C122.732 139.012 124.828 135.106 129.807 131.93C133.894 129.326 139.893 127.505 146.026 127.485C145.87 124.398 147.967 121.405 152.039 119.167C155.708 117.15 160.63 116.033 165.481 116.372C172.401 116.852 176.941 120.254 176.835 124.503C176.778 126.743 175.51 128.832 173.095 130.843C180.631 133.624 181.339 140.014 174.547 144.613C185.142 150.589 183.775 161.446 170.269 168.04L170.276 168.037Z" fill="#EAB7F7"/>
<path d="M225.561 221.945C227.828 222.726 229.818 223.36 231.921 224.152C240.661 227.435 247.021 231.513 249.62 235.599C255.357 236.239 260.818 237.644 265.981 239.503C273.276 242.13 278.821 245.385 280.826 248.768C283.177 252.738 280.096 256.016 272.851 257.075C266.094 258.063 257.17 257.227 248.508 254.747C246.384 257.481 239.287 258.32 231.312 257.131C223.338 255.941 215.313 252.76 211.928 249.229C202.763 249.739 191.134 246.707 185.227 242.246C174.079 243.242 159.058 240.201 149.107 234.981C139.262 229.819 136.861 223.816 143.646 220.585L145.983 219.47C138.016 217.197 131.748 214.038 128.773 210.501C126.337 207.598 126.677 204.641 130.622 202.809C124.495 200.85 120.005 198.287 118.277 195.63C116.726 193.232 117.739 191.05 121.542 189.83C126.974 188.092 136.564 188.953 144.786 191.742C149.121 193.213 152.379 194.946 154.744 196.965C165.063 196.537 178.01 200.475 182.578 205.471C201.127 206.21 221.439 213.66 225.554 221.942L225.561 221.945Z" fill="#EAB7F7"/>
<path d="M350.835 233.174C353.739 232.84 356.176 232.526 359.016 232.253C370.808 231.119 383.053 231.193 393.316 232.512C397.764 230.962 403.72 229.91 410.512 229.199C420.102 228.192 430.13 228.095 438.544 229.234C448.424 230.573 453.906 233.334 452.355 236.286C450.91 239.04 444.331 241.537 434.337 243.074C439.146 245.228 437.191 248.015 430.357 250.012C423.253 252.09 412.339 252.962 402.863 252.198C399.095 255.492 386.311 257.713 373.471 257.285C369.696 261.49 355.099 264.825 338.455 265.328C321.996 265.824 307.675 263.421 304.261 259.462L303.086 258.099C293.9 259.517 283.701 259.903 274.437 258.998C266.838 258.256 260.584 256.571 258.707 254.294C251.186 255.271 243.232 255.39 236.532 254.543C230.498 253.778 226.291 252.283 225.668 250.377C224.783 247.662 231.759 244.958 242.198 243.73C247.701 243.082 253.204 242.933 258.849 243.228C263.417 239.597 278.864 237.426 292.151 238.579C303.631 232.854 330.636 230.126 350.821 233.18L350.835 233.174Z" fill="#EAB7F7"/>
<path d="M435.322 216.14C436.009 215.37 436.504 214.7 437.283 213.977C440.513 210.975 446.427 208.6 453.97 207.355C452.886 205.557 453.538 203.758 455.273 201.995C457.73 199.503 462.249 197.467 468.552 196.479C475.946 195.321 484.19 195.875 489.509 197.933C494.474 199.851 496.492 202.632 494.934 205.518C501.62 205.846 506.408 207.885 507.286 210.418C508.2 213.053 504.843 215.726 498.815 217.144C503.787 219.843 502.321 223.683 495.395 225.965C502.236 229.204 502.194 234.065 495.395 237.649C488.659 241.195 476.987 242.599 467.27 240.927L463.92 240.35C462.497 243.004 458.488 245.247 452.27 246.541C447.17 247.604 440.768 247.838 435.215 246.859C433.678 248.925 430.166 250.564 425.279 251.386C420.873 252.126 415.824 252.068 411.624 251.063C405.639 249.629 403.387 246.646 405.788 243.857C407.056 242.386 409.336 241.211 412.601 240.27C407.311 237.216 410.136 232.876 418.756 230.937C412.431 225.275 419.556 218.322 435.322 216.146V216.14Z" fill="#EAB7F7"/>
<path d="M373.768 181.41C375.326 181.84 376.601 182.235 378.166 182.607C384.647 184.15 392.324 184.561 399.704 183.714C401.305 185.361 404.216 186.594 407.898 187.538C413.104 188.87 419.273 189.356 425.371 188.605C432.531 187.725 438.027 185.319 439.288 182.456C440.463 179.785 438.261 177.156 433.204 175.304C437.822 173.447 438.714 170.727 435.973 168.561C433.119 166.31 426.986 165.052 420.512 165.405C420.654 162.13 414.379 159.52 406.064 159.421C406.893 155.282 400.327 151.541 390.348 150.407C380.482 149.287 369.752 151.006 364.639 154.626L362.875 155.873C358.229 154.165 352.174 153.398 345.722 153.892C340.431 154.297 335.268 155.652 332.379 157.738C328.441 156.513 323.575 156.091 318.766 156.631C314.432 157.12 310.685 158.372 308.858 160.157C306.259 162.698 308.553 165.54 314.127 167.118C317.066 167.949 320.374 168.31 324.113 168.252C324.213 171.878 332.187 174.548 341.331 173.974C344.15 179.859 358.895 183.515 373.768 181.41Z" fill="#EAB7F7"/>
<path d="M478.206 194.388C479.311 194.995 480.323 195.492 481.28 196.102C485.232 198.626 486.287 201.617 484.105 204.494C488.334 205.118 491.5 206.252 493.915 207.689C497.335 209.72 498.582 212.12 496.648 214.496C494.382 217.285 488.206 219.423 480.855 219.914C473.999 220.372 467.249 219.512 462.497 217.542C457.731 219.341 450.74 219.685 445.188 218.618C439.408 217.506 436.186 215.117 437.092 212.595C428.686 212.647 421.986 210.203 421.738 206.964C411.107 207.284 401.51 204.726 398.607 200.839C395.738 196.995 400.151 192.816 409.45 190.826L412.651 190.142C408.274 188.332 406.305 185.973 407.573 183.46C408.614 181.399 412.091 179.388 417.453 178.262C414.308 176.725 413.225 174.83 414.613 172.959C415.866 171.271 419.089 169.811 423.664 169.102C430.194 168.089 437.482 168.986 441.526 171.157C443.658 172.302 444.579 173.591 444.43 175.048C453.736 175.086 460.585 178.196 459.112 181.755C474.218 182.856 483.596 188.603 478.185 194.394L478.206 194.388Z" fill="#EAB7F7"/>
<path d="M285.628 153.089C287.419 152.785 288.907 152.493 290.677 152.247C298.001 151.226 305.912 151.403 312.859 152.796C315.338 151.301 318.922 150.311 323.122 149.665C329.057 148.752 335.495 148.741 341.21 149.941C347.917 151.348 352.139 154.126 351.876 157.034C351.629 159.746 348.017 162.16 341.954 163.592C345.594 165.766 345.028 168.506 341.125 170.421C337.06 172.416 330.24 173.183 323.943 172.347C322.336 175.572 314.644 177.658 306.259 177.125C304.878 181.253 296.294 184.425 285.684 184.781C275.195 185.132 265.358 182.632 262.171 178.69L261.073 177.332C255.506 178.656 249.026 178.949 242.821 177.975C237.736 177.175 233.281 175.456 231.504 173.185C226.9 174.088 221.794 174.134 217.268 173.241C213.181 172.435 210.101 170.917 209.222 169.028C207.976 166.335 211.8 163.719 218.224 162.594C221.61 162 225.122 161.898 228.841 162.238C230.88 158.684 240.3 156.67 249.16 157.925C255.138 152.36 271.866 149.891 285.649 153.086L285.628 153.089Z" fill="#EAB7F7"/>
<path d="M225.299 189.118C227.006 188.746 228.501 188.459 230.073 188.059C236.582 186.404 241.001 183.838 242.347 180.839C246.908 180.971 251.094 180.458 254.954 179.545C260.407 178.254 264.317 176.259 265.308 173.762C266.477 170.829 263.339 167.841 257.234 166.166C251.54 164.605 244.415 164.271 237.821 165.286C235.576 162.845 229.627 161.366 223.345 161.421C216.808 161.479 211.12 163.132 209.031 165.595C201.46 164.147 192.55 165.275 188.57 168.2C179.292 166.136 167.613 166.886 160.481 169.966C153.427 173.011 152.606 177.575 158.746 180.946L160.864 182.108C154.794 183.038 150.275 184.872 148.526 187.386C147.088 189.447 147.924 191.869 151.486 193.792C146.855 194.678 143.682 196.234 142.775 198.179C141.961 199.934 143.2 201.807 146.536 203.22C151.295 205.234 158.951 205.626 165.134 204.31C168.392 203.617 170.722 202.588 172.266 201.228C180.765 202.74 190.581 201.032 193.358 197.522C208.351 199.026 223.508 195.321 225.292 189.113L225.299 189.118Z" fill="#EAB7F7"/>
</g>
<path d="M217.891 347.263C222.16 372.383 363.714 369.32 363.714 369.32C363.714 369.32 344.795 375.997 317.688 385.116L398.749 381.308C398.749 381.308 334.009 310.641 246.25 314.801C246.25 314.801 213.622 322.144 217.891 347.263Z" fill="#00CE73"/>
<path d="M217.891 347.263C213.622 322.142 246.25 314.802 246.25 314.802C243.543 314.931 240.814 315.128 238.065 315.403C224.073 316.802 212.042 320.336 200.476 323.36C106.803 347.86 -8.896 434.196 -8.896 434.196L317.689 385.116C344.797 375.997 363.716 369.32 363.716 369.32C363.716 369.32 222.16 372.383 217.891 347.263Z" fill="#008E5E"/>
<path d="M713.106 321.72C714.889 363.425 948.127 372.567 948.127 372.567C948.127 372.567 915.65 381.644 869.21 393.914L1112 443.416C1112 443.416 911.537 273.172 766.466 271.22C766.466 271.22 711.323 280.016 713.106 321.72Z" fill="#00CE73"/>
<path d="M713.106 321.721C711.323 280.016 766.466 271.221 766.466 271.221C761.99 271.161 757.466 271.213 752.891 271.389C729.609 272.287 708.512 275.65 689.467 280.701C583.436 308.822 541.155 389.361 541.155 389.361L869.208 393.915C915.65 381.645 948.126 372.567 948.126 372.567C948.126 372.567 714.891 363.426 713.106 321.721Z" fill="#008E5E"/>
<path d="M471.54 318.466C468.665 349.261 517.48 379.484 565.636 395.019C629.171 367.642 675.729 316.202 675.729 316.202C675.729 316.202 604.707 259.258 516.33 266.991C509.892 267.697 475.734 273.542 471.54 318.466Z" fill="#00CE73"/>
<path d="M322.761 363.567C322.761 363.567 401.523 415.272 497.119 411.596C521.122 410.673 544.332 404.198 565.634 395.019C517.478 379.484 468.665 349.261 471.539 318.466C475.732 273.541 509.89 267.696 516.328 266.991C511.532 267.41 506.687 268.018 501.797 268.838C406.807 284.768 322.761 363.567 322.761 363.567Z" fill="#008E5E"/>
<path d="M619.001 335.974C623.106 339.785 623.482 344.404 619.842 346.29C616.202 348.176 609.923 346.613 605.818 342.802C601.713 338.99 601.337 334.373 604.977 332.487C608.617 330.601 614.896 332.162 619.001 335.974Z" fill="#008E5E"/>
<path d="M660.352 317.516C663.678 320.603 663.982 324.344 661.033 325.871C658.083 327.398 652.997 326.133 649.673 323.047C646.35 319.96 646.044 316.219 648.993 314.692C651.941 313.165 657.026 314.43 660.352 317.516Z" fill="#5EDD8C"/>
<path d="M770.514 285.792C773.798 288.069 774.697 291.137 772.522 292.645C770.346 294.153 765.923 293.529 762.64 291.253C759.357 288.976 758.457 285.908 760.633 284.4C762.808 282.893 767.231 283.516 770.514 285.792Z" fill="#5EDD8C"/>
<path d="M888.084 311.313C891.368 313.59 892.267 316.659 890.092 318.166C887.916 319.674 883.493 319.051 880.21 316.774C876.927 314.497 876.027 311.429 878.203 309.921C880.376 308.413 884.801 309.037 888.084 311.313Z" fill="#5EDD8C"/>
<path d="M851.153 314.882C855.96 318.215 857.274 322.706 854.092 324.914C850.909 327.121 844.431 326.209 839.624 322.876C834.818 319.543 833.503 315.052 836.686 312.844C839.87 310.636 846.347 311.549 851.153 314.882Z" fill="#008E5E"/>
<path d="M471.463 319.549C471.463 319.549 475.449 312.159 481.634 314.802C487.819 317.445 493.629 336.842 509.721 332.556C525.812 328.269 547.901 300.698 572.348 304.579C596.792 308.46 603.705 319.116 624.105 318.689C624.105 318.689 612.108 312.626 602.094 305.743C592.079 298.86 576.461 295.146 569.107 294.918C561.752 294.69 520.424 310.706 517.374 312.952C514.326 315.198 496.655 316.628 492.53 310.093C488.408 303.558 475.682 302.502 469.381 306.502C463.079 310.501 471.463 319.549 471.463 319.549Z" fill="#008E5E"/>
<path d="M535.445 349.292C540.926 354.382 541.43 360.55 536.567 363.068C531.705 365.586 523.319 363.5 517.837 358.41C512.355 353.32 511.852 347.152 516.715 344.634C521.576 342.116 529.961 344.202 535.445 349.292Z" fill="#008E5E"/>
<path d="M570.231 320.239C574.336 324.052 574.712 328.669 571.072 330.555C567.431 332.441 561.153 330.878 557.048 327.067C552.943 323.255 552.566 318.638 556.207 316.752C559.847 314.866 566.126 316.427 570.231 320.239Z" fill="#5EDD8C"/>
<path d="M512.694 390.357C502.579 392.95 492.249 394.441 481.493 394.441C396.444 394.441 394.615 372.384 276.644 358.905C248.634 355.704 224.003 356.029 202.723 358.382C202.717 358.383 145.488 374.983 169.627 418.949C193.508 462.447 398.386 424.68 486.886 450.562C468.924 443.914 438.615 425.476 512.694 390.357Z" fill="#FF5B8C"/>
<path d="M1212.78 476.338C1175.3 456.401 887.797 305.754 759.502 305.906C752.99 305.913 746.677 305.693 740.518 305.906C740.515 305.907 639.702 324.594 625.984 372.996C612.267 421.399 792.685 466.174 792.685 466.174C792.685 466.174 775.185 470.712 748.365 474.972H1015.1L1212.82 478.443C1212.8 477.742 1212.8 477.04 1212.78 476.338Z" fill="#FF5B8C"/>
<path d="M486.888 450.562C492.287 452.559 496.573 453.493 496.573 453.493C494.255 452.823 491.969 452.134 489.725 451.422C488.794 451.127 487.845 450.841 486.888 450.562Z" fill="#CBB29E"/>
<path d="M625.984 372.996C639.702 324.594 740.515 305.907 740.518 305.906C635.451 309.547 578.69 373.438 512.693 390.356C438.615 425.475 468.923 443.914 486.888 450.561C487.845 450.84 488.794 451.126 489.723 451.421C491.967 452.133 494.255 452.822 496.573 453.493C496.578 453.495 572.032 479.605 647.018 482.056C684.697 483.287 721.283 479.272 748.367 474.972C775.185 470.713 792.687 466.175 792.687 466.175C792.687 466.175 612.266 421.399 625.984 372.996Z" fill="#F53F5C"/>
<path d="M169.629 418.948C145.489 374.982 202.719 358.383 202.725 358.381C134.376 365.939 100.604 394.44 100.604 394.44V426.913V474.972H679.23C629.838 474.072 547.183 469.656 489.725 451.421C402.845 423.85 193.768 462.916 169.629 418.948Z" fill="#FF5B8C"/>
<path d="M169.629 418.948C145.489 374.982 202.719 358.383 202.725 358.381C136.516 360.014 -158.645 485.977 -158.645 485.977L100.602 484.786L679.229 474.973C629.836 474.073 547.182 469.657 489.723 451.422C402.845 423.85 193.768 462.916 169.629 418.948Z" fill="#F53F5C"/>
<path d="M377.146 386.209C377.146 386.209 371.633 390.021 377.812 394.004C384.964 398.614 395.464 391.334 395.464 391.334C395.464 391.334 382.535 382.907 377.146 386.209Z" fill="#F53F5C"/>
<path d="M382.876 381.086C382.042 389.741 391.308 393.489 394.893 391.698C397.737 389.99 399.586 387.221 399.586 384.094C399.586 378.906 394.498 374.699 388.218 374.699C388.218 374.699 383.409 375.568 382.876 381.086Z" fill="#0076FF"/>
<path d="M376.854 384.095C376.854 389.284 381.942 393.49 388.221 393.49C390.715 393.49 393.021 392.825 394.895 391.699C391.31 393.49 382.043 389.741 382.878 381.087C383.41 375.569 388.221 374.701 388.221 374.701C381.942 374.7 376.854 378.907 376.854 384.095Z" fill="#004294"/>
<path d="M436.55 386.534C436.55 386.534 431.038 390.346 437.216 394.329C444.369 398.939 454.869 391.658 454.869 391.658C454.869 391.658 441.94 383.232 436.55 386.534Z" fill="#F53F5C"/>
<path d="M442.281 381.411C441.446 390.066 450.714 393.814 454.299 392.023C457.143 390.316 458.992 387.546 458.992 384.42C458.992 379.232 453.904 375.025 447.624 375.025C447.624 375.025 442.813 375.893 442.281 381.411Z" fill="#E0E6C3"/>
<path d="M436.258 384.42C436.258 389.609 441.348 393.815 447.626 393.815C450.12 393.815 452.425 393.15 454.299 392.024C450.714 393.815 441.448 390.066 442.281 381.412C442.813 375.894 447.624 375.026 447.624 375.026C441.347 375.025 436.258 379.232 436.258 384.42Z" fill="#CBB29E"/>
<path d="M724.541 336.637C724.541 336.637 718.881 340.551 725.223 344.64C732.565 349.374 743.347 341.899 743.347 341.899C743.347 341.899 730.074 333.248 724.541 336.637Z" fill="#F53F5C"/>
<path d="M730.424 331.378C729.567 340.263 739.081 344.112 742.763 342.273C745.682 340.519 747.581 337.678 747.581 334.467C747.581 329.141 742.356 324.822 735.911 324.822C735.911 324.822 730.97 325.713 730.424 331.378Z" fill="#540A95"/>
<path d="M724.24 334.467C724.24 339.794 729.465 344.112 735.91 344.112C738.47 344.112 740.837 343.429 742.761 342.273C739.081 344.112 729.567 340.263 730.422 331.378C730.968 325.713 735.908 324.822 735.908 324.822C729.465 324.822 724.24 329.141 724.24 334.467Z" fill="#3C0053"/>
<path d="M443.025 425.616C443.025 425.616 437.514 429.428 443.69 433.409C450.84 438.019 461.339 430.739 461.339 430.739C461.339 430.739 448.413 422.314 443.025 425.616Z" fill="#F53F5C"/>
<path d="M448.754 420.493C447.921 429.146 457.185 432.894 460.77 431.103C463.612 429.396 465.462 426.628 465.462 423.502C465.462 418.315 460.374 414.109 454.098 414.109C454.098 414.109 449.286 414.977 448.754 420.493Z" fill="#DFC200"/>
<path d="M442.733 423.502C442.733 428.689 447.822 432.894 454.098 432.894C456.592 432.894 458.896 432.229 460.77 431.103C457.185 432.894 447.921 429.146 448.754 420.493C449.287 414.977 454.098 414.109 454.098 414.109C447.82 414.109 442.733 418.315 442.733 423.502Z" fill="#D28100"/>
<path d="M756.543 383.38C756.543 383.38 751.032 387.192 757.207 391.173C764.358 395.783 774.857 388.503 774.857 388.503C774.857 388.503 761.931 380.079 756.543 383.38Z" fill="#F53F5C"/>
<path d="M762.271 378.258C761.438 386.91 770.702 390.659 774.287 388.867C777.129 387.16 778.98 384.392 778.98 381.266C778.98 376.079 773.891 371.874 767.615 371.874C767.615 371.874 762.804 372.741 762.271 378.258Z" fill="#DFC200"/>
<path d="M756.25 381.266C756.25 386.453 761.339 390.659 767.615 390.659C770.109 390.659 772.413 389.993 774.287 388.867C770.704 390.659 761.438 386.91 762.272 378.258C762.804 372.741 767.614 371.874 767.614 371.874C761.339 371.874 756.25 376.079 756.25 381.266Z" fill="#D28100"/>
<path d="M768.893 437.493C768.893 437.493 763.382 441.305 769.557 445.287C776.708 449.897 787.207 442.617 787.207 442.617C787.207 442.617 774.281 434.192 768.893 437.493Z" fill="#F53F5C"/>
<path d="M774.622 432.371C773.789 441.024 783.053 444.772 786.638 442.981C789.48 441.274 791.33 438.505 791.33 435.379C791.33 430.192 786.242 425.987 779.966 425.987C779.966 425.987 775.155 426.854 774.622 432.371Z" fill="#FF003E"/>
<path d="M768.601 435.379C768.601 440.567 773.69 444.772 779.966 444.772C782.46 444.772 784.764 444.107 786.638 442.981C783.053 444.772 773.789 441.024 774.622 432.371C775.155 426.854 779.966 425.987 779.966 425.987C773.69 425.987 768.601 430.192 768.601 435.379Z" fill="#8D002B"/>
<path d="M676.966 370.714C676.966 370.714 671.455 374.527 677.631 378.508C684.782 383.118 695.28 375.838 695.28 375.838C695.28 375.838 682.354 367.413 676.966 370.714Z" fill="#F53F5C"/>
<path d="M682.695 365.592C681.862 374.245 691.126 377.993 694.711 376.202C697.553 374.495 699.404 371.727 699.404 368.601C699.404 363.414 694.315 359.208 688.039 359.208C688.039 359.208 683.228 360.076 682.695 365.592Z" fill="#0076FF"/>
<path d="M676.674 368.601C676.674 373.788 681.763 377.993 688.039 377.993C690.533 377.993 692.837 377.328 694.711 376.202C691.127 377.993 681.862 374.245 682.695 365.592C683.228 360.076 688.037 359.208 688.037 359.208C681.763 359.208 676.674 363.414 676.674 368.601Z" fill="#004294"/>
<path d="M381.579 412.525C381.579 412.525 378.626 414.174 377.328 416.676C376.031 419.179 395.768 430.589 397.344 430.743C398.92 430.896 405.401 426.907 405.401 426.907L381.579 412.525Z" fill="#F53F5C"/>
<path d="M401.574 428.358C401.447 428.386 401.325 428.409 401.204 428.427C401.204 428.427 401.342 428.405 401.574 428.358Z" fill="#7B2B1A"/>
<path d="M406.049 426.58C406.049 426.58 403.496 427.939 401.58 428.357C402.384 428.19 404.347 427.696 406.049 426.58Z" fill="#7B2B1A"/>
<path d="M408.881 422.666L388.257 408.5C388.257 408.5 383.437 410.031 385.06 412.624C386.684 415.218 406.051 426.579 406.051 426.579C407.385 425.705 408.559 424.448 408.881 422.666Z" fill="#7B2B1A"/>
<path d="M401.58 428.357L401.576 428.358L401.58 428.357Z" fill="#7B2B1A"/>
<path d="M385.059 412.625C383.435 410.031 388.256 408.502 388.256 408.502C388.256 408.502 382.368 408.284 380.928 414.368L401.204 428.429C401.324 428.411 401.448 428.387 401.576 428.359L401.58 428.358C403.496 427.94 406.049 426.581 406.049 426.581C406.049 426.581 386.684 415.218 385.059 412.625Z" fill="#541919"/>
<path d="M485.447 403.92C485.447 403.92 482.848 404.732 481.321 406.437C479.794 408.141 492.281 419.724 493.443 420.073C494.604 420.422 500.387 418.36 500.387 418.36L485.447 403.92Z" fill="#F53F5C"/>
<path d="M497.172 418.893C497.07 418.895 496.971 418.894 496.876 418.891C496.876 418.891 496.984 418.894 497.172 418.893Z" fill="#7B2B1A"/>
<path d="M500.95 418.209C500.95 418.209 498.719 418.86 497.176 418.893C497.82 418.886 499.416 418.802 500.95 418.209Z" fill="#7B2B1A"/>
<path d="M503.947 415.66L491.386 401.859C491.386 401.859 487.397 402.304 488.066 404.512C488.733 406.72 500.95 418.208 500.95 418.208C502.153 417.744 503.315 416.964 503.947 415.66Z" fill="#7B2B1A"/>
<path d="M488.066 404.512C487.399 402.304 491.386 401.859 491.386 401.859C491.386 401.859 486.969 400.82 484.555 405.219L496.874 418.889C496.969 418.893 497.069 418.893 497.171 418.892H497.174C498.717 418.859 500.949 418.208 500.949 418.208C500.949 418.208 488.733 406.72 488.066 404.512Z" fill="#541919"/>
<path d="M287.25 375.446C287.25 375.446 284.669 376.208 283.124 377.867C281.579 379.526 293.645 391.14 294.782 391.503C295.921 391.866 301.671 389.917 301.671 389.917L287.25 375.446Z" fill="#F53F5C"/>
<path d="M298.487 390.394C298.386 390.394 298.289 390.393 298.194 390.389C298.194 390.389 298.302 390.393 298.487 390.394Z" fill="#7B2B1A"/>
<path d="M302.23 389.777C302.23 389.777 300.015 390.386 298.49 390.394C299.128 390.398 300.704 390.339 302.23 389.777Z" fill="#7B2B1A"/>
<path d="M305.243 387.309L293.153 373.502C293.153 373.502 289.209 373.881 289.818 376.069C290.428 378.258 302.228 389.777 302.228 389.777C303.426 389.335 304.592 388.584 305.243 387.309Z" fill="#7B2B1A"/>
<path d="M289.82 376.069C289.211 373.881 293.154 373.502 293.154 373.502C293.154 373.502 288.819 372.41 286.342 376.715L298.195 390.389C298.289 390.394 298.388 390.396 298.489 390.395H298.492C300.016 390.385 302.231 389.778 302.231 389.778C302.231 389.778 290.429 378.258 289.82 376.069Z" fill="#541919"/>
<path d="M704.424 405.063C704.424 405.063 702.145 406.323 701.135 408.242C700.126 410.162 715.252 418.998 716.462 419.121C717.671 419.243 722.675 416.196 722.675 416.196L704.424 405.063Z" fill="#F53F5C"/>
<path d="M719.729 417.3C719.631 417.321 719.537 417.339 719.443 417.352C719.443 417.352 719.548 417.337 719.729 417.3Z" fill="#7B2B1A"/>
<path d="M723.177 415.947C723.177 415.947 721.208 416.984 719.732 417.299C720.351 417.174 721.862 416.8 723.177 415.947Z" fill="#7B2B1A"/>
<path d="M725.371 412.947L709.578 401.99C709.578 401.99 705.863 403.152 707.1 405.152C708.337 407.151 723.175 415.948 723.175 415.948C724.207 415.279 725.116 414.316 725.371 412.947Z" fill="#7B2B1A"/>
<path d="M707.1 405.152C705.864 403.152 709.578 401.99 709.578 401.99C709.578 401.99 705.051 401.804 703.915 406.477L719.442 417.353C719.535 417.339 719.63 417.321 719.728 417.3H719.731C721.206 416.984 723.175 415.948 723.175 415.948C723.175 415.948 708.337 407.15 707.1 405.152Z" fill="#541919"/>
<path d="M824.391 420.564C824.391 420.564 821.71 421.04 819.915 422.515C818.119 423.992 828.23 436.818 829.3 437.302C830.371 437.786 836.381 436.48 836.381 436.48L824.391 420.564Z" fill="#F53F5C"/>
<path d="M833.149 436.607C833.048 436.597 832.952 436.584 832.86 436.569C832.86 436.569 832.965 436.586 833.149 436.607Z" fill="#7B2B1A"/>
<path d="M836.957 436.401C836.957 436.401 834.663 436.764 833.151 436.607C833.784 436.678 835.354 436.792 836.957 436.401Z" fill="#7B2B1A"/>
<path d="M840.337 434.283L830.553 419.281C830.553 419.281 826.582 419.227 826.839 421.464C827.095 423.699 836.957 436.403 836.957 436.403C838.214 436.094 839.487 435.476 840.337 434.283Z" fill="#7B2B1A"/>
<path d="M826.839 421.463C826.582 419.227 830.553 419.28 830.553 419.28C830.553 419.28 826.43 417.726 823.286 421.724L832.858 436.568C832.95 436.583 833.048 436.596 833.148 436.606H833.151C834.663 436.763 836.957 436.4 836.957 436.4C836.957 436.4 827.095 423.698 826.839 421.463Z" fill="#541919"/>
<path d="M925.48 417.204C925.48 417.204 923.412 418.692 922.703 420.7C921.996 422.71 938.349 429.898 939.569 429.894C940.789 429.89 945.286 426.346 945.286 426.346L925.48 417.204Z" fill="#F53F5C"/>
<path d="M942.531 427.748C942.437 427.778 942.346 427.806 942.255 427.829C942.255 427.829 942.359 427.802 942.531 427.748Z" fill="#7B2B1A"/>
<path d="M945.746 426.047C945.746 426.047 943.95 427.281 942.536 427.748C943.129 427.558 944.571 427.03 945.746 426.047Z" fill="#7B2B1A"/>
<path d="M947.464 422.84L930.124 413.618C930.124 413.618 926.618 415.157 928.149 417.012C929.681 418.866 945.746 426.046 945.746 426.046C946.666 425.275 947.42 424.225 947.464 422.84Z" fill="#7B2B1A"/>
<path d="M942.533 427.746L942.531 427.747L942.533 427.746Z" fill="#7B2B1A"/>
<path d="M928.149 417.012C926.618 415.158 930.124 413.618 930.124 413.618C930.124 413.618 925.605 413.906 925.193 418.66L942.255 427.83C942.346 427.806 942.438 427.778 942.531 427.748L942.534 427.746C943.949 427.28 945.744 426.046 945.744 426.046C945.744 426.046 929.681 418.867 928.149 417.012Z" fill="#541919"/>
<path d="M785.106 328.37C785.106 328.37 781.555 329.098 779.236 331.129C776.917 333.161 791.062 349.915 792.515 350.522C793.968 351.13 801.917 349.177 801.917 349.177L785.106 328.37Z" fill="#F53F5C"/>
<path d="M797.609 349.458C797.476 349.447 797.346 349.434 797.222 349.418C797.222 349.418 797.366 349.436 797.609 349.458Z" fill="#7B2B1A"/>
<path d="M802.68 349.051C802.68 349.051 799.641 349.614 797.615 349.459C798.462 349.532 800.563 349.629 802.68 349.051Z" fill="#7B2B1A"/>
<path d="M807.081 346.106L793.259 326.441C793.259 326.441 787.96 326.51 788.417 329.483C788.873 332.455 802.68 349.052 802.68 349.052C804.341 348.597 806.009 347.729 807.081 346.106Z" fill="#7B2B1A"/>
<path d="M788.417 329.481C787.96 326.509 793.259 326.44 793.259 326.44C793.259 326.44 787.679 324.512 783.693 329.953L797.224 349.416C797.348 349.433 797.477 349.447 797.612 349.456H797.617C799.642 349.612 802.682 349.048 802.682 349.048C802.68 349.051 788.874 332.454 788.417 329.481Z" fill="#541919"/>
<path d="M504.391 299.833C494.462 297.015 486.249 299.711 480.694 302.898C471.902 308 444.632 312.185 435.538 301.393C430.95 295.949 433.352 291.321 436.859 288.069C432.742 290.977 429.232 294.019 426.68 297.155C409.487 318.276 434.099 319.175 470.085 309.734C471.037 309.484 471.952 309.255 472.845 309.038C477.453 307.92 481.308 307.229 484.567 306.888C504.583 304.797 502.092 315.953 513.164 322.8C517.863 325.707 521.547 326.474 524.864 325.858C503.523 321.641 523.261 305.189 504.391 299.833Z" fill="#CBB29E"/>
<path d="M555.914 305.365C555.914 305.365 568.092 291.612 589.206 293.04C610.32 294.47 616.111 312.933 633.507 311.217C648.112 309.775 652.038 302.695 652.923 300.46C651.348 292.375 641.654 284.006 627.836 278.305C603.775 268.378 570.46 240.779 504.446 258.025C504.446 258.025 460.574 270.548 436.902 287.593C433.386 290.915 430.977 295.645 435.577 301.21C444.695 312.238 472.037 307.962 480.852 302.748C486.422 299.491 494.656 296.736 504.612 299.616C523.529 305.088 503.74 321.901 525.14 326.209C534.556 324.424 540.997 311.25 559.12 303.962C557.682 304.213 556.57 304.663 555.914 305.365Z" fill="#E0E6C3"/>
<path d="M641.409 316.764C650.797 312.287 654.09 306.452 652.923 300.461C652.038 302.698 648.112 309.778 633.507 311.218C616.11 312.933 610.32 294.47 589.206 293.042C568.092 291.611 555.914 305.366 555.914 305.366C556.572 304.664 557.684 304.216 559.12 303.963C563.097 302.364 567.633 301.047 572.892 300.198C610.562 294.11 619.356 327.279 641.409 316.764Z" fill="#CBB29E"/>
<path d="M546.289 256.706C546.289 256.706 541.24 260.198 546.898 263.844C553.447 268.066 563.064 261.398 563.064 261.398C563.064 261.398 551.223 253.683 546.289 256.706Z" fill="#CBB29E"/>
<path d="M551.536 252.016C550.772 259.94 559.257 263.374 562.541 261.733C565.145 260.169 566.84 257.634 566.84 254.77C566.84 250.02 562.18 246.167 556.43 246.167C556.43 246.167 552.023 246.963 551.536 252.016Z" fill="#FF003E"/>
<path d="M546.02 254.771C546.02 259.522 550.68 263.375 556.43 263.375C558.713 263.375 560.825 262.766 562.542 261.734C559.259 263.375 550.772 259.941 551.536 252.017C552.022 246.963 556.43 246.169 556.43 246.169C550.68 246.168 546.02 250.021 546.02 254.771Z" fill="#8D002B"/>
<path d="M505.733 276.258C505.733 276.258 500.996 280.034 506.95 283.343C513.843 287.172 522.867 279.961 522.867 279.961C522.867 279.961 510.398 272.954 505.733 276.258Z" fill="#CBB29E"/>
<path d="M510.568 271.273C510.482 279.222 519.24 282.153 522.375 280.325C524.839 278.613 526.312 275.986 526.068 273.129C525.663 268.39 520.686 264.82 514.951 265.155C514.951 265.155 510.621 266.205 510.568 271.273Z" fill="#0076FF"/>
<path d="M505.302 274.343C505.706 279.083 510.685 282.653 516.419 282.318C518.697 282.185 520.751 281.454 522.375 280.326C519.24 282.154 510.482 279.223 510.568 271.274C510.623 266.204 514.951 265.156 514.951 265.156C509.216 265.49 504.895 269.604 505.302 274.343Z" fill="#004294"/>
<path d="M588.976 276.636C588.976 276.636 584.239 280.413 590.192 283.722C597.085 287.551 606.108 280.34 606.108 280.34C606.108 280.34 593.641 273.333 588.976 276.636Z" fill="#CBB29E"/>
<path d="M593.811 271.652C593.725 279.602 602.483 282.532 605.618 280.704C608.082 278.992 609.556 276.364 609.311 273.508C608.906 268.768 603.929 265.199 598.194 265.533C598.194 265.533 593.865 266.582 593.811 271.652Z" fill="#DFC200"/>
<path d="M588.543 274.721C588.948 279.461 593.927 283.03 599.66 282.696C601.939 282.562 603.992 281.832 605.616 280.703C602.482 282.532 593.724 279.6 593.81 271.651C593.864 266.583 598.192 265.533 598.192 265.533C592.459 265.867 588.138 269.981 588.543 274.721Z" fill="#D28100"/>
<path d="M547.07 278.174C547.07 278.174 544.453 278.851 542.829 280.457C541.206 282.064 552.698 294.071 553.819 294.472C554.938 294.873 560.78 293.115 560.78 293.115L547.07 278.174Z" fill="#CBB29E"/>
<path d="M557.573 293.485C557.472 293.483 557.374 293.477 557.281 293.471C557.281 293.471 557.388 293.478 557.573 293.485Z" fill="#7B2B1A"/>
<path d="M561.344 292.993C561.344 292.993 559.1 293.528 557.576 293.487C558.214 293.51 559.791 293.505 561.344 292.993Z" fill="#7B2B1A"/>
<path d="M564.475 290.627L553.064 276.428C553.064 276.428 549.104 276.676 549.608 278.882C550.112 281.089 561.344 292.993 561.344 292.993C562.561 292.592 563.762 291.88 564.475 290.627Z" fill="#7B2B1A"/>
<path d="M549.607 278.882C549.102 276.676 553.063 276.428 553.063 276.428C553.063 276.428 548.784 275.193 546.097 279.412L557.279 293.469C557.373 293.478 557.471 293.483 557.571 293.485H557.574C559.097 293.527 561.342 292.992 561.342 292.992C561.342 292.992 550.111 281.091 549.607 278.882Z" fill="#541919"/>
<path d="M624.59 287.15C624.59 287.15 622.379 288.084 621.227 289.721C620.075 291.359 632.546 300.626 633.618 300.843C634.691 301.058 639.578 298.756 639.578 298.756L624.59 287.15Z" fill="#CBB29E"/>
<path d="M636.787 299.49C636.697 299.5 636.608 299.508 636.524 299.512C636.524 299.512 636.621 299.507 636.787 299.49Z" fill="#7B2B1A"/>
<path d="M640.06 298.574C640.06 298.574 638.156 299.334 636.789 299.49C637.363 299.431 638.77 299.226 640.06 298.574Z" fill="#7B2B1A"/>
<path d="M642.417 296.069L629.616 284.837C629.616 284.837 626.127 285.557 626.984 287.463C627.841 289.368 640.06 298.574 640.06 298.574C641.072 298.064 642.012 297.277 642.417 296.069Z" fill="#7B2B1A"/>
<path d="M626.984 287.463C626.127 285.557 629.616 284.837 629.616 284.837C629.616 284.837 625.57 284.274 623.951 288.377L636.522 299.513C636.607 299.508 636.696 299.501 636.786 299.491H636.789C638.156 299.337 640.06 298.576 640.06 298.576C640.06 298.576 627.841 289.368 626.984 287.463Z" fill="#541919"/>
<path d="M476.664 282.613C476.664 282.613 474.324 283.795 473.223 285.68C472.121 287.564 486.804 296.899 488.008 297.062C489.212 297.225 494.36 294.347 494.36 294.347L476.664 282.613Z" fill="#CBB29E"/>
<path d="M491.36 295.352C491.26 295.368 491.164 295.382 491.071 295.392C491.071 295.392 491.178 295.381 491.36 295.352Z" fill="#7B2B1A"/>
<path d="M494.871 294.115C494.871 294.115 492.852 295.086 491.363 295.352C491.987 295.246 493.516 294.923 494.871 294.115Z" fill="#7B2B1A"/>
<path d="M497.212 291.189L481.964 279.712C481.964 279.712 478.196 280.749 479.334 282.789C480.473 284.828 494.871 294.114 494.871 294.114C495.934 293.48 496.889 292.549 497.212 291.189Z" fill="#7B2B1A"/>
<path d="M479.333 282.789C478.194 280.75 481.963 279.712 481.963 279.712C481.963 279.712 477.448 279.375 476.086 284.007L491.071 295.393C491.164 295.382 491.261 295.368 491.36 295.35H491.363C492.853 295.084 494.871 294.114 494.871 294.114C494.871 294.114 480.471 284.828 479.333 282.789Z" fill="#541919"/>
<path d="M353.975 414.802C353.975 414.802 299.5 439.257 276.505 433.245C253.511 427.233 315.712 408.392 338.223 404.501L353.975 414.802Z" fill="#F53F5C"/>
<path d="M339.652 414.801L329.533 341.886L344.337 338.898L353.975 414.801C353.975 414.801 346.828 419.02 339.652 414.801Z" fill="#541919"/>
<path d="M332.049 360.014L333.382 369.623H348.238L346.897 359.051C346.897 359.051 336.1 360.196 332.049 360.014Z" fill="#39000C"/>
<path d="M407.712 298.883C407.712 265.121 374.597 237.752 333.747 237.752C328.545 237.752 323.47 238.198 318.573 239.043C318.105 239.185 284.67 249.52 286.143 290.282C287.625 331.333 345.98 366.717 380.928 345.962C397.291 334.749 407.712 317.823 407.712 298.883Z" fill="#540A95"/>
<path d="M311.461 344.795C301.717 342.104 293.863 336.64 288.746 328.996C284.205 322.209 281.901 313.932 282.085 305.061C282.215 298.776 283.613 292.519 286.106 286.826C286.186 280.456 287.144 274.884 288.684 270.017C287.233 271.414 285.873 272.912 284.614 274.517C278.23 282.647 276.867 290.41 276.855 290.488C276.63 291.829 275.134 292.764 273.51 292.579C271.888 292.392 270.756 291.155 270.981 289.814C271.042 289.454 272.545 280.885 279.64 271.849C282.661 268.001 286.998 263.74 293.086 260.088C302.535 244.003 318.256 239.141 318.576 239.043C285.006 244.828 259.785 269.42 259.785 298.883C259.785 332.645 292.901 360.014 333.751 360.014C351.686 360.014 368.127 354.738 380.933 345.963C367.486 353.949 350.574 353.623 334.77 347.861C334.424 347.866 334.08 347.874 333.735 347.874C326.408 347.874 318.916 346.854 311.461 344.795Z" fill="#3C0053"/>
<path d="M288.177 302.251C288.088 303.222 288.033 304.188 288.014 305.144C287.735 318.606 294.243 334.872 313.341 340.146C316.334 340.973 319.334 341.613 322.321 342.075C306.369 332.98 293.108 318.523 288.177 302.251Z" fill="#3C0053"/>
<path d="M314.561 268.05C326.369 265.156 338.779 266.406 349.506 271.567C360.217 276.721 367.866 285.051 370.495 294.421C373.117 303.769 369.033 311.26 365.144 315.895C358.961 323.269 348.739 328.708 339.105 329.756C330.381 330.704 318.149 328.402 310.494 321.123C303.77 314.73 302.102 305.728 305.671 295.094C308.776 285.842 315.004 280.439 323.685 279.472C335.164 278.193 348.529 284.718 353.34 291.373C359.192 299.469 356.249 306.516 351.545 310.413C347.003 314.173 339.185 316.376 331.953 312.82C325.872 309.831 326.772 304.623 327.442 302.523C328.7 298.576 331.975 295.882 334.245 295.842C336.631 295.798 339.563 296.091 339.983 297.719C340.545 299.899 337.909 303.165 336.751 303.577C335.201 303.992 334.346 305.366 334.841 306.651C335.338 307.94 337.006 308.653 338.565 308.243C342.526 307.201 346.773 301.573 345.857 297.022C345.478 295.137 343.577 290.776 334.116 290.942C328.804 291.036 323.585 295.382 321.708 301.275C319.633 307.787 322.397 313.826 328.922 317.033C337.559 321.277 348.338 320.009 355.745 313.876C359.412 310.84 361.695 307.019 362.346 302.825C363.062 298.22 361.708 293.391 358.433 288.86C352.551 280.723 336.869 273.057 322.895 274.615C315.074 275.486 304.746 279.52 299.958 293.786C294.747 309.319 300.378 318.975 306.021 324.34C315.121 332.992 329.585 335.737 339.882 334.617C351.272 333.379 362.82 327.276 370.022 318.689C376.483 310.984 378.704 301.973 376.276 293.314C373.279 282.634 364.611 273.164 352.494 267.332C340.339 261.482 326.27 260.068 312.878 263.351C303.73 265.593 295.919 271.1 290.291 279.276C288.669 281.634 287.27 284.169 286.107 286.826C286.092 287.954 286.103 289.105 286.146 290.284C286.293 294.345 286.998 298.35 288.18 302.252C289.514 287.71 298.615 271.958 314.561 268.05Z" fill="#E0E6C3"/>
<path d="M392.575 309.723C395.288 296.444 388.273 279.614 375.119 267.846C368.751 262.148 361.281 257.821 352.919 254.983C343.593 251.819 333.398 250.613 322.616 251.398C309.851 252.33 300.25 255.785 293.082 260.086C291.363 263.011 289.854 266.309 288.681 270.016C297.057 261.955 308.616 257.34 323.138 256.282C346.815 254.555 362.106 263.426 370.763 271.171C382.734 281.882 389.15 297.047 386.727 308.907C384.549 319.568 375.275 330.119 362.521 336.444C350.587 342.363 336.58 344.283 322.32 342.075C326.328 344.36 330.506 346.307 334.764 347.86C345.684 347.715 356.196 345.297 365.572 340.646C379.985 333.499 390.081 321.939 392.575 309.723Z" fill="#E0E6C3"/>
<path d="M279.637 271.848C272.542 280.882 271.039 289.453 270.978 289.813C270.753 291.154 271.885 292.391 273.507 292.578C275.131 292.763 276.627 291.828 276.852 290.487C276.866 290.41 278.228 282.647 284.611 274.515C285.87 272.911 287.23 271.413 288.681 270.016C289.854 266.309 291.363 263.011 293.082 260.086C286.995 263.739 282.658 268.001 279.637 271.848Z" fill="#CBB29E"/>
<path d="M313.341 340.146C294.243 334.872 287.735 318.607 288.014 305.144C288.033 304.187 288.088 303.221 288.177 302.251C286.995 298.349 286.29 294.343 286.143 290.282C286.1 289.103 286.089 287.953 286.104 286.824C283.612 292.519 282.214 298.774 282.083 305.059C281.899 313.931 284.203 322.207 288.745 328.995C293.86 336.64 301.715 342.103 311.459 344.794C318.914 346.852 326.408 347.873 333.729 347.873C334.074 347.873 334.42 347.863 334.764 347.86C330.506 346.307 326.327 344.36 322.32 342.075C319.332 341.613 316.334 340.973 313.341 340.146Z" fill="#CBB29E"/>
<path d="M880.599 450.395C880.599 450.395 841.285 466.841 824.416 462.431C807.548 458.021 855.577 444.065 872.091 441.21L880.599 450.395Z" fill="#F53F5C"/>
<path d="M870.426 449.243L873.114 396.736L883.99 395.988L880.557 450.564C880.557 450.564 874.932 452.889 870.426 449.243Z" fill="#541919"/>
<path d="M872.446 409.791L872.091 416.711L882.599 418.081L883.076 410.48C883.076 410.48 875.286 410.293 872.446 409.791Z" fill="#39000C"/>
<path d="M934.218 373.53C938.777 349.65 919.049 327.238 890.155 323.47C886.476 322.99 882.826 322.837 879.248 322.983C878.898 323.041 853.854 327.267 849.392 356.235C844.898 385.407 881.395 415.817 908.916 404.36C922.004 397.938 931.66 386.926 934.218 373.53Z" fill="#0076FF"/>
<path d="M859.938 397.127C853.41 394.324 848.591 389.736 846.005 383.857C843.709 378.638 843.197 372.571 844.526 366.313C845.467 361.879 847.3 357.583 849.832 353.786C850.748 349.289 852.179 345.435 853.926 342.135C852.71 342.989 851.546 343.924 850.438 344.942C844.825 350.105 842.813 355.469 842.794 355.523C842.454 356.451 841.268 356.974 840.146 356.694C839.023 356.413 838.39 355.433 838.73 354.505C838.822 354.256 841.043 348.333 847.279 342.597C849.936 340.155 853.579 337.54 858.378 335.518C867.233 325.012 879.009 323.022 879.248 322.983C854.722 323.979 833.563 339.047 829.585 359.887C825.025 383.767 844.754 406.18 873.647 409.948C886.331 411.602 898.674 409.387 908.916 404.36C898.327 408.769 886.409 406.977 876.008 401.445C875.764 401.417 875.519 401.391 875.275 401.359C870.096 400.684 864.933 399.271 859.938 397.127Z" fill="#004294"/>
<path d="M849.215 364.888C849.021 365.567 848.852 366.244 848.708 366.919C846.693 376.416 849.1 388.521 861.895 394.013C863.901 394.874 865.935 395.603 867.987 396.205C857.933 388.3 850.505 376.852 849.215 364.888Z" fill="#004294"/>
<path d="M872.495 343.13C881.238 342.171 889.846 344.199 896.736 348.84C903.616 353.473 907.902 360.071 908.497 366.94C909.09 373.795 905.189 378.715 901.813 381.636C896.444 386.281 888.481 389.186 881.524 389.038C875.226 388.904 866.884 386.147 862.452 380.292C858.56 375.149 858.596 368.63 862.555 361.437C866 355.178 871.136 351.932 877.405 352.048C885.696 352.202 894.269 358.05 896.773 363.202C899.819 369.468 896.786 374.181 892.933 376.503C889.213 378.744 883.386 379.58 878.75 376.399C874.853 373.724 876.192 370.124 876.95 368.7C878.372 366.025 881.052 364.421 882.663 364.602C884.356 364.791 886.392 365.269 886.467 366.459C886.571 368.053 884.265 370.119 883.391 370.304C882.239 370.455 881.448 371.348 881.625 372.302C881.801 373.261 882.885 373.919 884.044 373.772C886.986 373.4 890.751 369.811 890.716 366.508C890.703 365.14 889.947 361.879 883.233 361.124C879.463 360.702 875.184 363.295 873.061 367.289C870.714 371.704 871.854 376.23 876.035 379.101C881.57 382.9 889.366 382.996 895.433 379.341C898.437 377.531 900.567 375.04 901.595 372.135C902.723 368.944 902.418 365.402 900.713 361.895C897.651 355.598 887.594 348.728 877.5 348.542C871.85 348.437 864 350.337 858.688 359.986C852.904 370.493 855.583 377.841 858.85 382.157C864.117 389.116 873.977 392.391 881.411 392.55C889.634 392.725 898.627 389.473 904.88 384.064C910.491 379.21 913.28 373.04 912.73 366.693C912.052 358.862 907.199 351.364 899.417 346.122C891.609 340.864 881.85 338.566 871.934 339.652C865.16 340.395 858.892 343.57 853.808 348.833C852.342 350.351 851.011 352.015 849.829 353.787C849.667 354.583 849.519 355.398 849.39 356.236C848.945 359.122 848.904 362.02 849.214 364.889C852.124 354.725 860.688 344.424 872.495 343.13Z" fill="#E0E6C3"/>
<path d="M922.047 379.802C925.759 370.659 923.07 358.109 915.355 348.572C911.621 343.955 906.922 340.205 901.39 337.427C895.221 334.328 888.172 332.535 880.442 332.096C871.286 331.578 864.03 333.137 858.378 335.518C856.768 337.428 855.254 339.622 853.924 342.135C860.937 337.206 869.735 335.008 880.151 335.599C897.13 336.561 906.749 344.246 911.825 350.523C918.846 359.202 921.337 370.521 918.021 378.686C915.041 386.025 907.057 392.633 897.182 395.931C887.942 399.016 877.776 399.082 867.987 396.205C870.514 398.191 873.206 399.954 876.008 401.445C883.752 402.349 891.514 401.609 898.773 399.184C909.932 395.458 918.634 388.212 922.047 379.802Z" fill="#E0E6C3"/>
<path d="M847.279 342.595C841.041 348.331 838.82 354.255 838.73 354.504C838.389 355.431 839.023 356.412 840.146 356.692C841.27 356.973 842.454 356.45 842.794 355.522C842.813 355.468 844.825 350.103 850.438 344.941C851.546 343.923 852.71 342.988 853.926 342.133C855.256 339.62 856.769 337.427 858.38 335.516C853.579 337.538 849.936 340.153 847.279 342.595Z" fill="#CBB29E"/>
<path d="M861.897 394.011C849.101 388.519 846.695 376.415 848.71 366.918C848.854 366.243 849.023 365.565 849.217 364.886C848.907 362.018 848.95 359.12 849.393 356.234C849.522 355.396 849.67 354.582 849.832 353.784C847.301 357.582 845.467 361.878 844.526 366.312C843.199 372.57 843.71 378.637 846.005 383.855C848.591 389.735 853.41 394.323 859.938 397.125C864.933 399.27 870.094 400.682 875.273 401.358C875.518 401.39 875.762 401.415 876.007 401.443C873.205 399.952 870.512 398.19 867.986 396.204C865.937 395.602 863.901 394.873 861.897 394.011Z" fill="#CBB29E"/>
<path d="M802.107 302.912C802.107 302.912 768.38 310.48 755.778 305.743C743.175 301.006 787.422 295.184 787.422 295.184L802.107 302.912Z" fill="#008E5E"/>
<path d="M828.764 223.923C823.35 226.708 817.517 228.84 812.605 230.373C811.989 232.502 811.256 234.837 810.439 237.326C815.421 236.446 820.808 235.391 825.902 234.185L827.697 228.937C828.27 227.267 828.618 225.588 828.764 223.923Z" fill="white"/>
<path d="M796.965 275.116C801.985 274.264 807.579 273.217 812.958 272.003L816.057 262.949C810.501 264.086 805.02 265.038 800.336 265.784C799.186 268.947 798.05 272.08 796.965 275.116Z" fill="white"/>
<path d="M803.826 256.202C808.796 255.34 814.238 254.296 819.429 253.098L822.518 244.067C817.157 245.186 811.822 246.133 807.164 246.89C806.099 249.911 804.974 253.038 803.826 256.202Z" fill="white"/>
<path d="M814.497 218.619C814.638 218.992 814.705 219.5 814.705 220.13C818.993 218.536 823.467 216.536 827.209 214.132C825.816 210.804 823.567 207.767 820.621 205.261C817.992 210.121 815.637 213.11 812.745 215.648C813.441 216.445 814.042 217.423 814.497 218.619Z" fill="white"/>
<path d="M799.377 301.975C800.284 302.292 801.196 302.604 802.106 302.913C802.453 302.415 802.735 301.878 802.932 301.301L803.138 300.699C801.518 301.019 799.918 301.321 798.346 301.607C798.689 301.731 799.031 301.855 799.377 301.975Z" fill="white"/>
<path d="M790.694 293.925C795.608 293.102 801.131 292.085 806.491 290.902L809.597 281.825C803.887 282.973 798.303 283.923 793.636 284.652C792.49 288.052 791.485 291.185 790.694 293.925Z" fill="white"/>
<path d="M798.346 301.607C799.918 301.321 801.519 301.019 803.138 300.699L806.491 290.902C801.131 292.085 795.608 293.102 790.694 293.925C790.244 295.488 789.864 296.919 789.565 298.202C792.486 299.359 795.393 300.541 798.346 301.607Z" fill="#FF5B8C"/>
<path d="M793.637 284.653C798.303 283.924 803.889 282.974 809.598 281.826L812.96 272.003C807.579 273.216 801.986 274.264 796.966 275.116C795.777 278.441 794.652 281.651 793.637 284.653Z" fill="#FF5B8C"/>
<path d="M800.338 265.784C805.021 265.038 810.503 264.086 816.058 262.949L819.43 253.098C814.239 254.296 808.798 255.34 803.828 256.202C802.673 259.38 801.497 262.597 800.338 265.784Z" fill="#FF5B8C"/>
<path d="M807.165 246.89C811.825 246.133 817.158 245.186 822.52 244.067L825.902 234.185C820.807 235.39 815.421 236.445 810.439 237.326C809.455 240.323 808.347 243.541 807.165 246.89Z" fill="#FF5B8C"/>
<path d="M814.705 220.13C814.703 222.283 813.911 225.865 812.605 230.373C817.517 228.841 823.35 226.709 828.763 223.923C829.058 220.536 828.499 217.209 827.209 214.131C823.467 216.536 818.993 218.535 814.705 220.13Z" fill="#FF5B8C"/>
<path d="M812.745 215.646C815.637 213.109 817.99 210.12 820.621 205.26C818.112 203.125 815.099 201.374 811.674 200.157C808.144 207.107 805.782 209.366 801.257 212.397C801.26 212.419 801.263 212.442 801.266 212.464C802.351 212.269 808.952 211.288 812.745 215.646Z" fill="#FF5B8C"/>
<path d="M801.256 212.398C801.208 212.43 801.16 212.463 801.112 212.495C801.112 212.495 801.166 212.484 801.265 212.465C801.262 212.442 801.259 212.42 801.256 212.398Z" fill="#D60621"/>
<path d="M806.759 237.958C807.953 237.76 809.183 237.548 810.439 237.326C811.256 234.837 811.989 232.502 812.605 230.373C811.33 230.77 810.115 231.13 808.988 231.448L806.759 237.958Z" fill="#BFBFBF"/>
<path d="M793.867 275.629C794.868 275.467 795.906 275.296 796.966 275.116C798.05 272.08 799.187 268.947 800.339 265.784C799.196 265.966 798.1 266.136 797.063 266.294L793.867 275.629Z" fill="#BFBFBF"/>
<path d="M800.312 256.795C801.45 256.609 802.624 256.41 803.826 256.202C804.974 253.038 806.099 249.912 807.165 246.89C805.89 247.097 804.664 247.291 803.505 247.47L800.312 256.795Z" fill="#BFBFBF"/>
<path d="M814.497 218.619C814.042 217.423 813.44 216.445 812.745 215.646C811.994 216.306 811.207 216.934 810.369 217.557C811.047 218.679 811.475 219.924 811.612 221.224C812.623 220.884 813.658 220.517 814.705 220.129C814.706 219.5 814.639 218.992 814.497 218.619Z" fill="#BFBFBF"/>
<path d="M787.422 294.461C788.475 294.293 789.569 294.114 790.694 293.927C791.486 291.185 792.49 288.053 793.637 284.654C792.582 284.819 791.574 284.973 790.62 285.115L787.422 294.461Z" fill="#BFBFBF"/>
<path d="M789.565 298.202C789.863 296.919 790.244 295.488 790.694 293.926C789.569 294.114 788.475 294.292 787.422 294.46L786.544 297.026C787.554 297.412 788.561 297.805 789.565 298.202Z" fill="#F53F5C"/>
<path d="M790.62 285.114C791.572 284.972 792.582 284.817 793.638 284.653C794.652 281.651 795.777 278.441 796.966 275.116C795.906 275.296 794.87 275.467 793.867 275.629L790.62 285.114Z" fill="#F53F5C"/>
<path d="M797.061 266.293C798.097 266.136 799.195 265.966 800.338 265.783C801.497 262.597 802.673 259.381 803.826 256.201C802.624 256.409 801.45 256.608 800.313 256.794L797.061 266.293Z" fill="#F53F5C"/>
<path d="M803.503 247.47C804.663 247.291 805.89 247.097 807.164 246.89C808.346 243.541 809.453 240.323 810.438 237.326C809.182 237.548 807.951 237.758 806.758 237.958L803.503 247.47Z" fill="#F53F5C"/>
<path d="M811.613 221.226C811.745 222.477 811.612 223.779 811.169 225.075L808.988 231.448C810.114 231.13 811.33 230.771 812.605 230.373C813.911 225.865 814.705 222.282 814.705 220.13C813.659 220.519 812.623 220.884 811.613 221.226Z" fill="#F53F5C"/>
<path d="M801.266 212.465C801.267 212.476 801.269 212.487 801.27 212.5C802.038 212.534 802.811 212.638 803.579 212.817C806.629 213.53 809.005 215.295 810.371 217.558C811.209 216.935 811.996 216.306 812.746 215.648C808.952 211.288 802.351 212.269 801.266 212.465Z" fill="#F53F5C"/>
<path d="M801.27 212.498C801.268 212.487 801.267 212.476 801.265 212.464C801.166 212.482 801.112 212.493 801.112 212.493C801.165 212.497 801.216 212.497 801.27 212.498Z" fill="#CEA9AA"/>
<path d="M790.816 214.95C790.517 210.76 789.574 207.846 785.446 202.01C785.072 202.206 784.705 202.411 784.343 202.622C784.331 202.636 781.953 205.554 779.751 209.105C784.734 210.978 787.969 212.759 790.816 214.95Z" fill="white"/>
<path d="M808.254 199.155C803.952 198.15 799.589 198.046 795.445 198.707C799.297 204.375 800.701 208.109 801.257 212.398C805.784 209.366 808.145 207.108 811.674 200.159C810.576 199.767 809.434 199.431 808.254 199.155Z" fill="white"/>
<path d="M785.71 223.238C783.127 220.844 780.73 219.221 776.139 217.428C776.078 217.906 776.067 218.358 776.111 218.776C776.571 223.077 781.541 224.767 785.71 223.238Z" fill="white"/>
<path d="M785.446 202.01C789.574 207.845 790.517 210.759 790.816 214.95C787.969 212.758 784.733 210.978 779.751 209.105C778.049 211.851 776.452 214.976 776.139 217.429C780.729 219.222 783.128 220.846 785.71 223.239C786.74 222.861 787.722 222.29 788.573 221.51C788.895 221.034 789.157 220.521 789.344 219.972C789.704 218.917 790.244 217.948 790.921 217.079C791.248 216.66 791.605 216.265 791.992 215.896C794.32 213.671 797.666 212.384 801.112 212.496C801.161 212.463 801.21 212.431 801.257 212.399C800.701 208.11 799.295 204.376 795.445 198.708C791.891 199.273 788.5 200.402 785.446 202.01Z" fill="#FF5B8C"/>
<path d="M779.751 209.105C781.953 205.554 784.331 202.636 784.343 202.622C781.707 204.153 779.355 206.053 777.413 208.263C778.234 208.546 779.011 208.827 779.751 209.105Z" fill="#BFBFBF"/>
<path d="M778.741 224.87C781.417 225.496 784.156 224.998 786.224 223.722C786.051 223.556 785.88 223.396 785.71 223.238C781.542 224.767 776.571 223.077 776.111 218.777C776.067 218.358 776.078 217.906 776.139 217.429C775.132 217.036 774.023 216.635 772.782 216.216C771.577 219.955 774.221 223.813 778.741 224.87Z" fill="#BFBFBF"/>
<path d="M772.815 216.108C772.803 216.144 772.793 216.181 772.781 216.216C774.023 216.635 775.132 217.036 776.138 217.429C776.451 214.976 778.047 211.851 779.749 209.105C779.01 208.827 778.233 208.548 777.411 208.263C775.39 210.565 773.81 213.202 772.815 216.108Z" fill="#F53F5C"/>
<path d="M785.71 223.238C785.88 223.396 786.052 223.556 786.224 223.722C787.172 223.137 787.977 222.388 788.571 221.509C787.72 222.289 786.739 222.86 785.71 223.238Z" fill="#F53F5C"/>
<path d="M1064.58 57.1569C1063 57.1092 1061.65 57.1006 1060.16 57.0139C1053.96 56.65 1048.63 55.2549 1045.27 53.067C1041.94 53.8382 1038.39 54.0419 1034.76 53.8816C1029.64 53.6519 1025.14 52.6381 1022.43 50.7968C1019.26 48.6393 1019.28 45.8015 1022.57 43.5789C1025.65 41.508 1030.75 40.1996 1036.51 40.0436C1036.29 37.7734 1039.62 35.7285 1044.39 34.8577C1049.16 33.9868 1054.93 34.4331 1058.44 36.0838C1063.01 33.8265 1070.6 33.4193 1075.88 35.1653C1081.27 32.1715 1090.64 31.0581 1098.42 32.4618C1106.11 33.8525 1110.31 37.3618 1108.32 40.9361L1107.63 42.1666C1112.94 42.0192 1117.76 42.8164 1121.06 44.5581C1123.76 45.9878 1125.02 48.0327 1123.83 50.082C1128.02 50.108 1131.62 50.8835 1133.82 52.2959C1135.81 53.574 1136.34 55.2419 1134.93 56.8536C1132.92 59.1498 1127.46 60.5796 1121.77 60.4366C1118.77 60.3629 1116.21 59.8864 1113.98 59.0285C1108.76 61.472 1100.03 61.55 1095.19 59.1672C1085.07 62.5552 1070.76 61.823 1064.55 57.1526L1064.58 57.1569Z" fill="#EAB7F7"/>
<path d="M19.5057 266.089C18.5 266.058 17.6359 266.053 16.6869 265.998C12.7278 265.766 9.32822 264.877 7.18224 263.484C5.05752 263.975 2.79114 264.105 0.475189 264.003C-2.78981 263.857 -5.66527 263.211 -7.39338 262.038C-9.41895 260.665 -9.40479 258.857 -7.30131 257.442C-5.33948 256.123 -2.08156 255.29 1.59421 255.191C1.45256 253.745 3.57729 252.443 6.62273 251.888C9.66817 251.334 13.351 251.618 15.5891 252.669C18.507 251.232 23.3514 250.972 26.7226 252.084C30.1576 250.178 36.1423 249.469 41.107 250.362C46.0152 251.248 48.6923 253.483 47.4246 255.759L46.9855 256.543C50.3709 256.449 53.4517 256.956 55.5552 258.066C57.2762 258.976 58.0836 260.278 57.3258 261.583C59.9959 261.6 62.2976 262.094 63.7 262.993C64.9677 263.807 65.3077 264.869 64.4082 265.896C63.1263 267.358 59.6417 268.268 56.0085 268.177C54.0962 268.13 52.4602 267.827 51.0366 267.281C47.7079 268.837 42.134 268.886 39.0461 267.369C32.5869 269.526 23.4506 269.06 19.4915 266.086L19.5057 266.089Z" fill="#EAB7F7"/>
<path d="M508.917 31.5951C507.382 31.5494 506.063 31.5411 504.614 31.458C498.57 31.1093 493.38 29.7723 490.103 27.6756C486.86 28.4147 483.4 28.6098 479.864 28.4562C474.879 28.2361 470.49 27.2646 467.851 25.5C464.759 23.4323 464.781 20.7128 467.992 18.5828C470.987 16.5982 475.961 15.3443 481.572 15.1948C481.356 13.0192 484.6 11.0595 489.249 10.2249C493.899 9.3904 499.521 9.81806 502.938 11.4C507.393 9.23678 514.788 8.8465 519.935 10.5197C525.179 7.65073 534.316 6.58368 541.895 7.92892C549.388 9.26169 553.475 12.6248 551.54 16.0501L550.87 17.2293C556.038 17.0881 560.741 17.8521 563.953 19.5212C566.58 20.8913 567.813 22.851 566.656 24.8149C570.732 24.8398 574.246 25.583 576.387 26.9366C578.322 28.1614 578.841 29.7599 577.468 31.3044C575.511 33.505 570.191 34.8751 564.645 34.7381C561.725 34.6675 559.228 34.2108 557.054 33.3887C551.972 35.7304 543.463 35.8051 538.749 33.5216C528.888 36.7684 514.94 36.0667 508.896 31.5909L508.917 31.5951Z" fill="#EAB7F7"/>
<ellipse cx="21.5" cy="31.2474" rx="52.5" ry="43.5013" fill="#FAD04F"/>
<path d="M68.1073 63.6266C66.6931 63.5829 65.4781 63.575 64.1436 63.4955C58.5766 63.1619 53.7964 61.8831 50.7789 59.8776C47.7912 60.5845 44.6044 60.7711 41.3478 60.6242C36.7568 60.4137 32.7135 59.4844 30.2835 57.7965C27.4353 55.8188 27.4552 53.2175 30.413 51.1801C33.1716 49.2818 37.7527 48.0824 42.9213 47.9394C42.7221 45.8584 45.7098 43.9839 49.9921 43.1856C54.2744 42.3874 59.453 42.7964 62.6 44.3095C66.7031 42.2404 73.5149 41.8671 78.2553 43.4676C83.0854 40.7233 91.5006 39.7027 98.4818 40.9894C105.383 42.2642 109.148 45.4811 107.365 48.7575L106.748 49.8854C111.508 49.7504 115.84 50.4811 118.798 52.0777C121.218 53.3882 122.353 55.2628 121.288 57.1412C125.042 57.1651 128.279 57.876 130.251 59.1706C132.033 60.3422 132.511 61.8712 131.246 63.3486C129.444 65.4535 124.544 66.764 119.435 66.633C116.746 66.5655 114.446 66.1286 112.444 65.3423C107.763 67.5821 99.9258 67.6536 95.5837 65.4693C86.5013 68.575 73.6544 67.9038 68.0874 63.6226L68.1073 63.6266Z" fill="#EAB7F7"/>
</g>
<defs>
<linearGradient id="paint0_linear_138_54" x1="556" y1="-16.7915" x2="556" y2="428.775" gradientUnits="userSpaceOnUse">
<stop stop-color="#FFF5BE"/>
<stop offset="0.7213" stop-color="#F0CEFF"/>
</linearGradient>
<clipPath id="clip0_138_54">
<rect width="1112" height="473" fill="white"/>
</clipPath>
<clipPath id="clip1_138_54">
<rect width="963.733" height="205.865" fill="white" transform="translate(56.3413 61.2694)"/>
</clipPath>
</defs>
</svg>
