<svg width="346" height="319" viewBox="0 0 346 319" fill="none" xmlns="http://www.w3.org/2000/svg">
<path d="M119.389 281.436C119.389 281.436 104.41 303.753 100.035 304.573C95.6592 305.393 73.5206 297.871 69.6194 287.28C65.7183 276.688 76.9511 275.28 85.007 281.086L98.6533 263.432L119.389 281.436Z" fill="#EB984E"/>
<g opacity="0.2">
<path d="M98.9696 294.756C101.927 294.202 109.724 283.832 114.47 277.166L119.389 281.436C119.389 281.436 104.41 303.753 100.034 304.573C95.6592 305.393 73.5205 297.871 69.6192 287.279C68.3961 283.959 68.6617 281.542 69.8495 279.965C75.9287 289.213 94.9479 295.51 98.9696 294.756Z" fill="#4A1600"/>
</g>
<path d="M99.3389 306.517C92.6205 306.517 71.8719 298.874 67.8424 287.934C65.5763 281.781 67.9995 278.766 69.6455 277.515C73.0945 274.896 79.2733 275.387 84.5791 278.543L97.1547 262.274C97.4735 261.862 97.9478 261.599 98.4662 261.548C98.9843 261.495 99.5015 261.661 99.8944 262.002L120.63 280.006C121.351 280.632 121.493 281.698 120.961 282.492C116.324 289.4 105.037 305.562 100.383 306.434C100.09 306.49 99.7384 306.517 99.3389 306.517ZM75.4167 279.599C73.953 279.599 72.7309 279.928 71.9365 280.531C70.1379 281.897 70.65 284.599 71.3962 286.625C74.9888 296.378 96.1509 303.369 99.6856 302.712C101.937 302.112 110.152 291.636 116.879 281.766L98.9253 266.177L86.5053 282.244C85.8804 283.052 84.7274 283.219 83.8998 282.622C80.9818 280.52 77.8626 279.599 75.4167 279.599Z" fill="#4A1600"/>
<path d="M253.31 279.12C253.31 279.12 254.915 305.95 251.93 309.253C248.946 312.556 226.776 319.986 217.256 313.923C207.735 307.86 215.818 299.934 225.745 299.673L225.905 277.36L253.31 279.12Z" fill="#EB984E"/>
<g opacity="0.2">
<path d="M245.136 302.089C247.153 299.856 247.073 286.882 246.81 278.703L253.31 279.12C253.31 279.12 254.915 305.95 251.931 309.253C248.947 312.556 226.777 319.985 217.256 313.923C214.271 312.022 213.018 309.938 213.008 307.965C223.447 311.639 242.393 305.125 245.136 302.089Z" fill="#4A1600"/>
</g>
<path d="M227.347 318.122C223.117 318.122 219.175 317.39 216.239 315.52C210.708 311.998 210.809 308.131 211.361 306.139C212.517 301.965 217.73 298.612 223.864 297.908L224.012 277.346C224.015 276.825 224.234 276.329 224.615 275.974C224.996 275.619 225.506 275.44 226.027 275.47L253.431 277.23C254.385 277.292 255.143 278.054 255.2 279.008C255.697 287.312 256.509 307.009 253.336 310.523C250.772 313.361 238.128 318.122 227.347 318.122ZM227.785 279.378L227.639 299.686C227.631 300.707 226.816 301.538 225.795 301.565C220.048 301.717 215.722 304.582 215.011 307.15C214.408 309.327 216.452 311.165 218.273 312.326C227.04 317.908 248.111 310.655 250.525 307.984C251.953 306.142 252.141 292.831 251.513 280.902L227.785 279.378Z" fill="#4A1600"/>
<path d="M46.9738 158.581C46.9738 158.581 28.0173 153.647 13.0517 158.581C-1.914 163.515 -0.271493 186.146 8.85398 188.153C17.9795 190.161 19.622 182.131 19.622 182.131C19.622 182.131 24.9312 187.241 28.1168 184.686C31.3025 182.131 30.9375 178.298 30.9375 178.298C30.9375 178.298 43.8957 180.488 49.1883 178.298C54.4812 176.108 46.9738 158.581 46.9738 158.581Z" fill="#EF82B1"/>
<g opacity="0.4">
<path d="M15.2418 163.102C28.7541 158.647 45.5147 162.236 48.6438 162.975C47.7602 160.419 46.9738 158.581 46.9738 158.581C46.9738 158.581 28.0173 153.647 13.0518 158.581C0.696834 162.654 -0.332482 178.778 4.81625 185.413C2.63048 177.743 5.17454 166.421 15.2418 163.102Z" fill="#F6B7C8"/>
</g>
<g opacity="0.2">
<path d="M3.74366 179.615C3.74366 179.615 12.7904 185.8 15.9323 176.391C15.9323 176.391 21.9716 179.772 24.6409 179.001C27.3101 178.229 28.9755 172.115 28.9755 172.115L29.5767 170.814C29.5767 170.814 47.6674 173.127 49.3709 167.53C49.3709 167.53 52.6523 175.562 49.9259 177.81C47.1995 180.057 32.49 178.531 32.49 178.531L30.9375 179.057C30.9375 179.057 31.2978 184.353 27.3763 185.128C23.4547 185.902 21.0212 183.469 21.0212 183.469L19.622 183.591C19.622 183.591 14.9376 190.283 8.854 188.153C2.77027 186.024 0.823497 179.654 3.74366 179.615Z" fill="#4A1600"/>
</g>
<path d="M11.6415 190.372C10.6304 190.372 9.56527 190.249 8.44733 190.003C3.76598 188.973 0.383236 183.62 0.0289789 176.683C-0.336641 169.514 2.69917 160 12.4585 156.782C27.7777 151.73 46.6549 156.541 47.451 156.748C48.0175 156.896 48.4842 157.297 48.7148 157.835C49.3276 159.266 54.6364 171.969 52.4064 177.443C51.9022 178.681 51.0398 179.581 49.9126 180.048C45.4246 181.905 36.719 181.026 32.6666 180.473C32.3531 182.144 31.5076 184.394 29.3017 186.163C26.3704 188.513 22.713 186.786 20.4281 185.208C19.7694 186.414 18.7341 187.791 17.1454 188.823C15.559 189.855 13.7157 190.372 11.6415 190.372ZM28.4556 158.29C23.6078 158.29 18.3944 158.813 13.6447 160.379C5.91033 162.929 3.51386 170.652 3.81193 176.49C4.07365 181.62 6.31446 185.655 9.26113 186.304C11.6279 186.825 13.5764 186.61 15.0508 185.667C17.1875 184.3 17.7638 181.764 17.7694 181.739C17.9161 181.069 18.4148 180.524 19.071 180.325C19.7281 180.125 20.4415 180.29 20.9355 180.766C22.2264 182 25.5315 184.332 26.932 183.208C29.2455 181.353 29.06 178.579 29.0511 178.461C29.0064 177.88 29.2311 177.302 29.6614 176.909C30.0916 176.516 30.6773 176.333 31.253 176.431C34.7101 177.014 44.5416 178.171 48.4644 176.548C48.5424 176.516 48.7249 176.44 48.8985 176.014C50.0626 173.158 47.6184 165.167 45.598 160.201C43.2005 159.664 36.3079 158.29 28.4556 158.29Z" fill="#4A1600"/>
<path d="M18.0291 183.155C17.1283 181.928 16.409 180.585 15.7474 179.205C15.4209 178.512 15.1073 177.811 14.8174 177.094C14.5155 176.386 14.319 175.609 14.5617 174.55C14.5891 174.431 14.7074 174.355 14.8269 174.38C15.891 174.599 16.5158 175.1 17.035 175.669C17.5665 176.23 18.0742 176.806 18.569 177.391C19.5501 178.566 20.4733 179.778 21.215 181.106C21.7258 182.021 21.3982 183.177 20.4832 183.688C19.6379 184.16 18.587 183.916 18.0291 183.155Z" fill="#4A1600"/>
<path d="M29.0745 178.637C28.7381 177.315 28.6139 175.955 28.5575 174.583C28.5343 173.896 28.526 173.206 28.5457 172.511C28.5512 171.819 28.6799 171.104 29.3224 170.296C29.3981 170.201 29.5313 170.179 29.6326 170.239C30.5185 170.77 30.8906 171.393 31.1394 172.039C31.4024 172.683 31.6376 173.331 31.8577 173.983C32.2879 175.287 32.6505 176.604 32.8007 177.959C32.9164 179.001 32.1653 179.94 31.1233 180.055C30.1701 180.161 29.3036 179.541 29.0745 178.637Z" fill="#4A1600"/>
<path d="M45.3557 189.24C45.3557 189.24 19.0745 228.488 67.2568 259.88C115.439 291.271 241.005 294.191 284.077 273.75C327.149 253.309 306.708 213.188 306.708 213.188C306.708 213.188 166.542 149.991 45.3557 189.24Z" fill="#EB984E"/>
<g opacity="0.4">
<path d="M52.5346 192.602C157.741 158.529 277.231 201.658 306.919 213.626C306.786 213.34 306.708 213.188 306.708 213.188C306.708 213.188 166.542 149.991 45.3558 189.24C45.3558 189.24 19.0744 228.488 67.2568 259.88C71.7025 262.776 76.8111 265.428 82.4485 267.844C79.5917 266.383 76.9068 264.852 74.4357 263.242C26.2532 231.851 52.5346 192.602 52.5346 192.602Z" fill="#FF6449"/>
</g>
<g opacity="0.2">
<path d="M300.756 213.188C300.756 213.188 296.303 211.183 288.333 208.118C290.656 221.662 288.807 242.44 261.583 255.36C218.511 275.801 97.6263 275.316 49.4441 243.925C47.1012 242.398 45.1743 236.499 43.1719 234.941C47.5669 242.637 55.8353 252.438 67.2567 259.88C115.439 291.271 235.052 294.191 278.125 273.75C321.197 253.309 300.756 213.188 300.756 213.188Z" fill="#4A1600"/>
</g>
<path d="M198.746 288.67C191.804 288.67 184.7 288.497 177.491 288.144C129.163 285.774 88.6073 276.05 66.2229 261.466C49.9254 250.848 40.1718 238.175 37.2329 223.801C33.2326 204.234 43.3493 188.832 43.7821 188.186C44.0188 187.832 44.3674 187.569 44.7721 187.438C72.6113 178.421 103.754 174.083 137.343 174.53C164.172 174.89 192.614 178.293 221.878 184.645C271.687 195.455 307.135 211.303 307.487 211.461C307.88 211.639 308.2 211.945 308.396 212.328C308.767 213.058 317.427 230.402 311.25 248.54C307.365 259.946 298.496 269.004 284.889 275.461C267.125 283.892 235.233 288.67 198.746 288.67ZM46.5977 190.829C44.924 193.632 37.6501 207.035 40.9543 223.094C43.6957 236.419 52.8929 248.261 68.2904 258.293C114.962 288.701 239.991 292.577 283.265 272.04C295.899 266.044 304.104 257.738 307.653 247.353C312.722 232.518 306.697 217.733 305.297 214.636C300.333 212.474 266.793 198.261 220.989 188.328C175.609 178.487 108.584 170.96 46.5977 190.829Z" fill="#4A1600"/>
<path d="M55.3329 139.424C55.3329 139.424 45.1125 152.523 44.6258 176.391C44.1391 200.26 79.6675 221.041 159.485 231.578C239.302 242.115 296.245 225.629 309.385 213.188C322.526 200.747 325.933 163.654 300.625 152.512C275.317 141.37 55.3329 139.424 55.3329 139.424Z" fill="#EF82B1"/>
<g opacity="0.4">
<path d="M50.4911 179.475C50.9778 155.607 61.1982 142.507 61.1982 142.507C61.1982 142.507 275.938 144.408 305.489 155.2C304.001 154.192 302.385 153.287 300.625 152.512C275.317 141.37 55.3329 139.424 55.3329 139.424C55.3329 139.424 45.1125 152.523 44.6258 176.391C44.3761 188.635 53.6073 200.066 73.4278 209.718C57.6505 200.751 50.2675 190.439 50.4911 179.475Z" fill="#F6B7C8"/>
</g>
<g opacity="0.3">
<path d="M294.775 156.931C291.181 155.349 283.658 153.952 273.399 152.72C286.092 166.386 282.34 194.283 272.387 203.705C260.581 214.883 209.151 229.466 137.44 219.999C81.0769 212.558 56.0914 195.305 45.2816 179.615C45.2215 203.306 74.2899 225.522 153.635 235.997C233.452 246.534 290.395 230.048 303.535 217.607C316.676 205.165 320.083 168.073 294.775 156.931Z" fill="#F6B7C8"/>
</g>
<path d="M209.358 236.838C194.575 236.838 177.797 235.905 159.237 233.456C120.563 228.35 90.9055 220.685 71.0874 210.674C52.0047 201.034 42.4645 189.487 42.7323 176.353C43.2261 152.133 53.4069 138.814 53.8399 138.259C54.2024 137.794 54.7476 137.522 55.3496 137.53C64.3479 137.61 276.015 139.608 301.388 150.779C311.718 155.327 318.577 164.582 320.702 176.838C323.14 190.896 318.928 206.761 310.687 214.563C302.985 221.854 283.469 228.869 259.753 232.867C247.402 234.95 230.4 236.838 209.358 236.838ZM56.3067 141.327C54.266 144.366 46.9227 156.643 46.5193 176.43C46.2834 187.983 55.1241 198.367 72.7951 207.293C92.2323 217.112 121.482 224.651 159.732 229.7C240.021 240.303 295.971 223.28 308.083 211.812C315.35 204.932 319.171 190.175 316.971 177.485C315.626 169.727 311.566 159.398 299.862 154.245C276.053 143.763 72.3983 141.49 56.3067 141.327Z" fill="#4A1600"/>
<g opacity="0.3">
<path d="M50.4661 134.844L57.0473 146.907C57.0473 146.907 63.9716 150.169 62.5116 155.465C61.0515 160.761 69.4239 167.614 78.2073 157.465C78.2073 157.465 74.5572 169.886 84.4127 170.981C94.2681 172.076 90.983 154.915 100.108 155.465C109.234 156.015 123.105 180.106 139.165 174.631C155.226 169.156 154.496 171.711 165.446 173.536C176.397 175.361 178.587 171.346 194.283 172.076C209.979 172.806 216.184 183.391 216.549 189.962C216.914 196.532 218.739 206.388 227.135 204.197C235.53 202.007 230.42 188.867 233.34 187.772C236.26 186.677 240.275 179.376 240.275 179.376L314.961 164.579L305.603 153.88C305.603 153.88 293.568 147.255 195.743 137.399C97.9184 127.544 50.4661 134.844 50.4661 134.844Z" fill="#4A1600"/>
</g>
<path d="M50.4659 127.378L35.5002 137.234L38.2016 145.629L57.0472 139.44C57.0472 139.44 63.9715 142.703 62.5114 147.999C61.0513 153.294 69.4237 160.148 78.2072 149.999C78.2072 149.999 74.5571 162.42 84.4125 163.515C94.268 164.61 90.9828 147.448 100.108 147.999C109.234 148.549 123.104 172.64 139.165 167.165C155.226 161.69 154.496 164.245 165.446 166.07C176.397 167.895 178.587 163.88 194.283 164.61C209.979 165.34 216.184 175.925 216.549 182.495C216.914 189.066 218.739 198.921 227.134 196.731C235.53 194.541 230.419 181.4 233.34 180.305C236.26 179.21 240.275 171.91 240.275 171.91L319.494 156.214L316.929 145.264C316.929 145.264 293.568 139.788 195.743 129.933C97.9181 120.077 50.4659 127.378 50.4659 127.378Z" fill="#804A98"/>
<g opacity="0.2">
<path d="M50.9832 130.675C50.9832 130.675 61.6599 131.218 65.31 135.199C68.9601 139.18 68.2302 141.371 71.637 141.614C75.0439 141.857 79.6674 141.857 81.1275 141.614C82.5876 141.371 85.751 147.211 87.4545 146.481C89.1579 145.751 88.4265 139.012 98.0393 138.61C107.652 138.207 122.01 155.485 133.447 155.728C144.884 155.971 159.241 151.591 169.462 153.295C179.682 154.998 197.447 153.538 207.91 159.622C218.374 165.705 220.641 171.302 227.294 167.652C233.948 164.002 239.827 159.01 242.869 158.443C245.91 157.876 303.186 147.086 304.215 146.892C305.243 146.697 306.629 145.595 306.919 144.534C307.21 143.473 232.734 132.089 164.84 127.239C96.945 122.39 54.3596 126.506 54.3596 126.506L50.9832 130.675Z" fill="#4A1600"/>
</g>
<path d="M224.859 198.94C223.103 198.94 221.527 198.436 220.148 197.431C216.921 195.077 215.074 190.088 214.658 182.601C214.319 176.496 208.59 167.171 194.195 166.501C186.695 166.153 182.406 166.91 178.621 167.579C174.547 168.299 171.029 168.921 165.135 167.938C162.59 167.514 160.699 167.061 159.032 166.661C153.833 165.414 151.681 164.899 139.776 168.957C128.807 172.697 119.064 164.205 111.235 157.383C106.913 153.617 102.831 150.06 99.9942 149.889C97.2162 149.72 96.1648 151.726 94.4159 156.339C92.7641 160.697 90.7011 166.117 84.2036 165.397C81.1552 165.058 78.8633 163.765 77.3912 161.553C76.0445 159.529 75.6568 157.058 75.6587 154.878C70.3923 158.486 66.1467 156.813 64.7674 156.076C61.512 154.334 59.7955 150.726 60.6859 147.495C61.4895 144.58 58.2687 142.322 56.8627 141.494L38.7925 147.428C38.3133 147.586 37.7914 147.545 37.342 147.316C36.893 147.087 36.5532 146.689 36.3988 146.209L33.6976 137.814C33.4371 137.004 33.7485 136.12 34.4589 135.652L49.4245 125.796C49.652 125.647 49.9091 125.548 50.1781 125.506C50.6546 125.433 98.9894 118.282 195.933 128.049C292.766 137.805 316.402 143.195 317.361 143.42C318.061 143.584 318.609 144.131 318.773 144.832L321.338 155.783C321.455 156.282 321.364 156.809 321.085 157.24C320.807 157.672 320.366 157.972 319.862 158.072L241.495 173.599C240.261 175.723 237.203 180.585 234.34 181.936C234.17 182.563 234.187 184.131 234.2 185.306C234.246 189.609 234.324 196.813 227.613 198.564C226.652 198.815 225.733 198.94 224.859 198.94ZM190.602 162.628C191.774 162.628 193.025 162.656 194.371 162.718C211.272 163.504 218.024 174.914 218.44 182.39C218.78 188.511 220.179 192.765 222.38 194.371C223.497 195.186 224.897 195.359 226.656 194.899C230.228 193.968 230.466 190.353 230.412 185.347C230.378 182.159 230.348 179.405 232.675 178.533C234.069 178.01 236.844 174.214 238.616 170.997C238.886 170.508 239.358 170.161 239.907 170.053L317.203 154.738L315.36 146.868C309.623 145.71 280.737 140.399 195.553 131.818C103.813 122.574 55.9618 128.534 51.1528 129.193L37.7439 138.024L39.421 143.235L56.4564 137.641C56.9162 137.49 57.4165 137.521 57.8545 137.727C58.196 137.888 66.1995 141.747 64.3372 148.502C63.9196 150.017 64.8729 151.837 66.5543 152.736C69.4554 154.287 73.2771 152.801 76.7753 148.76C77.3589 148.086 78.3329 147.91 79.1148 148.337C79.8968 148.763 80.2755 149.678 80.0244 150.533C79.567 152.11 78.7678 156.795 80.549 159.462C81.3833 160.711 82.7155 161.421 84.6219 161.633C87.8669 161.993 89.0206 159.888 90.8743 154.997C92.4351 150.88 94.3779 145.754 100.222 146.108C104.347 146.357 108.692 150.143 113.723 154.528C121.189 161.033 129.653 168.405 138.554 165.373C151.497 160.96 154.134 161.592 159.914 162.978C161.521 163.363 163.343 163.799 165.758 164.202C171.009 165.078 174.078 164.536 177.963 163.849C181.102 163.295 184.88 162.628 190.602 162.628Z" fill="#4A1600"/>
<path d="M228.811 162.839C226.878 162.839 224.242 161.94 219.905 160.461C209.978 157.075 191.498 150.773 161.74 149.892C118.841 148.622 94.2525 139.395 93.2267 139.003C92.2499 138.629 91.761 137.535 92.1344 136.558C92.5073 135.582 93.6019 135.092 94.5786 135.465C94.8245 135.558 119.657 144.857 161.852 146.106C192.181 147.004 211.011 153.426 221.128 156.877C224.79 158.125 227.953 159.203 229.039 159.038C234.057 158.271 313.803 143.147 314.608 142.995C315.635 142.8 316.627 143.475 316.822 144.503C317.017 145.53 316.342 146.521 315.314 146.716C312.025 147.34 234.696 162.005 229.611 162.782C229.357 162.82 229.091 162.839 228.811 162.839Z" fill="#4A1600"/>
<path d="M47.911 98.9068L46.4509 121.538C46.4509 121.538 74.9223 141.979 126.39 132.853V112.936C126.39 112.936 83.6827 95.2566 47.911 98.9068Z" fill="#FF67A0"/>
<g opacity="0.2">
<path d="M118.141 109.876V124.16C83.0774 130.377 58.6997 122.873 46.714 117.457L46.4509 121.538C46.4509 121.538 74.9223 141.979 126.39 132.853V112.935C126.39 112.935 123.32 111.665 118.141 109.876Z" fill="#4A1600"/>
</g>
<path d="M100.643 137.073C86.2255 137.073 74.7172 134.816 66.5877 132.435C52.8842 128.421 45.6476 123.292 45.3465 123.076C44.8157 122.695 44.5189 122.068 44.5611 121.416L46.0212 98.7847C46.0806 97.8618 46.7985 97.1165 47.7186 97.0229C83.5547 93.3682 125.352 110.457 127.114 111.186C127.822 111.479 128.284 112.17 128.284 112.936V132.853C128.284 133.772 127.624 134.558 126.721 134.718C117.217 136.403 108.497 137.073 100.643 137.073ZM48.4118 120.557C53.4279 123.688 80.2724 138.642 124.496 131.258V114.221C117.542 111.515 80.9788 98.0267 49.6964 100.643L48.4118 120.557Z" fill="#4A1600"/>
<path d="M128.233 103.913L126.39 132.48C126.39 132.48 158.504 155.536 216.895 148.329C222.828 147.596 227.294 142.563 227.294 136.584V121.622C227.294 121.622 173.386 99.3059 128.233 103.913Z" fill="#FF67A0"/>
<g opacity="0.2">
<path d="M217.621 118.017V129.217C217.621 133.81 214.221 137.69 209.671 138.31C168.9 143.868 140.603 134.682 126.664 128.237L126.39 132.48C126.39 132.48 159.126 155.982 218.589 148.112C223.573 147.453 227.294 143.188 227.294 138.16V121.622C227.294 121.622 223.708 120.138 217.621 118.017Z" fill="#4A1600"/>
</g>
<path d="M194.826 151.602C175.296 151.602 159.928 148.296 149.469 145.006C133.842 140.089 125.627 134.264 125.285 134.018C124.754 133.637 124.458 133.01 124.5 132.358L126.343 103.792C126.403 102.868 127.12 102.123 128.04 102.03C173.149 97.4254 227.475 119.647 228.019 119.872C228.726 120.165 229.188 120.856 229.188 121.622V137.57C229.188 143.888 224.485 149.26 218.248 150.067C209.894 151.147 202.073 151.602 194.826 151.602ZM128.35 131.506C133.83 134.983 165.362 153.086 217.762 146.311C222.117 145.747 225.401 141.99 225.401 137.57V122.905C217.419 119.778 170.2 102.136 130.019 105.647L128.35 131.506Z" fill="#4A1600"/>
<path d="M226.36 114.025L227.999 141.217C227.999 141.217 257.534 157.276 306.617 147.449C317.046 145.361 324.06 135.514 322.737 124.96L321.994 119.026C321.994 119.026 268.451 104.332 226.36 114.025Z" fill="#FF67A0"/>
<g opacity="0.2">
<path d="M322.737 124.96L321.994 119.025C321.994 119.025 320.055 118.494 316.633 117.701C317.24 127.744 310.404 136.87 300.412 138.871C264.1 146.141 238.505 139.247 227.634 135.165L227.999 141.217C227.999 141.217 257.534 157.276 306.617 147.449C317.046 145.361 324.06 135.513 322.737 124.96Z" fill="#4A1600"/>
</g>
<path d="M275.249 152.562C245.355 152.562 228.049 143.4 227.095 142.881C226.521 142.569 226.148 141.983 226.109 141.331L224.469 114.139C224.413 113.216 225.033 112.387 225.934 112.18C268.005 102.492 321.955 117.051 322.495 117.199C323.233 117.402 323.777 118.03 323.872 118.79L324.944 127.343C326.202 137.378 319.721 146.561 309.87 148.704C296.98 151.507 285.39 152.562 275.249 152.562ZM229.823 140.006C235.257 142.562 264.415 154.714 309.065 145.003C316.987 143.28 322.198 135.89 321.187 127.815L320.274 120.535C312.204 118.489 265.747 107.509 228.347 115.524L229.823 140.006Z" fill="#4A1600"/>
<path d="M212.169 18.9678C216.184 20.0628 220.199 24.4431 220.929 32.4734C221.659 40.5036 239.18 35.3936 245.021 44.1539C250.861 52.9144 253.781 60.9448 264.002 59.4847C274.222 58.0246 274.952 64.96 276.777 72.9903C278.602 81.0207 286.633 73.7204 289.188 76.6404C291.743 79.5606 296.488 87.226 302.328 78.8305C308.169 70.4351 308.899 59.4846 313.279 54.0094L302.694 55.4694C302.694 55.4694 306.709 44.8839 302.694 37.5836C298.678 30.2832 278.262 29.9182 278.262 29.9182C276.827 13.4925 257.066 17.8726 257.066 17.8726C248.671 -5.12349 228.96 5.46194 228.96 5.46194C219.835 2.17679 205.964 10.5722 205.964 10.5722C205.964 10.5722 208.154 17.8727 212.169 18.9678Z" fill="#FF67A0"/>
<g opacity="0.4">
<path d="M228.23 11.4079C228.23 11.4079 242.711 3.63079 252.136 15.8903C255.306 20.014 259.878 22.8406 265.04 23.4729C268.773 23.93 272.834 25.3559 275.302 29.0213C278.105 33.1844 282.519 36.0041 287.47 36.8261C293.276 37.79 299.863 39.711 301.963 43.5296C303.363 46.074 303.785 49.0168 303.744 51.7721C304.571 48.0308 305.211 42.162 302.693 37.5841C298.678 30.2837 278.262 29.9187 278.262 29.9187C276.827 13.4929 257.066 17.8731 257.066 17.8731C248.671 -5.123 228.96 5.46243 228.96 5.46243C219.834 2.17728 205.964 10.5726 205.964 10.5726C205.964 10.5726 206.649 12.8507 207.952 15.0526C212.445 12.8085 221.591 9.01788 228.23 11.4079Z" fill="#FF6449"/>
</g>
<g opacity="0.4">
<path d="M310.051 60.2997C310.954 57.8489 311.947 55.6741 313.279 54.0098L297.997 56.989C297.768 58.5545 298.549 59.6074 299.476 60.292C300.594 61.1173 302.02 61.4074 303.397 61.2176L310.051 60.2997Z" fill="#FF6449"/>
</g>
<path d="M313.279 54.0099C308.898 59.4851 308.168 70.4356 302.328 78.831C296.488 87.2265 291.743 79.5611 289.187 76.6409C286.632 73.7208 278.602 81.0212 276.777 72.9908C274.952 64.9604 274.222 58.0251 264.001 59.4852C253.781 60.9453 250.86 52.9149 245.02 44.1544C239.18 35.3939 221.659 40.5043 220.929 32.4739C220.199 24.4435 216.184 20.0633 212.169 18.9683C208.153 17.8732 205.963 10.5729 205.963 10.5729L198.663 2.17755C70.6634 -3.17608 54.1159 68.6107 54.1159 68.6107C49.8705 79.092 48.2756 91.2418 60.3213 101.462C72.3667 111.683 306.617 147.449 321.614 112.553C336.612 77.6559 313.279 54.0099 313.279 54.0099Z" fill="#EB984E"/>
<g opacity="0.4">
<path d="M264.002 59.485C253.781 60.945 250.861 52.9147 245.021 44.1542C239.18 35.3937 221.659 40.504 220.929 32.4736C220.199 24.4433 216.184 20.063 212.169 18.9681C208.154 17.873 205.964 10.5727 205.964 10.5727L198.663 2.17731C70.6637 -3.17632 54.1163 68.6106 54.1163 68.6106C52.2801 73.144 50.9425 77.9894 50.9872 82.8559C51.5408 80.5874 52.2992 78.3576 53.1733 76.1992C53.1733 76.1992 59.4054 49.1783 93.7806 29.5284C95.0545 32.7564 107.249 31.3897 121.121 26.4499C133.721 21.9631 143.387 16.0661 144.265 12.5444C159.47 10.0395 177.154 8.90593 197.72 9.76607L205.021 18.1614C205.021 18.1614 207.211 25.4618 211.226 26.5568C215.241 27.6518 219.257 32.0322 219.987 40.0624C220.717 48.0928 238.237 42.9826 244.078 51.7429C249.918 60.5033 252.838 68.5338 263.059 67.0737C273.279 65.6136 273.441 63.2265 275.266 71.2569C275.698 73.1561 276.502 74.2938 277.509 74.972C277.211 74.4479 276.961 73.8006 276.777 72.9908C274.952 64.9602 274.222 58.0249 264.002 59.485Z" fill="#FF6449"/>
</g>
<g opacity="0.4">
<path d="M277.509 74.9719C279.487 78.4495 283.711 76.2289 286.693 75.9403C284.223 75.3248 280.159 76.7568 277.509 74.9719Z" fill="#FF6449"/>
</g>
<g opacity="0.4">
<path d="M313.279 54.0098C308.898 59.485 308.168 70.4356 302.328 78.831C296.488 87.2264 291.743 79.561 289.187 76.641C288.599 75.9687 287.719 75.841 286.693 75.9404C287.252 76.0798 287.732 76.3207 288.092 76.7322C290.648 79.6524 296.853 87.5915 302.693 79.1961C308.533 70.8008 309.811 61.4927 314.191 56.0175L313.279 54.0098Z" fill="#FF6449"/>
</g>
<g opacity="0.2">
<path d="M220.382 24.6258C220.382 24.6258 222.024 29.1885 228.959 29.006C235.895 28.8235 246.48 24.9908 246.845 26.6334C247.21 28.2759 247.393 38.3139 255.241 41.5079C263.089 44.7018 268.564 35.9322 268.564 35.9322C268.564 35.9322 279.253 39.5916 279.201 44.7018C279.149 49.812 271.067 58.2074 271.067 58.2074C271.067 58.2074 274.128 61.1602 280.837 56.5812C287.545 52.0021 287.335 46.6079 287.335 46.6079C287.335 46.6079 298.495 46.1617 296.305 56.5647C296.305 56.5647 286.815 66.7852 291.925 66.7852C297.035 66.7852 309.666 63.135 308.917 63.5913C308.168 64.0476 304.321 82.2579 298.67 82.6432C293.02 83.0285 291.554 77.6858 288.092 76.7319C284.631 75.7781 281.991 79.2115 279.201 76.5699C279.201 76.5699 277.385 75.7781 276.168 70.2474C274.952 64.7167 274.343 59.3631 267.529 58.8764C260.716 58.3897 257.309 60.9396 253.172 55.7129C249.035 50.4862 245.989 41.6051 238.387 39.5945C230.784 37.5838 223.128 37.2134 221.42 34.1743C219.712 31.1352 217.766 22.7399 220.382 24.6258Z" fill="#4A1600"/>
</g>
<g opacity="0.2">
<path d="M52.7461 73.8969C52.7461 73.8969 100.466 89.9714 172.56 89.8763C244.655 89.7814 267.764 68.8384 268.722 70.0704C269.68 71.3023 270.207 72.6255 274.45 78.4201C278.693 84.2148 285.811 80.5191 286.313 80.7015C286.815 80.884 289.598 87.5455 296.99 87.7281C304.381 87.9106 311.088 75.7495 314.008 64.697C314.008 64.697 328.001 85.3927 314.008 117.701C314.008 117.701 193.593 126.261 111.079 112.644C28.5647 99.0283 52.7461 73.8969 52.7461 73.8969Z" fill="#4A1600"/>
</g>
<path d="M256.521 129.373C221.832 129.373 182.666 125.303 162.732 122.921C111.362 116.785 64.8715 107.806 59.096 102.906C48.6536 94.0455 46.4327 82.6361 52.3079 68.0301C52.7888 66.0942 57.5364 48.7826 77.1565 31.9484C89.0476 21.7457 103.975 13.8524 121.524 8.48736C143.352 1.81454 169.33 -0.945037 198.742 0.284512C199.262 0.306353 199.75 0.54131 200.092 0.933947L206.378 8.16315C210.151 6.12509 220.721 1.06563 228.818 3.42574C231.163 2.35338 238.539 -0.475766 245.96 2.35186C251.33 4.39723 255.466 8.89981 258.273 15.7462C261.551 15.2925 269.079 14.8055 274.454 18.7472C277.412 20.9165 279.252 24.0515 279.936 28.0816C285.256 28.3365 300.505 29.6754 304.352 36.671C307.411 42.2314 306.344 49.276 305.359 53.1902L313.02 52.1336C313.61 52.0507 314.207 52.2542 314.626 52.6795C314.876 52.9323 320.784 58.9929 324.838 69.5137C328.576 79.2158 331.354 94.6878 323.355 113.3C320.993 118.795 314.291 122.77 302.867 125.453C290.661 128.319 274.17 129.373 256.521 129.373ZM185.483 3.78984C128.479 3.78984 96.7121 20.2501 79.8425 34.6354C60.2873 51.3105 56.0017 68.8631 55.9607 69.0381C55.9382 69.1337 55.908 69.2301 55.8713 69.3208C50.5485 82.4624 52.3519 92.2166 61.5464 100.018C66.0804 103.865 110.509 112.869 163.181 119.161C226.329 126.704 276.928 127.654 302.001 121.765C312.033 119.41 318.047 116.059 319.875 111.804C325.868 97.8594 326.368 84.1401 321.362 71.0272C318.344 63.1224 314.12 57.8259 312.549 56.0217L302.952 57.3452C302.292 57.4371 301.629 57.1723 301.212 56.6492C300.795 56.1264 300.685 55.4228 300.922 54.7976C300.959 54.7018 304.572 44.9285 301.034 38.4961C298.498 33.8851 285.699 31.9488 278.228 31.8115C277.259 31.7936 276.46 31.0481 276.376 30.083C276.048 26.3279 274.69 23.6213 272.225 21.809C266.718 17.7589 257.565 19.7016 257.473 19.722C256.547 19.9257 255.612 19.4121 255.287 18.5221C252.882 11.9344 249.3 7.68844 244.64 5.902C237.475 3.1548 229.928 7.09179 229.852 7.13244C229.38 7.38368 228.82 7.42408 228.318 7.24404C220.138 4.29775 207.075 12.1131 206.944 12.1923C206.156 12.6685 205.139 12.5094 204.534 11.8151L197.77 4.03566C193.549 3.86976 189.455 3.78984 185.483 3.78984Z" fill="#4A1600"/>
<path d="M296.89 84.5368C293.194 84.5371 290.438 81.1518 288.601 78.8966C288.299 78.5255 288.019 78.1812 287.762 77.8878C287.507 77.5965 285.603 78.0364 284.79 78.2237C282.645 78.7194 279.975 79.3355 277.761 77.9466C276.368 77.0728 275.416 75.5465 274.93 73.4101C274.801 72.8429 274.678 72.281 274.556 71.7274C272.807 63.769 271.721 60.2974 264.269 61.3592C254.434 62.7678 250.333 56.176 245.992 49.2006C245.183 47.9014 244.347 46.5578 243.445 45.2044C240.992 41.5254 235.811 40.7074 230.801 39.9164C225.266 39.0427 219.543 38.139 219.043 32.6447C218.367 25.2059 214.791 21.6459 211.67 20.7949C206.783 19.4614 204.405 11.9666 204.15 11.1165C203.849 10.1145 204.418 9.05879 205.419 8.75832C206.423 8.45999 207.476 9.02584 207.777 10.026C208.399 12.0816 210.412 16.5256 212.667 17.1408C217.015 18.3263 221.964 22.932 222.815 32.3019C223.025 34.6056 225.72 35.2798 231.392 36.1751C236.937 37.0508 243.223 38.0433 246.596 43.1035C247.531 44.5063 248.383 45.8753 249.208 47.1992C253.505 54.1038 256.342 58.6656 263.734 57.6099C274.976 56.0033 276.644 63.5836 278.256 70.9142C278.375 71.4591 278.497 72.0121 278.624 72.5704C278.878 73.6896 279.265 74.4188 279.774 74.7381C280.656 75.2917 282.4 74.8891 283.938 74.5331C286.133 74.0263 288.865 73.396 290.613 75.3933C290.896 75.717 291.205 76.0955 291.538 76.5044C292.938 78.2231 295.056 80.7996 296.976 80.7475C298.429 80.6925 299.843 79.0864 300.773 77.7486C303.665 73.5929 305.231 68.7875 306.745 64.1407C308.158 59.8051 309.493 55.7101 311.8 52.8259C312.454 52.0097 313.645 51.8769 314.462 52.53C315.279 53.1834 315.411 54.375 314.758 55.1918C312.881 57.5384 311.65 61.3154 310.347 65.314C308.821 69.9935 307.093 75.2972 303.883 79.9117C301.814 82.8861 299.538 84.4405 297.12 84.5321C297.043 84.5357 296.966 84.5368 296.89 84.5368Z" fill="#4A1600"/>
<path d="M239.712 41.9694C239.597 41.9694 239.481 41.9589 239.364 41.9371C238.335 41.746 237.657 40.7572 237.848 39.729C237.939 39.2432 240.143 27.796 247.22 24.8822C248.186 24.484 249.293 24.9445 249.692 25.9123C250.09 26.8793 249.629 27.9861 248.662 28.3843C244.353 30.1587 242.083 37.6752 241.572 40.4219C241.402 41.333 240.607 41.9694 239.712 41.9694Z" fill="#4A1600"/>
<path d="M268.383 44.1318C268.237 44.1318 268.09 44.1152 267.942 44.0797C266.927 43.8377 266.299 42.8197 266.538 41.804C266.564 41.6885 268.268 33.8912 262.941 26.7629C257.902 20.022 251.258 17.1647 244.234 18.7178C243.12 18.9641 241.8 19.3346 240.403 19.7267C234.9 21.2719 228.05 23.1949 223.939 20.3284C222.065 19.0221 221 16.9262 220.775 14.0991C220.692 13.0564 221.47 12.144 222.512 12.0608C223.555 11.9813 224.467 12.7552 224.551 13.7983C224.683 15.4655 225.192 16.585 226.104 17.2214C228.748 19.0646 234.893 17.3398 239.379 16.08C240.829 15.6731 242.198 15.2888 243.416 15.0197C251.856 13.1534 260.079 16.6074 265.974 24.4955C272.408 33.1038 270.316 42.2901 270.223 42.6769C270.016 43.5468 269.239 44.1318 268.383 44.1318Z" fill="#4A1600"/>
<path d="M235.713 14.383C234.944 14.383 234.221 13.9117 233.938 13.1491C232.939 10.4654 229.313 7.86887 228 7.09496C227.1 6.5642 226.799 5.40396 227.328 4.50304C227.858 3.60212 229.016 3.30064 229.917 3.82861C230.157 3.96913 235.811 7.32397 237.487 11.8281C237.852 12.8083 237.353 13.8987 236.373 14.2634C236.155 14.3445 235.932 14.383 235.713 14.383Z" fill="#4A1600"/>
<path d="M271.065 62.2161C270.169 62.2161 269.373 61.5778 269.205 60.6648C269.016 59.6366 269.696 58.6496 270.724 58.4597C270.873 58.4317 281.283 56.4205 284.511 50.4149C285.783 48.0486 285.758 45.3763 284.432 42.2457C284.024 41.2825 284.475 40.1713 285.438 39.7635C286.402 39.3548 287.513 39.8063 287.92 40.7692C289.698 44.9698 289.672 48.8217 287.842 52.2183C283.738 59.8365 271.912 62.092 271.41 62.1842C271.294 62.206 271.179 62.2161 271.065 62.2161Z" fill="#4A1600"/>
<path d="M287.336 65.4849C286.822 65.4849 286.31 65.2771 285.936 64.8675C285.231 64.0951 285.286 62.8973 286.059 62.1924C293.358 55.5313 301.946 53.6902 302.309 53.6151C303.333 53.4024 304.335 54.0608 304.547 55.0848C304.76 56.1087 304.102 57.1114 303.078 57.3237C303.002 57.3398 295.117 59.0532 288.611 64.99C288.248 65.3212 287.791 65.4849 287.336 65.4849Z" fill="#4A1600"/>
<path d="M54.1162 68.6101C54.1162 68.6101 43.5307 58.7547 32.2152 65.69C20.8996 72.6253 36.9604 79.5607 33.6752 88.3211C30.3901 97.0816 34.0402 102.557 43.1657 103.287C52.2912 104.017 43.1657 114.919 57.7664 112.936C72.3671 110.952 73.8272 106.572 73.8272 106.572C73.8272 106.572 80.7625 115.649 88.0629 112.936C95.3633 110.222 97.8665 103.864 97.8665 103.864C97.8665 103.864 105.428 124.851 126.859 125.202C148.291 125.553 153.036 116.805 153.036 116.805C153.036 116.805 165.812 128.108 182.057 128.634C213.403 129.65 218.374 126.505 218.374 126.505C218.374 126.505 230.42 134.99 239.91 135.199C249.401 135.408 248.671 132.853 255.241 132.853C261.811 132.853 272.082 137.963 278.262 132.853C284.442 127.743 289.553 122.633 289.553 122.633C289.553 122.633 302.693 128.108 309.263 128.473C315.834 128.838 319.494 128.838 319.494 128.838C319.494 128.838 328.974 140.83 336.64 135.199C344.305 129.568 339.56 117.912 338.83 116.805C338.1 115.697 348.91 109.127 340.95 105.842C332.99 102.557 316.464 117.601 312.613 116.805C308.763 116.008 303.058 102.192 290.647 103.287C278.237 104.382 269.841 120.467 263.271 116.805C256.701 113.142 260.716 104.017 244.29 103.287C227.864 102.557 227.134 109.857 218.739 109.127C210.344 108.397 207.423 91.6062 190.633 93.0663C173.842 94.5264 172.718 106.153 168.414 105.535C164.11 104.916 151.941 91.2412 136.245 94.1614C120.549 97.0816 123.104 106.207 123.104 106.207C123.104 106.207 117.629 93.7964 100.838 92.3363C84.0475 90.8762 74.8422 97.9139 72.002 98.4103C69.1618 98.9066 45.3558 95.2565 54.1162 68.6101Z" fill="#9FC642"/>
<g opacity="0.4">
<path d="M33.4546 88.9824C32.373 92.1546 32.2289 94.8731 32.955 97.0656C33.1421 96.3061 33.3685 95.5268 33.6751 94.7089C34.424 92.7121 34.1627 90.811 33.4546 88.9824Z" fill="#FF6449"/>
</g>
<g opacity="0.4">
<path d="M338.83 123.192C339.134 123.654 340.134 125.948 340.644 128.873C341.22 126.16 340.892 123.327 340.354 121.078C339.371 122.097 338.619 122.873 338.83 123.192Z" fill="#FF6449"/>
</g>
<g opacity="0.4">
<path d="M72.0021 104.798C74.8423 104.302 84.0477 97.2642 100.838 98.7243C108.873 99.4229 114.317 102.629 117.81 105.783C120.01 107.77 123.327 107.573 125.383 105.438C127.268 103.48 130.559 101.607 136.245 100.549C151.941 97.6293 164.11 111.304 168.414 111.923C172.718 112.541 173.842 100.914 190.633 99.4544C207.424 97.9943 210.344 114.785 218.739 115.515C227.134 116.245 227.864 108.945 244.29 109.675C260.716 110.405 256.701 119.53 263.271 123.193C269.841 126.855 278.237 110.77 290.647 109.675C303.058 108.58 308.763 122.396 312.613 123.193C316.464 123.989 332.99 108.945 340.95 112.23C341.385 112.409 341.755 112.601 342.083 112.798C344.023 110.457 345.335 107.652 340.95 105.842C332.99 102.557 316.464 117.602 312.613 116.805C308.763 116.008 303.058 102.192 290.647 103.287C278.237 104.382 269.842 120.467 263.271 116.805C256.701 113.142 260.716 104.017 244.29 103.287C227.864 102.557 227.134 109.857 218.739 109.127C210.344 108.397 207.424 91.6065 190.633 93.0666C173.842 94.5267 172.718 106.153 168.414 105.535C164.11 104.917 151.941 91.2415 136.245 94.1617C120.549 97.0819 123.105 106.207 123.105 106.207C123.105 106.207 117.629 93.7966 100.838 92.3365C84.0477 90.8764 74.8423 97.9141 72.0021 98.4104C69.7536 98.8033 54.3808 96.5852 52.4117 82.4302C50.0013 102.333 69.4511 105.244 72.0021 104.798Z" fill="#FF6449"/>
</g>
<g opacity="0.4">
<path d="M32.2151 72.0779C41.1004 66.6321 49.5328 71.5378 52.7461 73.8967C53.0587 72.2403 53.4987 70.4885 54.1162 68.6101C54.1162 68.6101 43.5306 58.7547 32.2151 65.69C27.347 68.6738 27.5498 71.658 29.0954 74.7871C29.7437 73.8813 30.744 72.9795 32.2151 72.0779Z" fill="#FF6449"/>
</g>
<g opacity="0.2">
<path d="M52.499 75.3272C52.7971 73.2678 53.3184 71.0369 54.116 68.6104C54.116 68.6104 53.5454 68.0819 52.5373 67.3586C52.0803 70.3724 52.1024 73.0185 52.499 75.3272Z" fill="#4A1600"/>
</g>
<g opacity="0.2">
<path d="M341.263 105.985C339.895 107.467 338.557 108.643 338.83 109.057C339.124 109.503 340.068 111.659 340.591 114.443C342.964 111.974 346.278 108.262 341.263 105.985Z" fill="#4A1600"/>
</g>
<g opacity="0.2">
<path d="M336.64 127.451C332.021 130.844 326.744 127.839 323.278 124.914C320.352 122.445 316.668 121.069 312.844 120.903C311.77 120.856 310.575 120.798 309.264 120.725C304.964 120.486 297.85 118.059 293.447 116.41C291.063 115.517 288.388 116.048 286.532 117.791C284.462 119.734 281.51 122.42 278.262 125.105C272.082 130.216 261.811 125.105 255.241 125.105C248.67 125.105 249.401 127.66 239.91 127.451C230.42 127.242 218.374 118.758 218.374 118.758C218.374 118.758 213.403 121.903 182.057 120.887C175.539 120.675 169.58 118.729 164.78 116.474C158.2 113.383 150.694 112.847 143.821 115.217C139.891 116.572 134.411 117.578 126.859 117.454C114.823 117.257 107.162 110.551 102.758 104.71C100.206 101.325 95.4888 100.669 92.0214 103.108C90.8961 103.899 89.5835 104.622 88.0625 105.188C83.7613 106.786 79.5869 104.292 76.8829 101.973C75.232 100.557 72.8897 100.322 71.0112 101.418C68.7683 102.726 64.7861 104.234 57.7663 105.188C43.1656 107.171 52.2911 96.269 43.1656 95.5389C37.9356 95.1205 34.5144 93.137 33.1563 89.876C30.8549 97.7265 34.593 102.601 43.1656 103.287C52.2911 104.017 43.1656 114.919 57.7663 112.935C72.3668 110.952 73.8271 106.572 73.8271 106.572C73.8271 106.572 80.7624 115.649 88.0627 112.935C95.3631 110.222 97.8664 103.864 97.8664 103.864C97.8664 103.864 105.428 124.851 126.859 125.202C148.291 125.553 153.036 116.804 153.036 116.804C153.036 116.804 165.812 128.108 182.057 128.634C213.403 129.65 218.374 126.505 218.374 126.505C218.374 126.505 230.42 134.99 239.91 135.199C249.401 135.408 248.67 132.853 255.241 132.853C261.811 132.853 272.082 137.963 278.262 132.853C284.442 127.743 289.552 122.633 289.552 122.633C289.552 122.633 302.693 128.108 309.264 128.473C315.834 128.838 319.494 128.838 319.494 128.838C319.494 128.838 328.974 140.83 336.64 135.199C341.391 131.709 341.373 125.906 340.5 121.734C339.933 123.867 338.764 125.891 336.64 127.451Z" fill="#4A1600"/>
</g>
<g opacity="0.2">
<path d="M336.64 133.256C332.021 136.648 326.744 133.643 323.278 130.719C320.352 128.25 316.668 126.874 312.844 126.707C311.77 126.66 310.575 126.602 309.263 126.529C304.964 126.291 297.85 123.863 293.447 122.214C291.063 121.321 288.388 121.853 286.532 123.595C284.462 125.539 281.509 128.224 278.262 130.91C272.082 136.02 261.811 130.91 255.24 130.91C248.67 130.91 249.4 133.465 239.91 133.255C230.419 133.046 218.374 124.562 218.374 124.562C218.374 124.562 213.403 127.707 182.057 126.691C175.539 126.48 169.579 124.534 164.779 122.279C158.2 119.188 150.694 118.651 143.821 121.021C139.891 122.376 134.411 123.382 126.859 123.258C114.823 123.061 107.162 116.356 102.757 110.514C100.205 107.129 95.4886 106.474 92.0212 108.912C90.8959 109.703 89.5833 110.427 88.0624 110.992C83.7612 112.591 79.5867 110.096 76.8827 107.777C75.2318 106.362 72.8895 106.126 71.011 107.222C68.7681 108.531 64.7859 110.038 57.7662 110.992C47.1805 112.43 49.0663 107.095 47.4262 103.774C46.8041 102.514 45.9459 109.722 46.6502 110.422C49.7029 113.456 45.903 120.351 57.766 118.74C72.3665 116.756 73.8268 112.376 73.8268 112.376C73.8268 112.376 80.7621 121.453 88.0624 118.74C95.3628 116.026 97.8661 109.668 97.8661 109.668C97.8661 109.668 105.427 130.655 126.859 131.006C148.29 131.357 153.036 122.609 153.036 122.609C153.036 122.609 165.811 133.912 182.057 134.439C213.403 135.455 218.374 132.31 218.374 132.31C218.374 132.31 230.419 140.794 239.91 141.003C249.4 141.212 248.67 138.657 255.24 138.657C261.811 138.657 272.082 143.768 278.262 138.657C284.442 133.547 289.552 128.437 289.552 128.437C289.552 128.437 302.693 133.912 309.263 134.277C315.833 134.642 319.493 134.642 319.493 134.642C319.493 134.642 328.974 146.634 336.64 141.003C341.39 137.513 341.373 131.711 340.5 127.538C339.932 129.671 338.764 131.695 336.64 133.256Z" fill="#4A1600"/>
</g>
<path d="M332.144 138.629C326.053 138.629 320.423 132.806 318.605 130.724C317.144 130.703 313.921 130.629 309.159 130.364C303.448 130.047 293.416 126.221 289.991 124.855C288.24 126.554 284.135 130.454 279.469 134.313C274.543 138.386 267.857 136.989 261.957 135.757C259.472 135.237 257.125 134.747 255.241 134.747C252.625 134.747 251.406 135.167 249.864 135.698C247.8 136.41 245.457 137.212 239.869 137.093C231.302 136.904 221.131 130.611 218.136 128.632C215.24 129.579 206.458 131.321 181.996 130.527C168.375 130.086 157.27 122.53 153.317 119.475C150.617 122.275 143.406 127.37 126.828 127.095C109.828 126.817 101.003 114.166 97.6771 107.92C96.0152 110.188 93.1758 113.055 88.7225 114.711C82.3634 117.074 76.5354 112.244 73.8575 109.472C71.785 111.245 67.3718 113.542 58.0214 114.812C48.8325 116.059 47.2042 112.401 46.3244 108.545C45.8288 106.373 45.6029 105.382 43.0147 105.175C37.8789 104.764 34.1211 102.904 32.1469 99.7978C30.7704 97.6318 29.6106 93.7669 31.9019 87.6563C32.9794 84.7827 31.2016 81.943 29.3192 78.9362C27.5056 76.0398 25.6303 73.0448 26.3973 69.781C26.9047 67.6218 28.4839 65.7555 31.2253 64.0753C43.6243 56.4766 55.2902 67.1157 55.4067 67.2239C55.9473 67.7275 56.1458 68.4994 55.9153 69.2015C52.9646 78.1761 53.5709 85.2077 57.7171 90.1005C62.4047 95.6323 70.4022 96.7459 71.6786 96.5441C72.0827 96.4735 73.1507 95.9776 74.1833 95.4976C78.8601 93.3249 87.5646 89.2813 101.002 90.4495C112.093 91.4139 118.547 96.8387 121.881 100.892C122.067 100.465 122.293 100.03 122.566 99.5921C124.814 95.9808 129.3 93.5274 135.899 92.2998C147.784 90.0864 157.821 96.8147 163.817 100.833C165.803 102.165 167.857 103.541 168.683 103.66C169.195 103.75 170.268 102.442 171.225 101.305C174.097 97.8938 178.903 92.1855 190.469 91.1797C201.566 90.2168 207.112 96.5222 211.567 101.59C214.127 104.502 216.337 107.017 218.903 107.24C221.926 107.505 223.725 106.56 226.216 105.255C229.876 103.338 234.423 100.952 244.374 101.395C256.134 101.917 258.615 106.768 260.609 110.665C261.603 112.609 262.389 114.145 264.193 115.151C266.34 116.35 269.674 113.588 273.534 110.394C278.053 106.655 283.676 102.001 290.481 101.401C299.79 100.573 305.633 107.198 309.498 111.578C310.703 112.943 312.352 114.812 312.997 114.95C313.001 114.95 313.004 114.95 313.008 114.95C313.998 114.95 317.724 112.694 320.446 111.045C327.321 106.882 335.877 101.7 341.672 104.092C343.973 105.041 345.325 106.406 345.689 108.149C346.331 111.221 343.652 113.998 341.696 116.026C341.461 116.27 341.177 116.565 340.947 116.816C342.52 120.394 345.571 130.988 337.761 136.726C335.909 138.086 334.005 138.629 332.144 138.629ZM289.553 120.739C289.798 120.739 290.046 120.787 290.281 120.885C290.41 120.938 303.199 126.24 309.369 126.582C315.798 126.939 319.458 126.944 319.494 126.944C320.073 126.944 320.621 127.209 320.98 127.664C321.062 127.768 329.42 138.154 335.519 133.673C342.25 128.728 337.3 117.933 337.239 117.832C336.206 116.264 337.549 114.871 338.971 113.397C340.023 112.305 342.214 110.034 341.982 108.924C341.895 108.508 341.239 108.01 340.228 107.593C336.204 105.931 328.23 110.76 322.409 114.285C317.168 117.459 314.336 119.092 312.23 118.66C310.354 118.271 308.804 116.515 306.659 114.084C303.097 110.048 298.218 104.524 290.814 105.173C285.183 105.67 280.278 109.73 275.949 113.312C271.223 117.223 266.758 120.916 262.35 118.459C259.541 116.893 258.317 114.501 257.237 112.39C255.452 108.9 253.766 105.604 244.207 105.179C235.285 104.786 231.4 106.816 227.974 108.611C225.262 110.031 222.701 111.374 218.576 111.014C214.496 110.659 211.692 107.469 208.723 104.091C204.429 99.2052 199.988 94.1511 190.797 94.9532C180.792 95.8233 176.938 100.401 174.123 103.744C172.375 105.82 170.723 107.777 168.145 107.409C166.465 107.168 164.47 105.83 161.709 103.98C155.835 100.044 146.958 94.0972 136.592 96.0233C131.215 97.0238 127.493 98.9234 125.83 101.517C124.444 103.678 124.914 105.637 124.935 105.72C125.175 106.674 124.647 107.666 123.717 107.985C122.784 108.305 121.769 107.871 121.372 106.971C121.166 106.512 116.07 95.5615 100.675 94.2228C88.2439 93.1412 80.1356 96.9087 75.7794 98.9326C74.2975 99.6211 73.2264 100.119 72.3283 100.276C69.7426 100.728 60.4782 99.0829 54.9522 92.6943C49.991 86.9585 48.9761 79.0762 51.9294 69.2521C49.3185 67.2356 41.4762 62.2363 33.2049 67.3044C31.3954 68.4138 30.3455 69.5384 30.0848 70.6471C29.6795 72.3739 31.064 74.585 32.53 76.9263C34.6034 80.2382 37.1839 84.3595 35.4489 88.9861C34.4866 91.5524 33.6871 95.159 35.3441 97.7665C37.0015 100.374 40.5947 101.181 43.3173 101.399C48.6774 101.828 49.484 105.363 50.0175 107.703C50.621 110.348 50.9834 111.946 57.5121 111.059C69.2343 109.466 71.7306 106.37 72.0453 105.902C72.197 105.204 72.7087 104.769 73.4148 104.598C74.144 104.42 74.8768 104.825 75.3325 105.422C75.3917 105.499 81.514 113.348 87.4037 111.161C93.837 108.769 96.0831 103.226 96.1049 103.171C96.3904 102.446 97.0897 101.971 97.8668 101.971C97.8764 101.971 97.8856 101.971 97.8948 101.971C98.683 101.982 99.3814 102.481 99.6487 103.223C99.9412 104.027 107.06 122.984 126.891 123.309C146.635 123.617 151.341 115.954 151.386 115.877C151.671 115.387 152.169 115.038 152.728 114.948C153.288 114.858 153.866 115.011 154.291 115.387C154.413 115.494 166.778 126.245 182.119 126.742C210.486 127.663 216.767 125.171 217.393 124.882C218.043 124.402 218.797 124.487 219.464 124.957C219.58 125.039 231.158 133.112 239.952 133.306C244.871 133.414 246.78 132.756 248.63 132.118C250.282 131.549 251.991 130.96 255.241 130.96C257.516 130.96 260.05 131.489 262.732 132.049C268.043 133.159 273.534 134.306 277.056 131.394C283.09 126.404 288.164 121.344 288.214 121.294C288.576 120.931 289.061 120.739 289.553 120.739Z" fill="#4A1600"/>
<path d="M151.778 118.22C150.663 117.301 149.592 116.332 148.543 115.338C148.014 114.846 147.496 114.343 146.982 113.834C146.463 113.33 145.95 112.82 145.447 112.299C144.426 111.274 143.436 110.213 142.444 109.156C141.446 108.104 140.538 106.952 139.973 105.412C139.939 105.319 139.987 105.217 140.08 105.183C140.114 105.17 140.15 105.169 140.183 105.177C141.778 105.555 143.029 106.322 144.191 107.188C145.358 108.049 146.529 108.907 147.667 109.8C148.244 110.238 148.811 110.687 149.372 111.143C149.938 111.593 150.499 112.049 151.05 112.516C152.16 113.441 153.249 114.39 154.294 115.389C155.05 116.112 155.077 117.312 154.353 118.068C153.664 118.789 152.537 118.843 151.778 118.22Z" fill="#4A1600"/>
<path d="M122.253 220.579C122.253 220.579 135.029 222.04 138.07 210.846C141.112 199.652 132.96 187.606 126.146 186.024C119.333 184.443 117.994 190.648 115.074 198.678C112.154 206.709 105.097 218.754 122.253 220.579Z" fill="#4A1600"/>
<path d="M137.354 212.883C126.66 199.102 111.789 210.724 111.151 211.441C111.151 211.441 109.599 219.549 120.914 220.642C132.23 221.735 137.354 212.883 137.354 212.883Z" fill="#FF5850"/>
<path d="M123.903 222.562C123.23 222.562 122.605 222.525 122.045 222.461C116.172 221.836 112.405 220.018 110.528 216.906C107.68 212.182 110.197 205.871 112.22 200.801C112.61 199.825 112.978 198.902 113.294 198.031C113.592 197.213 113.873 196.414 114.145 195.64C116.543 188.82 118.81 182.377 126.574 184.18C130.278 185.039 134.152 188.335 136.937 192.997C140.408 198.805 141.487 205.492 139.897 211.343C137.464 220.298 129.211 222.562 123.903 222.562ZM122.465 218.697C122.949 218.75 133.675 219.795 136.243 210.349C137.564 205.486 136.633 199.87 133.686 194.94C131.485 191.257 128.358 188.482 125.718 187.869C121.604 186.912 120.392 189.292 117.718 196.896C117.442 197.682 117.156 198.494 116.854 199.326C116.517 200.251 116.139 201.2 115.738 202.205C113.936 206.72 111.895 211.837 113.771 214.95C114.978 216.951 117.899 218.212 122.453 218.696C122.457 218.697 122.461 218.697 122.465 218.697Z" fill="#4A1600"/>
<path d="M137.355 214.776C136.79 214.776 136.231 214.524 135.857 214.043C133.03 210.4 129.643 208.404 125.79 208.112C118.838 207.573 112.767 212.54 112.518 212.752C111.816 213.484 110.656 213.536 109.893 212.856C109.111 212.161 109.041 210.964 109.736 210.182C110.426 209.406 117.271 204.016 125.354 204.295C130.623 204.472 135.163 206.97 138.85 211.721C139.491 212.547 139.341 213.737 138.515 214.378C138.169 214.647 137.76 214.776 137.355 214.776ZM112.566 212.7C112.555 212.712 112.544 212.724 112.533 212.736C112.546 212.722 112.557 212.71 112.566 212.7Z" fill="#4A1600"/>
<path d="M261.446 187.182C261.446 187.182 256.336 187.308 246.359 189.985C236.382 192.661 212.291 201.422 215.211 206.289C216.817 208.966 219.159 210.104 220.942 210.586C222.152 210.914 222.814 212.242 222.377 213.417C220.994 217.134 219.564 224.025 226.36 226.973C235.895 231.11 244.655 219.186 244.655 219.186C244.655 219.186 265.826 218.028 270.207 204.615C270.207 204.615 276.29 192.112 261.446 187.182Z" fill="#EF82B1"/>
<g opacity="0.4">
<path d="M216.732 207.514C216.732 207.514 227.317 201.187 237.173 197.043C247.028 192.899 259.71 189.586 259.711 187.318C259.711 187.318 249.865 188.882 237.359 192.807C224.853 196.731 217.371 201.708 215.683 203.737C213.994 205.766 216.732 207.514 216.732 207.514Z" fill="#F6B7C8"/>
</g>
<g opacity="0.2">
<path d="M222.207 218.085C222.207 218.085 226.313 222.191 231.606 219.636C236.899 217.081 238.65 213.705 243.204 213.066C247.758 212.427 264.184 210.602 269.659 204.579V205.127C269.659 205.127 267.922 211.996 258.479 215.908C249.036 219.819 244.655 219.186 244.655 219.186C244.655 219.186 238.54 227.745 230.602 227.843C222.663 227.94 219.195 220.366 222.207 218.085Z" fill="#4A1600"/>
</g>
<path d="M261.462 187.813C257.449 188.301 253.401 189.318 249.447 190.407C247.462 190.973 245.502 191.555 243.554 192.214C241.603 192.866 239.669 193.581 237.737 194.293C233.879 195.731 230.072 197.314 226.377 199.04C224.536 199.911 222.727 200.839 221.03 201.864C220.188 202.382 219.367 202.916 218.629 203.482C217.907 204.035 217.224 204.688 216.945 205.175C216.8 205.419 216.837 205.504 216.832 205.386C216.821 205.367 216.828 205.344 216.817 205.335C216.819 205.331 216.818 205.329 216.814 205.328C216.813 205.332 216.863 205.406 216.885 205.441C216.996 205.622 217.118 205.793 217.24 205.964C217.744 206.633 218.341 207.21 219.027 207.672C219.37 207.904 219.734 208.107 220.116 208.281C220.305 208.371 220.501 208.448 220.699 208.522L220.923 208.611L221.206 208.732C221.389 208.825 221.574 208.919 221.747 209.031C223.153 209.908 224.083 211.509 224.105 213.181C224.12 213.598 224.069 214.013 223.983 214.417L223.903 214.715L223.835 214.949L223.731 215.287C223.595 215.738 223.472 216.192 223.381 216.644C223.188 217.549 223.081 218.453 223.087 219.324C223.104 221.072 223.644 222.602 224.741 223.726C225.842 224.832 227.54 225.678 229.21 225.961C230.901 226.242 232.686 225.984 234.402 225.315C237.824 223.969 241.005 221.237 243.421 218.279L243.468 218.222C243.75 217.875 244.158 217.683 244.571 217.657C246.986 217.511 249.545 217.148 251.983 216.606C254.434 216.054 256.845 215.319 259.131 214.323C261.419 213.334 263.566 212.044 265.411 210.415C266.323 209.591 267.148 208.675 267.87 207.679C268.571 206.669 269.15 205.575 269.606 204.418L269.614 204.398C269.742 204.074 270.109 203.915 270.433 204.043C270.74 204.164 270.898 204.5 270.807 204.81C270.421 206.104 269.887 207.36 269.205 208.541C268.506 209.711 267.649 210.78 266.71 211.763C264.809 213.715 262.53 215.244 260.136 216.449C257.742 217.676 255.209 218.566 252.64 219.267C251.354 219.615 250.056 219.911 248.746 220.156C247.425 220.404 246.143 220.599 244.739 220.715L245.89 220.093C245.189 221.038 244.506 221.832 243.749 222.639C243 223.435 242.211 224.197 241.373 224.915C239.699 226.346 237.828 227.629 235.681 228.508C233.552 229.392 231.095 229.839 228.664 229.481C227.452 229.309 226.284 228.934 225.193 228.415L224.377 228.012L223.591 227.51L223.201 227.252L222.834 226.946C222.595 226.735 222.337 226.549 222.119 226.309C221.199 225.4 220.497 224.251 220.042 223.052C219.59 221.848 219.381 220.591 219.366 219.385C219.349 218.176 219.487 217.005 219.719 215.877C219.83 215.311 219.975 214.759 220.136 214.215L220.258 213.807L220.288 213.707L220.297 213.667L220.319 213.589C220.335 213.484 220.353 213.381 220.345 213.277C220.341 212.863 220.093 212.454 219.735 212.234C219.691 212.204 219.64 212.185 219.595 212.156L219.38 212.071C219.092 211.962 218.806 211.845 218.526 211.711C217.965 211.449 217.421 211.14 216.905 210.786C215.873 210.079 214.963 209.185 214.229 208.185C214.049 207.933 213.872 207.679 213.713 207.416C213.668 207.341 213.642 207.308 213.581 207.197C213.518 207.081 213.458 206.962 213.401 206.843C213.3 206.592 213.202 206.327 213.162 206.048C212.955 204.897 213.364 203.928 213.74 203.292C214.55 201.996 215.478 201.268 216.386 200.549C217.3 199.855 218.234 199.268 219.179 198.725C221.067 197.647 222.987 196.725 224.923 195.865C228.79 194.139 232.745 192.723 236.729 191.409C238.72 190.748 240.734 190.163 242.758 189.601C244.783 189.036 246.84 188.545 248.892 188.128C250.949 187.704 253.016 187.326 255.102 187.048C257.194 186.766 259.264 186.557 261.431 186.551C261.779 186.55 262.062 186.831 262.063 187.18C262.064 187.503 261.822 187.769 261.509 187.807L261.462 187.813Z" fill="#4A1600"/>
<g opacity="0.58">
<path d="M73.6368 64.697C73.6327 64.5533 73.6346 64.3814 73.639 64.2598L73.6558 63.9282C73.6733 63.7098 73.6857 63.509 73.7109 63.2994C73.7595 62.8907 73.8098 62.485 73.8821 62.0848C73.9432 61.6823 74.0215 61.2843 74.107 60.8868C74.1858 60.489 74.2729 60.0921 74.376 59.6981C74.5593 58.9069 74.7924 58.123 75.0209 57.3391C75.2429 56.5545 75.5981 55.7863 76.4694 55.0848C76.5636 55.0089 76.7014 55.0238 76.7772 55.118C76.7786 55.1198 76.7808 55.1227 76.7821 55.1245C77.4516 56.0196 77.608 56.8484 77.6332 57.661C77.6648 58.4743 77.7032 59.2878 77.696 60.0945C77.7032 60.4994 77.6967 60.9019 77.6819 61.3031C77.6748 61.7049 77.6602 62.1062 77.6328 62.5034C77.6149 62.9028 77.5798 63.2971 77.5453 63.6889C77.5325 63.8799 77.5024 64.0791 77.4857 64.2616L77.4527 64.5315C77.4426 64.6106 77.439 64.6397 77.4243 64.697L77.3192 65.1073C77.0628 66.1082 76.0434 66.7117 75.0425 66.4553C74.2161 66.2434 73.6608 65.5093 73.6368 64.697Z" fill="#FF6449"/>
</g>
<g opacity="0.58">
<path d="M128.104 51.8859C128.205 51.7832 128.33 51.6649 128.42 51.5837L128.67 51.3654C128.839 51.2262 128.992 51.0956 129.161 50.9681C129.488 50.719 129.815 50.4732 130.153 50.2472C130.485 50.0114 130.825 49.7912 131.171 49.5763C131.511 49.3564 131.857 49.1435 132.212 48.9438C132.909 48.5258 133.634 48.1486 134.357 47.7682C135.075 47.3825 135.874 47.1041 136.984 47.2431C137.104 47.2581 137.189 47.3676 137.174 47.4875C137.174 47.4898 137.174 47.4933 137.173 47.4956C136.995 48.5991 136.507 49.2875 135.941 49.8702C135.378 50.4582 134.82 51.0512 134.234 51.6065C133.948 51.893 133.654 52.168 133.355 52.4363C133.062 52.7103 132.763 52.9786 132.458 53.235C132.159 53.4998 131.851 53.7485 131.545 53.996C131.399 54.1196 131.235 54.2362 131.092 54.3511L130.875 54.515C130.811 54.5627 130.787 54.5802 130.736 54.6095L130.368 54.819C129.47 55.3302 128.328 55.0166 127.817 54.1185C127.395 53.3769 127.537 52.4677 128.104 51.8859Z" fill="#FF6449"/>
</g>
<g opacity="0.58">
<path d="M138.2 78.961C138.057 78.9748 137.885 78.9847 137.764 78.9883L137.432 78.9942C137.213 78.9915 137.012 78.9928 136.801 78.9818C136.39 78.9609 135.982 78.9384 135.577 78.8933C135.172 78.8596 134.769 78.8084 134.367 78.7502C133.965 78.6986 133.563 78.6385 133.163 78.5624C132.361 78.4331 131.563 78.2538 130.765 78.079C129.967 77.9108 129.177 77.6083 128.418 76.7867C128.336 76.6979 128.341 76.5594 128.43 76.4774C128.432 76.4758 128.435 76.4734 128.436 76.4719C129.284 75.7432 130.1 75.531 130.909 75.4508C131.719 75.3641 132.528 75.2705 133.333 75.2231C133.736 75.1885 134.138 75.1676 134.54 75.1553C134.941 75.1351 135.343 75.1224 135.741 75.123C136.14 75.1137 136.536 75.1221 136.929 75.1298C137.121 75.1295 137.322 75.1462 137.505 75.1504L137.776 75.1649C137.856 75.1695 137.885 75.1713 137.943 75.182L138.36 75.259C139.376 75.447 140.047 76.4231 139.859 77.4391C139.704 78.2783 139.009 78.8819 138.2 78.961Z" fill="#FF6449"/>
</g>
<g opacity="0.58">
<path d="M214.214 53.5652C214.357 53.5552 214.529 53.5501 214.651 53.5496L214.983 53.5527C215.202 53.5613 215.403 53.5656 215.614 53.5823C216.024 53.6142 216.431 53.6479 216.834 53.7037C217.239 53.7484 217.64 53.8104 218.04 53.8795C218.441 53.942 218.841 54.0129 219.239 54.0998C220.037 54.2506 220.83 54.4515 221.622 54.6478C222.415 54.8374 223.197 55.1611 223.934 56.003C224.013 56.094 224.004 56.2322 223.913 56.3119C223.911 56.3134 223.909 56.3157 223.907 56.3172C223.04 57.0227 222.218 57.2128 221.407 57.271C220.596 57.3358 219.785 57.4074 218.978 57.4331C218.574 57.4567 218.172 57.4667 217.77 57.4684C217.369 57.4777 216.967 57.4795 216.569 57.4682C216.169 57.4667 215.774 57.4477 215.381 57.4292C215.19 57.4243 214.989 57.4022 214.806 57.3931L214.535 57.3713C214.456 57.3645 214.427 57.3619 214.369 57.3496L213.955 57.2613C212.944 57.0459 212.299 56.0521 212.515 55.0416C212.693 54.2069 213.403 53.6224 214.214 53.5652Z" fill="#FF6449"/>
</g>
<g opacity="0.58">
<path d="M268.579 95.2568C268.513 95.1288 268.441 94.9728 268.393 94.8612L268.265 94.5546C268.187 94.3499 268.112 94.1631 268.045 93.9632C267.913 93.5732 267.784 93.1852 267.678 92.7928C267.56 92.4031 267.46 92.0102 267.366 91.6144C267.266 91.2214 267.174 90.8256 267.098 90.4255C266.923 89.6323 266.797 88.8243 266.666 88.0183C266.529 87.2145 266.52 86.3681 267.005 85.3604C267.058 85.2514 267.189 85.2056 267.298 85.2581C267.3 85.2591 267.303 85.2607 267.305 85.2618C268.294 85.7823 268.791 86.4634 269.163 87.1864C269.541 87.9072 269.926 88.6253 270.266 89.3569C270.446 89.7194 270.613 90.0856 270.773 90.4544C270.939 90.8202 271.098 91.1889 271.244 91.5594C271.399 91.9276 271.537 92.2989 271.674 92.6673C271.745 92.8452 271.803 93.0382 271.867 93.2099L271.953 93.4679C271.978 93.5436 271.987 93.5715 271.998 93.6295L272.08 94.0451C272.278 95.0591 271.617 96.0421 270.603 96.2406C269.766 96.4043 268.95 95.98 268.579 95.2568Z" fill="#FF6449"/>
</g>
<g opacity="0.58">
<path d="M244.367 71.9136C244.466 71.8101 244.59 71.6909 244.68 71.6091L244.929 71.3889C245.097 71.2484 245.249 71.1167 245.416 70.988C245.742 70.7365 246.067 70.4884 246.403 70.2598C246.733 70.0215 247.072 69.7988 247.416 69.5814C247.755 69.3591 248.1 69.1436 248.453 68.9412C249.146 68.5181 249.869 68.1356 250.589 67.7499C251.304 67.3589 252.102 67.0747 253.212 67.2056C253.333 67.2198 253.418 67.3286 253.404 67.4487C253.404 67.4509 253.403 67.4545 253.403 67.4568C253.233 68.5616 252.751 69.2535 252.188 69.8404C251.629 70.4323 251.075 71.0295 250.494 71.5892C250.21 71.8778 249.919 72.1549 249.622 72.4253C249.33 72.7016 249.033 72.9721 248.73 73.2307C248.432 73.4976 248.126 73.7485 247.822 73.9981C247.677 74.1227 247.514 74.2407 247.372 74.3566L247.156 74.5221C247.093 74.5703 247.069 74.588 247.018 74.6176L246.652 74.8299C245.758 75.3476 244.613 75.0423 244.095 74.1482C243.668 73.4098 243.803 72.4994 244.367 71.9136Z" fill="#FF6449"/>
</g>
<g opacity="0.58">
<path d="M97.7503 50.791C97.835 50.9071 97.9307 51.05 97.9958 51.1528L98.1695 51.4356C98.2786 51.6256 98.382 51.7983 98.4797 51.9854C98.6707 52.3499 98.8587 52.713 99.0255 53.0839C99.2027 53.4504 99.3632 53.8229 99.5176 54.1991C99.6777 54.5718 99.8302 54.9483 99.968 55.3315C100.264 56.0878 100.516 56.866 100.77 57.6418C101.031 58.4145 101.173 59.2488 100.851 60.3201C100.816 60.4358 100.694 60.5016 100.578 60.4668C100.576 60.4661 100.573 60.465 100.57 60.4642C99.5121 60.1047 98.9143 59.5097 98.4341 58.8538C97.948 58.201 97.4562 57.5518 97.0058 56.8823C96.771 56.5525 96.5487 56.2168 96.3339 55.8776C96.1125 55.5424 95.8977 55.203 95.6956 54.8599C95.4845 54.5204 95.2905 54.1752 95.0973 53.8328C94.9998 53.6681 94.912 53.4867 94.8226 53.3268L94.6971 53.0856C94.6606 53.0146 94.6472 52.9885 94.6269 52.9331L94.4816 52.5352C94.1269 51.5648 94.6263 50.4905 95.5967 50.136C96.3981 49.8432 97.2711 50.1346 97.7503 50.791Z" fill="#FF6449"/>
</g>
<g opacity="0.58">
<path d="M106.4 35.2658C106.511 35.1748 106.649 35.0712 106.748 35.0006L107.021 34.8115C107.204 34.6919 107.371 34.5792 107.552 34.4712C107.906 34.2601 108.258 34.0522 108.619 33.8651C108.975 33.6678 109.338 33.4867 109.705 33.3116C110.068 33.1311 110.435 32.9579 110.81 32.7989C111.549 32.4609 112.312 32.1668 113.072 31.8691C113.829 31.5657 114.654 31.378 115.742 31.6396C115.859 31.6678 115.932 31.786 115.903 31.9037C115.903 31.9059 115.902 31.9093 115.901 31.9115C115.601 32.9883 115.041 33.6183 114.412 34.1344C113.788 34.656 113.167 35.1833 112.524 35.6702C112.207 35.9231 111.885 36.1637 111.558 36.397C111.236 36.6368 110.909 36.8702 110.577 37.091C110.25 37.3208 109.916 37.5337 109.585 37.7456C109.426 37.8522 109.25 37.9499 109.095 38.0481L108.861 38.1869C108.793 38.2272 108.767 38.242 108.713 38.2654L108.324 38.4327C107.375 38.8407 106.274 38.4021 105.866 37.4529C105.529 36.6687 105.772 35.7808 106.4 35.2658Z" fill="#FF6449"/>
</g>
<g opacity="0.58">
<path d="M162.211 59.7011C162.322 59.7926 162.451 59.9072 162.539 59.9907L162.777 60.2216C162.93 60.3787 163.073 60.5203 163.214 60.6772C163.49 60.983 163.762 61.288 164.015 61.6061C164.278 61.9171 164.526 62.2382 164.769 62.5643C165.016 62.8856 165.257 63.2125 165.486 63.5497C165.961 64.2088 166.397 64.9004 166.836 65.5887C167.281 66.2725 167.625 67.0458 167.579 68.1634C167.574 68.2842 167.472 68.3781 167.351 68.3731C167.349 68.3729 167.345 68.3727 167.343 68.3726C166.228 68.2868 165.502 67.8586 164.874 67.3422C164.241 66.8303 163.603 66.3234 163.001 65.7866C162.692 65.5252 162.393 65.2553 162.101 64.9798C161.803 64.7099 161.511 64.4346 161.23 64.1523C160.942 63.8758 160.668 63.5896 160.396 63.3056C160.261 63.1703 160.131 63.0163 160.004 62.8836L159.823 62.6811C159.77 62.6214 159.751 62.5994 159.717 62.5507L159.478 62.2013C158.893 61.3491 159.111 60.1846 159.963 59.6004C160.666 59.1182 161.585 59.1841 162.211 59.7011Z" fill="#FF6449"/>
</g>
<g opacity="0.58">
<path d="M195.799 80.0022C195.789 79.8588 195.784 79.6868 195.783 79.5653L195.787 79.2333C195.796 79.0144 195.8 78.8132 195.817 78.6029C195.849 78.1925 195.883 77.7851 195.94 77.3824C195.985 76.9778 196.047 76.577 196.117 76.1763C196.179 75.7756 196.251 75.3758 196.338 74.9778C196.49 74.1799 196.691 73.3873 196.888 72.595C197.079 71.8022 197.403 71.0204 198.246 70.2847C198.337 70.2052 198.475 70.2146 198.555 70.3057C198.556 70.3075 198.559 70.3101 198.56 70.3119C199.265 71.1796 199.454 72.0015 199.512 72.8124C199.576 73.6238 199.646 74.4352 199.671 75.2416C199.695 75.6458 199.704 76.0482 199.705 76.4498C199.714 76.8514 199.716 77.2531 199.704 77.6511C199.702 78.0509 199.683 78.4463 199.664 78.8391C199.659 79.0305 199.637 79.2307 199.627 79.4136L199.605 79.6847C199.598 79.7641 199.596 79.7934 199.583 79.8511L199.495 80.2652C199.278 81.2756 198.284 81.9192 197.274 81.7028C196.439 81.5243 195.855 80.8129 195.799 80.0022Z" fill="#FF6449"/>
</g>
<g opacity="0.58">
<path d="M158.431 16.6897C158.444 16.8329 158.452 17.0047 158.455 17.1263L158.459 17.4582C158.454 17.6774 158.454 17.8785 158.441 18.0892C158.418 18.5 158.392 18.9082 158.344 19.312C158.307 19.7175 158.253 20.1193 158.192 20.5214C158.138 20.9233 158.074 21.3246 157.995 21.7242C157.86 22.5251 157.675 23.3217 157.494 24.1179C157.321 24.9146 157.012 25.7029 156.185 26.4557C156.096 26.5371 155.957 26.5306 155.876 26.4412C155.874 26.4395 155.872 26.4367 155.87 26.435C155.148 25.582 154.942 24.7642 154.867 23.9547C154.787 23.1448 154.699 22.335 154.658 21.5293C154.626 21.1257 154.608 20.7234 154.599 20.322C154.581 19.9206 154.572 19.5191 154.575 19.1208C154.569 18.7211 154.58 18.3253 154.591 17.9323C154.592 17.7409 154.61 17.5402 154.615 17.3571L154.632 17.0857C154.637 17.0061 154.639 16.9768 154.65 16.9188L154.73 16.5029C154.926 15.4884 155.907 14.8243 156.921 15.0197C157.759 15.1812 158.358 15.8804 158.431 16.6897Z" fill="#FF6449"/>
</g>
<g opacity="0.58">
<path d="M195.54 31.4964C195.467 31.6205 195.375 31.7653 195.306 31.866L195.117 32.1384C194.986 32.3144 194.869 32.4781 194.737 32.6425C194.479 32.9633 194.221 33.2808 193.948 33.5819C193.683 33.8908 193.405 34.1869 193.122 34.4788C192.845 34.7745 192.561 35.0647 192.264 35.3444C191.69 35.9183 191.077 36.4596 190.468 37.0034C189.864 37.5513 189.155 38.0145 188.045 38.1479C187.925 38.1622 187.816 38.0767 187.801 37.9566C187.801 37.9543 187.801 37.9508 187.8 37.9485C187.707 36.8346 188.013 36.0488 188.423 35.3464C188.827 34.6399 189.225 33.9295 189.659 33.2491C189.867 32.9019 190.086 32.5641 190.311 32.2315C190.53 31.8946 190.755 31.562 190.989 31.2396C191.215 30.9103 191.454 30.5946 191.691 30.2806C191.803 30.1254 191.934 29.9724 192.045 29.8265L192.216 29.615C192.266 29.5533 192.285 29.5305 192.327 29.4898L192.634 29.1975C193.382 28.4844 194.566 28.5127 195.279 29.2606C195.868 29.878 195.95 30.7948 195.54 31.4964Z" fill="#FF6449"/>
</g>
<g opacity="0.3">
<path d="M203.701 206.18C206.627 206.18 208.999 204.237 208.999 201.84C208.999 199.444 206.627 197.501 203.701 197.501C200.775 197.501 198.403 199.444 198.403 201.84C198.403 204.237 200.775 206.18 203.701 206.18Z" fill="#F6B7C8"/>
</g>
<g opacity="0.3">
<path d="M59.6985 183.954C61.5049 183.954 62.9693 182.755 62.9693 181.276C62.9693 179.796 61.5049 178.597 59.6985 178.597C57.8921 178.597 56.4277 179.796 56.4277 181.276C56.4277 182.755 57.8921 183.954 59.6985 183.954Z" fill="#F6B7C8"/>
</g>
<g opacity="0.3">
<path d="M266.476 182.119C270.262 182.119 273.331 179.605 273.331 176.504C273.331 173.403 270.262 170.889 266.476 170.889C262.69 170.889 259.621 173.403 259.621 176.504C259.621 179.605 262.69 182.119 266.476 182.119Z" fill="#F6B7C8"/>
</g>
<path d="M111.105 183.109C111.105 183.109 105.258 183.34 100.798 174.305C96.3379 165.27 84.8835 155.312 71.7712 161.356C71.7712 161.356 79.9753 163.1 82.2205 166.749C82.2205 166.749 82.2932 166.834 82.4197 166.98C77.4741 168.824 73.3364 172.922 71.5615 178.476C68.5571 187.878 73.4415 197.839 82.4711 200.724C91.501 203.61 101.256 198.327 104.261 188.925C104.771 187.329 105.042 185.717 105.115 184.125C107.339 184.58 109.4 184.355 111.105 183.109Z" fill="#4A1600"/>
<path d="M97.9159 188.224C99.1975 184.214 97.6872 180.148 94.5424 179.143C91.3976 178.138 87.8093 180.574 86.5277 184.585C85.246 188.595 86.7564 192.661 89.9011 193.666C93.0459 194.671 96.6342 192.235 97.9159 188.224Z" fill="#FF6449"/>
<g opacity="0.4">
<path d="M84.5538 175.894C85.0563 174.321 84.4641 172.727 83.2312 172.333C81.9982 171.939 80.5913 172.894 80.0888 174.467C79.5863 176.039 80.1785 177.633 81.4115 178.027C82.6445 178.421 84.0513 177.466 84.5538 175.894Z" fill="#FF6449"/>
</g>
<path d="M145.891 189.263C145.891 189.263 151.545 190.768 157.874 182.927C164.203 175.087 177.558 167.876 189.031 176.642C189.031 176.642 180.644 176.549 177.655 179.618C177.655 179.618 177.565 179.686 177.41 179.8C181.832 182.681 184.973 187.585 185.49 193.393C186.365 203.225 179.42 211.876 169.977 212.716C160.535 213.556 152.172 206.267 151.297 196.436C151.148 194.766 151.236 193.134 151.513 191.565C149.243 191.522 147.282 190.852 145.891 189.263Z" fill="#4A1600"/>
<path d="M164.261 204.209C167.55 203.917 169.914 200.28 169.541 196.086C169.167 191.892 166.199 188.729 162.91 189.022C159.622 189.314 157.258 192.951 157.631 197.145C158.004 201.339 160.972 204.502 164.261 204.209Z" fill="#FF6449"/>
<g opacity="0.4">
<path d="M175.969 190.805C177.258 190.69 178.185 189.264 178.039 187.62C177.893 185.975 176.729 184.735 175.439 184.85C174.15 184.965 173.223 186.391 173.37 188.035C173.516 189.679 174.68 190.919 175.969 190.805Z" fill="#FF6449"/>
</g>
</svg>
