<svg width="423" height="509" viewBox="0 0 423 509" fill="none" xmlns="http://www.w3.org/2000/svg">
<g clip-path="url(#clip0_135_175)">
<path d="M375.769 235.732C375.769 238.509 375.967 241.285 376.165 244.062C381.71 242.823 387.453 242.575 393.047 243.517C392.8 241.038 392.552 238.608 392.453 236.128C392.008 228.691 391.067 221.104 388.988 214.013C382.601 211.336 376.809 207.617 373.194 203.798C372.848 203.699 372.452 203.451 372.155 203.154C371.957 203.055 371.858 202.955 371.66 202.807C370.075 201.071 368.541 199.237 367.006 197.402C368.194 200.179 369.135 202.708 369.679 204.294C373.541 215.005 375.571 224.426 375.769 235.781V235.732Z" fill="#82BB8A"/>
<path d="M376.66 250.013C377.997 263.103 380.324 276.194 380.423 289.483C380.522 306.441 378.146 323.301 374.284 339.813C373.096 344.871 372.205 349.879 371.412 354.837C374.878 354.689 378.393 355.135 381.859 356.176C385.522 357.317 383.938 363.069 380.274 361.928C377.056 360.936 373.739 360.589 370.521 360.887C370.175 363.564 369.779 366.242 369.482 368.87C374.333 370.953 378.443 374.622 380.671 379.432C382.304 382.903 377.155 385.928 375.522 382.457C374.086 379.333 371.61 376.903 368.689 375.217C368.244 379.035 367.749 382.903 367.204 386.771C363.491 412.704 341.361 406.853 324.825 420.985C315.765 428.77 302.447 429.514 291.357 432.539C284.03 434.522 271.554 432.439 264.573 435.811C264.177 440.175 263.88 444.538 263.979 448.951C272.198 447.216 280.911 447.216 289.278 446.918C301.309 446.423 311.161 446.373 320.765 442.803C319.973 440.671 319.181 438.538 318.191 436.456C316.508 432.985 321.656 429.96 323.34 433.431C324.429 435.662 325.32 437.993 326.162 440.324C329.132 438.737 332.103 436.902 335.123 434.373C342.45 428.324 352.451 425.894 361.016 422.225C366.858 419.745 371.066 415.778 374.284 411.018C373.046 409.828 371.858 408.638 370.521 407.498C367.6 404.969 371.858 400.754 374.73 403.283C375.621 404.076 376.462 404.969 377.304 405.762C380.918 398.622 383.096 390.44 385.473 383.052C389.483 370.358 387.305 358.457 389.285 345.515C390.622 336.738 392.206 327.962 393.642 319.135C391.958 319.135 390.275 319.135 388.592 319.135C384.73 319.135 384.73 313.136 388.592 313.136C390.572 313.136 392.553 313.136 394.533 313.185C395.672 305.4 396.662 297.566 397.058 289.731C397.751 276.194 395.374 262.806 393.691 249.368C393.543 249.368 393.345 249.368 393.196 249.368C387.75 248.178 382.106 248.624 376.66 249.963V250.013Z" fill="#82BB8A"/>
<path d="M361.214 367.085C361.907 367.085 362.55 367.184 363.194 367.283C363.392 365.746 363.639 364.209 363.887 362.622C363.837 362.622 363.788 362.622 363.738 362.672C360.273 364.258 357.253 359.151 360.718 357.515C362.105 356.87 363.54 356.424 364.976 355.978C368.541 335.697 373.591 315.763 374.432 294.937C375.026 280.409 373.739 265.83 371.858 251.45C370.917 251.797 369.927 252.045 368.986 252.442C365.422 253.88 363.887 248.128 367.402 246.69C368.59 246.194 369.779 245.897 371.016 245.5C370.818 244.161 370.67 242.773 370.422 241.434C368.442 228.988 368.046 218.029 363.986 205.881C363.342 204.046 357.55 184.509 351.213 189.914C348.044 192.641 346.212 198.145 344.777 201.864C341.806 209.749 339.925 218.178 338.638 226.459C333.885 256.012 340.618 287.648 340.42 317.449C340.222 340.408 336.558 368.077 321.458 386.423C318.389 390.192 315.022 393.663 311.26 396.688C312.497 399.316 308.933 402.39 306.507 400.06C304.13 401.597 301.655 402.936 299.031 404.026C287.694 408.588 279.426 406.853 268.534 406.853C267.692 414.489 266.405 422.076 265.365 429.662C268.88 429.018 272.841 429.067 275.762 428.819C288.189 427.679 300.219 424.456 312.2 421.233C320.963 418.902 327.597 410.72 336.311 407.448C351.559 401.795 360.471 400.159 361.758 381.018C361.956 378.39 362.253 375.812 362.501 373.233C362.055 373.184 361.659 373.035 361.263 373.035C357.401 372.936 357.401 366.936 361.263 367.035L361.214 367.085Z" fill="#82BB8A"/>
<path d="M287.694 384.985C281.505 387.415 274.821 388.456 269.029 386.622C269.425 391.481 269.326 396.291 268.979 401.101C273.089 401.299 277.099 401.993 281.258 402.34C288.09 402.935 295.417 399.861 301.705 395.993C297.744 392.87 293.486 390.142 289.08 387.613C287.991 386.969 287.595 385.977 287.694 384.985Z" fill="#82BB8A"/>
<path d="M309.279 390.688C323.439 379.382 328.885 360.44 332.202 343.482C339.479 306.144 330.221 267.12 332.301 229.434C333.093 215.649 337.351 197.749 346.312 186.741C341.163 187.98 336.212 190.113 331.954 192.741C331.707 192.889 331.509 193.038 331.261 193.187C331.756 194.724 332.202 196.261 332.499 197.848C333.192 201.617 327.449 203.203 326.756 199.435C326.607 198.592 326.36 197.798 326.162 197.005C312.745 208.757 309.873 227.252 311.309 244.756C311.309 245.054 311.359 245.302 311.408 245.599C312.695 246.889 313.983 248.227 315.121 249.764C316.805 251.996 314.577 254.078 312.349 254.029C312.794 257.549 313.29 260.971 313.785 264.442C315.517 265.235 317.201 266.029 318.785 267.02C322.053 269.004 319.082 274.161 315.765 272.177C315.418 271.979 315.072 271.83 314.725 271.632C315.468 277.929 316.012 284.227 315.765 290.723C315.517 298.607 313.785 306.441 313.636 314.375C313.636 314.573 313.636 314.772 313.636 314.97C316.062 316.21 318.438 317.648 320.567 319.482C323.488 321.962 319.28 326.176 316.359 323.697C315.715 323.152 315.022 322.805 314.329 322.309C315.468 328.705 317.745 335.052 319.082 341.251C322.993 359.647 311.359 370.804 297.15 380.176C295.714 381.118 294.229 381.961 292.645 382.804C297.645 385.729 302.497 388.853 306.903 392.572C307.745 391.927 308.537 391.332 309.279 390.737V390.688Z" fill="#82BB8A"/>
<path d="M40.1019 125.551C39.2602 124.312 38.5176 122.973 37.775 121.684C34.4579 128.279 32.4776 135.469 31.3884 142.907C32.4281 143.254 33.4677 143.601 34.4579 143.997C37.973 145.435 36.4382 151.187 32.8736 149.749C32.131 149.452 31.3884 149.204 30.5962 148.906C30.2002 152.873 30.0517 156.84 29.9526 160.857C33.7153 161.303 33.7153 167.204 29.9526 166.807C29.9526 173.501 30.2002 180.146 30.2497 186.493C30.4477 210.393 29.8536 234.938 30.9428 259.087C33.2697 258.789 35.5966 258.541 37.874 258.442C41.7356 258.343 41.7356 264.293 37.874 264.442C35.6461 264.491 33.4677 264.739 31.2399 264.987C31.4379 268.756 31.7349 272.475 32.032 276.243C32.9231 275.747 33.9133 275.351 34.755 274.805C37.973 272.673 40.993 277.88 37.775 279.962C36.1412 281.053 34.3589 281.896 32.5766 282.739C34.0618 297.416 36.5868 314.424 44.5081 327.019C49.0629 334.308 56.4396 340.854 63.9649 346.755C64.262 345.763 64.46 344.721 64.5095 343.68C64.7075 339.862 70.6981 339.812 70.5 343.68C70.3515 346.11 69.7574 348.341 68.8663 350.473C71.7873 352.655 74.6092 354.738 77.2332 356.721C84.907 362.523 94.5116 366.638 104.76 369.614C104.116 366.638 103.819 363.614 104.364 360.391C105.007 356.622 110.75 358.209 110.107 361.977C109.562 365.002 110.107 368.126 110.899 371.25C124.266 374.423 138.376 375.614 150.852 375.465C151.1 374.771 151.545 374.027 152.288 373.68C152.535 370.308 152.833 366.986 153.179 363.663C153.526 360.49 153.773 357.316 153.971 354.242C147.882 353.548 141.99 351.564 135.455 349.928C122.038 346.507 108.721 344.622 96.0959 338.821C71.4407 327.515 64.3115 303.218 60.0538 278.475C54.2613 244.607 58.2715 209.947 60.9449 175.931C62.7767 151.931 49.2114 125.304 58.7665 102.246C52.9245 103.734 47.2311 107.502 42.2802 114.295C41.8842 114.841 41.5871 115.386 41.191 115.932C42.3792 118.213 43.716 120.494 45.2012 122.626C47.4291 125.75 42.2307 128.775 40.0524 125.601L40.1019 125.551Z" fill="#82BB8A"/>
<path d="M120.702 321.466C121.444 318.937 122.336 316.557 123.326 314.177C123.029 314.177 122.781 314.127 122.484 314.078C115.998 313.433 110.355 309.813 105.849 305.4C94.2148 294.045 93.2246 270.69 88.4718 255.913C85.0062 245.203 82.4813 234.641 81.5901 223.335C80.3524 207.319 84.5606 191.303 84.2141 175.286C83.719 150.841 83.0754 121.386 65.1533 103.288C55.3011 109.635 66.8366 156.89 67.3812 166.014C68.916 193.98 62.4304 222.542 63.3215 250.756C64.1136 276.491 67.1337 308.078 87.5311 326.177C96.9377 334.557 109.909 338.176 121.989 340.656C131.891 342.689 143.327 347.3 154.169 348.193C154.665 337.78 154.467 327.466 154.219 317.053C145.951 316.606 137.634 315.664 129.415 314.821C128.227 317.499 127.237 320.226 126.395 323.053C125.306 326.772 119.563 325.185 120.652 321.466H120.702Z" fill="#82BB8A"/>
<path d="M104.116 275.202C104.463 274.855 104.809 274.458 105.156 274.111C100.353 266.029 99.7594 255.764 100.205 246.641C100.452 241.98 101.393 237.368 103.126 233.054C106.393 224.823 101.195 220.856 100.106 213.765C99.8089 211.732 99.6603 209.798 99.5118 207.815C97.1849 206.625 94.759 205.583 92.2341 204.84C88.5209 203.798 90.1052 198.046 93.8184 199.088C95.7492 199.633 97.5315 200.377 99.3138 201.17C99.3138 197.997 99.5118 194.873 99.8089 191.699C98.6702 191.848 97.5315 191.898 96.4423 192.096C92.6797 192.741 91.0954 186.989 94.858 186.344C96.7393 185.997 98.6207 185.848 100.502 185.65C100.651 184.311 100.799 183.022 100.997 181.683C102.581 169.435 101.938 156.245 101.789 143.948C101.641 134.626 98.0266 125.353 92.5311 117.866C91.937 118.907 91.2439 119.899 90.4023 120.841C87.7783 123.667 83.5701 119.453 86.1941 116.626C87.1842 115.535 87.9268 114.345 88.5705 113.056C84.0652 108.345 78.7678 104.726 73.1733 102.841C82.0353 113.304 85.7485 125.899 87.4318 140.477C90.2042 165.022 89.4616 188.08 87.7288 212.674C86.0455 236.029 96.3433 257.302 101.294 279.615C103.869 291.318 107.532 302.574 119.662 307.334C121.494 308.028 123.573 308.623 125.801 309.069C127.435 305.995 129.266 303.02 131.544 300.193C133.97 297.169 138.128 301.433 135.752 304.408C134.316 306.193 133.079 308.127 131.94 310.111C139.119 311.053 147.089 311.301 154.219 311.4C154.12 306.64 153.971 301.83 153.872 297.07C135.455 290.871 120.85 294.144 108.72 279.02C108.621 279.119 108.522 279.219 108.423 279.367C105.601 281.995 101.393 277.781 104.215 275.153L104.116 275.202Z" fill="#82BB8A"/>
<path d="M254.671 265.334C256.156 265.285 257.642 265.384 259.077 265.582C258.533 260.822 258.434 256.062 258.632 251.302C255.166 252.442 251.899 254.078 248.532 256.111C245.215 258.095 242.245 252.938 245.512 250.955C249.918 248.277 254.374 246.293 259.028 245.054C260.117 233.401 262.642 221.897 264.721 210.393C268.732 187.98 266.009 164.675 268.187 141.965C268.831 135.27 268.385 128.973 267.395 122.725C264.573 122.378 261.701 122.13 258.78 122.329C254.919 122.576 254.968 116.626 258.78 116.329C261.305 116.18 263.83 116.329 266.306 116.626C265.662 113.651 264.969 110.626 264.177 107.552C261.899 98.7752 261.602 89.9489 259.622 81.1226C258.087 74.3293 254.028 67.0401 248.829 60.2965C248.532 61.0898 248.235 61.9328 248.087 62.7758C247.294 66.5443 241.551 64.9575 242.344 61.189C242.789 59.1064 243.581 57.0734 244.522 55.1395C243.829 54.3461 243.086 53.6023 242.393 52.809C242.146 53.5528 241.898 54.3461 241.601 55.0899C240.215 58.6601 234.422 57.0734 235.858 53.5032C236.551 51.7181 237.046 49.8834 237.492 48.0487C232.343 43.4372 226.996 39.6191 222.095 37.1894C220.956 36.3464 219.768 35.801 218.58 35.4043C227.838 50.3793 228.382 68.0319 235.214 84.2465C242.69 101.8 243.284 116.775 243.631 135.618C243.631 137.155 243.779 138.642 243.977 140.13C246.106 138.692 248.433 137.601 251.057 137.105C254.82 136.361 256.404 142.113 252.641 142.857C249.72 143.452 247.294 144.791 245.364 146.725C246.502 150.791 247.988 154.758 249.423 158.774C252.344 157.584 255.315 157.336 258.632 158.03C262.395 158.824 260.81 164.576 257.048 163.782C254.869 163.336 253.087 163.634 251.255 164.427C251.453 165.022 251.602 165.567 251.75 166.163C253.78 173.452 252.443 181.237 251.057 188.476C245.908 214.112 236.155 237.715 239.819 264.442C242.492 283.979 246.75 302.97 245.809 322.805C244.671 346.507 241.898 368.92 242.987 392.87C244.175 416.72 240.957 440.472 242.641 464.323C243.779 479.397 246.651 493.678 246.106 508.355C250.958 508.355 255.76 508.306 260.612 508.157C260.365 502.603 260.266 497.099 260.167 491.595C258.533 490.951 256.8 490.306 255.067 489.86C251.354 488.918 252.938 483.166 256.652 484.108C257.84 484.405 258.929 484.852 260.068 485.248C260.018 481.43 259.87 477.562 259.721 473.695C256.899 472.901 254.077 472.356 251.107 472.257C247.294 472.108 247.245 466.108 251.107 466.257C253.978 466.356 256.751 466.852 259.474 467.496C259.276 463.43 258.978 459.414 258.582 455.348C256.503 435.414 262.246 416.225 263.286 396.39C263.533 392.076 263.583 387.861 263.484 383.547C263.484 383.547 263.451 383.531 263.385 383.498V380.523C262.791 363.564 260.513 346.507 261.8 329.4C262.593 318.391 264.127 308.177 263.335 297.119C262.692 288.541 261.157 280.061 259.919 271.582C258.236 271.334 256.503 271.186 254.721 271.285C250.859 271.483 250.909 265.483 254.721 265.285L254.671 265.334Z" fill="#82BB8A"/>
<path d="M184.617 456.637C183.181 434.82 186.894 416.076 193.331 395.448C198.975 377.201 186.894 356.672 185.508 338.127C185.31 335.201 185.162 332.276 185.162 329.35C182.538 328.706 179.914 328.259 177.24 328.21C173.379 328.111 173.379 322.16 177.24 322.21C179.914 322.259 182.637 322.607 185.261 323.152C185.805 305.004 188.825 286.855 187.786 268.657C186.498 246.145 183.132 224.03 184.766 201.369C184.865 199.98 185.063 198.592 185.162 197.204C183.528 196.906 181.894 196.757 180.161 196.708C176.3 196.658 176.3 190.658 180.161 190.708C182.043 190.708 183.924 190.906 185.756 191.204C187.885 170.725 191.647 150.394 193.479 129.866C196.301 96.6929 188.825 63.6686 208.629 35.2559C197.885 38.231 187.043 49.735 182.488 57.3216C178.032 64.8091 172.488 71.8007 167.685 78.9907C164.715 83.4534 163.031 88.6599 161.992 94.0648C163.873 95.602 165.754 97.1391 167.537 98.7755C170.408 101.354 166.15 105.569 163.328 102.99C162.536 102.296 161.744 101.651 160.903 100.957C160.457 105.122 160.209 109.288 159.962 113.205C159.071 126.197 158.625 139.188 158.427 152.18C160.754 152.031 163.081 151.882 165.408 151.684C169.269 151.386 169.22 157.337 165.408 157.684C163.081 157.882 160.705 158.031 158.328 158.179C158.328 161.948 158.279 165.717 158.279 169.485C159.615 169.088 160.952 168.741 162.239 168.345C165.952 167.303 167.537 173.105 163.824 174.097C161.992 174.592 160.11 175.138 158.279 175.683C158.378 198.245 158.922 220.807 159.17 243.368C160.705 243.567 162.239 243.765 163.824 244.013C167.636 244.608 166.002 250.36 162.239 249.765C161.249 249.616 160.259 249.467 159.269 249.368C159.269 249.666 159.269 249.914 159.269 250.211C159.516 271.434 159.269 292.657 159.912 313.929C160.605 336.292 159.318 357.416 157.486 379.73C157.437 380.225 157.437 380.771 157.387 381.217C156.793 389.201 156.496 397.184 156.348 405.217C158.526 405.861 160.655 406.605 162.784 407.498C166.299 409.035 163.279 414.192 159.764 412.655C158.625 412.159 157.387 411.812 156.199 411.415C156.1 422.374 156.348 433.382 156.694 444.39C157.833 444.142 158.922 443.844 160.11 443.745C163.923 443.348 163.873 449.348 160.11 449.745C159.021 449.844 157.982 450.142 156.892 450.39C157.486 468.588 158.279 486.786 158.279 504.885C169.319 505.182 180.359 505.777 191.35 506.273C190.459 498.091 187.885 488.868 187.043 483.463C185.805 474.588 185.112 465.563 184.518 456.588L184.617 456.637Z" fill="#82BB8A"/>
<path d="M236.304 458.769C234.72 436.852 238.136 414.787 236.997 392.87C235.957 372.787 235.314 352.556 238.482 332.722C242.393 308.325 236.651 284.623 233.284 260.525C230.759 242.475 235.66 224.079 240.215 206.823C242.938 196.41 246.255 185.947 246.8 175.138C247.196 167.005 243.433 159.518 240.611 151.931C238.482 152.328 235.957 149.997 237.294 147.469C237.69 146.725 238.185 146.13 238.631 145.485C238.631 145.386 238.581 145.287 238.532 145.138C236.849 137.651 237.443 129.618 237.492 122.031C237.591 109.436 234.918 98.7255 229.967 87.2712C223.036 71.4533 222.392 53.5527 213.481 38.8257C202.638 54.0486 198.628 73.04 200.014 91.6347C201.698 113.552 199.173 135.766 196.45 157.584C195.014 169.386 193.182 181.137 191.845 192.939C195.212 194.179 198.381 196.063 201.153 198.691C203.975 201.319 199.717 205.534 196.945 202.906C195.212 201.269 193.232 200.129 191.202 199.187C190.459 207.468 190.014 215.798 190.212 224.178C190.806 246.343 194.667 268.012 193.43 290.326C192.786 301.978 191.598 313.532 191.4 325.036C196.598 326.97 201.351 329.994 205.114 334.11C207.688 336.937 203.48 341.201 200.905 338.325C198.232 335.399 194.915 333.218 191.4 331.581C191.548 340.11 192.439 348.639 194.618 357.168C198.727 373.333 202.787 384.936 197.737 401.2C190.806 423.365 189.37 443.993 191.301 467.1C192.192 477.612 193.974 488.075 195.212 498.587C195.509 500.917 196.004 503.744 196.351 506.62C202.737 506.868 209.124 507.016 215.461 507.016C216.253 507.016 216.798 507.314 217.243 507.76C219.372 507.81 221.55 507.859 223.679 508.008C229.175 508.256 234.621 508.355 240.017 508.355C240.859 491.843 237.393 475.48 236.205 458.819L236.304 458.769Z" fill="#82BB8A"/>
<path d="M242.987 392.87C241.849 368.92 244.671 346.507 245.809 322.805C246.75 302.97 242.542 283.979 239.819 264.442C236.106 237.715 245.908 214.112 251.057 188.476C252.493 181.237 253.78 173.501 251.75 166.163C251.602 165.568 251.404 165.022 251.255 164.427C250.661 164.725 250.018 165.072 249.374 165.468C246.106 167.551 243.136 162.394 246.354 160.311C247.344 159.667 248.334 159.171 249.374 158.725C247.938 154.708 246.453 150.791 245.314 146.675C244.225 147.766 243.235 148.956 242.443 150.444C241.997 151.287 241.304 151.733 240.611 151.882C243.383 159.468 247.196 167.006 246.799 175.088C246.255 185.898 242.987 196.36 240.215 206.773C235.66 224.029 230.808 242.426 233.284 260.475C236.65 284.574 242.393 308.276 238.482 332.672C235.313 352.507 235.957 372.738 236.997 392.82C238.135 414.737 234.67 436.803 236.304 458.72C237.492 475.381 240.957 491.744 240.116 508.256C242.096 508.306 244.126 508.306 246.106 508.306C246.651 493.628 243.779 479.348 242.641 464.273C240.957 440.423 244.176 416.671 242.987 392.82V392.87Z" fill="#1A5737"/>
<path d="M259.028 265.582C261.058 265.83 263.088 266.177 265.117 266.723C264.573 261.12 264.325 255.516 264.622 249.913C262.543 250.211 260.513 250.657 258.582 251.301C258.384 256.062 258.483 260.822 259.028 265.582Z" fill="#1A5737"/>
<path d="M191.4 467.1C189.469 443.993 190.905 423.365 197.836 401.2C202.886 384.936 198.875 373.333 194.717 357.168C192.538 348.639 191.647 340.11 191.499 331.581C189.469 330.639 187.39 329.895 185.211 329.399C185.211 332.325 185.31 335.251 185.558 338.176C186.944 356.721 199.024 377.25 193.38 395.498C186.944 416.125 183.231 434.869 184.667 456.687C185.261 465.662 185.904 474.686 187.192 483.562C188.033 489.017 190.608 498.19 191.499 506.372C193.182 506.421 194.865 506.471 196.499 506.62C196.153 503.744 195.657 500.917 195.36 498.587C194.123 488.075 192.34 477.612 191.449 467.1H191.4Z" fill="#1A5737"/>
<path d="M260.563 508.206C262.593 508.157 264.622 508.157 266.652 508.107C266.652 503.694 266.751 499.231 266.85 494.818C264.672 493.678 262.444 492.587 260.117 491.694C260.216 497.198 260.315 502.702 260.563 508.206Z" fill="#066938"/>
<path d="M156.991 450.488C155.11 450.885 153.278 451.381 151.446 451.976C151.941 469.628 152.486 487.281 152.486 504.884C154.466 504.884 156.397 504.934 158.377 504.983C158.377 486.884 157.585 468.686 156.991 450.488Z" fill="#1A5737"/>
<path d="M260.018 485.347C262.345 486.19 264.623 487.133 266.85 488.223C266.85 486.29 266.9 484.405 266.85 482.471C266.801 480.339 266.652 478.207 266.454 476.075C264.226 475.182 261.999 474.439 259.721 473.794C259.87 477.662 259.969 481.529 260.068 485.347H260.018Z" fill="#066938"/>
<path d="M184.815 201.468C183.231 224.128 186.548 246.244 187.835 268.756C188.875 286.954 185.805 305.053 185.31 323.251C187.439 323.697 189.518 324.292 191.499 325.086C191.697 313.582 192.885 302.028 193.528 290.375C194.766 268.062 190.904 246.393 190.31 224.228C190.112 215.848 190.508 207.517 191.301 199.236C189.37 198.344 187.389 197.699 185.261 197.352C185.161 198.74 184.963 200.129 184.864 201.517L184.815 201.468Z" fill="#1A5737"/>
<path d="M361.065 422.324C352.45 425.993 342.499 428.423 335.172 434.472C332.152 437.001 329.181 438.885 326.211 440.422C327.053 442.703 327.845 444.935 328.637 447.216C330.271 446.224 331.855 445.133 333.39 443.844C348.539 430.555 366.709 428.869 378.343 415.134C377.106 413.745 375.769 412.406 374.432 411.117C371.214 415.877 366.956 419.894 361.164 422.324H361.065Z" fill="#1A5737"/>
<path d="M313.537 314.326C313.735 306.392 315.468 298.557 315.666 290.673C315.864 284.177 315.369 277.88 314.626 271.582C312.794 270.541 310.863 269.599 308.883 268.806C309.328 272.574 309.675 276.343 309.774 280.161C310.071 290.822 307.695 301.731 307.596 312.441C309.675 313.086 311.655 313.929 313.586 314.921C313.586 314.722 313.586 314.524 313.586 314.326H313.537Z" fill="#1A5737"/>
<path d="M389.384 345.614C387.404 358.507 389.582 370.457 385.572 383.151C383.195 390.589 381.017 398.721 377.403 405.861C378.888 407.25 380.373 408.688 381.76 410.175C383.195 407.845 384.433 405.266 385.522 402.291C390.473 388.605 394.681 376.308 394.236 361.779C393.889 351.168 396.86 341.747 398.444 331.433C399.038 327.466 399.335 323.449 399.682 319.483C397.652 319.383 395.671 319.284 393.642 319.284C392.255 328.11 390.622 336.937 389.334 345.664L389.384 345.614Z" fill="#1A5737"/>
<path d="M374.383 294.938C373.541 315.764 368.491 335.697 364.927 355.978C367.056 355.383 369.234 354.937 371.412 354.837C372.204 349.879 373.096 344.871 374.284 339.813C378.146 323.35 380.571 306.491 380.423 289.483C380.324 276.194 377.997 263.103 376.66 250.013C374.977 250.409 373.393 250.905 371.808 251.451C373.739 265.831 374.977 280.409 374.383 294.938Z" fill="#1A5737"/>
<path d="M363.194 367.283C365.372 367.531 367.501 368.126 369.481 368.969C369.828 366.292 370.175 363.614 370.521 360.986C368.244 361.184 366.016 361.68 363.887 362.672C363.639 364.209 363.392 365.746 363.194 367.333V367.283Z" fill="#066938"/>
<path d="M392.404 236.079C392.552 238.558 392.75 240.988 392.998 243.467C393.592 243.566 394.186 243.566 394.78 243.665C398.345 244.459 397.058 249.616 393.691 249.417C395.374 262.855 397.701 276.194 397.058 289.78C396.661 297.615 395.721 305.449 394.533 313.234C396.463 313.234 398.345 313.334 400.226 313.482C400.474 310.904 400.771 308.325 401.167 305.747C403.89 288.64 402.602 272.475 400.276 255.417C398.543 242.574 398.741 228.988 395.671 216.344C393.394 215.699 391.117 214.906 388.889 213.963C390.968 221.104 391.909 228.641 392.354 236.079H392.404Z" fill="#1A5737"/>
<path d="M331.954 192.642C336.261 190.014 341.212 187.931 346.312 186.642C337.35 197.699 333.043 215.55 332.301 229.335C330.221 267.021 339.479 306.045 332.202 343.383C328.934 360.341 323.439 379.283 309.279 390.589C308.537 391.184 307.744 391.779 306.903 392.423C308.19 393.514 309.428 394.605 310.616 395.746C310.913 396.043 311.062 396.341 311.21 396.638C314.973 393.613 318.339 390.093 321.409 386.374C336.509 368.027 340.172 340.358 340.371 317.4C340.569 287.599 333.786 255.963 338.588 226.41C339.875 218.079 341.757 209.699 344.727 201.815C346.163 198.096 347.995 192.592 351.163 189.865C357.5 184.41 363.293 203.947 363.937 205.831C367.996 217.98 368.392 228.938 370.373 241.385C370.571 242.723 370.769 244.112 370.967 245.451C372.7 244.905 374.383 244.409 376.165 244.013C375.967 241.236 375.819 238.459 375.769 235.682C375.571 224.327 373.541 214.906 369.68 204.195C369.135 202.608 368.194 200.079 367.006 197.303C362.55 191.848 358.738 185.947 356.461 179.452C354.035 179.353 351.559 179.402 348.935 179.65C341.905 180.443 335.123 183.121 329.132 187.088C329.875 189.071 330.617 191.055 331.261 193.088C331.509 192.939 331.707 192.79 331.954 192.642Z" fill="#1A5737"/>
<path d="M312.299 253.93C311.408 253.93 310.566 253.533 309.923 252.69C308.784 251.203 307.497 249.814 306.16 248.525C306.754 253.087 307.398 257.599 308.041 262.161C309.972 262.806 311.854 263.5 313.685 264.343C313.19 260.872 312.695 257.401 312.25 253.88L312.299 253.93Z" fill="#1A5737"/>
<path d="M289.278 447.017C280.911 447.315 272.197 447.315 263.979 449.05C263.88 444.637 264.177 440.274 264.573 435.91C271.554 432.489 284.03 434.571 291.357 432.637C302.447 429.662 315.765 428.869 324.825 421.084C341.361 406.902 363.491 412.753 367.204 386.87C367.749 382.952 368.244 379.134 368.689 375.316C366.808 374.225 364.679 373.531 362.451 373.283C362.154 375.861 361.857 378.44 361.709 381.068C360.421 400.208 351.51 401.795 336.261 407.497C327.548 410.77 320.914 418.952 312.151 421.282C300.17 424.505 288.09 427.728 275.712 428.869C272.791 429.117 268.831 429.067 265.316 429.712C266.355 422.125 267.643 414.539 268.484 406.902C279.327 406.902 287.644 408.638 298.981 404.076C301.655 402.985 304.081 401.597 306.457 400.109C304.972 398.671 303.388 397.332 301.803 396.043C295.516 399.911 288.189 403.035 281.356 402.39C277.198 402.043 273.188 401.299 269.078 401.15C269.425 396.39 269.573 391.531 269.128 386.671C274.92 388.506 281.554 387.465 287.793 385.035C287.941 383.051 289.971 381.167 292.199 382.506C292.347 382.605 292.545 382.704 292.694 382.804C294.229 381.961 295.763 381.118 297.199 380.175C311.458 370.853 323.092 359.696 319.131 341.25C317.795 335.102 315.517 328.705 314.379 322.309C312.398 320.92 310.269 319.73 307.992 318.887C308.19 321.069 308.487 323.201 309.032 325.383C313.487 343.383 317.448 357.168 301.407 369.911C293.585 376.01 278.435 386.076 268.732 380.175C267.148 357.316 268.831 335.697 269.672 312.739C270.168 299.45 267.643 286.359 265.959 273.169C263.979 272.574 261.999 272.028 259.969 271.731C261.207 280.21 262.741 288.689 263.385 297.268C264.177 308.325 262.593 318.54 261.85 329.548C260.612 346.705 262.89 363.713 263.434 380.671V383.647C263.434 383.647 263.484 383.696 263.533 383.696C263.632 388.01 263.583 392.225 263.335 396.539C262.246 416.373 256.553 435.563 258.632 455.497C259.078 459.563 259.325 463.629 259.523 467.645C261.652 468.191 263.781 468.885 265.86 469.629C265.316 464.769 264.722 459.91 264.326 455.1C264.375 455.1 264.524 455.05 264.623 455.05C282.545 450.935 305.616 456.885 323.241 449.993C322.448 447.662 321.656 445.331 320.815 443.001C311.21 446.571 301.358 446.621 289.327 447.117L289.278 447.017Z" fill="#1A5737"/>
<path d="M311.309 244.707C309.824 227.153 312.695 208.707 326.161 196.955C325.617 194.922 324.924 192.889 324.181 190.906C313.982 199.534 306.754 211.98 305.417 224.872C304.873 230.079 304.972 235.186 305.368 240.244C307.497 241.88 309.527 243.665 311.408 245.55C311.408 245.252 311.358 245.004 311.309 244.707Z" fill="#1A5737"/>
<path d="M37.7749 121.684C36.6362 119.701 35.5965 117.717 34.5568 115.684C33.0716 118.213 31.7843 120.791 30.6952 123.32C28.2692 129.023 26.586 135.023 25.4473 141.171C27.4276 141.766 29.4079 142.262 31.3388 142.857C32.4775 135.419 34.4083 128.279 37.7254 121.634L37.7749 121.684Z" fill="#1A5737"/>
<path d="M100.056 213.765C101.195 220.856 106.394 224.823 103.077 233.054C101.344 237.368 100.403 241.979 100.156 246.641C99.7099 255.764 100.304 265.979 105.106 274.111C106.691 272.475 108.077 270.69 109.364 268.905C105.75 259.781 103.819 247.236 107.433 238.062C109.067 234.194 111.493 229.632 110.8 225.319C110.008 220.31 107.483 216.145 105.998 211.534C103.869 210.195 101.69 208.955 99.4624 207.864C99.6109 209.848 99.7594 211.782 100.056 213.815V213.765Z" fill="#1A5737"/>
<path d="M158.427 175.881C156.447 176.476 154.516 177.171 152.585 177.964C152.585 188.625 152.733 199.236 152.882 209.897C153.08 220.955 153.13 232.013 153.229 243.12C155.258 243.17 157.288 243.368 159.318 243.616C159.071 221.054 158.526 198.493 158.427 175.931V175.881Z" fill="#1A5737"/>
<path d="M44.5576 326.92C36.6363 314.326 34.1113 297.318 32.6261 282.64C30.7448 283.483 28.8634 284.227 26.9326 284.921C28.0713 294.789 29.7546 304.607 32.4776 314.177C35.6956 325.383 41.7356 334.606 50.5481 342.342C54.1127 345.466 57.7764 348.788 61.539 352.06C62.6282 350.375 63.4698 348.589 64.0144 346.755C56.4892 340.854 49.1124 334.309 44.5576 327.02V326.92Z" fill="#1A5737"/>
<path d="M77.2329 356.622C74.609 354.639 71.787 352.556 68.866 350.375C68.0739 352.209 67.0342 353.945 65.8955 355.631C70.8959 359.746 76.0942 363.515 81.5897 366.341C89.214 370.209 97.6304 373.333 106.344 375.663C105.799 373.581 105.205 371.548 104.76 369.465C94.5114 366.49 84.9067 362.325 77.2329 356.573V356.622Z" fill="#1A5737"/>
<path d="M158.476 158.328C156.546 158.477 154.565 158.576 152.634 158.675C152.634 162.94 152.585 167.204 152.585 171.518C154.516 170.824 156.447 170.179 158.427 169.634C158.427 165.865 158.427 162.097 158.476 158.328Z" fill="#1A5737"/>
<path d="M31.2893 264.938C29.3089 265.186 27.3781 265.434 25.4473 265.731C25.6453 270.095 25.9424 274.458 26.3384 278.822C28.3188 278.078 30.2496 277.186 32.1309 276.194C31.8339 272.475 31.5368 268.707 31.3388 264.938H31.2893Z" fill="#1A5737"/>
<path d="M99.2642 201.22C101.195 202.063 103.027 203.005 104.859 204.046C104.859 199.782 105.255 195.517 105.799 191.352C103.819 191.402 101.789 191.6 99.8088 191.798C99.5117 194.972 99.3137 198.096 99.3137 201.269L99.2642 201.22Z" fill="#1A5737"/>
<path d="M30.2498 186.443C30.2003 180.146 29.9528 173.502 29.9528 166.758C27.7249 166.51 25.497 166.361 23.2692 166.212C23.1206 180.84 24.3583 195.666 24.6554 209.253C25.0515 225.914 24.6554 242.922 25.2 259.88C27.1308 259.583 29.0616 259.285 30.9925 258.988C29.9033 234.839 30.4974 210.294 30.2994 186.394L30.2498 186.443Z" fill="#1A5737"/>
<path d="M30.0021 160.807C30.1011 156.84 30.2496 152.824 30.6457 148.857C28.6654 148.163 26.6355 147.568 24.5562 146.973C23.9621 151.336 23.6155 155.799 23.4175 160.262C25.5959 160.41 27.7742 160.559 29.9526 160.758L30.0021 160.807Z" fill="#1A5737"/>
<path d="M160.061 113.353C160.308 109.436 160.556 105.271 161.001 101.106C159.269 99.6677 157.536 98.2297 155.754 96.8413C153.427 109.238 153.377 122.18 153.031 134.576C152.833 140.626 152.734 146.675 152.684 152.725C154.664 152.626 156.595 152.526 158.576 152.378C158.774 139.386 159.219 126.395 160.11 113.403L160.061 113.353Z" fill="#1A5737"/>
<path d="M268.138 142.014C266.009 164.725 268.682 188.03 264.672 210.443C262.593 221.947 260.018 233.451 258.979 245.103C260.959 244.558 262.989 244.161 265.068 243.913C267.543 222.839 273.336 202.707 272.296 181.336C271.405 162.146 276.158 142.609 273.732 123.667C271.603 123.37 269.474 123.072 267.345 122.775C268.336 129.023 268.732 135.37 268.138 142.014Z" fill="#1A5737"/>
<path d="M101.69 143.948C101.888 156.246 102.532 169.485 100.898 181.733C100.7 183.072 100.552 184.41 100.403 185.7C102.433 185.551 104.413 185.402 106.443 185.353C106.592 184.113 106.74 182.923 106.839 181.683C108.126 168.493 108.82 153.419 107.384 140.13C106.196 129.271 102.037 119.056 95.3533 110.974C94.5612 113.304 93.67 115.635 92.3828 117.767C97.8782 125.304 101.492 134.527 101.641 143.849L101.69 143.948Z" fill="#1A5737"/>
<path d="M167.735 79.1391C172.487 71.8995 178.032 64.9079 182.538 57.47C187.092 49.8834 197.935 38.429 208.678 35.4043C188.875 63.7674 196.301 96.8413 193.528 130.014C191.746 150.543 187.934 170.873 185.805 191.352C187.934 191.699 189.964 192.245 191.895 192.988C193.182 181.187 195.014 169.435 196.499 157.634C199.222 135.816 201.747 113.601 200.064 91.6843C198.677 73.0896 202.688 54.0982 213.53 38.8753C222.392 53.6519 223.085 71.5029 230.016 87.3208C234.967 98.7751 237.64 109.486 237.541 122.081C237.492 129.667 236.898 137.75 238.581 145.188C238.581 145.287 238.631 145.386 238.68 145.535C240.116 143.403 241.898 141.617 243.978 140.229C243.779 138.741 243.631 137.254 243.631 135.717C243.284 116.824 242.69 101.899 235.215 84.3456C228.333 68.1806 227.838 50.528 218.58 35.5034C219.768 35.9001 220.956 36.4456 222.095 37.2885C227.046 39.7183 232.393 43.5364 237.492 48.1479C238.037 45.9661 238.383 43.7843 238.68 41.5529C234.571 37.834 230.115 34.6109 225.065 32.1812C216.401 25.8342 207.044 27.5697 198.232 33.0737C197.588 35.6522 196.647 38.2803 195.41 40.9083C195.113 41.6521 194.618 42.0488 194.123 42.2967C193.925 43.586 193.033 44.8752 191.251 44.8752C191.152 44.8752 191.053 44.8256 190.954 44.8256C190.904 45.024 190.954 45.1727 190.905 45.3711C189.221 51.6685 181.646 54.7428 174.913 56.6271C169.517 64.0154 165.21 71.3045 162.635 76.2135C160.259 80.825 158.526 85.6349 157.239 90.5935C158.873 91.8331 160.506 93.0728 162.14 94.362C163.229 88.9571 164.913 83.7506 167.834 79.2879L167.735 79.1391Z" fill="#1A5737"/>
<path d="M157.486 381.366C157.536 380.87 157.536 380.325 157.585 379.878C159.417 357.565 160.754 336.441 160.011 314.078C159.368 292.805 159.615 271.583 159.368 250.36C159.368 250.062 159.368 249.814 159.368 249.517C157.338 249.269 155.308 249.071 153.278 248.971C153.328 262.905 153.427 276.888 153.625 290.822C138.772 286.508 121.494 289.384 112.335 274.806C111.196 276.293 110.008 277.781 108.622 279.07C120.702 294.144 135.356 290.921 153.773 297.119C153.872 301.88 154.021 306.689 154.12 311.45C146.991 311.351 139.02 311.103 131.841 310.16C130.999 311.698 130.207 313.235 129.514 314.822C137.733 315.714 146.05 316.607 154.318 317.053C154.565 327.466 154.714 337.78 154.268 348.193C143.476 347.3 131.99 342.689 122.088 340.656C109.958 338.226 97.0366 334.557 87.63 326.177C67.2326 308.078 64.163 276.541 63.4204 250.756C62.5293 222.542 69.0149 193.981 67.4801 166.014C66.9355 156.89 55.4495 109.585 65.2522 103.288C83.1248 121.387 83.8179 150.841 84.313 175.287C84.6595 191.303 80.4513 207.319 81.689 223.335C82.5802 234.641 85.1051 245.203 88.5707 255.913C93.274 270.69 94.3137 294.045 105.948 305.4C110.503 309.813 116.097 313.384 122.583 314.078C122.88 314.078 123.128 314.127 123.425 314.177C124.118 312.441 124.91 310.756 125.801 309.07C123.623 308.574 121.494 308.028 119.662 307.334C107.532 302.574 103.869 291.318 101.294 279.616C96.3435 257.302 86.0953 236.029 87.729 212.674C89.4618 188.129 90.155 165.072 87.432 140.477C85.7487 125.899 82.0851 113.304 73.1736 102.842C78.768 104.726 84.0654 108.346 88.5707 113.056C89.6104 110.974 90.4025 108.742 91.0956 106.412C85.0556 100.808 77.5303 96.7425 68.7673 94.9574C55.8456 92.3293 45.5479 100.015 38.3691 109.932C39.3593 111.916 40.3 113.85 41.3396 115.783C41.6862 115.238 42.0328 114.693 42.4288 114.147C47.3797 107.354 53.0731 103.585 58.9151 102.098C49.36 125.155 62.9748 151.733 61.0935 175.783C58.4201 209.798 54.4099 244.459 60.2024 278.326C64.4601 303.07 71.5893 327.367 96.2445 338.672C108.919 344.474 122.187 346.408 135.604 349.78C142.089 351.416 148.03 353.35 154.12 354.094C153.922 357.218 153.724 360.341 153.328 363.515C152.981 366.887 152.684 370.209 152.437 373.531C151.743 373.878 151.248 374.622 151.001 375.316C138.525 375.465 124.415 374.226 111.048 371.102C111.592 373.135 112.186 375.168 112.78 377.151C125.702 380.077 139.168 381.465 151.941 381.267C151.496 388.804 151.248 396.39 151.149 403.977C152.981 404.374 154.813 404.82 156.645 405.316C156.793 397.283 157.09 389.25 157.684 381.316L157.486 381.366Z" fill="#1A5737"/>
<path d="M259.622 81.1724C261.603 89.9491 261.9 98.825 264.177 107.602C264.969 110.676 265.662 113.701 266.306 116.676C268.435 116.924 270.564 117.172 272.692 117.519C272.544 116.924 272.494 116.329 272.346 115.734C268.088 98.3291 268.088 79.8832 257.79 64.7099C255.662 61.5859 253.483 58.462 251.156 55.3877C250.216 56.9744 249.423 58.6108 248.879 60.3463C254.077 67.09 258.137 74.3791 259.672 81.1724H259.622Z" fill="#1A5737"/>
<path d="M156.348 411.563C154.565 410.968 152.734 410.423 150.902 409.977C150.803 421.927 151.001 433.927 151.298 445.926C153.08 445.381 154.961 444.935 156.793 444.538C156.447 433.53 156.249 422.522 156.298 411.563H156.348Z" fill="#1A5737"/>
<path d="M244.522 55.1396C245.314 53.5032 246.205 51.9661 247.245 50.4785C246.156 49.1893 245.067 47.9496 243.928 46.71C243.532 48.7926 243.037 50.8256 242.344 52.809C243.086 53.5528 243.779 54.3462 244.473 55.1396H244.522Z" fill="#066938"/>
<path d="M240.116 509H246.106V508.405C244.126 508.405 242.096 508.405 240.116 508.355V509Z" fill="#C1292E"/>
<path d="M266.653 508.107C264.623 508.157 262.593 508.157 260.563 508.207C260.563 508.455 266.653 508.405 266.653 508.107Z" fill="#C1292E"/>
<path d="M170.012 37.3876C163.576 35.5529 134.613 34.1645 146.495 48.1478C151.644 54.1477 163.477 53.3543 170.061 51.5692C173.824 50.5279 182.24 48.7428 184.567 44.7759C184.171 44.2801 183.676 43.7346 183.181 43.1396C179.765 40.0157 174.121 38.5777 170.012 37.3876Z" fill="#CC6D8F"/>
<path d="M189.964 39.0243C190.013 38.6771 190.063 38.2309 190.261 37.8342C193.479 30.8426 194.37 24.3964 191.895 17.0081C190.211 12.0495 180.557 -0.545353 177.29 10.8594C174.418 20.975 182.29 33.3715 188.726 40.3631C189.023 39.8176 189.37 39.3218 189.964 39.0243Z" fill="#CC6D8F"/>
<path d="M156.546 29.5038C156.843 29.4543 157.14 29.4543 157.387 29.4543C162.734 29.2063 169.864 30.3468 176.3 32.7269C173.577 27.57 171.25 21.7684 170.557 16.4131C170.507 16.314 170.458 16.2148 170.359 16.1156C167.487 9.47111 153.872 5.80174 148.179 10.6612C142.832 15.2727 151.694 26.2808 156.546 29.5038Z" fill="#CC6D8F"/>
<path d="M416.663 198.939C414.98 188.972 401.018 190.063 394.434 191.303C388.641 192.394 383.789 196.212 379.482 200.079C379.234 200.327 379.086 200.575 378.838 200.774C389.978 210.145 420.623 221.748 416.712 198.939H416.663Z" fill="#CC6D8F"/>
<path d="M405.127 184.708C405.969 184.757 406.811 184.906 407.652 185.055C407.9 184.559 408.246 184.113 408.84 183.815C414.435 180.79 417.851 168.344 412.108 164.03C407.999 160.857 401.761 161.452 397.156 162.642C394.037 163.435 391.76 165.518 389.186 167.105C390.423 173.848 389.532 181.386 386.908 188.08C392.305 185.501 398.196 184.212 405.177 184.658L405.127 184.708Z" fill="#CC6D8F"/>
<path d="M382.155 167.055C382.155 167.055 382.056 166.658 381.957 166.46C381.314 164.427 380.522 162.444 379.432 160.559C368.937 153.915 362.649 155.204 360.768 164.328C359.728 168.89 360.124 173.204 361.758 177.369C363.986 184.856 369.085 191.104 374.234 196.807C374.828 196.261 375.422 195.765 376.066 195.27C383.542 187.683 385.126 176.972 382.106 167.105L382.155 167.055Z" fill="#CC6D8F"/>
<path d="M190.855 45.2721C190.855 45.2721 190.855 44.925 190.905 44.7266C191.004 44.7266 191.103 44.7762 191.202 44.7762C192.984 44.7762 193.875 43.5366 194.073 42.1977C194.618 41.9498 195.113 41.5531 195.36 40.8093C196.549 38.1813 197.489 35.6028 198.182 32.9747C200.113 25.3881 199.618 17.9006 195.558 10.2644C192.291 4.1653 185.558 -2.67757 177.834 0.991795C174.468 2.62813 172.537 5.00826 171.398 7.78507C163.823 1.53724 149.565 0.0496609 143.376 7.04128C137.535 13.6362 142.584 24.446 148.921 30.8426C142.188 32.9252 136 37.4375 138.426 45.3217C142.089 57.1727 157.684 60.7925 168.675 58.0652C170.458 57.619 172.636 57.1231 174.864 56.4785C181.597 54.5942 189.172 51.5199 190.855 45.2225V45.2721ZM177.24 10.8594C180.508 -0.54537 190.162 12.0495 191.845 17.0081C194.37 24.3964 193.43 30.8426 190.211 37.8838C190.013 38.2804 189.964 38.7267 189.914 39.0738C189.32 39.3713 188.974 39.8672 188.677 40.3631C182.241 33.3714 174.369 20.9254 177.24 10.8594ZM148.179 10.6611C153.922 5.75205 167.487 9.47099 170.359 16.1155C170.408 16.2147 170.458 16.3139 170.557 16.413C171.2 21.7683 173.527 27.5699 176.3 32.7268C169.864 30.3467 162.734 29.2062 157.387 29.4541C157.14 29.4541 156.843 29.4541 156.546 29.5037C151.694 26.2806 142.832 15.2726 148.179 10.6611ZM170.062 51.5199C163.526 53.305 151.644 54.0984 146.496 48.0985C134.614 34.1152 163.576 35.5036 170.012 37.3383C174.121 38.5284 179.815 39.9664 183.181 43.0903C183.676 43.6853 184.122 44.2308 184.568 44.7266C182.241 48.7431 173.824 50.5282 170.062 51.5199Z" fill="#73539E"/>
<path d="M422.951 200.972C422.753 194.327 419.238 189.716 414.237 187.187C420.871 181.385 423.248 168.741 418.198 161.65C414.98 157.187 407.999 155.452 402.801 155.799C399.236 156.047 395.919 156.642 392.602 157.931C390.622 158.675 389.087 160.014 387.453 161.204C384.78 154.708 379.631 149.502 371.561 147.221C362.303 144.642 354.085 159.766 354.134 166.956C354.134 171.419 355.025 175.534 356.411 179.452C358.689 185.947 362.501 191.848 366.957 197.303C368.442 199.137 370.026 200.972 371.61 202.707C371.809 202.906 371.908 202.955 372.106 203.054C372.403 203.352 372.749 203.6 373.145 203.699C376.759 207.517 382.601 211.187 388.938 213.914C391.166 214.856 393.444 215.649 395.721 216.294C409.484 220.162 423.396 218.079 422.951 200.873V200.972ZM389.136 167.154C391.76 165.567 394.038 163.435 397.107 162.692C401.761 161.501 407.95 160.906 412.059 164.08C417.802 168.394 414.386 180.79 408.791 183.865C408.197 184.162 407.851 184.658 407.603 185.104C406.761 184.906 405.92 184.807 405.078 184.757C398.097 184.261 392.206 185.6 386.81 188.179C389.434 181.485 390.325 173.948 389.087 167.204L389.136 167.154ZM374.284 196.707C369.135 191.055 364.036 184.757 361.808 177.27C360.125 173.154 359.778 168.791 360.818 164.229C362.748 155.105 368.987 153.816 379.482 160.46C380.572 162.344 381.314 164.328 382.007 166.361C382.057 166.559 382.106 166.708 382.205 166.956C385.225 176.823 383.641 187.484 376.165 195.121C375.522 195.666 374.928 196.162 374.333 196.658L374.284 196.707ZM378.74 200.774C378.74 200.774 379.185 200.278 379.383 200.079C383.74 196.212 388.542 192.344 394.335 191.303C400.969 190.063 414.93 188.972 416.564 198.939C420.426 221.748 389.83 210.195 378.69 200.774H378.74Z" fill="#73539E"/>
<path d="M40.102 125.552C42.2804 128.676 47.4787 125.7 45.2509 122.527C43.7656 120.395 42.4784 118.114 41.2407 115.833C40.201 113.899 39.2603 111.916 38.2702 109.982C36.0423 105.469 33.7154 101.007 30.4974 96.9902C28.0714 94.015 23.8632 98.2794 26.2891 101.205C29.8537 105.569 32.1806 110.626 34.6066 115.635C35.5967 117.668 36.6859 119.651 37.8246 121.634C38.5672 122.924 39.2603 124.262 40.1515 125.502L40.102 125.552Z" fill="#343434"/>
<path d="M32.8738 149.7C36.4384 151.138 37.9732 145.386 34.4581 143.948C33.4679 143.552 32.4282 143.204 31.3885 142.857C29.4577 142.262 27.4774 141.717 25.497 141.171C20.8432 139.833 16.338 138.246 13.0209 134.676C10.4465 131.8 6.23826 136.064 8.8127 138.89C13.0209 143.552 18.7639 145.337 24.5564 147.023C26.5862 147.618 28.6656 148.213 30.6459 148.907C31.3885 149.155 32.1807 149.403 32.8738 149.7Z" fill="#343434"/>
<path d="M29.9525 166.807C33.7647 167.204 33.7152 161.253 29.9525 160.857C27.7742 160.609 25.5958 160.46 23.4174 160.361C16.8328 159.964 10.2482 159.716 3.76257 158.328C-6.55912e-05 157.534 -1.58434 163.286 2.17831 164.08C9.15899 165.567 16.1892 165.815 23.2689 166.311C25.4968 166.46 27.7247 166.609 29.9525 166.857V166.807Z" fill="#343434"/>
<path d="M37.8742 264.392C41.7358 264.293 41.7358 258.293 37.8742 258.392C35.5473 258.442 33.2204 258.69 30.943 259.037C29.0122 259.285 27.0813 259.582 25.1505 259.929C18.3678 261.02 11.6347 262.21 4.80254 261.169C1.0399 260.624 -0.593878 266.376 3.21827 266.921C10.7931 268.062 18.0708 266.822 25.4476 265.731C27.3784 265.434 29.3587 265.186 31.2895 264.938C33.4679 264.69 35.6958 264.491 37.9237 264.392H37.8742Z" fill="#343434"/>
<path d="M37.8247 279.863C41.0427 277.78 38.0227 272.574 34.8046 274.706C33.9135 275.252 32.9728 275.648 32.0817 276.144C30.2004 277.136 28.2695 278.028 26.2892 278.772C21.4869 280.607 16.536 282.144 12.0308 284.772C8.7137 286.706 11.7337 291.863 15.0508 289.929C18.8134 287.747 22.8731 286.359 26.9328 284.871C28.8636 284.177 30.7945 283.433 32.6263 282.59C34.4086 281.797 36.1414 280.904 37.8247 279.814V279.863Z" fill="#343434"/>
<path d="M110.156 361.878C110.8 358.11 105.057 356.523 104.413 360.292C103.869 363.515 104.166 366.539 104.809 369.514C105.255 371.597 105.849 373.63 106.394 375.713C107.087 378.242 107.73 380.771 108.028 383.399C108.424 387.167 114.414 387.217 113.969 383.399C113.771 381.366 113.226 379.333 112.632 377.25C112.087 375.266 111.444 373.233 110.899 371.2C110.107 368.077 109.612 365.002 110.107 361.928L110.156 361.878Z" fill="#343434"/>
<path d="M70.5497 343.581C70.7477 339.714 64.8067 339.763 64.5592 343.581C64.5097 344.623 64.3116 345.664 64.0146 346.656C63.47 348.49 62.6284 350.276 61.5392 351.961C58.7667 356.325 54.7565 360.292 52.2811 364.358C50.2513 367.631 55.4001 370.655 57.43 367.383C59.9054 363.317 63.2225 359.647 65.9454 355.68C67.0841 353.994 68.1238 352.259 68.9159 350.424C69.8071 348.342 70.4507 346.061 70.5497 343.631V343.581Z" fill="#343434"/>
<path d="M104.116 275.202C101.294 277.83 105.502 282.045 108.324 279.417C108.423 279.318 108.522 279.219 108.621 279.07C110.008 277.781 111.196 276.293 112.335 274.805C114.959 271.285 117.285 267.566 120.503 264.541C123.325 261.913 119.117 257.698 116.295 260.326C113.622 262.855 111.542 265.88 109.414 268.855C108.077 270.69 106.691 272.425 105.156 274.062C104.809 274.409 104.512 274.806 104.116 275.153V275.202Z" fill="#343434"/>
<path d="M93.769 199.088C90.0558 198.047 88.4716 203.799 92.1847 204.84C94.7096 205.584 97.1355 206.625 99.4624 207.815C101.69 208.955 103.869 210.195 105.998 211.484C109.463 213.617 112.83 215.848 116.345 217.782C119.711 219.666 122.731 214.46 119.365 212.625C114.463 209.898 109.76 206.724 104.859 203.947C103.027 202.906 101.195 201.964 99.2644 201.121C97.4821 200.328 95.6503 199.534 93.769 199.038V199.088Z" fill="#343434"/>
<path d="M94.8087 186.393C91.046 187.038 92.6303 192.79 96.3929 192.145C97.4821 191.947 98.6208 191.898 99.7595 191.749C101.74 191.55 103.77 191.402 105.75 191.303C110.849 191.104 115.949 191.203 120.999 190.658C124.761 190.261 124.811 184.261 120.999 184.658C116.147 185.203 111.295 185.203 106.443 185.352C104.413 185.402 102.383 185.501 100.403 185.699C98.5218 185.848 96.6405 186.046 94.8087 186.344V186.393Z" fill="#343434"/>
<path d="M86.0949 116.626C83.5205 119.452 87.7287 123.717 90.3031 120.841C91.1448 119.899 91.8379 118.907 92.432 117.866C93.7192 115.733 94.6104 113.403 95.4025 111.072C96.6402 107.353 97.6304 103.486 99.7593 100.064C101.789 96.7916 96.6402 93.7669 94.6104 97.0395C92.8776 99.866 91.9369 103.139 90.9468 106.411C90.2536 108.692 89.511 110.973 88.4218 113.056C87.7782 114.295 87.0356 115.535 86.0454 116.626H86.0949Z" fill="#343434"/>
<path d="M163.427 103.139C166.299 105.717 170.507 101.502 167.636 98.9239C165.853 97.2876 163.972 95.7504 162.091 94.2132C160.506 92.924 158.873 91.6843 157.189 90.4447C153.179 87.3704 149.119 84.3952 145.208 81.1721C142.238 78.7424 138.029 82.9572 141 85.3869C145.802 89.3538 150.852 92.9736 155.803 96.7917C157.585 98.1801 159.318 99.6181 161.051 101.056C161.843 101.75 162.685 102.395 163.427 103.089V103.139Z" fill="#343434"/>
<path d="M165.507 157.832C169.319 157.535 169.368 151.535 165.507 151.832C163.18 152.031 160.853 152.18 158.526 152.328C156.546 152.477 154.615 152.576 152.635 152.675C149.664 152.824 146.644 152.973 143.674 152.973C139.812 152.973 139.812 158.973 143.674 158.973C146.644 158.973 149.615 158.824 152.635 158.675C154.565 158.576 156.546 158.477 158.477 158.328C160.853 158.179 163.18 157.981 165.556 157.832H165.507Z" fill="#343434"/>
<path d="M163.972 174.245C167.685 173.204 166.101 167.452 162.388 168.493C161.051 168.84 159.764 169.237 158.427 169.634C156.447 170.179 154.516 170.824 152.585 171.518C148.674 172.906 144.961 174.642 141.594 177.072C138.525 179.352 141.495 184.509 144.614 182.228C147.09 180.394 149.813 179.055 152.585 177.914C154.516 177.121 156.447 176.427 158.427 175.832C160.259 175.286 162.14 174.741 163.972 174.245Z" fill="#343434"/>
<path d="M162.388 249.913C166.15 250.508 167.784 244.756 163.972 244.161C162.437 243.913 160.902 243.715 159.318 243.517C157.288 243.269 155.258 243.12 153.229 243.021C149.169 242.872 145.159 243.169 141.149 244.112C137.435 245.004 139.02 250.806 142.733 249.864C146.248 249.021 149.763 248.822 153.328 248.921C155.357 248.971 157.387 249.169 159.417 249.467C160.407 249.616 161.398 249.715 162.388 249.864V249.913Z" fill="#343434"/>
<path d="M245.463 251.004C242.195 252.988 245.166 258.145 248.483 256.161C251.85 254.128 255.117 252.492 258.583 251.351C260.514 250.707 262.543 250.261 264.623 249.963C266.157 249.715 267.742 249.566 269.376 249.517C273.237 249.467 273.237 243.467 269.376 243.517C267.89 243.517 266.455 243.765 265.019 243.914C262.939 244.162 260.91 244.558 258.929 245.104C254.275 246.393 249.82 248.376 245.413 251.004H245.463Z" fill="#343434"/>
<path d="M254.671 265.334C250.859 265.533 250.81 271.483 254.671 271.334C256.453 271.235 258.186 271.334 259.87 271.632C261.899 271.929 263.88 272.475 265.86 273.07C268.781 273.962 271.653 275.004 274.574 275.946C278.237 277.086 279.821 271.334 276.158 270.194C272.494 269.053 268.88 267.715 265.167 266.723C263.187 266.177 261.157 265.83 259.077 265.582C257.642 265.434 256.156 265.285 254.671 265.334Z" fill="#343434"/>
<path d="M258.781 116.378C254.968 116.626 254.919 122.626 258.781 122.378C261.652 122.18 264.524 122.378 267.395 122.775C269.524 123.023 271.653 123.37 273.782 123.667C275.069 123.866 276.356 124.064 277.643 124.163C281.455 124.56 281.406 118.61 277.643 118.163C275.96 118.015 274.277 117.767 272.643 117.519C270.514 117.221 268.385 116.924 266.256 116.676C263.781 116.378 261.305 116.229 258.731 116.378H258.781Z" fill="#343434"/>
<path d="M242.344 61.2388C241.552 65.0074 247.295 66.5941 248.087 62.8256C248.285 61.9826 248.582 61.1892 248.829 60.3463C249.424 58.6108 250.166 56.9248 251.107 55.3877C255.068 48.8919 261.801 43.8341 268.534 40.9582C272.049 39.4706 269.029 34.3136 265.514 35.8012C258.583 38.7764 251.75 43.9829 247.196 50.4787C246.156 51.9662 245.265 53.553 244.473 55.1397C243.532 57.1232 242.74 59.1066 242.294 61.2388H242.344Z" fill="#343434"/>
<path d="M235.858 53.5526C234.423 57.1228 240.215 58.66 241.601 55.1394C241.898 54.3956 242.146 53.6022 242.393 52.8584C243.037 50.875 243.582 48.8419 243.978 46.7593C245.265 39.9661 245.265 32.9248 245.265 25.9828C245.265 22.1151 239.274 22.1151 239.274 25.9828C239.274 31.1893 239.225 36.3959 238.631 41.5032C238.383 43.7346 237.987 45.9164 237.443 48.0982C236.997 49.9328 236.502 51.7675 235.809 53.5526H235.858Z" fill="#343434"/>
<path d="M159.863 412.803C163.378 414.34 166.398 409.183 162.883 407.646C160.754 406.754 158.625 406.01 156.447 405.365C154.615 404.82 152.783 404.423 150.951 404.027C145.456 402.837 139.812 402.093 134.218 401.349C130.405 400.853 130.455 406.853 134.218 407.349C139.713 408.093 145.357 408.787 150.852 410.026C152.684 410.473 154.516 410.969 156.298 411.613C157.486 412.01 158.724 412.357 159.863 412.853V412.803Z" fill="#343434"/>
<path d="M160.209 449.844C163.972 449.447 164.022 443.497 160.209 443.844C159.021 443.943 157.932 444.29 156.793 444.489C154.912 444.885 153.08 445.332 151.298 445.877C146.149 447.514 141.198 449.547 135.802 450.439C132.039 451.084 133.623 456.836 137.386 456.191C142.238 455.348 146.793 453.464 151.447 451.927C153.278 451.332 155.11 450.836 156.991 450.439C158.031 450.241 159.12 449.943 160.209 449.794V449.844Z" fill="#343434"/>
<path d="M251.107 466.356C247.245 466.207 247.295 472.207 251.107 472.356C254.028 472.455 256.899 473.05 259.721 473.794C261.999 474.439 264.226 475.183 266.454 476.075C271.158 477.91 275.762 480.092 280.416 481.678C284.079 482.968 285.614 477.166 282 475.926C276.554 474.042 271.257 471.563 265.761 469.579C263.682 468.836 261.553 468.141 259.424 467.596C256.701 466.902 253.929 466.455 251.057 466.356H251.107Z" fill="#343434"/>
<path d="M256.602 484.207C252.889 483.265 251.305 489.017 255.018 489.959C256.75 490.405 258.434 491 260.117 491.694C262.394 492.637 264.622 493.727 266.85 494.818C269.722 496.306 272.593 497.793 275.564 499.132C279.079 500.669 282.099 495.513 278.584 493.975C274.574 492.24 270.761 490.108 266.85 488.223C264.622 487.132 262.345 486.19 260.018 485.347C258.879 484.951 257.79 484.504 256.602 484.207Z" fill="#343434"/>
<path d="M323.339 433.53C321.656 430.059 316.507 433.084 318.191 436.555C319.181 438.638 320.022 440.77 320.765 442.902C321.607 445.233 322.399 447.563 323.191 449.894C323.736 451.53 324.33 453.166 324.924 454.753C326.31 458.323 332.053 456.736 330.667 453.166C329.924 451.232 329.231 449.249 328.538 447.266C327.746 444.985 326.954 442.704 326.112 440.472C325.27 438.142 324.379 435.811 323.29 433.58L323.339 433.53Z" fill="#343434"/>
<path d="M374.828 403.382C371.907 400.853 367.699 405.068 370.62 407.597C371.907 408.737 373.145 409.927 374.383 411.117C375.719 412.407 377.056 413.745 378.294 415.134C379.581 416.522 380.819 417.911 382.007 419.398C384.284 422.423 389.483 419.448 387.156 416.373C385.472 414.192 383.69 412.159 381.858 410.126C380.472 408.638 378.987 407.25 377.502 405.812C376.61 404.969 375.818 404.126 374.927 403.332L374.828 403.382Z" fill="#343434"/>
<path d="M388.641 313.234C384.78 313.234 384.78 319.185 388.641 319.234C390.325 319.234 392.008 319.234 393.691 319.234C395.721 319.234 397.751 319.333 399.731 319.433C403.444 319.631 407.158 320.077 410.821 320.871C414.584 321.664 416.168 315.912 412.405 315.119C408.395 314.276 404.336 313.78 400.276 313.532C398.395 313.433 396.464 313.334 394.582 313.284C392.602 313.284 390.622 313.234 388.641 313.234Z" fill="#343434"/>
<path d="M316.309 323.648C319.23 326.127 323.439 321.912 320.518 319.433C318.389 317.598 316.012 316.16 313.586 314.92C311.656 313.929 309.675 313.086 307.596 312.441C303.487 311.102 299.13 310.408 294.773 310.309C290.912 310.259 290.912 316.21 294.773 316.309C299.229 316.408 303.685 317.251 307.843 318.887C310.121 319.78 312.25 320.92 314.23 322.309C314.874 322.805 315.616 323.152 316.26 323.697L316.309 323.648Z" fill="#343434"/>
<path d="M315.715 272.078C319.032 274.062 322.003 268.905 318.735 266.921C317.151 265.93 315.418 265.136 313.735 264.343C311.903 263.5 310.022 262.756 308.091 262.161C303.041 260.525 297.743 259.533 292.446 259.434C288.584 259.335 288.584 265.335 292.446 265.434C298.09 265.533 303.684 266.723 308.932 268.806C310.913 269.599 312.844 270.492 314.675 271.582C315.022 271.781 315.368 271.93 315.715 272.128V272.078Z" fill="#343434"/>
<path d="M312.299 253.93C314.527 254.029 316.755 251.897 315.072 249.665C313.933 248.178 312.646 246.839 311.358 245.5C309.477 243.566 307.447 241.831 305.318 240.195C302.199 237.765 298.932 235.533 295.714 233.203C292.595 230.922 289.624 236.128 292.694 238.36C297.249 241.633 302.1 244.657 306.16 248.525C307.497 249.814 308.784 251.153 309.923 252.69C310.566 253.533 311.408 253.88 312.299 253.93Z" fill="#343434"/>
<path d="M326.755 199.385C327.449 203.154 333.192 201.567 332.498 197.799C332.201 196.212 331.756 194.675 331.261 193.138C330.617 191.104 329.874 189.121 329.132 187.138C328.637 185.749 328.191 184.41 327.746 183.022C326.211 177.667 326.112 172.212 326.062 166.659C326.062 162.791 320.072 162.791 320.072 166.659C320.072 172.807 320.369 178.658 321.953 184.609C322.498 186.741 323.29 188.824 324.082 190.906C324.825 192.89 325.518 194.923 326.062 196.956C326.26 197.749 326.508 198.542 326.656 199.385H326.755Z" fill="#343434"/>
<path d="M376.165 244.062C374.383 244.459 372.699 244.955 370.967 245.5C369.778 245.897 368.541 246.244 367.353 246.69C363.837 248.128 365.372 253.93 368.937 252.442C369.877 252.045 370.818 251.797 371.808 251.45C373.393 250.905 375.026 250.409 376.66 250.012C382.106 248.723 387.75 248.277 393.196 249.417C393.394 249.417 393.543 249.417 393.691 249.417C397.058 249.616 398.345 244.409 394.78 243.665C394.186 243.517 393.592 243.566 392.998 243.467C387.403 242.525 381.661 242.822 376.116 244.012L376.165 244.062Z" fill="#343434"/>
<path d="M360.669 357.515C357.154 359.151 360.223 364.258 363.689 362.672C363.738 362.672 363.788 362.672 363.837 362.622C366.016 361.63 368.244 361.134 370.472 360.936C373.739 360.639 377.007 360.936 380.225 361.977C383.888 363.118 385.473 357.366 381.809 356.225C378.343 355.135 374.828 354.688 371.363 354.887C369.184 354.986 367.006 355.382 364.877 356.027C363.441 356.424 362.006 356.92 360.619 357.564L360.669 357.515Z" fill="#343434"/>
<path d="M375.522 382.506C377.155 385.977 382.304 382.953 380.67 379.481C378.443 374.672 374.284 371.002 369.482 368.92C367.501 368.077 365.372 367.482 363.194 367.234C362.55 367.135 361.857 367.035 361.214 367.035C357.352 366.936 357.352 372.887 361.214 373.035C361.659 373.035 362.055 373.234 362.451 373.234C364.679 373.482 366.759 374.176 368.689 375.267C371.61 376.953 374.086 379.382 375.522 382.506Z" fill="#1A5737"/>
<path d="M311.21 396.737C311.061 396.44 310.913 396.142 310.616 395.845C309.428 394.655 308.14 393.564 306.903 392.523C302.496 388.804 297.645 385.63 292.644 382.754C292.496 382.655 292.298 382.556 292.149 382.457C289.921 381.167 287.891 383.052 287.743 384.986C287.693 385.977 288.04 386.969 289.129 387.614C293.535 390.142 297.793 392.87 301.754 395.994C303.388 397.283 304.922 398.622 306.408 400.06C308.883 402.39 312.398 399.316 311.21 396.688V396.737Z" fill="#343434"/>
<path d="M131.395 300.243C129.167 303.02 127.286 305.995 125.652 309.119C124.761 310.755 124.018 312.491 123.276 314.226C122.286 316.607 121.394 319.036 120.652 321.516C119.563 325.234 125.306 326.772 126.395 323.102C127.236 320.276 128.227 317.549 129.415 314.871C130.108 313.284 130.9 311.747 131.742 310.21C132.88 308.227 134.069 306.293 135.554 304.508C137.93 301.532 133.772 297.268 131.346 300.293L131.395 300.243Z" fill="#343434"/>
<path d="M177.24 322.259C173.378 322.16 173.378 328.16 177.24 328.259C179.913 328.309 182.587 328.755 185.161 329.399C187.34 329.945 189.419 330.639 191.449 331.581C194.964 333.218 198.281 335.399 200.955 338.325C203.578 341.151 207.787 336.936 205.163 334.11C201.4 329.994 196.647 327.019 191.449 325.036C189.419 324.292 187.389 323.647 185.26 323.201C182.587 322.656 179.913 322.309 177.24 322.259Z" fill="#343434"/>
<path d="M180.26 196.807C181.943 196.807 183.627 197.005 185.26 197.303C187.389 197.65 189.37 198.344 191.3 199.187C193.33 200.129 195.311 201.27 197.043 202.906C199.865 205.534 204.074 201.319 201.252 198.691C198.479 196.063 195.311 194.228 191.944 192.939C189.964 192.195 187.934 191.65 185.854 191.303C184.023 191.005 182.191 190.857 180.26 190.807C176.398 190.757 176.398 196.708 180.26 196.807Z" fill="#343434"/>
<path d="M240.66 151.931C241.353 151.783 242.047 151.336 242.492 150.493C243.284 149.006 244.274 147.816 245.364 146.725C247.294 144.791 249.72 143.452 252.641 142.857C256.404 142.113 254.82 136.361 251.057 137.105C248.433 137.601 246.106 138.692 243.977 140.13C241.898 141.518 240.116 143.353 238.68 145.436C238.234 146.08 237.739 146.725 237.343 147.419C236.007 149.948 238.531 152.279 240.66 151.882V151.931Z" fill="#343434"/>
<path d="M249.374 165.518C250.018 165.121 250.612 164.774 251.255 164.477C253.038 163.634 254.87 163.336 257.048 163.832C260.811 164.625 262.395 158.873 258.632 158.08C255.315 157.386 252.295 157.634 249.424 158.824C248.384 159.22 247.394 159.766 246.404 160.41C243.186 162.493 246.156 167.65 249.424 165.567L249.374 165.518Z" fill="#343434"/>
</g>
<defs>
<clipPath id="clip0_135_175">
<rect width="423" height="509" fill="white"/>
</clipPath>
</defs>
</svg>
