<svg width="521" height="521" viewBox="0 0 521 521" fill="none" xmlns="http://www.w3.org/2000/svg">
<rect width="521" height="521" rx="50" fill="#EEAABD"/>
<circle cx="56" cy="56" r="26" fill="#E67F9C"/>
<circle cx="56" cy="465" r="26" fill="#E67F9C"/>
<circle cx="465" cy="56" r="26" fill="#E67F9C"/>
<circle cx="465" cy="465" r="26" fill="#E67F9C"/>
<path d="M167.169 356.569C156.894 356.569 147.048 354.917 137.629 351.615C128.211 348.251 119.832 342.93 112.493 335.652C105.154 328.313 99.3749 318.712 95.1549 306.847C90.935 294.921 88.8556 280.396 88.9168 263.271C88.9779 247.798 90.8739 233.915 94.6045 221.623C98.3352 209.269 103.656 198.78 110.567 190.156C117.539 181.533 125.856 174.959 135.52 170.433C145.244 165.846 156.099 163.553 168.086 163.553C181.235 163.553 192.825 166.121 202.855 171.259C212.946 176.335 221.019 183.184 227.074 191.808C233.128 200.37 236.706 209.911 237.807 220.43H193.131C191.785 214.498 188.819 210.002 184.232 206.944C179.707 203.825 174.325 202.266 168.086 202.266C156.589 202.266 147.996 207.25 142.308 217.219C136.682 227.188 133.807 240.52 133.685 257.217H134.877C137.446 251.59 141.146 246.759 145.978 242.722C150.809 238.686 156.344 235.597 162.582 233.457C168.881 231.255 175.548 230.154 182.581 230.154C193.834 230.154 203.772 232.753 212.396 237.952C221.019 243.15 227.777 250.275 232.67 259.327C237.562 268.317 239.978 278.622 239.917 290.242C239.978 303.33 236.92 314.889 230.743 324.919C224.566 334.888 216.004 342.655 205.057 348.221C194.17 353.786 181.541 356.569 167.169 356.569ZM166.894 321.708C172.459 321.708 177.444 320.393 181.847 317.764C186.25 315.134 189.706 311.556 192.213 307.03C194.721 302.505 195.944 297.398 195.883 291.71C195.944 285.961 194.721 280.854 192.213 276.39C189.767 271.925 186.342 268.378 181.939 265.748C177.597 263.119 172.612 261.804 166.986 261.804C162.888 261.804 159.066 262.568 155.518 264.097C151.971 265.626 148.883 267.767 146.253 270.519C143.684 273.21 141.666 276.39 140.198 280.059C138.73 283.668 137.966 287.582 137.905 291.802C137.966 297.367 139.25 302.413 141.758 306.939C144.265 311.464 147.69 315.073 152.032 317.764C156.375 320.393 161.328 321.708 166.894 321.708ZM307.237 354L383.012 203.917V202.725H294.394V166.121H429.982V203L353.931 354H307.237Z" fill="white"/>
</svg>
