<svg width="946" height="715" viewBox="0 0 946 715" fill="none" xmlns="http://www.w3.org/2000/svg">
<g clip-path="url(#clip0_127_53)">
<path d="M745.229 542.267C702.488 536.18 729.166 483.266 749.308 464.864C754.783 459.866 777.662 447.44 778.528 445.933C779.282 444.592 776.992 439.147 777.774 435.266C779.729 425.325 793.976 418.037 803.558 419.713C803.586 363.029 794.479 307.155 787.579 251.141L822.749 243.518C825.822 244.104 826.409 251.923 827.052 254.715C831.996 276.439 835.181 305.87 837.695 328.404C840.935 357.584 842.695 387.098 844.008 416.446C845.601 421.025 861.831 420.774 864.736 439.482C865.155 442.191 863.172 445.681 864.066 448.446C864.457 449.618 877 460.816 880.296 466.512C893.007 488.46 893.901 538.33 887.029 562.344C880.492 585.129 859.205 587.838 842.751 572.62C832.331 584.403 819.537 590.742 804.2 582.728C800.01 580.55 794.283 572.843 792.272 572.48C787.244 571.615 777.327 588.983 757.549 575.161C746.43 567.37 744.475 555.084 745.285 542.24L745.229 542.267ZM797.189 556.676C797.636 567.37 803.865 575.189 814.564 576.389C840.153 579.293 833.197 556.117 838.728 554.274C846.997 551.51 843.869 569.8 858.898 572.201C869.765 573.96 874.709 571.894 877.978 561.395C886.079 535.454 886.889 462.714 853.422 453.193C848.562 451.824 834.51 452.774 833.7 448.809C831.94 440.376 854.428 445.207 855.797 443.81C857.222 421.751 826.158 424.236 810.626 425.772C803.418 426.498 781.741 430.854 787.439 440.878L814.257 441.744C823.364 456.934 809.033 449.702 802.469 449.786C767.242 450.149 718.663 495.105 735.591 531.824C749.475 536.739 749.084 515.88 753.302 505.018C756.683 496.306 761.124 487.901 767.354 480.892L773.416 481.981C769.365 496.083 759.839 507.419 756.292 522.079C753.135 535.035 749.894 557.653 761.236 567.454C780.176 583.761 790.484 554.442 792.496 554.33L797.189 556.676Z" fill="#E37091"/>
<path d="M797.189 556.676L792.496 554.33C790.484 554.442 780.176 583.761 761.236 567.454C749.866 557.653 753.135 535.063 756.292 522.079C759.867 507.419 769.365 496.11 773.416 481.981L767.354 480.892C761.124 487.901 756.683 496.334 753.302 505.018C749.084 515.88 749.475 536.739 735.592 531.824C718.663 495.105 767.242 450.149 802.469 449.786C809.033 449.73 823.392 456.934 814.257 441.744L787.439 440.878C781.713 430.854 803.418 426.498 810.626 425.772C826.186 424.236 857.25 421.751 855.797 443.81C854.428 445.207 831.94 440.376 833.7 448.809C834.538 452.802 848.562 451.824 853.422 453.193C886.917 462.686 886.107 535.454 877.978 561.395C874.709 571.894 869.765 573.96 858.898 572.201C843.869 569.772 846.997 551.482 838.729 554.274C833.197 556.117 840.153 579.293 814.565 576.389C803.865 575.161 797.636 567.37 797.189 556.676Z" fill="white"/>
<path d="M134.648 582.421C115.121 596.606 104.897 579.405 99.8966 580.355C97.8852 580.746 92.2982 588.536 88.1358 590.798C72.939 599.063 60.0329 592.976 49.4175 581.36C33.2151 596.857 11.8725 594.512 4.94459 571.838C-2.34651 547.964 -2.31858 498.065 10.0288 475.894C13.2134 470.142 25.5888 458.721 25.9519 457.549C26.79 454.784 24.7507 451.322 25.1139 448.613C27.7118 429.849 43.9143 429.821 45.4507 425.214C46.2609 395.839 47.49 366.296 50.2556 337.06C52.3787 314.498 55.0605 285.012 59.6418 263.204C60.2285 260.411 60.7034 252.593 63.7483 251.951L99.0585 258.959C93.1083 315.057 84.9791 371.099 85.9848 427.783C95.5387 425.94 109.925 433.004 112.048 442.889C112.886 446.77 110.708 452.271 111.462 453.584C112.356 455.091 135.43 467.098 140.989 472.013C161.438 490.051 189.038 542.491 146.409 549.332C147.442 562.149 145.682 574.463 134.704 582.449L134.648 582.421ZM99.3099 562.149C101.321 562.233 112.132 591.356 130.765 574.714C141.967 564.746 138.308 542.184 134.927 529.283C131.1 514.679 121.407 503.538 117.105 489.493L123.167 488.292C129.536 495.189 134.117 503.538 137.637 512.194C142.051 523 141.995 543.831 155.823 538.693C172.137 501.695 122.776 457.577 87.5492 457.8C80.9844 457.856 66.7653 465.311 75.6208 449.981L102.439 448.669C107.97 438.561 86.2083 434.568 79.001 433.982C63.4131 432.725 32.3212 430.77 34.1369 452.802C35.5058 454.17 57.9099 448.948 56.3176 457.409C55.5633 461.402 41.5119 460.676 36.6791 462.128C3.35228 472.208 5.41949 544.948 13.9956 570.721C17.4596 581.164 22.4041 583.147 33.271 581.192C48.2722 578.512 44.8082 560.278 53.1329 562.903C58.692 564.662 52.1273 587.95 77.6601 584.599C88.3314 583.203 94.4492 575.301 94.7006 564.578L99.3379 562.149H99.3099Z" fill="#E37091"/>
<path d="M94.6447 564.578L99.2819 562.149C101.293 562.232 112.104 591.356 130.737 574.714C141.939 564.746 138.28 542.184 134.899 529.283C131.072 514.679 121.379 503.538 117.077 489.493L123.139 488.292C129.508 495.189 134.089 503.538 137.609 512.194C142.023 523 141.967 543.831 155.795 538.693C172.109 501.695 122.748 457.577 87.5212 457.8C80.9564 457.856 66.7373 465.311 75.5928 449.981L102.411 448.669C107.942 438.561 86.1803 434.568 78.973 433.981C63.3851 432.725 32.2931 430.77 34.1089 452.802C35.4778 454.17 57.8818 448.948 56.2895 457.409C55.5353 461.402 41.4838 460.676 36.651 462.128C3.32426 472.208 5.39147 544.948 13.9676 570.721C17.4316 581.164 22.3761 583.147 33.2429 581.192C48.2442 578.512 44.7802 560.278 53.1049 562.903C58.664 564.662 52.0992 587.95 77.6321 584.599C88.3034 583.203 94.4212 575.301 94.6726 564.578H94.6447Z" fill="white"/>
<path d="M939.491 47.7765C954.576 77.2075 941.586 109.766 919.294 165.668C901.834 209.396 882.028 240.586 864.68 266.498L810.989 209.368L787.439 231.455L845.88 293.64C816.743 333.849 790.317 361.409 764.923 387.657C723.775 430.212 705.477 441.66 687.878 449.423C659.831 461.793 633.739 464.585 616.029 464.948C607.76 465.144 599.491 465.367 591.222 465.562C545.213 466.707 499.175 467.824 453.166 468.969C452.104 467.098 451.015 465.255 449.897 463.468C480.934 456.292 512.277 443.447 541.777 419.964C550.548 412.983 563.817 402.54 576.724 388.746C617.174 362.61 654.551 337.591 690.141 292.551C730.591 241.34 774.002 157.514 748.972 130.373C743.078 124.007 735.144 121.689 729.613 121.717C666.563 121.801 603.486 121.884 540.408 121.996C538.787 81.3959 537.139 40.7957 535.491 0.195435H842.891C854.344 0.86559 917.869 5.55668 939.491 47.7765Z" fill="#E37091"/>
<path d="M810.989 209.368L864.68 266.498C863.088 268.872 861.524 271.162 859.987 273.451C855.21 280.544 850.517 287.245 845.88 293.64L787.439 231.455L810.989 209.368Z" fill="#E37091"/>
<path d="M535.156 177.2C576.752 198.896 616.448 247.231 616.029 301.207C615.721 338.149 596.669 367.441 576.724 388.746C575.969 389.249 575.187 389.723 574.433 390.226C543.313 410.331 500.321 434.819 445.4 456.683C439.142 447.831 432.159 440.515 424.337 435.573C386.903 411.922 336.564 425.353 295.527 429.262V465.758L295.36 473.939C269.659 473.465 244.042 471.315 219.04 465.088C224.069 435.796 215.269 404.634 189.457 375.036L164.455 401.646C179.149 419.741 184.568 436.969 183.311 453.025C167.22 445.933 151.521 436.578 136.352 424.236C68.9721 369.367 57.2952 288.837 54.8369 268.509C53.5798 258.177 52.1271 240.446 53.9709 218.303L86.8507 279.762L115.345 264.544L63.6085 167.846C66.5138 158.268 70.1454 148.356 74.6988 138.303C82.5487 120.963 101.237 80.9771 143.922 49.4518C180.294 22.5898 215.325 15.7765 256.138 7.81843C288.46 1.50779 311.562 0.614254 394.139 0.195407C434.784 -0.0279781 482.274 -0.0838244 535.491 0.195407H530.183C533.592 40.7957 537 81.3959 540.408 121.996C529.094 121.801 506.69 121.438 483.755 121.047C469.983 90.1079 438.947 68.5233 402.854 68.5233C366.762 68.5233 337.486 88.9072 323.183 118.478H322.988C295.611 118.171 299.159 118.422 296.561 118.31C281.587 90.7222 252.367 71.9858 218.761 71.9858C193.563 71.9858 170.824 82.5128 154.733 99.4063C139.592 115.295 130.29 136.768 130.29 160.418C130.29 209.256 169.902 248.851 218.761 248.851C267.62 248.851 304.634 211.797 307.12 165.165C309.634 165.221 312.177 165.277 314.775 165.333C318.993 210.261 356.817 245.416 402.854 245.416C448.892 245.416 486.66 210.345 490.962 165.472C508.589 166.617 520.853 169.745 535.156 177.2ZM455.093 374.142C465.541 370.903 470.262 341.528 461.463 318.156C448.054 282.61 406.737 269.765 386.373 263.455C335.922 247.79 293.153 260.802 276.894 265.996C252.591 273.758 211.638 286.854 200.519 320.697C194.932 337.73 196.748 360.404 206.889 365.235C217.057 370.065 228.259 353.395 261.614 333.43C285.945 318.854 308.461 305.395 336.704 305.451C369.165 305.507 394.697 323.378 405.452 330.889C437.41 353.256 444.925 377.297 455.093 374.142Z" fill="#E37091"/>
<path d="M574.433 390.226C575.187 389.723 575.969 389.249 576.724 388.746C563.817 402.54 550.548 412.983 541.777 419.964C512.277 443.447 480.934 456.292 449.897 463.468C448.445 461.123 446.936 458.861 445.4 456.683C500.321 434.819 543.313 410.331 574.433 390.226Z" fill="#E37091"/>
<path d="M535.491 0.195435C537.14 40.7957 538.788 81.3959 540.408 121.996C537 81.3959 533.592 40.7957 530.184 0.195435H535.491Z" fill="#E37091"/>
<path d="M458.39 164.97C471.352 164.802 481.883 164.858 490.962 165.472C486.66 210.345 448.864 245.416 402.854 245.416C356.845 245.416 318.993 210.261 314.774 165.333C318.015 165.389 321.311 165.472 324.691 165.528C332.625 165.668 340.223 165.78 347.459 165.835C351.705 192.614 374.891 213.054 402.854 213.054C430.818 213.054 454.507 192.167 458.39 164.97Z" fill="white"/>
<path d="M458.977 156.956C458.977 142.994 453.864 130.233 445.372 120.405C456.993 120.6 470.458 120.823 483.755 121.047C488.644 132.021 491.354 144.167 491.354 156.956C491.354 159.832 491.214 162.68 490.962 165.472C481.883 164.858 471.352 164.802 458.39 164.97C458.781 162.345 458.977 159.692 458.977 156.956Z" fill="white"/>
<path d="M458.977 156.956C458.977 159.692 458.781 162.345 458.39 164.97C433.165 165.249 398.692 166.338 347.459 165.836C347.012 162.959 346.761 159.972 346.761 156.956C346.761 148.663 348.577 140.761 351.845 133.668C355.113 135.316 358.773 136.265 362.684 136.265C373.439 136.265 382.518 129.172 385.535 119.427C395.228 119.595 404.922 119.734 414.616 119.902C419.281 119.986 430.846 120.181 445.372 120.405C453.865 130.233 458.977 142.994 458.977 156.956Z" fill="#E37091"/>
<path d="M453.166 468.969C438.556 469.332 423.946 469.695 409.335 470.058C422.661 468.69 436.237 466.624 449.897 463.468C451.015 465.255 452.104 467.098 453.166 468.969Z" fill="#E37091"/>
<path d="M449.897 463.468C436.237 466.624 422.661 468.69 409.335 470.058C421.878 465.758 433.918 461.29 445.4 456.683C446.936 458.861 448.445 461.123 449.897 463.468Z" fill="#E37091"/>
<path d="M458.39 164.97C454.507 192.167 431.125 213.054 402.855 213.054C374.584 213.054 351.705 192.614 347.459 165.836C398.692 166.338 433.164 165.249 458.39 164.97Z" fill="#E37091"/>
<path d="M424.337 435.573C432.159 440.516 439.142 447.831 445.4 456.683C433.919 461.29 421.878 465.758 409.336 470.058C408.916 470.114 408.47 470.17 408.051 470.198C399.53 462.966 388.803 459.559 372.154 458.442L295.555 465.758V429.262C336.592 425.353 386.931 411.922 424.365 435.573H424.337Z" fill="#E37091"/>
<path d="M372.125 458.442C388.775 459.559 399.502 462.966 408.022 470.198C387.825 472.236 368.187 472.795 349.749 473.297C331.731 473.8 313.517 474.275 295.359 473.939L295.527 465.758L372.125 458.442Z" fill="#E37091"/>
<path d="M385.535 119.427C386.233 117.193 386.596 114.82 386.596 112.363C386.596 109.347 386.038 106.443 385.004 103.79C390.619 101.92 396.625 100.886 402.855 100.886C419.867 100.886 435.12 108.454 445.372 120.405C430.846 120.181 419.28 119.986 414.615 119.902C404.922 119.734 395.228 119.595 385.535 119.427Z" fill="#E37091"/>
<path d="M386.596 112.363C386.596 114.82 386.233 117.193 385.535 119.427C384.92 119.427 384.278 119.399 383.663 119.399C374.975 119.26 367.852 119.12 361.566 119.008C367.908 112.111 375.925 106.834 385.004 103.79C386.038 106.443 386.596 109.347 386.596 112.363Z" fill="white"/>
<path d="M383.663 119.399C384.278 119.399 384.92 119.427 385.535 119.427C382.518 129.172 373.439 136.265 362.684 136.265C358.773 136.265 355.113 135.316 351.845 133.668C354.303 128.279 357.599 123.309 361.566 119.008C367.852 119.12 374.975 119.26 383.663 119.399Z" fill="white"/>
<path d="M362.684 88.4606C372.88 88.4606 381.568 94.827 385.004 103.79C375.925 106.834 367.907 112.111 361.566 119.008C353.297 118.897 346.537 118.785 339.637 118.701C339.078 116.691 338.771 114.569 338.771 112.363C338.771 99.1551 349.47 88.4606 362.684 88.4606Z" fill="white"/>
<path d="M361.566 119.008C357.6 123.309 354.303 128.279 351.845 133.668C345.923 130.652 341.425 125.235 339.637 118.701C346.537 118.785 353.298 118.897 361.566 119.008Z" fill="white"/>
<path d="M351.844 133.668C348.576 140.761 346.76 148.663 346.76 156.956C346.76 159.972 347.012 162.959 347.459 165.836C340.223 165.78 332.625 165.668 324.691 165.528C321.311 165.473 318.015 165.389 314.774 165.333C314.523 162.569 314.383 159.776 314.383 156.956C314.383 143.162 317.54 130.122 323.183 118.478C329.189 118.534 334.441 118.618 339.637 118.701C341.425 125.235 345.922 130.652 351.844 133.668Z" fill="white"/>
<path d="M362.684 88.4606C349.47 88.4606 338.771 99.1551 338.771 112.363C338.771 114.569 339.078 116.691 339.637 118.701C334.441 118.618 329.189 118.534 323.183 118.478C337.486 88.9073 367.796 68.5234 402.855 68.5234C437.913 68.5234 469.983 90.108 483.755 121.047C470.458 120.823 456.993 120.6 445.372 120.405C435.12 108.454 419.867 100.886 402.855 100.886C396.625 100.886 390.619 101.92 385.004 103.79C381.568 94.827 372.88 88.4606 362.684 88.4606Z" fill="white"/>
<path d="M307.12 165.165C295.024 164.858 284.157 164.551 274.743 164.188C274.827 162.931 274.883 161.675 274.883 160.418C274.883 144.921 268.569 130.848 258.373 120.712C260.356 117.473 266.698 118.087 270.86 118.394C279.297 119.008 287.789 117.891 296.225 118.31H296.561C303.377 130.82 307.232 145.172 307.232 160.418C307.232 162.01 307.176 163.602 307.12 165.165Z" fill="white"/>
<path d="M274.743 164.188C284.158 164.551 295.024 164.858 307.12 165.165C304.634 211.797 266.028 248.851 218.761 248.851C171.495 248.851 130.29 209.256 130.29 160.418C130.29 136.768 139.592 115.295 154.733 99.4064L160.125 100.607C156.689 104.74 154.65 110.045 154.65 115.825C154.65 125.124 159.957 133.165 167.723 137.103C164.455 144.195 162.639 152.097 162.639 160.418C162.639 191.413 187.753 216.516 218.761 216.516C249.769 216.516 272.816 193.424 274.743 164.188Z" fill="white"/>
<path d="M257.815 137.298C257.759 135.455 257.731 133.277 257.982 125.235C258.094 121.438 258.122 121.103 258.373 120.712C268.57 130.848 274.883 144.921 274.883 160.419C274.883 161.675 274.827 162.932 274.743 164.188C268.709 164.021 263.29 163.797 258.541 163.602C258.541 159.665 258.485 156.23 258.429 153.466C258.373 151.706 258.262 146.876 257.982 140.509C257.871 137.996 257.871 138.359 257.815 137.298Z" fill="#E37091"/>
<path d="M218.761 104.321C234.237 104.321 248.233 110.576 258.373 120.712C258.122 121.103 258.094 121.438 257.982 125.235C257.731 133.277 257.759 135.455 257.815 137.298C257.87 138.359 257.87 137.996 257.982 140.509C258.262 146.876 258.373 151.706 258.429 153.466C258.485 156.23 258.541 159.665 258.541 163.602C263.29 163.797 268.709 164.021 274.743 164.188C272.816 193.424 248.484 216.516 218.761 216.516C189.038 216.516 162.639 191.413 162.639 160.419C162.639 152.097 164.455 144.195 167.723 137.103C170.992 138.778 174.679 139.727 178.59 139.727C191.776 139.727 202.503 129.033 202.503 115.825C202.503 112.782 201.944 109.906 200.91 107.225C206.525 105.326 212.532 104.321 218.761 104.321Z" fill="#E37091"/>
<path d="M189.457 375.036C215.269 404.634 224.069 435.796 219.041 465.088C206.973 462.1 195.044 458.163 183.311 453.025C184.568 436.969 179.149 419.741 164.455 401.646L189.457 375.036Z" fill="#E37091"/>
<path d="M200.91 107.225C201.944 109.905 202.503 112.782 202.503 115.825C202.503 129.033 191.775 139.727 178.59 139.727C174.679 139.727 170.992 138.778 167.723 137.103C174.12 123.085 186.132 112.167 200.91 107.225Z" fill="white"/>
<path d="M178.59 91.923C188.758 91.923 197.446 98.2895 200.91 107.225C186.132 112.167 174.12 123.085 167.723 137.103C159.957 133.165 154.649 125.124 154.649 115.825C154.649 110.045 156.689 104.74 160.125 100.607C164.511 95.3017 171.159 91.923 178.59 91.923Z" fill="white"/>
<path d="M178.59 91.923C171.159 91.923 164.511 95.3017 160.125 100.607L154.733 99.4064C170.824 82.5129 193.563 71.9858 218.761 71.9858C252.367 71.9858 281.587 90.7223 296.561 118.31H296.226C287.789 117.891 279.297 119.008 270.86 118.394C266.698 118.087 260.357 117.473 258.373 120.684C248.233 110.576 234.237 104.321 218.761 104.321C212.531 104.321 206.525 105.326 200.91 107.225C197.446 98.2894 188.759 91.923 178.59 91.923Z" fill="white"/>
<path d="M63.6086 167.846L115.345 264.544L86.8508 279.762L53.9709 218.303C55.256 203.225 58.0774 186.08 63.6086 167.846Z" fill="#E37091"/>
<path d="M547.168 564.466C573.316 567.566 590.691 584.096 579.573 610.707C598.765 613.192 616.112 598.784 633.907 596.829C671.34 592.697 706.762 617.353 708.522 656.417C708.857 663.789 703.661 678.7 704.332 683.223C704.555 684.675 724.25 694.393 709.137 706.679C692.096 709.555 674.274 711.342 657.065 712.431C601.921 715.977 536.162 715.726 481.269 710.113C471.743 709.136 450.568 701.513 448.864 701.513C447.16 701.513 425.985 709.136 416.459 710.113C351.761 716.703 268.681 716.564 203.927 709.834C199.737 709.387 190.379 707.88 187.278 705.674C178.451 699.363 180.937 683.531 193.228 684.675C175.098 634.414 212.057 588.899 265.553 597.388C274.743 598.84 312.093 616.152 318.155 610.707C304.383 583.901 324.384 566.393 350.56 564.466V465.032H399.139V565.639C413.498 573.458 430.008 575.636 436.265 593.283C442.886 611.936 429.98 613.862 429.98 621.15C429.98 623.245 441.74 641.869 442.914 651.419C445.093 669.29 431.628 680.682 448.92 691.684L458.837 681.381C454.004 671.356 453.361 657.813 454.898 646.784C456.155 637.792 466.268 624.11 466.268 621.15C466.268 617.381 460.289 613.192 459.395 607.105C456.239 585.688 477.162 570.191 496.354 569.102V465.032H547.252V564.466H547.168ZM704.5 694.002C630.359 698.972 555.241 702.379 481.213 694.002L459.284 695.147C462.049 699.419 465.43 698.358 469.536 698.721C535.212 704.808 632.035 709.024 696.398 698.609C699.834 698.051 703.55 698.469 704.472 694.002H704.5ZM512.277 613.192L513.73 620.033C505.07 630.812 489.314 624.361 479.341 627.349C465.402 631.51 461.016 675.461 474.648 684.34L617.816 689.45L686.705 684.285C703.997 666.86 695.532 634.637 677.821 620.033C645.64 593.478 599.603 612.773 592.004 652.452L584.154 651C581.724 639.44 588.429 632.403 591.11 622.295C581.696 625.367 571.723 618.107 564.348 617.8C555.688 617.437 545.045 625.367 537.922 614.169C536.078 605.346 563.901 610.26 569.181 601.52C575.243 584.487 560.605 579.433 547.224 575.999C544.207 594.958 518.702 598.784 504.651 589.597C500.6 586.944 498.449 580.662 497.08 580.438C485.208 578.54 462.217 597.89 473.754 610.093C484.062 621.011 509.204 610.791 512.277 613.136V613.192ZM193.2 698.581C249.685 702.072 306.59 705.422 363.326 703.3C383.495 702.546 407.911 700.759 428.052 698.609C431.209 698.274 436.237 697.52 438.416 695.119C432.689 691.572 421.012 693.583 414.14 693.974C338.687 698.246 278.096 695.482 203.676 693.862C198.871 693.75 191.301 691.712 193.172 698.581H193.2ZM214.822 623.105C200.128 637.904 194.849 667.614 208.509 684.424C232.394 687.244 256.027 686.518 280.023 686.937C315.166 687.524 350.923 686.742 386.401 684.759C395.899 684.229 412.939 686.63 420.649 684.285C434.757 680.012 433.5 630.477 414.112 626.958C402.966 624.948 380.423 631.957 382.937 613.053C395.452 612.243 406.151 618.833 418.303 612.522C437.047 602.777 410.816 576.445 399.223 581.723C396.681 582.896 393.636 588.006 389.194 590.379C378.97 595.796 368.941 595.712 358.996 589.569C348.716 583.231 352.264 571.363 334.469 581.918C309.635 596.662 339.078 613.304 357.516 608.417L357.236 616.236C354.554 624.334 336.955 617.939 331.201 618.386C323.127 619.028 312.316 625.395 301.98 622.295C305.528 626.651 317.596 649.716 307.567 652.257C299.215 654.379 298.293 640.445 295.108 634.916C278.151 605.681 239.321 598.477 214.878 623.105H214.822Z" fill="#E37091"/>
<path d="M512.277 613.192C509.176 610.819 484.034 621.039 473.754 610.149C462.217 597.918 485.208 578.595 497.08 580.494C498.421 580.718 500.6 587 504.651 589.653C518.702 598.812 544.207 595.014 547.224 576.054C560.605 579.489 575.243 584.543 569.181 601.576C563.901 610.288 536.106 605.374 537.921 614.225C545.073 625.45 555.688 617.492 564.348 617.855C571.723 618.163 581.668 625.423 591.11 622.351C588.428 632.487 581.724 639.496 584.154 651.056L592.004 652.508C599.63 612.829 645.64 593.534 677.821 620.089C695.532 634.693 703.997 666.944 686.705 684.34L617.816 689.506L474.648 684.396C461.016 675.489 465.402 631.566 479.341 627.405C489.314 624.417 505.07 630.868 513.73 620.089L512.277 613.248V613.192Z" fill="white"/>
<path d="M214.822 623.105C239.265 598.477 278.068 605.681 295.052 634.916C298.265 640.445 299.159 654.379 307.511 652.257C317.512 649.716 305.444 626.651 301.924 622.295C312.26 625.395 323.071 619 331.145 618.386C336.899 617.939 354.498 624.306 357.18 616.236L357.46 608.417C339.05 613.304 309.579 596.662 334.413 581.918C352.208 571.363 348.688 583.231 358.94 589.569C368.885 595.684 378.886 595.796 389.138 590.379C393.58 588.033 396.625 582.896 399.167 581.723C410.76 576.445 436.991 602.777 418.247 612.522C406.095 618.833 395.424 612.243 382.881 613.053C380.367 631.957 402.91 624.948 414.056 626.958C433.444 630.477 434.701 680.012 420.593 684.285C412.911 686.602 395.843 684.229 386.345 684.759C350.867 686.742 315.11 687.524 279.967 686.937C255.971 686.518 232.338 687.244 208.453 684.424C194.793 667.614 200.072 637.904 214.766 623.105H214.822Z" fill="white"/>
<path d="M704.499 694.002C703.55 698.498 699.862 698.051 696.426 698.609C632.035 708.997 535.24 704.808 469.564 698.721C465.457 698.33 462.077 699.419 459.312 695.147L481.241 694.002C555.269 702.407 630.387 698.972 704.527 694.002H704.499Z" fill="white"/>
<path d="M193.2 698.581C191.328 691.712 198.899 693.751 203.704 693.862C278.123 695.482 338.715 698.274 414.168 693.974C421.012 693.583 432.717 691.573 438.444 695.119C436.265 697.52 431.237 698.274 428.08 698.609C407.939 700.759 383.523 702.546 363.354 703.3C306.617 705.395 249.713 702.072 193.228 698.581H193.2Z" fill="white"/>
<path d="M150.152 198.673C150.152 198.673 114.981 242.624 114.981 268.984C114.981 295.343 155.18 289.06 160.209 275.266C165.237 261.472 143.867 221.291 150.152 198.673Z" fill="#FFE4ED"/>
<path d="M160.181 297.856C160.181 297.856 125.01 341.807 125.01 368.167C125.01 394.526 165.209 388.243 170.237 374.449C175.266 360.655 153.895 320.474 160.181 297.856Z" fill="#FFE4ED"/>
<path d="M484.816 184.963C484.816 184.963 520.657 228.355 521.076 254.715C521.495 281.074 481.213 275.434 475.961 261.696C470.709 247.958 491.437 207.469 484.816 184.963Z" fill="#FFE4ED"/>
<path d="M476.324 284.313C476.324 284.313 512.165 327.706 512.584 354.065C513.003 380.425 472.721 374.784 467.469 361.046C462.217 347.308 482.945 306.82 476.324 284.313Z" fill="#FFE4ED"/>
</g>
<defs>
<clipPath id="clip0_127_53">
<rect width="946" height="715" fill="white"/>
</clipPath>
</defs>
</svg>
