<svg width="520" height="617" viewBox="0 0 520 617" fill="none" xmlns="http://www.w3.org/2000/svg">
<g clip-path="url(#clip0_143_636)">
<path d="M172.91 607.33C168.73 609.24 172.56 599.05 169.79 596.47C169.58 595.16 169.63 593.14 169.78 591.76C171.4 577.26 169.79 562.49 170.6 547.39C170.83 543.06 171.09 539.13 169.87 535.43C169.47 534.24 169.84 532.09 169.79 530.79C169.71 528.33 171.58 523.26 168.86 521.34C163.78 519.4 157.63 520.99 152.45 520.51C152.03 524.55 152.87 527.52 153.11 530.73C153.27 532.89 153.04 535.11 153.04 537.28L153.06 590.6C153.06 593.19 153.36 595.83 153.82 598.38C151.35 601.18 153.08 605.09 151.89 608.37L43.15 608.3L43.26 607.38L43.01 520.61L150.07 520.4C151.96 520.4 150.56 516.47 148.89 515.93C155.26 514.7 161.87 516.55 167.98 514.65C171.24 515.89 173.46 519.63 173.42 523.35L173.24 539.51L172.92 607.33H172.91ZM51 530.43C48.94 534.39 50.6 539.17 55.23 540.84C58.68 542.08 62.1 541.32 64.16 538.51C66.22 535.7 65.98 532.59 63.61 529.62C61.94 527.53 60.73 525.56 57.39 525.99C54.87 526.32 52.07 527 50.99 530.43H51ZM52.06 589.15C50.19 591.05 49.39 593.5 50.25 596.63C50.83 598.71 53.03 601.19 56.03 601.9C59.48 602.72 62.33 601.95 64.13 599.5C66.44 596.36 65.38 593.9 63.66 590.63C61.36 586.24 56.28 585.68 52.06 589.15Z" fill="#EC8E1D"/>
<path d="M167.98 514.65C161.87 516.55 155.26 514.7 148.89 515.93C150.55 516.48 151.95 520.4 150.07 520.4L43.01 520.61L43.26 607.38L40.89 607.44L24.92 607.53C24.19 607.53 23.39 607.79 23.8 608.38L8.83999 608.65C7.54999 608.67 7.03999 608.2 7.02999 607.19C8.30999 606.83 2.85999 603.8 4.15999 602.64C5.90999 595.42 3.14999 590.74 3.10999 583.07L4.67999 533.05C4.65999 529.66 5.64999 517.41 7.82999 514.65C11.81 509.6 29.18 513.92 36.15 508.87C33.18 504.17 26.75 514.15 17.88 513.2C36.74 511.54 157.16 510.53 167.96 514.65H167.98ZM15.9 531.43C15.37 536.17 17.64 539.87 22.65 541.86C25.73 543.08 29.26 541.23 30.75 538.69C32.61 535.52 32.43 531.63 29.82 528.59C28.07 526.54 25.6 525.61 22.69 526.13C20.11 526.59 17.76 528.7 15.89 531.44L15.9 531.43ZM16.96 597.46C17.9 600.83 21.76 602.51 24.4 602.62C28.51 602.79 31.34 600.42 31.92 597.03C32.68 592.6 30.87 590.51 28.01 588.62C25.15 586.73 22.15 585.87 18.29 589.16C16.01 591.11 14.44 595.12 16.96 597.46Z" fill="#FDD939"/>
<path d="M172.91 607.33C172.91 608.06 171.97 608.68 170.91 608.66L151.89 608.37C153.08 605.09 151.35 601.18 153.82 598.38C155.32 598.72 156.38 600.32 157.87 601.13C162.97 603.89 167.1 600.55 169.8 596.47C172.57 599.05 168.74 609.25 172.92 607.33H172.91Z" fill="#B46320"/>
<path d="M40.9 607.43V608.43L23.82 608.37C23.41 607.78 24.21 607.52 24.94 607.52L40.91 607.43H40.9Z" fill="#EC8E1D"/>
<path d="M43.26 607.37L43.15 608.29L40.9 608.43V607.43L43.26 607.37Z" fill="#B46320"/>
<path d="M169.78 591.75C168.25 592.26 167.89 590.31 166.99 589.39C162.54 584.86 157.09 586.95 153.06 590.59L153.04 537.27C155.04 537 156.09 539.33 157.79 540.26C162.93 543.09 167.11 539.41 169.88 535.42C171.1 539.12 170.84 543.05 170.61 547.38C169.8 562.47 171.41 577.25 169.79 591.75H169.78Z" fill="#B46320"/>
<path d="M169.8 530.79C169.84 532.09 169.48 534.23 169.88 535.43C167.11 539.42 162.93 543.11 157.79 540.27C156.1 539.34 155.05 537.01 153.04 537.28C153.04 535.12 153.26 532.9 153.11 530.73C154.48 532.87 155.24 525.82 160.47 525.79C166.64 525.75 166.19 530.99 169.8 530.79ZM156.77 534.49C157.34 536.48 159.14 537.86 161.21 537.89C163.28 537.92 165.12 536.58 165.74 534.61C166.36 532.64 165.61 530.49 163.89 529.33C162.17 528.17 160.12 528.27 158.53 529.42C156.94 530.57 156.24 532.6 156.78 534.49H156.77Z" fill="#502E14"/>
<path d="M169.8 530.79C166.19 530.99 166.64 525.76 160.47 525.79C155.25 525.82 154.48 532.86 153.11 530.73C152.88 527.51 152.03 524.54 152.45 520.51C157.63 521 163.78 519.4 168.86 521.34C171.58 523.26 169.71 528.34 169.79 530.79H169.8Z" fill="#B46320"/>
<path d="M169.78 591.75C169.63 593.13 169.58 595.15 169.79 596.46C167.1 600.54 162.97 603.87 157.86 601.12C156.37 600.32 155.31 598.72 153.81 598.37C153.35 595.82 153.05 593.18 153.05 590.59C157.09 586.95 162.53 584.86 166.98 589.39C167.88 590.31 168.24 592.26 169.77 591.75H169.78ZM157.01 595.41C156.97 597.26 158.45 598.46 159.95 599.01C161.77 599.68 163.52 599.06 165 597.52C166.26 596.21 167.03 594.75 166.74 593.18C166.43 591.52 165.24 589.95 162.69 589.57C161.05 589.33 159.22 589.28 157.73 590.48C156.52 591.46 156.07 593.35 157.01 595.41Z" fill="#502E14"/>
<path d="M54.93 589.4C54.67 589.76 54.47 590.27 54.07 590.51L52.82 591.28C50.81 592.51 52.42 594.19 52.73 595.53C53.43 598.55 55.98 599.67 58.99 598.77C61.71 597.95 63.11 595.31 62.91 592.5C62.87 591.92 63.11 590.89 63.67 590.64C65.38 593.9 66.45 596.36 64.14 599.51C62.34 601.96 59.49 602.74 56.04 601.91C53.04 601.19 50.84 598.72 50.26 596.64C49.39 593.51 50.2 591.06 52.07 589.16C52.99 588.47 54.19 588.5 54.94 589.4H54.93Z" fill="#502E14"/>
<path d="M51 530.43C51.28 531.86 51.88 533.44 52.87 534.3C52.92 537.27 55.94 538.93 58.94 537.99C61.71 537.13 63.1 534.38 62.79 531.51C62.72 530.88 62.87 529.73 63.61 529.62C65.98 532.59 66.14 535.81 64.16 538.51C62.18 541.21 58.67 542.08 55.23 540.84C50.6 539.17 48.94 534.39 51 530.43Z" fill="#502E14"/>
<path d="M63.61 529.62C62.87 529.73 62.72 530.88 62.79 531.51C61.77 530.09 60.89 528.71 59.06 528.64C57.46 528.58 55.94 528.2 54.29 529.29C52.64 530.38 53.16 532.31 52.87 534.3C51.88 533.44 51.28 531.86 51 530.43C52.08 527.01 54.87 526.32 57.4 525.99C60.73 525.56 61.95 527.53 63.62 529.62H63.61Z" fill="#B46320"/>
<path d="M63.66 590.63C63.09 590.88 62.86 591.9 62.9 592.49C61.81 591.58 61.13 590.13 59.74 589.64C58.2 589.09 56.52 589.18 54.93 589.39C54.18 588.48 52.98 588.46 52.06 589.15C56.28 585.69 61.36 586.25 63.66 590.63Z" fill="#B46320"/>
<path d="M29.83 528.58C32.43 531.63 32.62 535.52 30.76 538.68C29.26 541.22 25.74 543.07 22.66 541.85C17.65 539.86 15.37 536.16 15.91 531.42C17.5 531.63 17.77 533.37 18.61 534.51C18.64 534.85 18.78 535.32 18.93 535.62C20.4 538.48 23.88 538.88 26.33 537.34C28.78 535.8 29.95 532.7 28.19 530.32C28.23 530.02 28.25 529.71 28.25 529.41C28.65 528.94 29.3 528.83 29.84 528.58H29.83Z" fill="#502E14"/>
<path d="M16.96 597.46C16.34 595.22 16.58 591.62 18.49 590.38C19.51 592.13 17.48 593.35 18.9 594.43C18.89 595.02 19.45 595.8 19.57 596.35C20.37 599.92 24.62 599.72 26.88 597.86C29.26 595.91 30.36 591.99 27.72 590.37C27.47 590.22 27.37 589.65 27.02 589.59L28.01 588.61C30.88 590.5 32.68 592.59 31.92 597.02C31.34 600.41 28.51 602.78 24.4 602.61C21.77 602.5 17.9 600.82 16.96 597.45V597.46Z" fill="#502E14"/>
<path d="M29.83 528.58C29.29 528.84 28.64 528.95 28.24 529.41C27.05 529.35 25.99 528.54 24.85 528.37C22.79 528.05 20.89 528.68 19.87 530.4C19.12 531.66 18.45 532.89 18.6 534.53C17.77 533.39 17.49 531.65 15.9 531.44C17.77 528.7 20.12 526.6 22.7 526.13C25.61 525.61 28.08 526.54 29.83 528.59V528.58Z" fill="#B46320"/>
<path d="M28 588.62L27.01 589.6C26.31 589.48 25.59 589.47 24.89 589.4C23.64 589.28 22.3 589.15 20.9 589.97C20.15 590.41 20.16 591.51 19.9 592.49C19.74 593.1 18.72 593.61 18.9 594.43C17.48 593.35 19.52 592.13 18.49 590.38C16.57 591.62 16.33 595.22 16.96 597.46C14.44 595.12 16.01 591.11 18.29 589.16C22.14 585.87 25.01 586.64 28.01 588.62H28Z" fill="#B46320"/>
<path d="M156.77 534.49C159.76 533.58 163.53 532.74 163.89 529.33C165.6 530.49 166.36 532.63 165.74 534.61C165.12 536.59 163.28 537.92 161.21 537.89C159.14 537.86 157.34 536.48 156.77 534.49Z" fill="#C55318"/>
<path d="M163.88 529.33C163.52 532.74 159.75 533.58 156.76 534.49C156.22 532.6 156.92 530.57 158.51 529.42C160.1 528.27 162.24 528.23 163.87 529.33H163.88Z" fill="#EC8E1D"/>
<path d="M157.01 595.41C160.25 595.66 161.89 592.39 162.69 589.57C165.25 589.95 166.43 591.53 166.74 593.18C167.03 594.75 166.26 596.21 165 597.52C163.52 599.06 161.77 599.68 159.95 599.01C158.45 598.46 156.97 597.26 157.01 595.41Z" fill="#C55318"/>
<path d="M162.69 589.58C161.89 592.4 160.25 595.67 157.01 595.42C156.06 593.36 156.52 591.47 157.73 590.49C159.22 589.29 161.06 589.33 162.69 589.58Z" fill="#EC8E1D"/>
<path d="M62.9 592.49C63.1 595.3 61.7 597.94 58.98 598.76C55.98 599.66 53.43 598.54 52.72 595.52C53.16 594.14 53.14 592.68 52.81 591.27L54.06 590.5C54.24 591.42 53.5 592.88 54.25 594.22C55.13 595.78 57.8 594.42 58.89 593.76C60.14 593.01 59.86 590.89 59.73 589.63C61.12 590.12 61.8 591.57 62.89 592.48L62.9 592.49Z" fill="#EC8E1D"/>
<path d="M59.74 589.64C59.87 590.9 60.15 593.01 58.9 593.77C57.81 594.43 55.13 595.79 54.26 594.23C53.51 592.89 54.26 591.43 54.07 590.51C54.47 590.27 54.67 589.76 54.93 589.4C56.52 589.19 58.2 589.1 59.74 589.65V589.64Z" fill="#F5EB9C"/>
<path d="M52.73 595.52C52.42 594.19 50.81 592.5 52.82 591.27C53.14 592.67 53.17 594.14 52.73 595.52Z" fill="#B46320"/>
<path d="M62.79 531.51C63.1 534.38 61.7 537.13 58.94 537.99C55.94 538.93 52.92 537.26 52.87 534.3C54.51 534.07 56.62 535.06 58.47 534.02C60.44 532.91 60.28 529.98 59.06 528.65C60.89 528.72 61.77 530.09 62.79 531.52V531.51Z" fill="#EC8E1D"/>
<path d="M59.06 528.65C60.28 529.98 60.44 532.91 58.47 534.02C56.62 535.07 54.51 534.08 52.87 534.3C53.16 532.31 52.68 530.35 54.29 529.29C55.9 528.23 57.46 528.58 59.06 528.64V528.65Z" fill="#F5EB9C"/>
<path d="M18.92 535.64C20.38 535.8 21.93 535.61 22.9 534.42H23.91C26.17 534.45 27.69 532.47 28.18 530.33C29.93 532.72 28.88 535.74 26.32 537.35C23.76 538.96 20.39 538.49 18.92 535.63V535.64Z" fill="#EC8E1D"/>
<path d="M28.23 529.42C28.23 529.73 28.21 530.03 28.17 530.33C27.68 532.47 26.16 534.45 23.9 534.43C24.92 532.43 26.78 530.22 24.84 528.37C25.99 528.55 27.04 529.35 28.23 529.41V529.42Z" fill="#FDD939"/>
<path d="M22.9 534.42C21.93 535.61 20.37 535.79 18.92 535.64C18.76 535.34 18.63 534.87 18.6 534.53C18.45 532.9 19.12 531.67 19.87 530.4C19.84 531.37 19.77 532.43 20.36 533.44C20.81 534.21 21.91 534.48 22.9 534.42Z" fill="#FDD939"/>
<path d="M27.02 589.6C27.37 589.66 27.47 590.22 27.72 590.38C27.77 591.73 27.97 593.19 27.24 594.79C24.61 595.96 22.03 596.02 19.57 596.35C19.45 595.81 18.89 595.03 18.9 594.43C18.72 593.61 19.74 593.1 19.9 592.49C19.81 593.15 19.81 594.61 20.44 594.64C20.97 594.66 22.26 594.81 23.29 594.55C25.62 593.98 24.73 591 24.89 589.39C25.59 589.46 26.31 589.47 27.01 589.59L27.02 589.6Z" fill="#FDD939"/>
<path d="M19.57 596.35C22.02 596.02 24.6 595.96 27.24 594.79C27.98 593.19 27.78 591.73 27.72 590.38C30.37 591.99 29.26 595.91 26.88 597.87C24.62 599.72 20.37 599.93 19.57 596.36V596.35Z" fill="#EC8E1D"/>
<path d="M24.84 528.37C26.78 530.22 24.92 532.43 23.9 534.43H22.89C21.89 534.48 20.8 534.21 20.35 533.44C19.76 532.43 19.83 531.36 19.86 530.4C20.88 528.68 22.77 528.06 24.84 528.37Z" fill="#F5EB9C"/>
<path d="M24.89 589.4C24.72 591.01 25.61 593.99 23.29 594.56C22.26 594.81 20.97 594.67 20.44 594.65C19.81 594.62 19.81 593.17 19.9 592.5C20.16 591.52 20.15 590.42 20.9 589.98C22.3 589.16 23.64 589.29 24.89 589.41V589.4Z" fill="#F5EB9C"/>
<path d="M104.07 116.44C101.18 116.46 100.34 116.29 99.33 116.89L99.31 208.56L99.9 478.24C99.9 480.91 100 482.32 101.91 483.6H90.72L90.53 119.66C90.53 116.4 90.21 114.9 88.51 113.34C86.81 111.78 84.84 111.79 82.77 111.38C80.51 110.93 78.31 109.98 75.08 110.51V109.44H104.08V116.46L104.07 116.44Z" fill="#B46320"/>
<path d="M82.7499 111.38L82.6099 465.17C82.6099 472.06 83.4099 477.53 81.9599 483.61H75.1299L75.0599 110.51C78.2899 109.98 80.4899 110.93 82.7499 111.38Z" fill="#F5EB9C"/>
<path d="M90.7 483.6H81.96C83.41 477.52 82.61 472.05 82.61 465.17L82.75 111.38C84.82 111.79 86.79 111.77 88.49 113.34C90.19 114.91 90.5 116.41 90.51 119.66L90.7 483.61V483.6Z" fill="#FDD939"/>
<path d="M115.07 21.4499L112.88 24.3499C108.3 21.2999 105.3 16.2199 98.59 15.4699C104.83 26.2499 104.27 37.8299 96.38 46.9499C86.98 57.8199 72.09 62.4699 57.63 57.9599C56.05 62.0299 57.47 66.2999 60.71 69.5199C59.02 70.6099 56.91 69.4199 54.98 69.5299C54.25 68.4499 53.17 68.1799 53.17 67.2499C60.65 65.7399 48.81 56.2899 53.75 39.4299C54.43 37.1199 55.85 34.8399 57.73 34.2299C60.72 37.1999 64.55 37.8599 68.9 36.2599C74.39 34.2299 79.14 28.9599 77.46 22.7099C76.45 18.9399 71.99 17.8299 68.86 17.6599C75.07 11.2199 79.58 15.6699 86.75 7.3999C99.63 8.0099 107.82 12.2899 115.07 21.4599V21.4499ZM97.44 21.6699C98.13 18.5399 95.09 15.9999 93.21 15.5399C90.42 14.8599 87.49 16.5199 86.92 19.6099C86.35 22.6999 89.22 24.5099 91.53 25.0699C93.64 25.5799 96.76 24.7599 97.44 21.6699Z" fill="#FDD939"/>
<path d="M104.07 116.44L104.14 483.6H101.9C99.99 482.32 99.9 480.91 99.89 478.24L99.3 208.56L99.32 116.89C100.33 116.29 101.18 116.46 104.06 116.44H104.07Z" fill="#EC8E1D"/>
<path d="M86.75 7.39986C79.58 15.6699 75.07 11.2199 68.86 17.6599C62.39 20.7699 55.96 26.2499 57.74 34.2399C55.86 34.8599 54.44 37.1299 53.76 39.4399C48.82 56.2999 60.66 65.7399 53.18 67.2599C43.43 54.6699 43.15 38.3899 51.56 24.6299C59.02 12.4199 72.14 6.70986 86.76 7.40986L86.75 7.39986Z" fill="#F5EB9C"/>
<path d="M54.99 69.5297C56.91 69.4197 59.03 70.6097 60.72 69.5197C66.59 75.3397 74.64 76.5997 82.86 77.1597C97.08 78.1197 109.41 72.0397 115.91 59.2097C121.57 48.0297 120.38 35.0997 112.88 24.3497L115.07 21.4497C131.22 41.8897 124.67 66.9597 103.89 79.3797C92 79.5197 80.69 79.8597 68.8 79.3997C62.98 79.1697 57.76 73.6097 54.99 69.5297Z" fill="#EC8E1D"/>
<path d="M108.91 92.6101C106.65 96.7101 108.38 101.31 98.48 102.1C96.24 102.28 64.67 104.37 68.74 98.6801C72.94 95.9101 97.77 99.4901 97.81 90.8501C97.81 89.3301 97.02 86.7201 94.87 86.5901C88.93 86.2501 83.38 86.2801 77.97 86.7701C75.67 86.9801 73.1 85.8401 70.79 86.4201C72.56 84.2801 98.16 85.7001 102.29 86.3901C105.76 86.9701 107.66 89.9701 108.91 92.6101Z" fill="#B46320"/>
<path d="M119.05 499.35C118.88 501.39 118.86 503.44 118.9 505.49C116 506.33 112.59 505.42 109.89 504.46C110.53 503.84 111.17 502.81 111.94 502.38C113.41 501.54 114.59 500.46 114.67 498.89C114.77 496.82 113.15 495.71 111.7 494.96C106.2 492.13 102.51 493.71 98.18 496.84C89.73 502.96 74.8 500.09 68.9 504.23C69.44 483.8 103.78 499.84 102 489.45C109.34 489.45 117.95 494.02 119.05 499.35Z" fill="#FDD939"/>
<path d="M102 489.45C103.78 499.85 69.4399 483.81 68.8999 504.23C66.4399 504.71 63.3799 504.21 60.8599 504.43C59.1599 496.76 64.1499 489.47 71.9799 489.47L102.01 489.45H102Z" fill="#F5EB9C"/>
<path d="M111.93 502.38C111.52 503.47 74.2 502.1 78.7 505.19C71.39 504.44 61.34 506.61 60.85 504.44C63.37 504.22 66.44 504.72 68.89 504.24C74.79 500.11 89.73 502.97 98.17 496.85C102.5 493.72 106.19 492.13 111.69 494.97C113.14 495.72 114.75 496.83 114.66 498.9C114.58 500.48 113.4 501.56 111.93 502.39V502.38Z" fill="#B46320"/>
<path d="M70.79 86.4197C73.1 85.8397 75.67 86.9797 77.97 86.7697L80.23 89.6597C77.42 98.2397 69.5 95.5797 66.89 98.5497C66.59 98.8897 66.07 99.0297 65.75 99.3597C65.45 99.1197 65.29 98.6997 64.98 98.4897L64.77 92.3397C65.55 89.4997 67.72 87.1897 70.79 86.4197Z" fill="#F5EB9C"/>
<path d="M65.75 99.3596C66.07 99.0296 66.59 98.8896 66.89 98.5496C67.44 98.4496 68.24 98.8896 68.75 98.6696C64.68 104.36 96.24 102.27 98.49 102.09C108.39 101.3 106.66 96.6996 108.92 92.5996C109.94 94.7496 110.83 97.2096 109.98 99.7396C109.29 101.79 106.88 103.64 103.94 103.64L70.95 103.58C68.15 103.58 65.99 101.54 65.77 99.3596H65.75Z" fill="#EC8E1D"/>
<path d="M111.93 502.38C111.16 502.82 110.52 503.85 109.88 504.46C107.7 506.55 103.56 504.95 98.89 505.26C97.09 503.88 93.49 503.69 91.89 505.44C87.48 505.37 83.08 505.64 78.69 505.19C74.19 502.1 111.52 503.47 111.92 502.38H111.93Z" fill="#EC8E1D"/>
<path d="M98.9 505.26C96.56 505.41 94.24 505.47 91.9 505.44C93.5 503.69 97.1 503.89 98.9 505.26Z" fill="#B46320"/>
<path d="M118.9 505.48C118.86 503.43 118.88 501.38 119.05 499.34C119.39 500.98 121.57 504.7 118.9 505.48Z" fill="#EC8E1D"/>
<path d="M64.9799 98.4898C62.5799 96.8598 64.2299 94.3398 64.7699 92.3398L64.9799 98.4898Z" fill="#FDD939"/>
<path d="M112.87 24.3497C120.37 35.0997 121.56 48.0297 115.9 59.2097C109.4 72.0397 97.0699 78.1197 82.8499 77.1597C74.6299 76.5997 66.5799 75.3397 60.7099 69.5197C57.4699 66.2997 56.0499 62.0297 57.6299 57.9597C72.0899 62.4597 86.9699 57.8197 96.3799 46.9497C104.27 37.8297 104.82 26.2597 98.5899 15.4697C105.3 16.2197 108.29 21.3097 112.88 24.3497H112.87Z" fill="#B46320"/>
<path d="M57.74 34.2299C55.96 26.2399 62.39 20.7699 68.86 17.6499C71.99 17.8199 76.45 18.9399 77.46 22.6999C79.14 28.9499 74.39 34.2199 68.9 36.2499C64.56 37.8599 60.73 37.1899 57.73 34.2199L57.74 34.2299Z" fill="#FDFBFC"/>
<path d="M97.44 21.6698C96.76 24.7598 93.64 25.5798 91.53 25.0698C89.22 24.5098 86.35 22.7598 86.92 19.6098C87.49 16.4598 90.41 14.8498 93.21 15.5398C95.09 15.9998 98.13 18.5398 97.44 21.6698Z" fill="#FDFBFC"/>
<path d="M68.7399 98.68C68.2299 98.9 67.4399 98.46 66.8799 98.56C69.4899 95.59 77.4099 98.24 80.2199 89.67L77.9599 86.78C83.3699 86.29 88.9199 86.25 94.8599 86.6C97.0099 86.72 97.8099 89.34 97.7999 90.86C97.7599 99.5 72.9299 95.9201 68.7299 98.6901L68.7399 98.68Z" fill="#FDD939"/>
<path d="M141.92 71.72C132.65 83.3 137.01 76.34 122.88 84.46C120.27 85.96 116.33 85.66 114.04 88.42C114.03 89.31 115.35 90.21 115.77 90.5C117.57 101.44 118.74 103.5 109.22 111.13L110.08 315.06C117.38 313.27 121.64 308.76 127.05 306.41C163.33 290.69 201.65 290.36 240.09 297.39C247.71 298.78 255.53 299.85 263.05 301.68L304.67 311.81C373.21 328.49 447.99 320.93 506.52 279.85C504.21 273.53 501.51 268.57 498.9 263.55C487.03 240.68 473.37 217.93 456 199C456.06 195.32 446.26 189.55 449.94 185.31C454.66 179.87 457.85 173.75 461.85 168.42C479.94 144.32 492.58 115.74 499.82 84.84C493.84 86.56 488.96 88.64 484.04 90.42C450.69 102.53 415.16 105.65 379.9 102.14C367.12 100.87 354.43 98.68 341.79 96.37C335.13 95.15 300.47 85.2 292.7 82.61C272.74 75.95 252.4 71.34 231.86 70.34L206.89 69.13L194.9 70.53C184.09 71.79 172.91 71.76 162.02 73.65C158.58 73.67 158.87 69.34 157.18 67.71C170.88 64.97 184.85 63.08 198.84 62.47C207.83 62.08 216.98 62.26 225.98 62.47C236.28 62.71 246.71 64.29 257.1 66.29C259.39 66.73 261.47 67.22 263.95 67.56C291.14 71.31 337.75 92.36 379.78 95.56L398.8 97.01C405.07 97.49 410.56 97.26 416.95 96.91C443.69 95.43 469.85 90.05 494.21 79.11C499.78 76.61 505.15 74.08 511.3 75.92C507.58 116.54 484.9 156.07 460.9 187.6C464.23 192.87 467.83 196.98 471.66 201.86C490.24 225.55 506.15 250.95 518.81 278.22C520.53 281.93 519.8 284.96 516.55 287.01C510.97 290.54 505.97 294.31 500.15 297.54C471.73 313.32 441.62 322.54 409.28 326.81C380.59 330.6 352.4 329.23 323.86 324.36C305.01 321.14 287.61 316.6 269.02 312.14C219.42 300.22 167.92 293.19 121.9 319.31C118.09 321.47 115.09 323.47 109.8 322.38L110.61 383.43L110.74 444.39V482.7C121.17 485.57 128.25 494.4 125.97 505.51C139.92 506.01 152.93 505.74 166.58 507.15C174.05 507.92 180.21 514.82 180.2 522.38L180.14 581.32C180.13 590.9 179.43 599.94 180.32 608.87C180.43 609.97 179.74 611.13 179.73 612.23C176.45 613.78 173.42 616.57 168.87 615.98C164.32 615.39 160.4 616.31 155.79 616.31L30.98 616.39C24.29 616.39 18.33 615.48 11.89 615.81C6.49997 616.09 3.05997 612.83 0.0999706 609.4L0.209971 568.45C0.209971 565.13 -0.0300294 562.25 -2.9356e-05 559.42L0.269971 523.42C-0.600029 513.9 6.56997 506.84 15.89 506.6L54.17 505.63C51.67 494.75 57.61 487 66.89 483.55C67.38 483.58 68.89 483.79 68.89 482.18V113.67C68.89 111.47 68.1 110.77 66.89 110.35C59.16 107.68 55.07 99.46 57.13 91.51C57.73 89.18 60.39 87.29 60.91 84.62C35.98 69.36 31.43 39.22 48.15 17.39C57.88 4.68003 73.99 -1.56997 90.98 0.340033C109.66 2.43003 124.55 15.76 129.26 32.93C134.33 51.4 127.65 70.01 113 81.56C123.04 76.63 132.01 73.31 141.92 71.72ZM53.18 67.25C53.18 68.18 54.26 68.45 54.99 69.53C57.76 73.61 62.98 79.18 68.8 79.4C80.69 79.86 92.01 79.53 103.89 79.38C124.66 66.96 131.21 41.89 115.07 21.45C107.83 12.28 99.64 8.00003 86.75 7.39003C72.14 6.70003 59.01 12.4 51.55 24.61C43.14 38.37 43.43 54.65 53.17 67.24L53.18 67.25ZM70.79 86.42C67.72 87.19 65.54 89.5 64.77 92.34C64.23 94.33 62.58 96.86 64.98 98.49C65.29 98.7 65.45 99.13 65.75 99.36C65.98 101.54 68.13 103.58 70.93 103.58L103.92 103.64C106.86 103.64 109.27 101.79 109.96 99.74C110.81 97.21 109.92 94.75 108.9 92.6C107.65 89.96 105.75 86.97 102.28 86.38C98.16 85.69 72.55 84.26 70.78 86.41L70.79 86.42ZM75.13 483.61H104.13L104.06 109.43H75.06L75.13 483.61ZM60.85 504.43C61.33 506.6 71.38 504.43 78.7 505.18C83.09 505.63 87.49 505.35 91.9 505.43C94.24 505.47 96.56 505.41 98.9 505.25C103.56 504.94 107.7 506.55 109.89 504.45C112.59 505.4 116.01 506.31 118.9 505.48C121.57 504.71 119.39 500.98 119.05 499.34C117.95 494 109.34 489.43 102 489.44L71.97 489.46C64.14 489.46 59.16 496.76 60.85 504.42V504.43ZM17.9 513.2C11.19 512.48 6.43997 518.28 6.48997 525.49L7.04997 607.19C7.04997 608.19 7.55997 608.67 8.85997 608.65L23.82 608.38L40.9 608.44L43.15 608.3L151.89 608.37L170.91 608.66C171.98 608.68 172.91 608.06 172.91 607.33L173.23 539.51L173.41 523.35C173.45 519.63 171.24 515.89 167.97 514.65C157.17 510.53 36.75 511.54 17.89 513.2H17.9Z" fill="#502E14"/>
<path d="M150.84 57.09C151.8 60.8 154.44 65.09 157.17 67.72C158.86 69.35 158.58 73.68 162.01 73.66C156.08 75.32 187.81 84.04 177.9 84.37C158.56 92.16 159 96.36 151.78 115.21C147.96 100.81 139.91 89.32 124.8 86.56C123.64 86.35 122.83 85.28 122.87 84.46C137.01 76.34 132.65 83.3 141.91 71.72C143.86 69.28 145.85 65.26 146.26 62.43C146.53 60.56 149.98 58.31 149.82 55.73C150 56.3 150.57 56.74 150.84 57.09ZM152.46 100.8C155.19 92.35 160.88 87.88 168.3 83.06C160.71 79.97 154.62 75.74 151.1 67.71C146.92 76.03 142.11 81.11 134.42 84.99C142.98 88.49 147.18 93.68 152.47 100.8H152.46Z" fill="#B02A58"/>
<path d="M122.87 84.4601C122.83 85.2801 123.64 86.3501 124.8 86.5601C139.91 89.3201 147.96 100.81 151.78 115.21C159 96.3601 158.56 92.1601 177.9 84.3701C177.71 85.6201 179.39 84.9801 180.85 85.8901C175.84 88.4801 170.8 90.8101 166.83 95.2201C171.63 93.2501 178.3 99.0901 179 100.28C183.04 107.21 174.36 117.02 177.68 124.88C178.15 125.99 181.69 125.17 182.13 126.59C170.95 140.63 164.08 156.85 162.68 175.18C161.98 184.27 161.24 192.77 162.48 202C165.4 223.83 176.36 244.77 195.15 256.96C210.56 266.96 230.13 268.75 247.43 263.81C279.88 254.55 290.04 218.23 276.48 189.8C275.42 187.57 275.21 185.28 274.63 183.41C282.81 191.78 288.45 214.81 286.56 227.59L310.99 227.2C311.42 223.24 311.72 220.18 313.94 218.35C313.81 220.07 314.09 222.03 313.47 224.11C310.39 234.49 307.46 244.58 305.88 255.39C304.92 261.91 308.29 268.16 315.15 269.1C324.56 270.39 334.15 270.86 343.64 270.85C348.71 270.85 351.69 266.61 352.64 262.26C358.08 237.33 367.91 214.76 379.14 192C384.05 182.05 390.9 173.52 394.58 163.12C397.73 154.22 395.74 143.71 395.74 134.59C395.74 127.82 390.15 124.12 384 123.78L357.83 121.74C359.33 121.05 361.05 122.11 363.3 121.44C359.49 112.02 348.36 102.47 341.78 96.3801C354.42 98.6901 367.11 100.88 379.89 102.15C379.57 102.53 378.89 102.17 377.94 102.87C402.42 110.18 432.93 110.62 458.62 105.39C459.63 107.47 458.86 109.74 460.26 111.32C466.14 116.85 477.07 115.11 481.01 107.89C482.76 104.69 480.11 101.9 477.61 99.2101C482.67 98.2301 484.75 94.7601 484.03 90.4301C488.95 88.6401 493.83 86.5701 499.81 84.8501C492.57 115.74 479.93 144.33 461.84 168.43C459.05 166.61 455.35 167.83 451.77 168.25C442.92 169.3 434.43 172.53 429.64 179.96C426.75 184.45 425.92 189.49 428.4 194.41C433.19 203.89 448.14 201.05 455.99 199C473.36 217.93 487.02 240.68 498.89 263.55C495.79 264.47 495.76 268.02 494.21 270.8C489.11 279.97 480.78 286.29 471.1 290.97C417.58 316.84 362.75 313.48 305.69 303.87C291.63 301.5 278.43 299.34 264.28 299.36C263.43 298.05 262.45 298.09 261.88 298.99C262.89 299.76 263.64 299.99 263.72 300.74C263.76 301.08 263.31 301.48 263.04 301.69C255.52 299.86 247.7 298.79 240.08 297.4C240.55 296.89 240.05 296.54 239.84 296.21C239.2 295.22 204.68 286.64 199.77 285.44C180.1 280.64 159.56 280.1 139.33 281.92C134.97 282.31 131.28 284.38 127.39 283.66L127.19 109.6C127.19 102.35 120.6 92.1401 115.78 90.5101C115.35 90.2201 114.03 89.3101 114.05 88.4301C116.34 85.6601 120.28 85.9701 122.89 84.4701L122.87 84.4601ZM460.2 125.82C460.2 124.4 459.04 123.24 457.62 123.24C456.2 123.24 455.04 124.4 455.04 125.82C455.04 127.24 456.2 128.4 457.62 128.4C459.04 128.4 460.2 127.24 460.2 125.82ZM452.34 152.61C452.34 151.47 451.41 150.54 450.27 150.54C449.13 150.54 448.2 151.47 448.2 152.61C448.2 153.75 449.13 154.68 450.27 154.68C451.41 154.68 452.34 153.75 452.34 152.61ZM376.04 215.17C381.34 211.12 388.32 206.58 390.6 199.32C392.21 194.22 389.67 188.75 390.64 183.43C387.88 186.65 386.57 190.41 384.85 194.42C381.93 201.21 377.65 206.82 376.04 215.16V215.17ZM164.43 246.72C166.45 242.6 163.52 239.29 160.68 237.3C158.43 235.72 154.86 235.08 152.23 237.87C149.39 240.88 151.07 245.66 153.97 247.79C156.87 249.92 162.43 250.81 164.44 246.72H164.43ZM430.92 260.3L418.72 259.89C432.22 264.32 443.1 274.27 446.27 288.76C454.76 272.09 460.16 270.57 473.53 263.92L464.74 261.54C464.6 261.07 464.48 260.14 463.73 259.73C456.75 255.89 451.84 250.05 449.02 241.93C444.77 249.27 440.31 254.96 432.73 257.56C431.3 258.05 430.64 259.08 430.92 260.32V260.3ZM413.26 274.12C414.94 271.73 412.84 268.79 411.35 267.57C409.69 266.21 406.85 266.1 405.16 267.67C402.71 269.95 403.44 273.19 405.69 275.13C407.49 276.69 411.17 277.08 413.26 274.11V274.12ZM393.23 293.24C392.7 290.18 389.49 288.6 387.42 288.55C385.05 288.49 382.06 289.86 381.5 292.8C380.83 296.28 384.62 298.81 387.5 298.97C390.38 299.13 393.84 296.73 393.24 293.23L393.23 293.24Z" fill="#EA4F84"/>
<path d="M194.9 70.5401C193 71.9501 191.31 73.5401 191.75 75.9701C192.12 78.0201 194.17 79.3001 196.67 79.6101C209.33 81.1801 221.95 82.0701 234.64 81.0201C237.03 80.8201 239.04 79.0501 239.45 77.5901C239.99 75.6501 239.97 72.6701 237.34 71.9301C235.37 71.3801 232.91 71.9001 231.86 70.3501C252.39 71.3501 272.73 75.9601 292.7 82.6201C300.47 85.2101 335.13 95.1701 341.79 96.3801C348.36 102.47 359.5 112.02 363.31 121.44C361.06 122.11 359.34 121.05 357.84 121.74C348.98 121.78 340.11 120.83 330.81 120.02L304.91 117.76L288.97 116.74C270.59 115.57 282.58 158.31 279.14 151.28L281.11 155.3C283.01 159.19 285.72 164.59 290.95 165.59C305.05 168.28 318.78 168 333.36 168.72C331.01 171.6 331.4 175.07 330.04 176.56C327.75 179.06 327.57 182.49 325.89 185.31C321.11 193.3 318.5 202.54 315.7 211.85C315.23 213.4 313.81 214.47 314.21 216.7C314.27 217.03 314.01 217.46 313.94 218.35C311.73 220.18 311.42 223.25 310.99 227.2L286.56 227.59C288.44 214.82 282.8 191.78 274.63 183.41C272.09 178.35 267.28 174.86 263.8 170.45C264 168.5 266.15 167.72 267.43 165.98C271.44 160.53 273.92 145.2 269.83 145.34L269.56 130.51C269.22 111.88 221.34 101.54 198.58 115.39C193.25 118.63 185.93 121.82 182.14 126.58C181.7 125.15 178.16 125.98 177.69 124.87C174.37 117.01 183.06 107.2 179.01 100.27C178.31 99.0701 171.65 93.2401 166.84 95.2101C170.81 90.8001 175.85 88.4601 180.86 85.8801C179.4 84.9701 177.72 85.6101 177.91 84.3601C187.82 84.0401 156.09 75.3201 162.02 73.6501C172.91 71.7601 184.09 71.7901 194.9 70.5301V70.5401Z" fill="#EE79A3"/>
<path d="M127.38 283.65L127.1 292.43C127.06 293.78 126.96 295.07 127.03 296.43C127.19 299.75 127.06 303.09 127.03 306.41C121.62 308.75 117.36 313.27 110.06 315.06L109.2 111.13C118.72 103.51 117.55 101.44 115.75 90.5C120.58 92.13 127.16 102.33 127.16 109.59L127.36 283.65H127.38Z" fill="#B02A58"/>
<path d="M263.04 301.68C263.32 301.47 263.76 301.07 263.72 300.73C263.64 299.98 262.9 299.76 261.88 298.98C262.45 298.08 263.42 298.04 264.28 299.35C278.43 299.33 291.63 301.49 305.69 303.86C362.75 313.48 417.58 316.84 471.1 290.96C480.78 286.28 489.11 279.96 494.21 270.79C495.76 268 495.79 264.46 498.89 263.54C501.5 268.57 504.2 273.53 506.51 279.84C447.98 320.92 373.2 328.48 304.66 311.8L263.04 301.67V301.68Z" fill="#EE79A3"/>
<path d="M240.08 297.39C201.64 290.36 163.32 290.69 127.04 306.41C127.06 303.09 127.2 299.75 127.04 296.43C128.33 295.75 128.39 293.14 127.11 292.43L127.39 283.65C131.28 284.37 134.98 282.3 139.33 281.91C159.55 280.09 180.1 280.63 199.77 285.43C204.69 286.63 239.21 295.22 239.84 296.2C240.05 296.52 240.54 296.87 240.08 297.39Z" fill="#EE79A3"/>
<path d="M379.9 102.15C415.16 105.65 450.69 102.53 484.04 90.4302C484.76 94.7602 482.69 98.2302 477.62 99.2102C480.12 101.9 482.77 104.69 481.02 107.89C477.08 115.11 466.15 116.85 460.27 111.32C458.86 109.74 459.64 107.47 458.63 105.39C432.94 110.62 402.43 110.18 377.95 102.87C378.91 102.17 379.58 102.53 379.9 102.15Z" fill="#EE79A3"/>
<path d="M461.84 168.43C457.84 173.76 454.65 179.88 449.93 185.32C446.26 189.55 456.05 195.33 455.99 199.01C448.15 201.06 433.2 203.9 428.4 194.42C425.92 189.51 426.75 184.46 429.64 179.97C434.43 172.53 442.92 169.3 451.77 168.26C455.34 167.84 459.05 166.61 461.84 168.44V168.43Z" fill="#EE79A3"/>
<path d="M231.86 70.3501C232.91 71.9001 235.36 71.3801 237.34 71.9301C239.96 72.6601 239.99 75.6501 239.45 77.5901C239.04 79.0501 237.03 80.8201 234.64 81.0201C221.94 82.0701 209.33 81.1801 196.67 79.6101C194.17 79.3001 192.12 78.0201 191.75 75.9701C191.31 73.5401 193 71.9501 194.9 70.5401L206.89 69.1401L231.86 70.3501Z" fill="#FDFBFC"/>
<path d="M152.46 100.8C147.17 93.68 142.97 88.49 134.41 84.99C142.1 81.11 146.91 76.03 151.09 67.71C154.61 75.74 160.71 79.97 168.29 83.06C160.88 87.89 155.18 92.36 152.45 100.8H152.46Z" fill="#FDFBFC"/>
<path d="M269.82 145.35C266.93 149.15 271.24 161.62 260.12 161.77L253.9 156.58C253.55 156.28 253.42 155.54 252.8 155.52C252.52 155.51 252.24 155.45 251.96 155.42C244.65 146.99 218.96 145.72 214.8 159.62C221.74 157.91 227.81 158.62 233.91 158.2C241.6 159.09 248.99 161.66 255.79 165.42C258.4 166.86 260.99 169.4 263.79 170.46C267.27 174.87 272.07 178.36 274.62 183.42C275.2 185.29 275.41 187.59 276.47 189.81C290.03 218.24 279.87 254.56 247.42 263.82C230.12 268.76 210.55 266.96 195.14 256.97C176.35 244.78 165.39 223.84 162.47 202.01C161.23 192.78 161.98 184.28 162.67 175.19C164.08 156.85 170.94 140.64 182.12 126.6C185.91 121.84 193.23 118.65 198.56 115.41C221.33 101.56 269.2 111.9 269.54 130.53L269.81 145.36L269.82 145.35ZM203.56 170.55C204.06 154.18 212.33 138.27 230.89 139.18C254.54 140.34 255.93 153.85 261.12 151.26C263.63 150.01 264.75 131.38 263.08 126.08C259.65 115.21 220.34 103.63 193.27 122.75C179.77 132.29 172.34 146.79 169.29 162.87C165.98 180.37 165.74 197.97 171.37 215.07C176 229.15 185.08 241.89 197.98 249.3C216.82 260.12 246.75 259.52 262.47 244.01C283.31 223.44 281.42 185.48 256.59 169.9C240.87 160.04 218.49 156.52 203.58 170.55H203.56Z" fill="#B02A58"/>
<path d="M357.83 121.74L384 123.78C390.15 124.12 395.74 127.82 395.74 134.59C395.74 143.71 397.73 154.22 394.58 163.12C390.9 173.52 384.05 182.06 379.14 192C367.91 214.75 358.08 237.33 352.64 262.26C351.69 266.62 348.71 270.85 343.64 270.85C334.15 270.85 324.56 270.4 315.15 269.1C308.29 268.16 304.92 261.91 305.88 255.39C307.46 244.58 310.39 234.49 313.47 224.11C314.09 222.03 313.81 220.06 313.94 218.35C314.01 217.46 314.27 217.03 314.21 216.7C317.33 214.22 318.44 210.7 319.22 206.61C320.76 198.54 326.18 191.53 325.89 185.31C327.57 182.5 327.75 179.07 330.04 176.56C330.63 180.05 338.43 164.25 338.02 163.47L287.68 158.53C285.16 158.28 283.59 154.69 281.11 155.3L279.14 151.28C282.58 158.32 270.59 115.57 288.97 116.74L304.91 117.76L330.81 120.02C340.1 120.83 348.98 121.78 357.84 121.74H357.83ZM310.4 253.35C309.88 256.03 310.37 259.05 313.1 259.31C323.22 260.27 333.22 260.78 343.28 261.09C345.97 258.04 345.26 254.58 346.36 250.92C356.59 216.88 371.19 184.75 389.79 154.67L389.89 133.41C389.89 131.38 389.1 129.64 388.12 128.69C386.72 127.34 385.02 127.37 382.83 127.21L290 120.5C287.47 120.32 284.41 120.55 284.22 123.55C283.73 131.47 283.85 139.25 283.99 147.19C284.02 149.03 285.64 150.66 287.13 151.07L303.3 151.84L347.17 155.41C340.02 166.35 335.41 177.38 330.06 188.86C320.49 209.37 314.83 230.63 310.39 253.36L310.4 253.35Z" fill="#B02A58"/>
<path d="M464.74 261.53C457.14 263.93 451.05 269.09 447.37 277.58C443.96 270.17 438.55 264.31 430.92 260.29C430.63 259.05 431.3 258.02 432.73 257.53C440.31 254.93 444.77 249.25 449.02 241.9C451.85 250.02 456.75 255.86 463.73 259.7C464.48 260.11 464.6 261.05 464.74 261.51V261.53Z" fill="#FDFBFC"/>
<path d="M430.92 260.3C438.54 264.32 443.95 270.18 447.37 277.59C451.05 269.1 457.15 263.94 464.74 261.54L473.53 263.92C460.16 270.57 454.76 272.09 446.27 288.76C443.1 274.27 432.22 264.32 418.72 259.89L430.92 260.3Z" fill="#B02A58"/>
<path d="M376.04 215.17C377.64 206.82 381.92 201.22 384.85 194.43C386.57 190.42 387.89 186.66 390.64 183.44C389.67 188.75 392.2 194.22 390.6 199.33C388.32 206.59 381.35 211.12 376.04 215.18V215.17Z" fill="#EE79A3"/>
<path d="M164.43 246.72C162.42 250.81 156.84 249.9 153.96 247.79C151.08 245.68 149.38 240.89 152.22 237.87C154.85 235.07 158.42 235.72 160.67 237.3C163.52 239.29 166.44 242.6 164.42 246.72H164.43Z" fill="#EE79A3"/>
<path d="M393.23 293.24C393.83 296.73 390.26 299.14 387.49 298.98C384.72 298.82 380.82 296.29 381.49 292.81C382.05 289.87 385.04 288.51 387.41 288.56C389.48 288.61 392.7 290.19 393.22 293.25L393.23 293.24Z" fill="#EE79A3"/>
<path d="M413.26 274.12C411.17 277.08 407.5 276.69 405.69 275.14C403.43 273.19 402.71 269.96 405.16 267.68C406.85 266.11 409.69 266.22 411.35 267.58C412.84 268.8 414.94 271.74 413.26 274.13V274.12Z" fill="#EE79A3"/>
<path d="M457.62 128.4C459.045 128.4 460.2 127.245 460.2 125.82C460.2 124.395 459.045 123.24 457.62 123.24C456.195 123.24 455.04 124.395 455.04 125.82C455.04 127.245 456.195 128.4 457.62 128.4Z" fill="#EE79A3"/>
<path d="M450.27 154.68C451.413 154.68 452.34 153.753 452.34 152.61C452.34 151.467 451.413 150.54 450.27 150.54C449.127 150.54 448.2 151.467 448.2 152.61C448.2 153.753 449.127 154.68 450.27 154.68Z" fill="#EE79A3"/>
<path d="M330.03 176.56C331.39 175.07 331 171.59 333.35 168.72C318.77 168 305.04 168.28 290.94 165.59C285.71 164.59 283 159.19 281.1 155.3C283.58 154.69 285.15 158.29 287.67 158.53L338.01 163.47C338.42 164.24 330.62 180.05 330.03 176.56Z" fill="#EA4F84"/>
<path d="M263.79 170.46C260.99 169.39 258.39 166.86 255.79 165.42C256.94 165.4 258.41 165.04 260.08 164.29C260.82 163.96 260.34 162.94 260.13 161.77C271.25 161.62 266.93 149.15 269.83 145.35C273.92 145.21 271.44 160.55 267.43 165.99C266.15 167.73 264 168.51 263.8 170.46H263.79Z" fill="#EA4F84"/>
<path d="M314.2 216.7C313.8 214.47 315.22 213.39 315.69 211.85C318.5 202.53 321.11 193.3 325.88 185.31C326.17 191.54 320.75 198.55 319.21 206.61C318.43 210.71 317.32 214.23 314.2 216.7Z" fill="#EA4F84"/>
<path d="M127.04 296.43C126.97 295.07 127.07 293.78 127.11 292.43C128.39 293.14 128.33 295.75 127.04 296.43Z" fill="#EA4F84"/>
<path d="M203.56 170.55C218.48 156.52 240.85 160.03 256.57 169.9C281.4 185.48 283.29 223.44 262.45 244.01C246.73 259.52 216.8 260.12 197.96 249.3C185.06 241.89 175.98 229.14 171.35 215.07C165.72 197.97 165.96 180.37 169.27 162.87C172.31 146.79 179.74 132.28 193.25 122.75C220.33 103.63 259.63 115.21 263.06 126.08C264.73 131.38 263.61 150.01 261.1 151.26C255.91 153.85 254.52 140.34 230.87 139.18C212.32 138.27 204.04 154.18 203.54 170.55H203.56ZM244.86 208.3C244.86 196.83 235.56 187.52 224.08 187.52C212.6 187.52 203.3 196.82 203.3 208.3C203.3 219.78 212.6 229.08 224.08 229.08C235.56 229.08 244.86 219.78 244.86 208.3Z" fill="#FDFBFC"/>
<path d="M251.96 155.41C252.24 155.44 252.52 155.5 252.8 155.51C252.89 156.08 253.37 156.44 253.9 156.57L260.12 161.76C260.33 162.93 260.81 163.95 260.07 164.28C258.4 165.03 256.94 165.38 255.78 165.41C248.98 161.65 241.59 159.08 233.9 158.19C231.84 157.95 230.1 156.31 226.23 157.09C232.96 152.46 241.77 152.05 249.62 156.04C250.63 156.55 251.51 155.99 251.95 155.42L251.96 155.41Z" fill="#EE79A3"/>
<path d="M251.96 155.41C251.52 155.98 250.64 156.55 249.63 156.03C241.77 152.05 232.97 152.45 226.24 157.08C230.11 156.3 231.85 157.94 233.91 158.18C227.81 158.61 221.75 157.89 214.8 159.6C218.96 145.69 244.65 146.97 251.96 155.4V155.41Z" fill="#EA4F84"/>
<path d="M253.9 156.57C253.37 156.43 252.88 156.08 252.8 155.51C253.42 155.54 253.55 156.28 253.9 156.57Z" fill="#EA4F84"/>
<path d="M310.4 253.35C314.84 230.62 320.5 209.36 330.07 188.85C335.43 177.37 340.03 166.34 347.18 155.4L303.31 151.83L287.14 151.06C285.65 150.65 284.03 149.02 284 147.18C283.86 139.24 283.74 131.45 284.23 123.54C284.42 120.54 287.48 120.31 290.01 120.49L382.84 127.2C385.04 127.36 386.74 127.33 388.13 128.68C389.11 129.62 389.91 131.37 389.9 133.4L389.8 154.66C371.19 184.73 356.6 216.87 346.37 250.91C345.27 254.57 345.98 258.03 343.29 261.08C333.23 260.77 323.23 260.27 313.11 259.3C310.39 259.04 309.89 256.02 310.41 253.34L310.4 253.35Z" fill="#FDFBFC"/>
<path d="M244.86 208.3C244.86 219.77 235.56 229.08 224.08 229.08C212.6 229.08 203.3 219.78 203.3 208.3C203.3 196.82 212.6 187.52 224.08 187.52C235.56 187.52 244.86 196.82 244.86 208.3ZM239.19 216.48C239.27 216.23 239.17 215.86 239.14 215.59C240.67 215.1 241.28 212.4 240.93 210.44C239.29 201.33 230.57 196.26 221.61 198.04C214.08 199.54 208.17 206.18 209.5 214.04C210.77 221.52 217.68 225.76 224.81 225.99C231.94 226.22 237.26 222.66 239.19 216.48Z" fill="#B02A58"/>
<path d="M239.14 215.59C239.17 215.86 239.27 216.23 239.19 216.48C232.8 217.53 220.46 218.43 212.58 218.15C210.89 213.24 213.19 208.24 218.16 205.76C223.13 203.28 229.43 202.34 234.54 205.65C238.07 207.94 238.79 211.96 239.14 215.58V215.59Z" fill="#EE79A3"/>
<path d="M239.14 215.59C238.78 211.97 238.07 207.95 234.54 205.66C229.43 202.35 223.35 203.18 218.16 205.77C212.97 208.36 210.89 213.25 212.58 218.16C220.46 218.44 232.79 217.54 239.19 216.49C237.26 222.67 231.81 226.23 224.81 226C217.81 225.77 210.76 221.53 209.5 214.05C208.17 206.18 214.07 199.54 221.61 198.05C230.57 196.27 239.29 201.34 240.93 210.45C241.28 212.4 240.67 215.11 239.14 215.6V215.59Z" fill="#EA4F84"/>
</g>
<defs>
<clipPath id="clip0_143_636">
<rect width="519.72" height="616.39" fill="white"/>
</clipPath>
</defs>
</svg>
