<svg width="328" height="356" viewBox="0 0 328 356" fill="none" xmlns="http://www.w3.org/2000/svg">
<g clip-path="url(#clip0_124_53)">
<path d="M284.196 3.95636L280.221 1.27141C276.831 -1.01873 272.224 -0.130084 269.931 3.25624L233.104 57.6477C230.811 61.034 231.701 65.6357 235.091 67.9258L239.066 70.6107C242.456 72.9009 247.063 72.0122 249.356 68.6259L286.183 14.2345C288.476 10.8482 287.586 6.24649 284.196 3.95636Z" fill="#4AC690"/>
<path d="M301.618 194.291C298.154 247.153 265.621 289.289 235.522 309.114C212.629 324.19 174.594 337.248 172.531 337.951C167.375 339.703 153.69 344.305 138.412 347.562C108.109 354.02 62.8605 363.661 34.1444 345.668C-18.5698 312.624 4.65633 199.12 7.73174 184.07C13.0056 158.286 18.3845 131.997 38.6525 105.781C74.9398 58.8646 154.27 18.2275 224.443 52.9676C278.905 79.9295 305.107 141.045 301.618 194.291Z" fill="#E53E54"/>
<path d="M249.194 44.9426L277.54 149.687L253.517 123.558L228.889 97.0343L183.66 70.8867L249.194 44.9426Z" fill="#4AC690"/>
<path d="M314.994 124.564L327.79 189.436C327.444 197.733 325.462 203.142 321.695 204.579C312.092 208.237 293.905 184.89 277.54 149.687L249.194 44.9426C249.608 37.004 251.584 31.8287 255.259 30.4285C266.924 25.9873 291.25 61.3751 309.591 109.47C311.542 114.577 313.339 119.623 314.994 124.564Z" fill="#4AC690"/>
<path d="M314.994 124.564C323.869 151.131 328.395 174.78 327.79 189.436L314.994 124.564Z" fill="#4AC690"/>
<path d="M253.517 123.558L277.54 149.687C274.699 146.875 271.846 143.957 268.999 140.947C263.472 135.112 258.291 129.276 253.517 123.558Z" fill="#4AC690"/>
<path d="M249.194 44.9364L183.66 70.8866C177.225 70.461 170.568 69.8442 163.756 69.0238C112.604 62.8493 72.3832 47.5765 73.9147 34.9129C75.4462 22.2492 118.156 16.9876 169.308 23.1683C204.397 27.406 234.342 35.9183 249.194 44.9364Z" fill="#4AC690"/>
<path d="M228.889 97.0343L253.517 123.558C252.714 126.365 251.844 129.215 250.917 132.095C239.221 168.445 222.714 195.654 214.043 192.866C205.373 190.084 207.825 158.366 219.515 122.016C222.411 113.023 225.598 104.609 228.871 97.0528H228.877L228.883 97.0405H228.889V97.0343Z" fill="#4AC690"/>
<path d="M183.66 70.8866L228.889 97.0342H228.883L228.877 97.0466H228.871C221.608 104.88 212.296 112.912 201.525 120.314C170.03 141.952 137.992 150.033 129.951 138.356C121.911 126.685 140.919 99.6804 172.408 78.0419C176.163 75.4573 179.93 73.0702 183.66 70.8866Z" fill="#4AC690"/>
<path d="M54.2766 147.923C54.2766 147.923 55.7896 124.921 60.7485 124.095C65.7075 123.268 66.1274 130.707 64.0586 133.181C61.9898 135.654 54.2766 147.923 54.2766 147.923Z" fill="#FF9E97"/>
<path d="M42.3455 198.467C42.3455 198.467 43.8585 175.465 48.8174 174.638C53.7764 173.812 54.1963 181.251 52.1275 183.724C50.0587 186.198 42.3455 198.467 42.3455 198.467Z" fill="#FF9E97"/>
<path d="M33.496 260.138C33.496 260.138 35.009 237.136 39.9679 236.309C44.9268 235.483 45.3468 242.922 43.278 245.395C41.2092 247.869 33.496 260.138 33.496 260.138Z" fill="#FF9E97"/>
<path d="M75.9279 228.815C75.9279 228.815 77.4409 205.813 82.3999 204.986C87.3588 204.16 87.7787 211.599 85.7099 214.072C83.6411 216.546 75.9279 228.815 75.9279 228.815Z" fill="#FF9E97"/>
<path d="M51.5655 322.66C51.5655 322.66 53.0785 299.658 58.0375 298.832C62.9964 298.005 63.4163 305.444 61.3475 307.918C59.2787 310.391 51.5655 322.66 51.5655 322.66Z" fill="#FF9E97"/>
<path d="M80.5349 283.17C80.5349 283.17 82.0478 260.169 87.0068 259.342C91.9657 258.515 92.3857 265.954 90.3169 268.428C88.2481 270.901 80.5349 283.17 80.5349 283.17Z" fill="#FF9E97"/>
<path d="M97.1408 325.553C97.1408 325.553 98.6538 302.551 103.613 301.725C108.572 300.898 108.992 308.337 106.923 310.811C104.854 313.284 97.1408 325.553 97.1408 325.553Z" fill="#FF9E97"/>
<path d="M132.187 278.562C132.187 278.562 133.7 255.561 138.659 254.734C143.618 253.908 144.038 261.347 141.969 263.82C139.9 266.294 132.187 278.562 132.187 278.562Z" fill="#FF9E97"/>
<path d="M122.967 220.525C122.967 220.525 124.48 197.523 129.439 196.696C134.398 195.87 134.818 203.309 132.749 205.782C130.68 208.256 122.967 220.525 122.967 220.525Z" fill="#FF9E97"/>
<path d="M98.9873 172.615C98.9873 172.615 100.5 149.613 105.459 148.787C110.418 147.96 110.838 155.399 108.769 157.873C106.701 160.346 98.9873 172.615 98.9873 172.615Z" fill="#FF9E97"/>
<path d="M100.828 114.571C100.828 114.571 102.341 91.5691 107.3 90.7426C112.258 89.916 112.678 97.3551 110.61 99.8286C108.541 102.302 100.828 114.571 100.828 114.571Z" fill="#FF9E97"/>
<path d="M168.159 170.771C168.159 170.771 169.672 147.769 174.631 146.942C179.59 146.116 180.01 153.555 177.941 156.028C175.872 158.502 168.159 170.771 168.159 170.771Z" fill="#FF9E97"/>
<path d="M175.539 233.423C175.539 233.423 177.052 210.421 182.011 209.594C186.97 208.768 187.39 216.207 185.321 218.68C183.252 221.154 175.539 233.423 175.539 233.423Z" fill="#FF9E97"/>
<path d="M172.772 287.778C172.772 287.778 174.285 264.776 179.244 263.95C184.203 263.123 184.623 270.562 182.554 273.036C180.486 275.509 172.772 287.778 172.772 287.778Z" fill="#FF9E97"/>
<path d="M209.671 233.423C209.671 233.423 211.184 210.421 216.143 209.594C221.102 208.768 221.522 216.207 219.453 218.68C217.384 221.154 209.671 233.423 209.671 233.423Z" fill="#FF9E97"/>
<path d="M256.71 214.072C256.71 214.072 258.223 191.071 263.182 190.244C268.141 189.418 268.561 196.857 266.492 199.33C264.423 201.804 256.71 214.072 256.71 214.072Z" fill="#FF9E97"/>
<path d="M225.351 281.326C225.351 281.326 226.864 258.324 231.823 257.498C236.782 256.671 237.201 264.11 235.133 266.584C233.064 269.057 225.351 281.326 225.351 281.326Z" fill="#FF9E97"/>
<path d="M143.26 329.236C143.26 329.236 144.773 306.234 149.731 305.407C154.69 304.581 155.11 312.02 153.042 314.493C150.973 316.967 143.26 329.236 143.26 329.236Z" fill="#FF9E97"/>
</g>
<defs>
<clipPath id="clip0_124_53">
<rect width="328" height="356" fill="white"/>
</clipPath>
</defs>
</svg>
