<svg width="389" height="492" viewBox="0 0 389 492" fill="none" xmlns="http://www.w3.org/2000/svg">
<g clip-path="url(#clip0_103_2)">
<path d="M368.44 82.64C362.83 105.6 346.12 128.02 321.13 142.58C297.81 156.17 272.1 160.13 250.28 155.36C242.04 153.58 234.36 150.54 227.57 146.3C225.11 144.78 222.77 143.1 220.57 141.25C221.93 123.44 231.27 106.07 246.25 92.5C254.6 84.92 264.69 78.53 276.13 73.91C279.6 72.5 283.18 71.26 286.88 70.2C317.55 61.38 348.18 66.98 368.44 82.64Z" fill="#48AC33"/>
<path d="M231.47 30.75C242.13 47.45 247.84 69.18 246.25 92.5C231.27 106.07 221.93 123.44 220.57 141.25C222.77 143.1 225.11 144.78 227.57 146.3C225.52 149.16 223.34 151.86 221.04 154.38C211.51 164.83 199.9 172.29 187.25 175.64C176.37 172.74 166.54 166.75 158.33 158.48C154.28 154.41 150.63 149.78 147.43 144.69C152.22 142.91 156.78 140.8 161.06 138.39C160.3 118.61 149.55 100.84 132.71 88.21C132.75 86.32 132.84 84.42 132.99 82.52C134.9 57.29 144.99 35.12 159.68 19.87C168.91 10.28 179.96 3.42 191.93 0.25C208.02 4.54 221.79 15.57 231.47 30.75Z" fill="#48AC33"/>
<path d="M132.71 88.21C149.55 100.84 160.3 118.61 161.06 138.39C156.78 140.8 152.22 142.91 147.43 144.69C139.36 147.71 130.64 149.79 121.47 150.76C117.58 151.18 113.6 151.39 109.56 151.39C60.94 151.39 21.35 120.43 19.85 81.79C34.42 73.6 52.18 68.79 71.35 68.79C82.81 68.79 93.77 70.51 103.85 73.65C114.64 77 124.42 81.98 132.71 88.21Z" fill="#48AC33"/>
<path d="M48.6 336.56C75.441 336.56 97.2 314.801 97.2 287.96C97.2 261.119 75.441 239.36 48.6 239.36C21.759 239.36 0 261.119 0 287.96C0 314.801 21.759 336.56 48.6 336.56Z" fill="#C72B6B"/>
<path d="M51.93 273.51C78.7711 273.51 100.53 251.751 100.53 224.91C100.53 198.069 78.7711 176.31 51.93 176.31C25.089 176.31 3.33002 198.069 3.33002 224.91C3.33002 251.751 25.089 273.51 51.93 273.51Z" fill="#C72B6B"/>
<path d="M339.46 322.11C366.301 322.11 388.06 300.351 388.06 273.51C388.06 246.669 366.301 224.91 339.46 224.91C312.619 224.91 290.86 246.669 290.86 273.51C290.86 300.351 312.619 322.11 339.46 322.11Z" fill="#C72B6B"/>
<path d="M312.56 256.19C339.401 256.19 361.16 234.431 361.16 207.59C361.16 180.749 339.401 158.99 312.56 158.99C285.719 158.99 263.96 180.749 263.96 207.59C263.96 234.431 285.719 256.19 312.56 256.19Z" fill="#C72B6B"/>
<path d="M266.45 207.59C293.291 207.59 315.05 185.831 315.05 158.99C315.05 132.149 293.291 110.39 266.45 110.39C239.609 110.39 217.85 132.149 217.85 158.99C217.85 185.831 239.609 207.59 266.45 207.59Z" fill="#C72B6B"/>
<path d="M189.15 212.63C215.991 212.63 237.75 190.871 237.75 164.03C237.75 137.189 215.991 115.43 189.15 115.43C162.309 115.43 140.55 137.189 140.55 164.03C140.55 190.871 162.309 212.63 189.15 212.63Z" fill="#C72B6B"/>
<path d="M109.66 223.17C136.501 223.17 158.26 201.411 158.26 174.57C158.26 147.729 136.501 125.97 109.66 125.97C82.819 125.97 61.06 147.729 61.06 174.57C61.06 201.411 82.819 223.17 109.66 223.17Z" fill="#C72B6B"/>
<path d="M194.14 430.73C260.917 430.73 315.05 374.242 315.05 304.56C315.05 234.878 260.917 178.39 194.14 178.39C127.363 178.39 73.23 234.878 73.23 304.56C73.23 374.242 127.363 430.73 194.14 430.73Z" fill="#C72B6B"/>
<path d="M76.71 401.76C103.551 401.76 125.31 380.001 125.31 353.16C125.31 326.319 103.551 304.56 76.71 304.56C49.8689 304.56 28.11 326.319 28.11 353.16C28.11 380.001 49.8689 401.76 76.71 401.76Z" fill="#C72B6B"/>
<path d="M119.31 460.5C146.151 460.5 167.91 438.741 167.91 411.9C167.91 385.059 146.151 363.3 119.31 363.3C92.469 363.3 70.71 385.059 70.71 411.9C70.71 438.741 92.469 460.5 119.31 460.5Z" fill="#C72B6B"/>
<path d="M189.15 491.23C215.991 491.23 237.75 469.471 237.75 442.63C237.75 415.789 215.991 394.03 189.15 394.03C162.309 394.03 140.55 415.789 140.55 442.63C140.55 469.471 162.309 491.23 189.15 491.23Z" fill="#C72B6B"/>
<path d="M266.45 460.5C293.291 460.5 315.05 438.741 315.05 411.9C315.05 385.059 293.291 363.3 266.45 363.3C239.609 363.3 217.85 385.059 217.85 411.9C217.85 438.741 239.609 460.5 266.45 460.5Z" fill="#C72B6B"/>
<path d="M311.78 390.11C338.621 390.11 360.38 368.351 360.38 341.51C360.38 314.669 338.621 292.91 311.78 292.91C284.939 292.91 263.18 314.669 263.18 341.51C263.18 368.351 284.939 390.11 311.78 390.11Z" fill="#C72B6B"/>
<path d="M119.35 200.86C120.21 195.28 125.03 191 130.86 191C133.66 191 136.24 191.99 138.25 193.64C140.05 197.52 141.33 201.69 141.98 206.07C142.32 208.31 142.5 210.61 142.5 212.95C142.5 238.28 121.97 258.81 96.64 258.81C85.73 258.81 75.71 255 67.84 248.63C64.37 245.83 61.31 242.52 58.79 238.83C58.75 238.51 58.74 238.19 58.74 237.87C58.74 231.84 63.63 226.95 69.66 226.95C70.71 226.95 71.73 227.1 72.69 227.38C74.65 230.47 77.23 233.12 80.25 235.17C84.55 238.11 89.75 239.82 95.35 239.82C110.19 239.82 122.22 227.79 122.22 212.95C122.22 212.05 122.18 211.16 122.09 210.28C121.76 206.92 120.81 203.75 119.35 200.87V200.86Z" fill="#E43483"/>
<path d="M311.88 330.72C311.2 332.88 310.35 335.02 309.31 337.12C298.15 359.86 270.67 369.24 247.93 358.07C238.14 353.26 230.82 345.42 226.57 336.24C224.69 332.2 223.4 327.88 222.77 323.45C222.88 323.15 223.01 322.85 223.15 322.57C225.81 317.16 232.35 314.92 237.77 317.58C238.71 318.04 239.56 318.63 240.3 319.3C240.7 322.94 241.85 326.45 243.65 329.62C246.21 334.15 250.13 337.98 255.15 340.45C268.47 346.99 284.57 341.49 291.11 328.17C291.51 327.36 291.86 326.55 292.17 325.72C293.35 322.56 293.9 319.29 293.86 316.07C297.09 311.43 303.3 309.71 308.54 312.28C311.05 313.51 312.93 315.54 314.01 317.91C313.92 322.19 313.23 326.49 311.88 330.71V330.72Z" fill="#E43483"/>
<path d="M305.44 221.12C304.16 222.99 302.73 224.8 301.13 226.51C283.86 245.04 254.85 246.06 236.31 228.79C228.33 221.35 223.6 211.73 222.18 201.71C221.55 197.3 221.57 192.79 222.24 188.37C222.43 188.11 222.64 187.87 222.86 187.63C226.97 183.22 233.88 182.98 238.29 187.09C239.06 187.81 239.7 188.61 240.21 189.47C239.54 193.07 239.62 196.76 240.43 200.32C241.57 205.4 244.21 210.2 248.31 214.02C259.17 224.14 276.17 223.54 286.29 212.68C286.9 212.02 287.48 211.34 288.02 210.64C290.07 207.96 291.54 204.99 292.43 201.89C296.86 198.39 303.31 198.54 307.57 202.52C309.62 204.43 310.83 206.91 311.18 209.49C309.85 213.56 307.94 217.48 305.43 221.13L305.44 221.12Z" fill="#E43483"/>
<path d="M158.05 341.7C157.78 343.95 157.34 346.21 156.72 348.47C149.97 372.89 124.72 387.21 100.3 380.46C89.78 377.55 81.14 371.21 75.25 362.98C72.65 359.36 70.58 355.35 69.14 351.12C69.19 350.8 69.26 350.49 69.35 350.18C70.96 344.37 76.97 340.96 82.78 342.56C83.79 342.84 84.74 343.26 85.59 343.78C86.66 347.28 88.44 350.52 90.8 353.3C94.16 357.28 98.72 360.31 104.12 361.8C118.42 365.75 133.22 357.36 137.17 343.06C137.41 342.19 137.61 341.32 137.76 340.45C138.34 337.12 138.27 333.81 137.62 330.65C139.93 325.49 145.72 322.65 151.34 324.2C154.04 324.95 156.26 326.59 157.76 328.71C158.46 332.93 158.59 337.29 158.05 341.68V341.7Z" fill="#E43483"/>
<path d="M237.65 416.47C236.97 418.63 236.12 420.78 235.1 422.88C223.98 445.64 196.52 455.07 173.76 443.95C163.96 439.16 156.63 431.34 152.36 422.16C150.47 418.12 149.18 413.8 148.53 409.38C148.63 409.07 148.77 408.78 148.91 408.5C151.56 403.08 158.1 400.84 163.52 403.48C164.46 403.94 165.31 404.52 166.05 405.2C166.45 408.84 167.61 412.35 169.42 415.52C171.99 420.05 175.91 423.87 180.94 426.33C194.27 432.85 210.36 427.32 216.88 413.99C217.28 413.18 217.63 412.36 217.94 411.53C219.12 408.37 219.66 405.1 219.61 401.87C222.83 397.23 229.04 395.5 234.28 398.06C236.8 399.29 238.68 401.31 239.76 403.68C239.67 407.96 238.99 412.26 237.65 416.49V416.47Z" fill="#E43483"/>
<path d="M230.67 267.24C229.99 269.4 229.14 271.55 228.12 273.65C217 296.41 189.54 305.84 166.78 294.72C156.98 289.93 149.65 282.11 145.38 272.93C143.49 268.89 142.2 264.57 141.55 260.15C141.65 259.84 141.79 259.55 141.93 259.27C144.58 253.85 151.12 251.61 156.54 254.25C157.48 254.71 158.33 255.29 159.07 255.97C159.47 259.61 160.63 263.12 162.44 266.29C165.01 270.82 168.93 274.64 173.96 277.1C187.29 283.62 203.38 278.09 209.9 264.76C210.3 263.95 210.65 263.13 210.96 262.3C212.14 259.14 212.68 255.87 212.63 252.64C215.85 248 222.06 246.27 227.3 248.83C229.82 250.06 231.7 252.08 232.78 254.45C232.69 258.73 232.01 263.03 230.67 267.26V267.24Z" fill="#E43483"/>
</g>
<defs>
<clipPath id="clip0_103_2">
<rect width="388.06" height="491.23" fill="white"/>
</clipPath>
</defs>
</svg>
