<svg width="223" height="354" viewBox="0 0 223 354" fill="none" xmlns="http://www.w3.org/2000/svg">
<path d="M74.6859 241.314C57.9561 248.527 41.7601 272.623 47.9198 302.265C45.2957 305.666 43.2938 308.205 41.668 310.721C36.9135 311.51 37.7048 316.218 39.038 317.623C40.9165 319.601 44.6894 319.708 46.0697 316.288C47.9087 315.165 49.7354 313.758 51.1669 312.407C50.4409 313.773 49.9856 315.001 49.0415 316.496C45.216 317.878 44.3487 323.82 48.672 325.504C50.8805 326.365 54.8829 325.854 56.2792 321.784C63.9682 315.199 72.4753 311.518 73.8025 302.474C75.0753 296.016 75.1413 280.264 90.7873 278.421" fill="#EF82B1"/>
<path d="M39.036 317.624C40.9157 319.602 44.6898 319.71 46.069 316.289C47.9095 315.165 49.7352 313.756 51.1682 312.407C50.4419 313.771 49.9854 315.003 49.0431 316.495C46.5989 317.378 45.3622 320.117 45.9167 322.424C46.2259 323.729 47.1093 324.897 48.6701 325.506C50.8786 326.365 54.8835 325.854 56.2772 321.786C63.9679 315.199 72.4733 311.518 73.8033 302.473C75.0745 296.014 75.1432 280.265 90.7846 278.42L74.6867 241.316C68.4881 243.986 62.3678 248.972 57.4256 255.701C49.0233 267.136 44.0418 283.602 47.919 302.267C45.2932 305.663 43.2958 308.206 41.6664 310.723C36.9158 311.509 37.706 316.22 39.036 317.624Z" fill="#EF82B1"/>
<path d="M45.9169 322.424C46.2261 323.729 47.1096 324.897 48.6703 325.506C50.8788 326.365 54.8837 325.854 56.2775 321.786C63.9682 315.199 72.4736 311.518 73.8035 302.473C75.0748 296.014 75.1434 280.265 90.7849 278.42L74.6869 241.316C68.4883 243.986 62.3681 248.972 57.4259 255.701C59.1731 259.357 68.0073 278.096 69.1852 284.594C69.941 288.775 72.1889 303.038 63.9682 310.527C55.7474 318.021 52.9058 318.512 52.9058 318.512C52.9058 318.512 54.491 322.242 50.4322 323.258C49.3377 323.533 47.4679 323.003 45.9169 322.424Z" fill="#F292B8"/>
<path d="M50.6639 327.82C51.8273 327.82 53.0099 327.574 54.0574 327.087C55.8235 326.268 57.1552 324.846 57.936 322.953C59.6666 321.498 61.4507 320.171 63.18 318.885C69.0547 314.517 74.6043 310.391 75.738 302.806C75.9051 301.948 76.0519 300.947 76.2067 299.89C77.2618 292.688 78.8566 281.803 91.0169 280.371C92.0941 280.244 92.8639 279.269 92.737 278.192C92.6101 277.115 91.6376 276.344 90.5581 276.472C75.4078 278.256 73.4001 291.959 72.3217 299.32C72.1646 300.393 72.0289 301.319 71.8763 302.094C71.8699 302.125 71.8647 302.157 71.86 302.189C70.979 308.194 66.5036 311.522 60.8369 315.735C58.9277 317.154 56.9537 318.622 55.0025 320.293C54.7364 320.521 54.5361 320.816 54.4226 321.147C54.0319 322.286 53.3529 323.086 52.405 323.526C51.3324 324.023 50.1155 323.96 49.3847 323.675C47.9407 323.112 47.7386 321.927 47.7467 321.27C47.7601 320.196 48.3797 318.823 49.7078 318.343C50.1183 318.194 50.4676 317.914 50.7011 317.545C51.3655 316.492 51.8005 315.581 52.2208 314.7C52.4369 314.248 52.6517 313.797 52.9003 313.328C53.3516 312.48 53.1215 311.429 52.3576 310.846C51.5913 310.264 50.5182 310.32 49.8201 310.979C48.447 312.274 46.7067 313.599 45.0465 314.613C44.6866 314.832 44.4072 315.163 44.2493 315.553C43.9145 316.382 43.384 316.871 42.6726 317.006C41.904 317.153 41.0172 316.856 40.4617 316.271C40.2125 316.009 39.7729 314.86 40.0879 313.921C40.1711 313.673 40.4244 312.917 41.989 312.658C42.5345 312.567 43.0161 312.251 43.3166 311.787C44.7216 309.612 46.4527 307.373 48.6444 304.538L49.4735 303.464C49.8235 303.01 49.9581 302.426 49.8416 301.865C44.1463 274.461 58.3963 250.475 75.4629 243.117C76.4587 242.688 76.9174 241.533 76.4882 240.537C76.0586 239.542 74.9045 239.082 73.9082 239.512C55.5835 247.412 40.209 272.776 45.8187 301.773L45.5381 302.136C43.5094 304.761 41.8657 306.887 40.4653 308.977C37.7462 309.728 36.7341 311.573 36.3655 312.673C35.563 315.066 36.4103 317.706 37.6145 318.974C39.0969 320.536 41.3166 321.262 43.4058 320.863C43.553 320.835 43.6981 320.802 43.8407 320.763C43.829 320.915 43.8225 321.067 43.8209 321.221C43.7865 323.983 45.3721 326.325 47.9591 327.333C48.7943 327.659 49.723 327.82 50.6639 327.82Z" fill="#371A45"/>
<path d="M131.182 290.655C143.813 287.347 160.139 278.991 164.731 261.62C166.053 256.613 166.477 251.463 166.219 246.299L166.214 246.294C166.214 246.294 161.843 268.995 145.955 277.84C139.009 281.704 134.356 285.947 131.182 290.655Z" fill="#A05F3C"/>
<path d="M66.3361 270.503C72.7887 285.191 88.6812 289.874 108.182 288.94C114.226 288.65 117.494 292.96 124.021 292.084C136.631 290.392 159.197 282.55 164.729 261.622C174.676 223.998 133.797 178.43 133.797 178.43L72.0957 166.591C72.0957 166.591 75.9266 178.673 74.434 200.019C73.1294 218.677 60.8119 240.585 63.2447 257.784" fill="#EF82B1"/>
<path d="M63.2467 257.782L66.3337 270.503C72.7876 285.193 88.6794 289.875 108.183 288.937C114.225 288.648 117.494 292.962 124.021 292.083C136.629 290.39 159.196 282.552 164.727 261.625C170.268 240.658 160.035 217.228 149.881 200.59C141.812 187.368 133.798 178.431 133.798 178.431L72.0956 166.588C72.0956 166.588 75.9286 178.672 74.4317 200.021C73.9997 206.234 72.3459 212.806 70.417 219.446C66.5645 232.747 61.6222 246.312 63.2467 257.782Z" fill="#EF82B1"/>
<path d="M63.2466 257.782L66.3336 270.503C72.7875 285.193 88.6793 289.875 108.183 288.937C114.225 288.648 117.493 292.962 124.021 292.083C125.493 291.887 127.103 291.602 128.806 291.224C141.67 288.378 159.844 280.108 164.727 261.625C165.924 257.09 166.386 252.437 166.268 247.765C165.846 230.838 157.836 213.631 149.881 200.59C141.812 187.368 133.797 178.431 133.797 178.431L72.0954 166.588C72.0954 166.588 75.9284 178.672 74.4314 200.021C73.9995 206.234 72.3456 212.806 70.4168 219.446C66.5644 232.747 61.6221 246.312 63.2466 257.782Z" fill="#EF82B1"/>
<path d="M63.2467 257.782L64.7535 263.981L66.3338 270.503C71.4821 282.218 82.6378 287.568 96.8364 288.775C100.439 289.084 104.237 289.129 108.183 288.937C114.225 288.648 117.494 292.962 124.021 292.083C125.494 291.887 127.103 291.602 128.806 291.224C141.67 288.378 159.844 280.108 164.727 261.625C165.925 257.09 166.386 252.437 166.268 247.765C165.846 230.838 157.836 213.631 149.881 200.59C141.812 187.368 133.798 178.431 133.798 178.431L72.0956 166.588C72.0956 166.588 75.9286 178.672 74.4317 200.021C73.9997 206.234 72.3459 212.806 70.417 219.446C66.5645 232.747 61.6222 246.312 63.2467 257.782Z" fill="#EF82B1"/>
<path d="M64.7533 263.981L66.3336 270.503C71.4819 282.218 82.6375 287.568 96.8362 288.775C98.8288 281.399 102.112 272.206 107.648 272.805C120.713 274.218 141.636 274.734 142.926 240.511C143.599 222.685 115.516 229.635 114.608 229.758C113.876 229.861 78.4807 254.435 64.7533 263.981Z" fill="#F292B8"/>
<path d="M128.806 291.224C141.67 288.378 159.844 280.108 164.727 261.625C165.925 257.09 166.386 252.437 166.268 247.765C166.268 247.765 162.656 261.242 152.742 271.082C144.291 279.465 133.861 281.139 128.806 291.224Z" fill="#F292B8"/>
<path d="M109.886 350.595C113.886 352.347 117.935 350.104 117.872 344.033C121.086 340.171 125.842 332.868 127.339 329.064C129.744 322.954 129.611 316.834 130.269 311.695C133.057 289.835 142.892 290.179 155.829 277.158L145.184 276.982C137.385 282.002 129.675 285.222 126.873 296.549C123.054 311.975 125.062 321.104 122.51 328.225C119.334 337.069 113.509 341.579 113.509 341.579C113.509 341.579 115.545 344.313 113.783 346.423C111.796 348.809 108.414 347.989 106.863 345.088C106.632 347.434 107.644 349.614 109.886 350.595Z" fill="#F292B8"/>
<path d="M70.4173 219.446L72.4344 228.207C72.4344 228.207 111.668 242.685 117.464 240.231C123.26 237.777 128.998 194.455 128.998 194.455C136.173 191.344 143.864 196.139 149.881 200.59C141.812 187.368 133.798 178.431 133.798 178.431L72.0956 166.588C72.0956 166.588 75.9286 178.672 74.4317 200.021C74 206.234 72.346 212.806 70.4173 219.446Z" fill="#F292B8"/>
<path d="M122.297 294.164C122.93 294.164 123.59 294.123 124.282 294.03C140.5 291.854 161.322 282.192 166.628 262.124C170.827 246.239 166.705 226.473 154.708 204.961C145.728 188.86 135.682 177.591 135.259 177.12L134.817 176.627L69.2281 164.042L70.2243 167.184C70.261 167.3 73.9195 179.233 72.476 199.883C71.931 207.676 69.3334 216.309 66.8209 224.659C63.3947 236.045 59.8522 247.819 61.3009 258.06C61.4529 259.133 62.4486 259.881 63.5195 259.728C64.5932 259.577 65.3403 258.584 65.1882 257.51C63.8606 248.124 67.2768 236.77 70.5807 225.79C73.1556 217.235 75.8171 208.387 76.3924 200.156C77.4748 184.678 75.82 174.029 74.7515 169.099L132.762 180.231C137.057 185.217 171.851 227.006 162.831 261.121C158.022 279.314 138.778 288.124 123.76 290.138C120.792 290.538 118.656 289.697 116.181 288.726C113.911 287.834 111.339 286.829 108.088 286.979C87.0631 287.985 73.609 282.179 68.1338 269.713C67.6977 268.72 66.5384 268.269 65.5468 268.705C64.5541 269.141 64.1027 270.3 64.5389 271.292C70.7349 285.397 85.4595 291.989 108.276 290.901C110.686 290.78 112.657 291.56 114.746 292.38C116.898 293.225 119.289 294.164 122.297 294.164Z" fill="#371A45"/>
<path d="M155.831 277.159C142.89 290.179 133.059 289.836 130.268 311.694C129.612 316.834 129.746 322.955 127.341 329.064C125.844 332.868 121.084 340.168 117.873 344.033C117.935 350.107 113.886 352.347 109.888 350.598C106.452 349.094 105.9 344.769 108.293 341.365C108.262 338.166 108.699 333.631 109.121 330.577C107.689 333.849 105.317 337.776 103.313 340.025C103.477 345.935 98.5611 346.978 95.624 345.843C92.4339 344.611 90.5014 339.34 95.2228 336.199C96.1168 331.245 97.1161 324.479 98.3617 319.711C98.3617 319.711 88.3439 292.201 103.921 276.283" fill="#EF82B1"/>
<path d="M109.886 350.595C113.886 352.347 117.935 350.104 117.872 344.033C121.086 340.171 125.842 332.868 127.339 329.064C129.744 322.954 129.611 316.834 130.269 311.695C133.057 289.835 142.892 290.179 155.829 277.158L145.184 276.982C137.385 282.002 129.675 285.222 126.873 296.549C123.054 311.975 125.062 321.104 122.51 328.225C119.334 337.069 113.509 341.579 113.509 341.579C113.509 341.579 115.545 344.313 113.783 346.423C111.796 348.809 108.414 347.989 106.863 345.088C106.632 347.434 107.644 349.614 109.886 350.595Z" fill="#F292B8"/>
<path d="M154.438 275.776C152.147 278.073 149.698 280.2 147.108 282.224C141.79 286.369 135.672 290.464 132.479 296.795C129.99 301.568 128.932 306.653 128.271 311.867C127.723 316.732 127.635 321.79 126.202 326.359C125.308 329.411 123.672 332.12 121.996 334.832C120.259 337.585 118.379 340.313 116.363 342.779C116.053 343.147 115.903 343.606 115.91 344.053C115.934 345.721 115.543 347.314 114.718 348.229C113.639 349.665 110.894 349.376 109.683 348.125C108.264 346.592 108.682 344.236 109.899 342.494C110.146 342.145 110.262 341.744 110.256 341.346C110.244 339.645 110.347 337.878 110.49 336.119C110.636 334.359 110.827 332.59 111.065 330.846C111.212 329.772 110.46 328.782 109.386 328.635C108.497 328.513 107.666 329.009 107.322 329.791C105.921 332.905 104.045 336.157 101.844 338.723C101.503 339.111 101.34 339.6 101.351 340.08C101.489 342.184 100.459 344.164 98.2201 344.27C94.3864 344.658 92.8499 339.888 96.31 337.833C96.7734 337.53 97.0653 337.053 97.1546 336.548L98.5856 328.271C99.075 325.54 99.5886 322.816 100.261 320.207C100.348 319.872 100.341 319.534 100.256 319.221C97.5202 308.593 95.8947 297.118 99.0388 286.396C100.074 282.863 101.716 279.484 103.92 276.283C97.442 280.938 94.0317 289.115 93.2762 296.925C92.4906 304.858 93.5839 312.963 96.5167 320.383L96.4621 319.215C95.738 322.028 95.2187 324.808 94.7202 327.584L93.2908 335.85L94.135 334.565C92.002 335.912 90.2879 338.483 90.4359 341.153C90.6189 347.148 97.4404 350.185 102.275 346.857C104.502 345.341 105.389 342.453 105.275 339.971L104.779 341.331C106.138 339.778 107.209 338.174 108.22 336.519C109.22 334.862 110.127 333.165 110.919 331.365L107.176 330.309C106.69 334.014 106.33 337.616 106.329 341.384L106.686 340.236C105.321 342.183 104.516 344.705 105.023 347.312C105.945 352.918 113.944 355.208 117.659 350.832C119.345 348.906 119.848 346.401 119.836 344.014L119.383 345.288C121.59 342.586 123.498 339.804 125.323 336.917C126.692 334.7 128.033 332.478 129.063 330.033C130.735 325.975 131.362 321.45 131.71 317.255C131.98 313.936 132.262 310.778 132.939 307.554C134.129 301.258 136.814 295.602 141.778 291.45C146.758 287.208 152.579 283.361 157.222 278.543C157.988 277.775 157.985 276.532 157.217 275.767C156.449 275.001 155.203 275.005 154.438 275.776Z" fill="#371A45"/>
<path d="M121.566 191.632C172.64 187.921 202.85 162.278 214.853 127.977C235.8 68.117 196 10.0008 143.415 3.56152C86.1849 -3.44644 37.6314 24.9501 27.3773 93.9289C20.3626 141.118 32.6545 193.304 106.992 192.11" fill="#EF82B1"/>
<path d="M121.566 191.632C172.64 187.921 202.85 162.278 214.853 127.977C235.8 68.117 196 10.0008 143.415 3.56152C86.1849 -3.44644 37.6314 24.9501 27.3773 93.9289C20.3626 141.118 32.6545 193.304 106.992 192.11L121.566 191.632Z" fill="#EF82B1"/>
<path d="M104.507 187.372C105.293 187.372 106.076 187.366 106.877 187.353L121.314 186.879C144.827 185.157 164.597 178.61 180.073 167.42C194.229 157.184 204.42 143.384 210.362 126.406C219.722 99.6559 216.758 70.9089 202.229 47.5356C195.645 36.9452 186.826 27.7793 176.724 21.0286C166.276 14.0461 154.874 9.75838 142.836 8.28421C137.417 7.6207 132.029 7.28418 126.823 7.28418C102.47 7.28418 81.0901 14.6216 64.9947 28.5038C47.4268 43.656 36.3536 65.9037 32.0837 94.6284C28.8946 116.081 28.713 145.85 45.957 165.847C58.2736 180.13 77.9724 187.372 104.507 187.372Z" fill="#EF82B1"/>
<g opacity="0.7">
<path d="M112.588 17.5707C112.212 22.9237 120.382 27.8532 130.831 28.5908C141.285 29.3236 150.064 25.5788 150.44 20.2258C150.478 19.6738 150.426 19.1219 150.293 18.5794C160.128 21.0394 169.511 25.2362 178.305 31.1079C189.777 38.7734 199.793 49.1846 207.268 61.2134C209.114 64.1825 210.794 67.2326 212.307 70.3445C210.052 62.3792 206.683 54.7042 202.229 47.5382C195.644 36.9464 186.827 27.7772 176.725 21.03C166.276 14.0449 154.875 9.75764 142.837 8.28264C137.417 7.62128 132.031 7.28345 126.825 7.28345C102.472 7.28345 81.0888 14.6207 64.9964 28.5053C63.4356 29.8519 61.9226 31.2556 60.4617 32.7259C75.298 22.8288 93.1795 17.0569 113.05 15.777C112.788 16.3479 112.631 16.9473 112.588 17.5707Z" fill="white"/>
</g>
<path d="M36.3467 160.613C47.7474 179.708 69.4641 192.712 106.992 192.108L121.567 191.632C172.642 187.921 202.847 162.279 214.852 127.976C219.487 114.729 221.148 101.568 220.348 89.03C212.278 159.93 156.563 180.616 117.737 183.158C70.0067 186.282 49.0703 176.6 36.3467 160.613Z" fill="#F292B8"/>
<path d="M121.566 191.631C176.597 192.862 220.136 154.444 222.714 98.8841C225.323 49.8091 187.44 2.97435 137.367 0.458776C75.7084 -4.64131 33.2951 33.1905 25.1466 93.5038C20.4091 124.121 24.3308 161.651 52.1676 180.4C68.036 191.351 88.1784 194.136 106.992 192.11C88.7289 190.654 69.7631 187.696 54.4297 177.131C28.063 159.024 25.0275 123.374 29.6369 94.1736C37.9064 36.2961 77.6654 0.591977 136.98 5.42327C170.965 6.91783 200.895 31.2839 212.383 62.8475C225.437 97.0527 216.308 139.11 188.912 163.754C170.401 180.603 145.849 187.467 121.566 191.631Z" fill="#371A45"/>
<path d="M33.2097 71.2911C27.6778 77.661 22.9228 95.0623 32.083 114.452C41.2431 133.842 60.4936 137.149 66.624 129.44C71.3307 123.521 75.1453 106.954 65.9853 87.5637C56.8251 68.1741 38.8746 64.768 33.2097 71.2911Z" fill="#371A45"/>
<g opacity="0.7">
<path d="M70.1357 122.013C70.4908 114.752 69.1334 105.855 64.6043 96.269C55.4436 76.8774 37.4937 73.4696 31.829 79.9915C29.9598 82.142 28.1784 85.5563 26.9938 89.8817C27.4543 81.4082 30.2195 74.7329 33.2087 71.2905C38.8735 64.7686 56.8233 68.1765 65.9848 87.5623C72.5493 101.453 72.4481 113.895 70.1357 122.013Z" fill="white"/>
</g>
<g opacity="0.35">
<path d="M66.6242 129.443C60.4925 137.15 41.2414 133.839 32.0843 114.454C25.3829 100.272 26.1268 87.1549 29.1741 78.6423C29.2328 85.1691 30.6749 92.5808 34.3271 100.309C43.4833 119.7 62.7344 123.011 68.8671 115.298C69.8388 114.075 70.7733 112.395 71.5632 110.328C71.712 119.2 69.3109 126.061 66.6242 129.443Z" fill="#111A28"/>
</g>
<path d="M154.002 90.8705C158.962 98.7384 159.759 116.941 142.849 132.63C125.938 148.318 101.279 145.374 95.9723 136.031C91.8978 128.858 92.0156 111.754 108.926 96.0655C125.836 80.3769 148.924 82.8133 154.002 90.8705Z" fill="#371A45"/>
<g opacity="0.7">
<path d="M156.264 110.621C156.069 106.079 154.864 102.22 153.183 99.5515C148.105 91.4954 125.018 89.0553 108.106 104.746C99.7208 112.522 95.4617 120.654 93.7996 127.744C93.3291 119.224 96.8344 107.281 108.926 96.0638C125.837 80.3793 148.925 82.8138 154.003 90.8697C156.678 95.1154 158.145 102.369 156.264 110.621Z" fill="white"/>
</g>
<g opacity="0.35">
<path d="M142.849 132.562C125.944 148.247 101.283 145.306 95.9737 135.965C93.6487 131.868 92.6915 124.53 95.4471 116.066C95.819 118.299 96.4805 120.214 97.3215 121.695C102.63 131.043 127.291 133.983 144.196 118.298C150.938 112.04 154.867 105.389 156.841 99.147C158.114 108.28 155.213 121.093 142.849 132.562Z" fill="#111A28"/>
</g>
<path d="M57.3012 135.258C61.9157 135.258 65.7931 133.64 68.1605 130.662C73.0977 124.454 77.3541 107.035 67.76 86.7256C61.4539 73.3767 51.2041 67.5181 43.7155 66.4866C38.6409 65.7894 34.2745 67.071 31.727 70.0045C26.015 76.5824 20.5776 94.6944 30.3081 115.291C36.5647 128.535 47.1015 134.215 54.8761 135.115C55.7029 135.21 56.5134 135.258 57.3012 135.258ZM41.1018 70.2297C41.7702 70.2297 42.4655 70.2777 43.1799 70.3761C49.6508 71.2676 58.5735 76.4711 64.2105 88.4025C73.0442 107.103 69.4364 122.749 65.0875 128.219C63.2062 130.585 59.5541 131.703 55.3273 131.215C48.6003 130.436 39.4277 125.404 33.8577 113.614C25.4007 95.7111 29.2542 78.8402 34.6921 72.5788C36.0115 71.0594 38.3278 70.2297 41.1018 70.2297Z" fill="#371A45"/>
<path d="M114.688 145.667C123.701 145.667 134.925 142.659 144.184 134.069C162.281 117.28 160.829 98.0199 155.663 89.8235C153.404 86.24 148.436 83.7035 142.034 82.8651C130.092 81.3001 117.214 85.6978 107.591 94.6264C89.7498 111.179 89.9489 129.402 94.2653 137.001C96.6259 141.157 102.019 144.164 109.063 145.251C110.798 145.519 112.689 145.667 114.688 145.667ZM152.341 91.9173C157.168 99.5754 157 116.823 141.513 131.191C131.228 140.733 118.316 142.707 109.662 141.371C103.897 140.481 99.4177 138.122 97.6797 135.062C93.9566 128.508 94.08 112.516 110.261 97.5045C120.596 87.9159 133.184 85.668 141.524 86.7581C146.687 87.4344 150.731 89.3631 152.341 91.9173Z" fill="#371A45"/>
<path d="M76.771 139.202C76.2093 137.798 76.386 136.407 77.1657 136.095C77.9454 135.783 79.0329 136.668 79.5946 138.071C80.1564 139.475 79.9797 140.866 79.2 141.178C78.4203 141.49 77.3328 140.605 76.771 139.202Z" fill="#371A45"/>
<path d="M81.5462 141.515C80.8861 140.996 81.1086 139.612 82.0431 138.424C82.9776 137.235 84.2703 136.693 84.9304 137.212C85.5905 137.731 85.3681 139.116 84.4336 140.304C83.499 141.492 82.2063 142.034 81.5462 141.515Z" fill="#371A45"/>
<path d="M130.322 62.6251C138.083 39.576 149.481 37.0276 156.399 42.3801C159.861 45.0592 161.927 50.4603 162.921 54.4011C160.215 56.3495 158.6 59.6612 158.974 63.2183C159.529 68.5116 164.27 72.3518 169.558 71.7969C174.851 71.2415 178.692 66.5008 178.136 61.2076C177.754 57.5607 175.385 54.6013 172.217 53.2995C171.28 46.3365 167.702 33.8211 157.472 29.5368C136.753 20.86 122.603 43.8548 118.328 55.9809L130.322 62.6251Z" fill="#EF82B1"/>
<path d="M162.388 60.9319C162.255 61.56 162.217 62.2166 162.288 62.8733C162.626 66.0899 165.315 68.5213 168.541 68.5213C168.764 68.5213 168.988 68.507 169.212 68.4833C172.666 68.1217 175.188 65.0146 174.822 61.5553C174.798 61.3412 174.764 61.1319 174.722 60.9272C174.174 63.5348 171.995 65.6141 169.212 65.9092C168.988 65.933 168.764 65.9424 168.541 65.9424C165.533 65.9423 162.988 63.8297 162.388 60.9319Z" fill="#F292B8"/>
<g opacity="0.7">
<path d="M121.529 48.7128C128.457 37.3739 140.584 25.8385 156.264 32.6346C163.982 35.9797 168.919 49.0649 169.613 54.5369C176.889 55.6671 176.991 61.2746 177.386 65.0051C177.42 65.319 177.434 65.6331 177.439 65.9424C178.048 64.4959 178.314 62.878 178.138 61.2079C177.753 57.5631 175.383 54.6035 172.219 53.2997C171.281 46.3384 167.703 33.8194 157.473 29.537C140.438 22.4043 127.848 36.6744 121.529 48.7128Z" fill="white"/>
</g>
<path d="M130.321 62.6252C133.331 55.8385 136.8 48.7269 142.826 44.1705C146.794 41.1881 151.932 40.848 155.576 44.3954C158.296 47.0781 159.81 51.1831 161.016 54.8765C161.016 54.8993 161.772 52.8037 161.773 52.8084C159.706 54.3011 158.155 56.4764 157.435 58.9244C155.041 66.8023 161.736 74.7509 169.908 73.7281C175.024 73.1912 179.417 68.9188 180.034 63.7945C180.818 58.6974 177.768 53.3975 172.977 51.4903C172.936 51.4555 174.164 53.039 174.163 53.038C173.46 46.759 171.456 40.4974 167.694 35.3565L166.855 34.2452C166.548 33.9058 165.747 33.0105 165.447 32.6829C165.118 32.3669 164.238 31.5638 163.896 31.2432C163.532 30.9675 162.565 30.2164 162.207 29.952C161.798 29.6694 160.812 29.1197 160.382 28.85C152.503 24.703 142.83 25.1636 135.581 30.415C127.001 36.5601 121.481 46.1087 118.327 55.9811C122.354 46.7183 128.272 37.8102 136.904 32.4716C142.378 29.0344 149.308 28.2039 155.319 30.6566C156.973 31.277 158.51 32.1078 159.92 33.1469C160.192 33.3772 160.97 34.0146 161.256 34.253C161.536 34.5313 162.216 35.2233 162.487 35.4895C162.718 35.7721 163.369 36.5471 163.613 36.8386C167.509 41.9935 169.422 48.3502 170.468 54.6786C170.472 54.678 171.475 55.1195 171.48 55.1197C176.509 57.1237 177.84 63.9424 173.919 67.6888C170.892 70.7921 165.414 70.5187 162.687 67.1552C159.832 63.8878 160.497 58.4592 164.068 55.9946L165.126 55.2295C164.552 52.5123 163.886 49.8326 162.651 47.2795C159.424 39.8384 151.536 35.7015 144.006 39.8861C136.027 44.637 132.606 54.1527 130.321 62.6252Z" fill="#371A45"/>
<path d="M67.1221 48.4056C67.3557 47.5185 62.3774 13.8104 38.9716 10.9731C26.7288 9.48779 18.2773 17.5326 14.9116 20.7897C13.5801 20.3026 12.1183 20.1077 10.6132 20.2656C5.31926 20.8212 1.47713 25.5641 2.03271 30.8582C2.58771 36.147 7.33064 39.9891 12.6246 39.4335C17.9136 38.8785 21.7555 34.1356 21.2005 28.8467C21.1571 28.4334 21.0879 28.0281 20.9926 27.631C26.5017 24.3257 47.2497 16.9997 53.6582 50.3971L67.1221 48.4056Z" fill="#EF82B1"/>
<path d="M63.3679 45.594C62.7238 42.3294 61.2763 36.6887 58.4804 30.9633C53.5645 20.8985 46.8663 15.2853 38.5705 14.2796C37.7128 14.1755 36.847 14.1228 35.9981 14.1228C26.5911 14.1228 20.0295 20.4721 17.2272 23.1832L15.7272 24.635L13.7668 23.9176C13.0864 23.6688 12.37 23.5426 11.6362 23.5426C11.4128 23.5426 11.1855 23.5544 10.9606 23.5781C7.50113 23.941 4.98211 27.051 5.34499 30.5108C5.68282 33.7289 8.37511 36.1559 11.6074 36.1561C11.8291 36.1561 12.0545 36.1443 12.277 36.1208C13.9498 35.9454 15.4553 35.1279 16.5157 33.8188C17.5761 32.5098 18.0631 30.8675 17.8875 29.1944C17.8596 28.9261 17.8145 28.6616 17.7537 28.4075L17.184 26.0316L19.2788 24.7747C20.6593 23.9466 25.6624 21.245 32.1023 21.245C40.5263 21.245 51.3588 25.7515 56.2644 46.6445L63.3679 45.594Z" fill="#EF82B1"/>
<path d="M5.34674 30.5132C5.68469 33.7297 8.37306 36.1565 11.6087 36.1565C11.8275 36.1565 12.0559 36.1469 12.2748 36.1232C13.9497 35.9472 15.4534 35.1288 16.5145 33.8203C17.5756 32.5117 18.0609 30.8701 17.8896 29.1953C17.8609 28.9289 17.8135 28.6623 17.7516 28.4101L17.6994 28.1816C17.471 29.0144 17.0759 29.7947 16.5145 30.4847C15.4534 31.7933 13.9498 32.6117 12.2748 32.7877C12.056 32.8115 11.8276 32.8257 11.6087 32.8257C8.72044 32.8257 6.26996 30.8891 5.53717 28.1864C5.33254 28.9239 5.26112 29.709 5.34674 30.5132Z" fill="#F292B8"/>
<g opacity="0.7">
<path d="M1.98746 29.471C3.39116 26.5637 6.40949 21.8562 9.85438 21.4946C11.3581 21.3375 14.3351 22.3273 16.0401 23.6754C19.4041 20.416 27.103 13.4055 38.0217 14.7775C56.997 17.1619 67.1231 48.4041 67.1231 48.4041C67.3563 47.519 62.3791 13.8116 38.9733 10.9709C26.7303 9.48636 18.2748 17.5325 14.9108 20.792C13.5784 20.3019 12.1177 20.1068 10.6141 20.2638C5.78448 20.7681 2.16825 24.7604 1.98746 29.471Z" fill="white"/>
</g>
<path d="M67.122 48.4056C67.041 36.0782 61.3294 20.6395 50.9591 13.3383C42.3269 6.9971 30.1646 7.0783 21.2978 12.8966C18.3807 14.709 15.7988 16.9962 13.5463 19.3789L15.586 18.9461C10.742 17.1042 4.87411 19.0205 2.02487 23.3371C-4.58813 33.394 6.20815 45.533 16.9666 40.1354C21.6118 37.7958 24.1467 32.2183 22.9018 27.1748C22.9017 27.1663 22.0032 29.3164 22.0026 29.3147C34.0635 23.4504 43.6839 27.0994 49.5273 39.1396C51.264 42.591 52.6118 46.6607 53.658 50.3975L53.2466 47.3921L52.6806 44.4021C51.3203 38.3493 49.0625 32.252 44.5023 27.8192C38.1388 21.3637 27.3843 21.0593 19.9827 25.9479L18.8688 26.6879L19.0837 28.0894C19.446 29.7382 19.3136 31.5019 18.5849 33.0396C17.2131 36.1832 13.5817 38.0554 10.227 37.3924C4.86028 36.4646 2.15176 30.0252 5.27193 25.5443C7.60124 22.1706 11.7322 21.3628 15.3608 23.0453C16.7935 21.7111 18.3246 20.375 19.8351 19.2127C28.166 12.5361 39.3942 10.7398 48.5931 16.804C58.3019 23.177 64.5052 37.3686 67.122 48.4056Z" fill="#371A45"/>
<path d="M76.0219 90.7692C75.9166 76.8594 64.4186 63.4322 50.2472 62.7263C63.494 68.201 71.1474 77.474 76.0219 90.7692Z" fill="#371A45"/>
<path d="M135.439 78.075C124.293 74.8451 111.566 78.6366 103.613 87.005C100.984 89.8319 98.8764 93.0714 97.3712 96.5353C99.923 93.7268 102.41 91.0323 105.198 88.6926C113.634 81.5812 124.499 78.2977 135.439 78.075Z" fill="#371A45"/>
<path d="M104.694 256.618C102.946 246.962 102.606 239.756 104.004 213.439C105.325 188.576 94.6428 167.472 85.4405 166.943C77.7943 166.504 80.9587 181.407 65.6428 201.304C49.4481 222.343 44.2313 236.084 45.0376 251.397C46.2085 273.634 105.2 266.138 105.2 266.138C105.2 266.138 105.702 262.181 104.694 256.618Z" fill="#FFC661"/>
<path d="M84.2201 269.332C95.3695 269.332 104.639 268.188 105.448 268.086L106.956 267.894L107.148 266.385C107.17 266.211 107.675 262.062 106.627 256.268C104.897 246.721 104.581 239.583 105.965 213.543C106.592 201.737 104.64 189.926 100.47 180.286C96.3972 170.871 90.9599 165.294 85.5528 164.983C80.3391 164.684 78.8118 169.185 76.7105 175.417C74.6102 181.644 71.7349 190.172 64.0868 200.106C48.1132 220.859 42.2223 235.268 43.0771 251.5C43.2809 255.375 45.0009 258.689 48.1888 261.352C55.9087 267.8 71.3215 269.332 84.2201 269.332ZM103.347 264.37C95.6321 265.18 62.2997 268.025 50.7049 258.338C48.3571 256.376 47.1443 254.072 46.9981 251.294C46.1981 236.105 51.8619 222.425 67.1985 202.502C75.2461 192.047 78.3659 182.795 80.4307 176.672C82.4431 170.704 83.274 168.775 85.3276 168.903C92.8093 169.333 103.358 188.606 102.044 213.335C100.639 239.767 100.972 247.078 102.763 256.968C103.341 260.163 103.393 262.809 103.347 264.37Z" fill="#371A45"/>
<path d="M98.8142 259.658C97.5461 255.917 96.71 251.393 96.3438 245.12C98.4767 245.63 101.017 244.694 101.544 242.471C102.594 238.038 97.2601 235.61 96.3291 227.635C96.4939 223.317 96.7628 218.48 97.1396 213.033C100.195 213.514 102.417 211.963 102.526 208.974C102.679 204.741 98.0473 200.508 97.2516 193.398C96.1826 177.867 92.104 167.326 85.4402 166.943C77.794 166.503 80.9584 181.407 65.6426 201.304C59.8322 208.852 55.435 215.461 52.2219 221.54C50.8601 224.117 45.8424 227.703 44.787 230.6C44.0605 232.593 45.1647 234.556 46.7534 235.005C45.2403 240.542 44.746 245.867 45.0372 251.397C46.2082 273.634 99.5142 266.685 99.5142 266.685C99.5142 266.685 100.629 265.013 98.8142 259.658Z" fill="#FDBA18"/>
<path d="M46.7515 235.005C45.2399 240.541 44.7442 245.866 45.0386 251.397C46.2066 273.634 99.5162 266.685 99.5162 266.685C99.5162 266.685 100.63 265.011 98.8144 259.657C97.5482 255.917 96.7089 251.392 96.3457 245.12C98.4757 245.63 101.018 244.693 101.543 242.469C102.593 238.038 97.2586 235.608 96.331 227.638C96.3556 227 96.38 226.352 96.4095 225.689C96.5763 221.876 96.8168 217.675 97.1407 213.032C100.193 213.513 102.417 211.962 102.525 208.973C102.682 204.742 98.0487 200.507 97.2535 193.4C96.1836 177.867 92.1051 167.325 85.4403 166.942C77.7937 166.505 80.9593 181.405 65.6418 201.302C60.675 207.756 56.7389 213.522 53.7009 218.862C53.7009 218.862 53.7009 218.857 53.696 218.862C53.1808 219.77 52.6899 220.658 52.2236 221.542C50.8592 224.119 45.8434 227.701 44.7882 230.597C44.0619 232.595 45.1662 234.558 46.7515 235.005Z" fill="#FDBA18"/>
<path d="M46.7514 235.004C45.2398 240.541 44.7441 245.866 45.0385 251.397C46.2066 273.634 99.5161 266.685 99.5161 266.685C99.5161 266.685 100.63 265.011 98.8143 259.657C97.5481 255.917 96.7088 251.392 96.3456 245.119C98.4756 245.63 101.018 244.692 101.543 242.469C102.593 238.037 97.2586 235.608 96.3309 227.638C96.3555 227 96.3799 226.352 96.4094 225.689C87.531 222.509 72.135 218.798 75.1435 232.693C70.4761 241.075 78.6772 247.956 73.2343 249.983C68.4196 251.775 51.3844 248.771 49.6371 246.096C47.8949 243.421 61.1462 242.726 59.6329 229.396C61.8005 228.043 67.8405 222.111 60.8468 219.005C59.0897 218.224 56.5425 218.303 53.7008 218.862C53.7008 218.862 53.7008 218.857 53.6959 218.862C53.1807 219.77 52.6898 220.658 52.2235 221.542C50.8591 224.119 45.8433 227.701 44.7881 230.597C44.0618 232.595 45.1661 234.558 46.7514 235.004Z" fill="#F29B0F"/>
<path d="M64.7011 245.84C63.6506 245.68 62.9573 244.508 63.1526 243.22C63.3479 241.933 64.3578 241.019 65.4084 241.178C66.4589 241.338 67.1522 242.51 66.9569 243.798C66.7616 245.085 65.7516 245.999 64.7011 245.84Z" fill="#F29B0F"/>
<path d="M70.1903 222.191C69.3204 222.059 68.7464 221.088 68.9081 220.022C69.0698 218.956 69.9061 218.199 70.776 218.331C71.6458 218.463 72.2199 219.434 72.0582 220.5C71.8965 221.566 71.0602 222.323 70.1903 222.191Z" fill="#F29B0F"/>
<path d="M76.1292 232.763C75.995 233.647 76.4711 234.453 77.1925 234.562C77.914 234.672 78.6076 234.044 78.7417 233.16C78.8759 232.276 78.3998 231.47 77.6784 231.361C76.9569 231.251 76.2633 231.879 76.1292 232.763Z" fill="#F29B0F"/>
<path d="M79.2199 199.772C79.0347 200.992 79.6919 202.104 80.6877 202.255C81.6836 202.406 82.641 201.539 82.8261 200.319C83.0113 199.099 82.3541 197.987 81.3583 197.836C80.3626 197.685 79.4051 198.551 79.2199 199.772Z" fill="#F29B0F"/>
<path d="M83.7293 174.887C83.7069 173.824 84.3918 172.948 85.259 172.93C86.1263 172.911 86.8474 173.758 86.8697 174.821C86.892 175.884 86.2071 176.76 85.3399 176.778C84.4727 176.796 83.7516 175.95 83.7293 174.887Z" fill="#F29B0F"/>
<path d="M81.9141 269.691C91.4041 269.692 99.0808 268.721 99.7685 268.631C100.33 268.558 100.834 268.245 101.148 267.773C101.535 267.193 102.646 264.846 100.673 259.028C99.5578 255.737 98.8422 251.924 98.4532 247.153C99.3691 247.029 100.249 246.728 101.008 246.261C102.258 245.491 103.127 244.306 103.455 242.923C104.16 239.947 102.758 237.653 101.402 235.435C100.153 233.391 98.7391 231.079 98.2966 227.555C98.4422 223.789 98.6634 219.679 98.9708 215.043C100.263 214.914 101.42 214.458 102.342 213.699C103.656 212.616 104.419 210.963 104.488 209.045C104.579 206.531 103.414 204.207 102.181 201.747C100.967 199.326 99.592 196.583 99.207 193.22C97.9772 175.445 93.1286 165.418 85.5527 164.983C80.339 164.684 78.8116 169.185 76.7103 175.417C74.6101 181.644 71.7347 190.172 64.0866 200.106C58.1666 207.799 53.7175 214.509 50.4864 220.623C50.013 221.52 48.7273 222.818 47.4842 224.074C45.6104 225.966 43.6726 227.924 42.9424 229.927C42.4021 231.411 42.49 232.981 43.1904 234.349C43.5147 234.982 43.9556 235.531 44.4779 235.967C43.2516 241.013 42.7934 246.111 43.0769 251.5C43.2953 255.649 45.105 259.167 48.4559 261.957C56.0035 268.24 70.3129 269.691 81.9141 269.691ZM97.8883 264.895C91.2031 265.606 61.977 268.107 50.9667 258.938C48.4571 256.848 47.1586 254.347 46.998 251.294C46.7085 245.802 47.2484 240.643 48.647 235.522C48.9311 234.482 48.3238 233.408 47.2868 233.115C47.055 233.05 46.8303 232.842 46.6853 232.56C46.5712 232.337 46.4128 231.873 46.6318 231.271C47.0679 230.075 48.7717 228.354 50.2745 226.836C51.7855 225.31 53.2127 223.868 53.958 222.457C57.0843 216.543 61.4152 210.015 67.1983 202.501C75.2459 192.047 78.3657 182.794 80.4306 176.672C82.4429 170.703 83.2738 168.775 85.3274 168.903C90.4491 169.197 94.2677 178.634 95.2932 193.533C95.2956 193.56 95.2978 193.588 95.3007 193.616C95.7572 197.693 97.3724 200.916 98.6709 203.506C99.7161 205.591 100.619 207.392 100.564 208.903C100.535 209.705 100.293 210.299 99.8454 210.668C99.3179 211.103 98.4655 211.254 97.4447 211.093C96.9038 211.01 96.3465 211.155 95.9162 211.498C95.486 211.84 95.2192 212.348 95.1808 212.897C94.7995 218.417 94.5333 223.213 94.3674 227.56C94.3634 227.661 94.3674 227.763 94.379 227.863C94.9001 232.326 96.6476 235.184 98.052 237.482C99.3453 239.597 99.9526 240.674 99.6341 242.017C99.545 242.394 99.3214 242.688 98.9499 242.917C98.3665 243.276 97.5426 243.388 96.8002 243.211C96.197 243.067 95.5594 243.217 95.0836 243.615C94.6074 244.014 94.3482 244.615 94.3844 245.235C94.7443 251.392 95.5605 256.174 96.9552 260.288C97.7416 262.609 97.8982 264.07 97.8883 264.895Z" fill="#371A45"/>
<path d="M35.1274 252.665C36.6732 248.904 40.89 246.194 44.3182 246.93C45.3245 247.146 53.989 253.605 71.9059 255.486C90.4671 257.435 98.5872 255.661 102.347 256.244C103.905 256.485 104.989 278.111 103.204 278.408C75.829 282.971 43.2733 271.601 37.7909 265.046C35.4022 262.19 32.8442 258.22 35.1274 252.665Z" fill="#E78224"/>
<path d="M37.7895 265.046C43.2717 271.603 75.8306 282.969 103.202 278.41C104.988 278.11 103.904 256.486 102.348 256.246C101.514 256.118 100.463 256.103 99.1284 256.143C94.4658 256.265 86.3434 257.002 71.9043 255.485C53.9905 253.605 45.3231 247.147 44.317 246.931C40.8913 246.194 36.6754 248.904 35.1294 252.663C32.8424 258.219 35.4043 262.189 37.7895 265.046Z" fill="#E78224"/>
<g opacity="0.5">
<path d="M88.7531 262.869C92.3942 262.01 92.6182 259.679 88.7531 259.249C84.8881 258.82 76.9124 259.786 64.4007 257.25C58.7019 256.095 57.8861 258.684 63.6658 260.804C70.0214 263.134 85.112 263.728 88.7531 262.869Z" fill="white"/>
</g>
<g opacity="0.5">
<path d="M53.4162 257.562C57.0764 258.336 58.878 256.527 55.3487 254.894C53.4127 253.998 51.7372 254.003 47.22 251.314C42.6189 248.575 41.2309 250.477 44.8275 253.268C47.1886 255.101 50.6972 256.987 53.4162 257.562Z" fill="white"/>
</g>
<path d="M37.7895 265.046C43.2717 271.602 75.8306 282.969 103.202 278.41C104.988 278.11 103.904 256.486 102.348 256.246C101.514 256.118 100.463 256.103 99.1284 256.143C96.8462 257.728 94.6818 260.187 94.6818 263.789C94.6818 270.292 91.6143 272.908 83.8108 272.54C77.5582 272.246 75.9337 265.875 75.9337 265.875C75.9337 265.875 75.4233 271.583 69.9804 271.082C60.94 270.253 58.7855 263.573 58.7855 263.573C58.7855 263.573 57.7107 267.299 52.5132 266.003C48.263 264.943 47.0016 258.837 47.0016 258.837C47.0016 258.837 39.0998 265.669 35.1294 252.663C32.8424 258.219 35.4043 262.189 37.7895 265.046Z" fill="#CE670B"/>
<path d="M89.8227 281.419C94.4501 281.419 99.0611 281.089 103.527 280.345C105.53 280.011 106.128 277.849 106.09 271.094C106.072 267.818 105.865 264.088 105.536 261.114C105.041 256.638 104.507 254.592 102.649 254.303C101.17 254.076 99.2643 254.157 96.6272 254.269C91.6686 254.48 84.1753 254.801 72.1111 253.534C57.6508 252.016 49.5229 247.512 46.4631 245.816C45.5868 245.331 45.1873 245.109 44.7308 245.011C40.387 244.079 35.2613 247.176 33.3118 251.918C30.3265 259.182 34.6556 264.358 36.2854 266.306C41.4677 272.502 65.7992 281.419 89.8227 281.419ZM101.908 276.627C86.3506 278.992 70.7672 276.013 62.7685 273.993C50.3386 270.855 41.5527 266.483 39.297 263.787C36.9923 261.031 35.1116 257.867 36.9429 253.411C38.1191 250.55 41.3408 248.396 43.7741 248.824C43.9406 248.907 44.2667 249.088 44.5602 249.25C47.8109 251.052 56.4462 255.837 71.7011 257.439C84.0541 258.736 91.7203 258.408 96.7949 258.192C98.6139 258.113 100.051 258.052 101.12 258.1C101.98 261.465 102.487 273.348 101.908 276.627Z" fill="#371A45"/>
<path d="M95.3862 267.884C94.9132 261.768 97.6479 256.568 101.494 256.27C105.341 255.973 108.843 260.69 109.316 266.807C109.789 272.924 107.054 278.123 103.207 278.421C99.3609 278.718 95.8592 274.001 95.3862 267.884Z" fill="#FFC661"/>
<path d="M95.3837 267.873C95.8549 273.988 99.359 278.704 103.202 278.41C107.05 278.111 109.784 272.913 109.312 266.793C109.253 265.998 109.141 265.222 108.979 264.486C108.689 269.531 106.186 273.482 102.844 273.742C99.5015 273.998 96.4193 270.469 95.3593 265.527C95.315 266.287 95.3199 267.073 95.3837 267.873Z" fill="#FFAE43"/>
<path d="M95.3825 267.871C95.8251 263.799 99.2573 254.811 104.273 259.588C107.52 262.819 108.057 268.232 106.532 272.42C104.386 277.969 101.204 277.216 97.0586 273.986C97.1053 277.245 99.8264 280.452 103.334 280.365C105.543 280.342 107.714 278.924 108.899 277.255C111.899 273.012 111.787 267.886 110.679 263.143C106.702 248.074 91.6328 253.93 95.3825 267.871Z" fill="#371A45"/>
<path d="M50.7324 229.017L45.1183 233.918C44.2716 234.658 44.1846 235.943 44.9238 236.79C45.9052 237.979 47.9457 237.55 48.3884 236.091L50.7324 229.017Z" fill="#371A45"/>
<path d="M92.2296 235.119C91.0451 239.233 91.3846 244.622 95.6162 246.944L97.0717 243.297C96.4292 243.179 95.7788 242.945 95.1749 242.488C93.148 240.749 92.4306 237.744 92.2296 235.119Z" fill="#371A45"/>
<path d="M92.1395 198.549C90.2726 204.123 89.9091 212.492 96.6228 214.927L97.6564 211.139C97.1367 211.067 96.631 210.946 96.1519 210.744C92.1166 208.669 91.9049 202.615 92.1395 198.549Z" fill="#371A45"/>
<path d="M128.998 194.458C123.075 203.422 120.961 225.784 116.411 228.76C112.28 225.508 105.325 221.581 101.019 220.804C97.3864 220.149 90.0415 220.784 85.1336 222.195C82.0048 220.14 77.4343 222.479 77.4343 226.305C77.4343 229.802 80.8698 231.551 84.4996 229.925C87.6658 230.675 90.3074 231.264 92.0659 232.072C88.5384 232.682 85.747 234.005 83.1091 235.078C79.8576 233.142 77.0662 235.692 76.7288 238.371C76.3279 241.554 78.6613 243.912 83.1434 242.738C87.264 243.719 90.7873 243.544 93.661 245.998C98.3339 249.989 105.076 268.78 122.536 266.448C147.648 263.094 143.943 219.987 143.943 219.987L128.998 194.458Z" fill="#EF82B1"/>
<path d="M106.61 150.967C105.182 151.955 104.496 153.944 104.186 155.43C103.833 156.739 103.54 157.106 102.547 157.49C100.743 158.189 99.8162 156.4 98.2543 155.448C95.5725 153.703 92.7942 154.807 90.7398 156.774C89.7333 157.549 89.4194 157.636 88.3614 157.412C87.8607 157.277 87.5341 157.081 87.2557 156.823C86.4729 156.04 86.1609 154.508 85.3456 153.487C84.8469 152.825 84.1406 152.298 83.3795 152.14C84.1289 153.55 83.9554 154.615 84.1103 156.117C84.2088 159.092 87.4177 161.242 90.2778 160.643C92.0216 160.317 93.1379 158.983 94.3033 158.193C95.783 157.232 96.9015 158.23 98.1673 159.258C101.302 162.002 106.268 160.283 107.031 156.186C107.367 154.953 107.483 154.02 108.412 153.296C109.881 152.07 108.174 149.85 106.61 150.967Z" fill="#371A45"/>
<path d="M106.434 146.809C102.894 150.636 104.99 157.533 111.81 157.206L106.434 146.809Z" fill="#EF82B1"/>
<path d="M106.434 146.809C103.567 147.96 102.663 151.907 104.104 154.574C105.434 157.376 109.155 158.665 111.81 157.206C109.557 156.225 107.77 155.277 106.725 153.234C105.726 151.222 105.722 149.155 106.434 146.809Z" fill="#371A45"/>
<path d="M110.593 323.747C109.779 325.977 108.442 328.012 107.234 330.034C106.635 330.989 106.924 332.25 107.879 332.85C109.184 333.722 111.049 332.673 111.007 331.121C110.986 328.649 111.073 326.171 110.593 323.747Z" fill="#371A45"/>
<path d="M54.6432 307.715L49.5894 311.238C48.6511 311.892 48.4208 313.183 49.075 314.122C49.9874 315.525 52.285 315.16 52.7442 313.576L54.6432 307.715Z" fill="#371A45"/>
<path d="M102.004 315.486C102.986 317.776 114.318 318.212 114.683 314.504C114.976 311.519 111.316 301.976 106.83 301.294C99.836 300.23 101.023 313.195 102.004 315.486Z" fill="#F292B8"/>
<path d="M50.8172 300.783C51.7987 303.073 61.2111 304.94 61.5757 301.232C61.8692 298.246 58.3311 290.679 53.9685 289.433C48.8151 287.961 49.8356 298.493 50.8172 300.783Z" fill="#F292B8"/>
<path d="M66.8651 213.097C64.981 211.065 65.4876 207.532 67.9967 205.205C70.5059 202.878 74.0673 202.638 75.9514 204.67C77.8356 206.701 77.3289 210.235 74.8198 212.562C72.3107 214.889 68.7493 215.129 66.8651 213.097Z" fill="#B72525"/>
<path d="M67.3813 211.393C67.4198 211.92 67.9011 212.225 68.4561 212.074C69.0111 211.924 69.4298 211.375 69.3913 210.848C69.3528 210.322 68.8716 210.017 68.3165 210.167C67.7614 210.318 67.3428 210.866 67.3813 211.393Z" fill="#F45D5D"/>
<path d="M71.0031 212.284C71.0276 212.619 71.3336 212.813 71.6867 212.717C72.0398 212.621 72.3061 212.272 72.2816 211.937C72.257 211.602 71.951 211.408 71.5979 211.504C71.2448 211.6 70.9785 211.949 71.0031 212.284Z" fill="#F45D5D"/>
<path d="M72.1131 207.504C72.1315 207.754 72.3599 207.899 72.6234 207.828C72.8868 207.756 73.0856 207.496 73.0674 207.246C73.049 206.996 72.8206 206.851 72.5571 206.922C72.2936 206.994 72.0948 207.254 72.1131 207.504Z" fill="#F45D5D"/>
<path d="M67.9669 206.751C68.0006 207.211 68.421 207.478 68.9059 207.346C69.3908 207.215 69.7565 206.735 69.7229 206.275C69.6891 205.815 69.2688 205.549 68.7839 205.68C68.299 205.811 67.9333 206.291 67.9669 206.751Z" fill="#F45D5D"/>
<path d="M72.8783 205.755C72.9119 206.215 73.3324 206.481 73.8173 206.35C74.3021 206.218 74.6679 205.739 74.6343 205.279C74.6006 204.819 74.1802 204.552 73.6953 204.684C73.2104 204.815 72.8447 205.295 72.8783 205.755Z" fill="#F45D5D"/>
<g opacity="0.3">
<path d="M67.2992 213.49C66.8439 212.886 66.5546 212.134 66.4914 211.27C66.287 208.478 68.507 205.568 71.451 204.769C74.2076 204.022 76.6222 205.395 77.0828 207.869C77.0882 207.69 77.0853 207.512 77.0723 207.334C76.8549 204.365 74.1415 202.644 71.0122 203.492C67.8808 204.341 65.5202 207.439 65.7376 210.408C65.8334 211.715 66.4128 212.781 67.2992 213.49Z" fill="white"/>
</g>
<path d="M74.4707 209.64C74.4918 209.929 74.7557 210.096 75.0602 210.014C75.3645 209.931 75.5942 209.63 75.5731 209.341C75.5519 209.053 75.2881 208.885 74.9836 208.968C74.6792 209.05 74.4496 209.351 74.4707 209.64Z" fill="#F45D5D"/>
<path d="M70.2308 215.199C70.8067 215.199 71.3989 215.12 71.9917 214.959C75.4399 214.024 78.0485 210.579 77.8075 207.28C77.6922 205.706 76.9579 204.364 75.7398 203.501C74.4075 202.557 72.6142 202.296 70.8185 202.782C67.3703 203.717 64.7617 207.163 65.0033 210.461C65.1186 212.035 65.8522 213.377 67.0698 214.24C67.9623 214.873 69.0622 215.199 70.2308 215.199ZM72.5798 204.014C73.4451 204.014 74.2474 204.249 74.8885 204.703C75.7415 205.306 76.2563 206.26 76.3389 207.388C76.5316 210.019 74.4082 212.779 71.6061 213.538C70.2367 213.909 68.8927 213.728 67.921 213.039C67.0686 212.435 66.5543 211.481 66.4717 210.354C66.279 207.722 68.4013 204.964 71.2038 204.203C71.6703 204.077 72.1331 204.014 72.5798 204.014Z" fill="#371A45"/>
<path d="M82.5864 195.047C79.9871 194.088 78.8409 190.707 80.0264 187.497C81.2118 184.286 84.2799 182.462 86.8792 183.422C89.4785 184.382 90.6247 187.762 89.4392 190.972C88.2538 194.183 85.1857 196.007 82.5864 195.047Z" fill="#B72525"/>
<path d="M82.2842 193.292C82.5568 193.744 83.1239 193.798 83.5508 193.413C83.9777 193.028 84.1029 192.349 83.8303 191.897C83.5577 191.444 82.9907 191.39 82.5638 191.775C82.1368 192.161 82.0117 192.84 82.2842 193.292Z" fill="#F45D5D"/>
<path d="M85.9172 192.448C86.0905 192.736 86.4513 192.77 86.7228 192.525C86.9944 192.28 87.074 191.848 86.9006 191.561C86.7272 191.273 86.3665 191.238 86.0948 191.483C85.8233 191.729 85.7436 192.16 85.9172 192.448Z" fill="#F45D5D"/>
<path d="M84.7456 187.683C84.875 187.898 85.1443 187.924 85.3469 187.741C85.5495 187.558 85.609 187.236 85.4796 187.021C85.3502 186.806 85.0809 186.78 84.8783 186.963C84.6757 187.146 84.6162 187.469 84.7456 187.683Z" fill="#F45D5D"/>
<path d="M80.7073 188.887C80.9454 189.282 81.4408 189.329 81.8138 188.993C82.1868 188.656 82.2962 188.063 82.058 187.668C81.8199 187.273 81.3245 187.225 80.9515 187.562C80.5785 187.898 80.4691 188.492 80.7073 188.887Z" fill="#F45D5D"/>
<path d="M84.6367 185.777C84.8749 186.172 85.3702 186.22 85.7433 185.883C86.1163 185.546 86.2256 184.953 85.9875 184.558C85.7493 184.163 85.254 184.116 84.881 184.452C84.5079 184.789 84.3987 185.382 84.6367 185.777Z" fill="#F45D5D"/>
<g opacity="0.3">
<path d="M83.1591 195.199C82.48 194.867 81.8817 194.327 81.4344 193.585C79.9896 191.187 80.6532 187.587 82.9177 185.544C85.0382 183.63 87.8127 183.763 89.3427 185.761C89.2666 185.599 89.1833 185.441 89.0913 185.289C87.5545 182.739 84.356 182.431 81.9488 184.603C79.5401 186.777 78.8355 190.606 80.3722 193.156C81.0491 194.279 82.0478 194.968 83.1591 195.199Z" fill="white"/>
</g>
<path d="M87.8142 188.522C87.9636 188.77 88.2746 188.8 88.5088 188.589C88.7429 188.377 88.8116 188.005 88.662 187.757C88.5125 187.509 88.2015 187.479 87.9674 187.69C87.7333 187.902 87.6646 188.274 87.8142 188.522Z" fill="#F45D5D"/>
<path d="M84.019 196.025C85.4124 196.025 86.8325 195.448 88.0087 194.388C90.6615 191.993 91.4301 187.741 89.7223 184.908C88.9077 183.556 87.6465 182.691 86.1705 182.473C84.5581 182.233 82.8375 182.81 81.4552 184.057C78.803 186.451 78.0344 190.704 79.7416 193.537C80.5562 194.888 81.8179 195.753 83.294 195.972C83.534 196.007 83.7762 196.025 84.019 196.025ZM85.4443 183.892C85.6156 183.892 85.7861 183.904 85.9544 183.929C86.9873 184.083 87.8776 184.7 88.461 185.668C89.8236 187.928 89.1778 191.349 87.0222 193.294C85.9683 194.246 84.6845 194.692 83.51 194.515C82.4764 194.362 81.5861 193.745 81.0027 192.776C79.6408 190.517 80.2865 187.095 82.4415 185.15C83.3447 184.335 84.415 183.892 85.4443 183.892Z" fill="#371A45"/>
<path d="M52.666 245.945C50.0667 244.985 48.9205 241.605 50.106 238.394C51.2914 235.184 54.3595 233.36 56.9588 234.319C59.5581 235.279 60.7042 238.66 59.5188 241.87C58.3334 245.08 55.2653 246.905 52.666 245.945Z" fill="#B72525"/>
<path d="M52.3641 244.189C52.6367 244.641 53.2037 244.696 53.6306 244.31C54.0575 243.925 54.1828 243.246 53.9102 242.794C53.6375 242.342 53.0705 242.287 52.6436 242.673C52.2167 243.058 52.0916 243.737 52.3641 244.189Z" fill="#F45D5D"/>
<path d="M55.997 243.346C56.1704 243.633 56.5311 243.668 56.8026 243.423C57.0743 243.178 57.1538 242.746 56.9804 242.458C56.8071 242.17 56.4463 242.136 56.1748 242.381C55.9032 242.626 55.8236 243.058 55.997 243.346Z" fill="#F45D5D"/>
<path d="M54.8254 238.581C54.9548 238.795 55.2241 238.821 55.4267 238.638C55.6293 238.455 55.6888 238.133 55.5594 237.918C55.43 237.704 55.1608 237.678 54.9582 237.861C54.7556 238.044 54.6961 238.366 54.8254 238.581Z" fill="#F45D5D"/>
<path d="M50.7872 239.784C51.0253 240.179 51.5207 240.227 51.8937 239.89C52.2667 239.554 52.3759 238.961 52.1379 238.565C51.8999 238.17 51.4044 238.123 51.0314 238.459C50.6582 238.796 50.549 239.389 50.7872 239.784Z" fill="#F45D5D"/>
<path d="M54.7168 236.674C54.9549 237.069 55.4503 237.117 55.8233 236.78C56.1963 236.444 56.3057 235.851 56.0675 235.456C55.8294 235.061 55.334 235.013 54.961 235.35C54.588 235.686 54.4788 236.279 54.7168 236.674Z" fill="#F45D5D"/>
<g opacity="0.3">
<path d="M53.2392 246.097C52.5601 245.764 51.9618 245.224 51.5145 244.482C50.0696 242.084 50.7333 238.484 52.9978 236.441C55.1184 234.528 57.8928 234.66 59.4228 236.659C59.3467 236.497 59.2633 236.339 59.1713 236.186C57.6345 233.636 54.436 233.328 52.0288 235.5C49.6201 237.674 48.9154 241.504 50.4522 244.054C51.1292 245.177 52.1279 245.865 53.2392 246.097Z" fill="white"/>
</g>
<path d="M57.8942 239.419C58.0438 239.667 58.3548 239.697 58.5889 239.486C58.8229 239.275 58.8917 238.902 58.7421 238.654C58.5926 238.406 58.2816 238.376 58.0475 238.588C57.8134 238.799 57.7447 239.171 57.8942 239.419Z" fill="#F45D5D"/>
<path d="M54.0988 246.922C55.4923 246.922 56.9124 246.346 58.0886 245.285C60.7414 242.891 61.5106 238.639 59.8028 235.806C58.9876 234.454 57.7258 233.589 56.2497 233.37C54.6369 233.13 52.9168 233.708 51.5351 234.955C48.8828 237.348 48.1141 241.6 49.8214 244.434C50.636 245.786 51.8978 246.65 53.3739 246.869C53.6137 246.905 53.856 246.922 54.0988 246.922ZM55.5242 234.789C55.6955 234.789 55.866 234.802 56.0344 234.827C57.0673 234.98 57.9582 235.598 58.5416 236.566C59.9036 238.826 59.2578 242.247 57.1023 244.191C56.0483 245.143 54.7679 245.589 53.59 245.412C52.5564 245.259 51.6661 244.642 51.0828 243.674C49.7208 241.414 50.3659 237.993 52.5215 236.048C53.4245 235.233 54.4947 234.789 55.5242 234.789Z" fill="#371A45"/>
<path d="M81.0506 251.328C78.2837 251.179 76.1896 248.288 76.3734 244.871C76.5572 241.453 78.9492 238.803 81.7161 238.952C84.483 239.101 86.577 241.992 86.3933 245.409C86.2095 248.827 83.8175 251.476 81.0506 251.328Z" fill="#B72525"/>
<path d="M80.2521 249.732C80.6461 250.083 81.2039 249.967 81.498 249.473C81.792 248.979 81.7109 248.293 81.3169 247.942C80.9229 247.59 80.365 247.706 80.0711 248.2C79.777 248.694 79.8581 249.38 80.2521 249.732Z" fill="#F45D5D"/>
<path d="M83.4736 247.852C83.7243 248.076 84.0792 248.002 84.2662 247.688C84.4531 247.373 84.4016 246.937 84.151 246.714C83.9003 246.49 83.5455 246.564 83.3584 246.878C83.1713 247.192 83.223 247.628 83.4736 247.852Z" fill="#F45D5D"/>
<path d="M80.9461 243.646C81.1332 243.813 81.3979 243.758 81.5376 243.523C81.6772 243.289 81.6387 242.963 81.4516 242.796C81.2645 242.63 80.9998 242.684 80.8601 242.919C80.7206 243.154 80.759 243.479 80.9461 243.646Z" fill="#F45D5D"/>
<path d="M77.4439 245.989C77.7881 246.297 78.2754 246.195 78.5323 245.764C78.7891 245.332 78.7183 244.733 78.374 244.426C78.0297 244.119 77.5425 244.22 77.2856 244.652C77.0288 245.083 77.0996 245.682 77.4439 245.989Z" fill="#F45D5D"/>
<path d="M80.2788 241.857C80.6231 242.164 81.1104 242.063 81.3672 241.631C81.6241 241.2 81.5533 240.601 81.209 240.294C80.8647 239.987 80.3774 240.088 80.1206 240.519C79.8637 240.951 79.9346 241.55 80.2788 241.857Z" fill="#F45D5D"/>
<g opacity="0.3">
<path d="M81.6517 251.295C80.9046 251.178 80.1735 250.839 79.5268 250.262C77.438 248.399 77.0081 244.764 78.5676 242.142C80.028 239.687 82.7177 238.994 84.77 240.451C84.6494 240.319 84.5231 240.193 84.39 240.074C82.1683 238.092 79.0218 238.743 77.3641 241.53C75.7053 244.318 76.1639 248.185 78.3857 250.167C79.3641 251.04 80.5216 251.402 81.6517 251.295Z" fill="white"/>
</g>
<path d="M84.1257 243.541C84.3418 243.733 84.6478 243.67 84.809 243.399C84.9702 243.128 84.9258 242.752 84.7097 242.559C84.4936 242.366 84.1877 242.43 84.0264 242.701C83.8651 242.972 83.9096 243.348 84.1257 243.541Z" fill="#F45D5D"/>
<path d="M81.2648 252.051C81.5117 252.051 81.7597 252.032 82.0084 251.993C83.6219 251.745 85.0933 250.685 86.0447 249.086C87.8712 246.016 87.349 241.726 84.8808 239.524C83.7028 238.473 82.2407 238.02 80.7676 238.247C79.154 238.495 77.6828 239.555 76.7313 241.155C74.9047 244.225 75.4269 248.515 77.8953 250.716C78.8747 251.59 80.049 252.051 81.2648 252.051ZM81.503 239.663C82.3602 239.663 83.1963 239.995 83.9002 240.623C85.8695 242.379 86.2637 245.838 84.7788 248.334C84.0533 249.553 82.9616 250.357 81.7842 250.538C80.753 250.697 79.7195 250.37 78.8757 249.618V249.617C76.9064 247.862 76.5122 244.403 77.9971 241.907C78.7226 240.687 79.8144 239.884 80.9917 239.703C81.1624 239.676 81.333 239.663 81.503 239.663Z" fill="#371A45"/>
<path d="M52.0765 222.615C53.7231 222.44 53.4316 223.268 54.3715 224.154C56.7599 226.995 61.3726 225.295 62.1688 222.704C63.3241 218.943 60.5635 215.416 56.6884 216.121C54.4798 213.32 52.0668 213.238 50.0623 214.832C47.875 216.572 47.4654 222.041 52.0765 222.615Z" fill="#EF82B1"/>
<path d="M52.0765 222.617C53.7206 222.44 53.431 223.27 54.3733 224.153C56.7586 226.995 61.372 225.297 62.167 222.705C62.8149 220.605 62.2357 218.578 60.9253 217.316C59.8897 216.325 58.3978 215.81 56.6898 216.119C54.4813 213.321 52.0666 213.238 50.0641 214.833C49.3524 215.397 48.8274 216.364 48.6065 217.424C48.1402 219.618 48.9698 222.229 52.0765 222.617Z" fill="#EF82B1"/>
<path d="M52.0765 222.617C53.7206 222.44 53.431 223.27 54.3733 224.153C56.7586 226.995 61.372 225.297 62.167 222.705C62.8149 220.605 62.2357 218.578 60.9253 217.316C60.9106 219.216 60.675 222.092 59.4234 222.686C56.8665 223.893 55.3254 221.547 55.8309 219.706C56.2039 218.342 57.0776 217.547 57.0776 217.547L55.3402 216.565C55.3402 216.565 53.9464 217.449 53.3967 219.211C52.9648 220.575 49.3182 220.04 48.6065 217.424C48.1402 219.618 48.9698 222.229 52.0765 222.617Z" fill="#F292B8"/>
<path d="M57.6135 227.59C58.0706 227.59 58.5364 227.543 59.0052 227.448C61.4414 226.953 63.4199 225.317 64.0452 223.28C64.8214 220.753 64.3009 218.137 62.6524 216.281C61.3312 214.794 59.5105 214.024 57.5022 214.068C56.2567 212.774 54.8803 212.033 53.4 211.861C51.8233 211.681 50.2493 212.174 48.8397 213.296C46.9455 214.803 46.0547 217.849 46.7668 220.381C47.4248 222.72 49.2717 224.244 51.8343 224.563C51.9537 224.577 52.0742 224.581 52.1947 224.574C52.3613 224.831 52.5941 225.159 52.9406 225.501C54.1192 226.854 55.7979 227.59 57.6135 227.59ZM57.6699 217.994C58.4833 217.994 59.1955 218.302 59.7172 218.889C60.4474 219.711 60.6622 220.921 60.2918 222.127C60.1224 222.679 59.3025 223.381 58.2236 223.6C57.5394 223.738 56.5781 223.728 55.8741 222.891C55.8252 222.832 55.7728 222.777 55.717 222.725C55.6046 222.618 55.5329 222.509 55.4059 222.308C54.8115 221.369 53.9969 220.528 52.1383 220.64C51.2643 220.489 50.7565 220.065 50.5463 219.318C50.2406 218.231 50.6919 216.84 51.2841 216.369C51.8664 215.906 52.4259 215.7 52.947 215.762C53.637 215.842 54.3974 216.386 55.1463 217.336C55.5958 217.908 56.3202 218.184 57.0399 218.053C57.2554 218.014 57.4655 217.994 57.6699 217.994Z" fill="#371A45"/>
<path d="M48.0788 234.035C49.0604 236.489 52.496 238.053 55.2763 235.672C57.7799 233.527 57.1277 227.778 51.6984 227.287C51.2763 227.061 50.4305 225.62 50.5944 224.788C45.3181 223.698 41.9439 232.379 48.0788 234.035Z" fill="#EF82B1"/>
<path d="M48.0763 234.033C49.0578 236.487 52.4934 238.052 55.2761 235.672C56.8074 234.362 57.1559 231.702 55.9535 229.724C55.1977 228.462 53.8088 227.481 51.6983 227.289C51.2763 227.059 50.4321 225.621 50.594 224.786C47.6247 224.173 45.2591 226.656 44.8469 229.238C44.5279 231.24 45.3917 233.311 48.0763 234.033Z" fill="#EF82B1"/>
<path d="M48.0763 234.033C49.0578 236.487 52.4934 238.052 55.2761 235.672C56.8074 234.362 57.1559 231.702 55.9535 229.724C55.7718 231.122 55.1388 233.561 52.9548 234.052C50.1819 234.681 49.215 231.196 51.2862 228.56C51.2862 228.56 49.8875 228.192 48.7438 230.298C48.1303 231.422 45.2544 231.382 44.847 229.238C44.5279 231.24 45.3917 233.311 48.0763 234.033Z" fill="#F292B8"/>
<path d="M52.2739 238.82C53.7995 238.82 55.2796 238.254 56.5531 237.163C58.4245 235.56 59.1285 232.751 58.3051 230.173C57.5075 227.676 55.4473 225.952 52.7129 225.446C52.6361 225.298 52.5679 225.137 52.5434 225.027C52.6681 224.021 52.0003 223.073 50.9917 222.865C47.02 222.047 43.818 225.024 43.0197 228.378C42.3681 231.115 43.2893 234.301 46.6933 235.643C47.5749 237.106 49.0614 238.218 50.7558 238.634C51.2631 238.759 51.7714 238.82 52.2739 238.82ZM48.997 226.76C49.4081 227.766 50.0951 228.655 50.7723 229.018C51.0046 229.142 51.2597 229.218 51.5217 229.242C53.534 229.424 54.2869 230.499 54.5647 231.368C54.8978 232.41 54.6544 233.62 53.9988 234.182C53.0951 234.955 52.2461 234.958 51.6929 234.821C50.8947 234.625 50.1912 234.03 49.9013 233.306C49.6719 232.733 49.1863 232.301 48.5907 232.14C46.7035 231.631 46.5969 230.308 46.8397 229.288C47.0737 228.305 47.8481 227.114 48.997 226.76Z" fill="#371A45"/>
<path d="M83.1433 242.739C87.2659 243.721 90.785 243.544 93.6609 245.998C98.3333 249.988 105.077 268.781 122.534 266.449C147.648 263.092 143.942 219.986 143.942 219.986L128.998 194.455C123.074 203.422 120.959 225.782 116.409 228.762C112.282 225.508 105.327 221.581 101.018 220.806C97.3862 220.148 90.0389 220.781 85.1311 222.195C82.7557 220.634 79.5508 221.606 78.1423 223.844C77.7006 224.551 77.4355 225.385 77.4355 226.308C77.4355 229.802 80.8711 231.549 84.498 229.925C87.6636 230.676 90.3089 231.265 92.066 232.069C91.8451 232.109 91.6291 232.148 91.4132 232.192C88.1886 232.845 85.5826 234.072 83.1091 235.078C80.557 233.556 78.2895 234.803 77.2687 236.702C76.9889 237.223 76.8024 237.797 76.7289 238.371C76.3263 241.556 78.6624 243.912 83.1433 242.739Z" fill="#EF82B1"/>
<path d="M77.4353 226.308C77.4353 229.802 80.8709 231.549 84.4978 229.925C87.6634 230.676 90.3087 231.265 92.0657 232.069C91.8449 232.109 91.6289 232.148 91.413 232.192L101.258 234.19C101.258 234.19 95.7123 230.086 91.1234 228.761C86.3824 227.387 85.0719 225.625 85.0719 225.625C85.0719 225.625 83.6683 228.511 80.7383 227.716C79.1285 227.279 78.4266 225.188 78.142 223.844C77.7004 224.551 77.4353 225.385 77.4353 226.308Z" fill="#F292B8"/>
<path d="M83.1433 242.739C87.2659 243.721 90.785 243.544 93.6609 245.998C98.3333 249.988 105.077 268.78 122.534 266.449C147.648 263.092 143.942 219.986 143.942 219.986C143.942 219.986 142.593 242.273 138.73 245.998C135.918 248.712 129.965 244.104 129.822 244C130.058 244.403 136.983 256.412 124.541 260.147C111.889 263.951 100.125 245.914 94.4805 242.317C88.8364 238.72 84.5519 240.511 83.693 237.959C83.693 237.959 83.2955 240.692 80.606 240.457C78.4613 240.265 77.6023 238.121 77.2686 236.702C76.9888 237.223 76.8023 237.797 76.7287 238.371C76.3263 241.556 78.6624 243.912 83.1433 242.739Z" fill="#F292B8"/>
<path d="M128.998 194.458C127.072 196.886 125.718 199.753 124.535 202.606C121.301 210.228 119.549 218.509 116.09 225.971C115.815 226.514 115.46 226.97 115.336 227.117L117.625 227.217C112.885 223.68 107.905 220.631 102.16 219.043C99.203 218.374 96.1612 218.555 93.191 218.788C90.3065 219.058 87.4614 219.503 84.591 220.308L86.2112 220.554C82.1352 217.763 75.9039 220.693 75.5076 225.634C75.0326 229.584 78.2852 232.777 82.1586 232.49C83.2849 232.436 84.3432 232.142 85.3019 231.716L84.0468 231.835C86.4146 232.423 89.1012 232.928 91.2464 233.856L91.7314 230.138C90.044 230.43 88.3985 230.899 86.8362 231.465C85.2722 232.027 83.79 232.68 82.3687 233.26L84.1132 233.391C82.3428 232.234 79.5818 232.074 77.7641 233.343C74.9462 235.21 73.9191 238.866 75.3741 241.896C76.8545 244.941 80.7594 245.502 83.6407 244.636L82.6884 244.647C92.4595 246.525 91.5403 245.57 97.1296 253.92C100.998 259.591 105.79 265.255 112.543 267.575C121.846 270.824 132.438 267.126 137.758 258.862C144.883 247.838 145.409 232.657 143.943 219.986C143.922 228.638 143.002 237.404 140.503 245.658C138.113 253.402 133.67 261.378 125.511 263.75C121.777 264.84 117.617 264.87 113.931 263.593C105.894 260.814 101.436 252.793 96.5294 246.192C93.3828 241.867 88.0875 241.809 83.5981 240.828C83.2767 240.748 82.944 240.759 82.6453 240.838C81.4487 241.164 80.2568 241.162 79.5877 240.807C78.6367 240.363 78.5105 239.175 78.7579 238.223C79.2057 236.749 80.5561 235.788 82.1043 236.765C82.6482 237.09 83.3023 237.118 83.8489 236.896C85.3496 236.283 86.7596 235.664 88.1676 235.158C89.5808 234.647 90.9899 234.25 92.4226 234.002C93.4872 233.817 94.2002 232.804 94.015 231.739C93.9001 231.078 93.4535 230.547 92.8851 230.288C91.4606 229.652 90.1307 229.296 88.8185 228.949C87.504 228.611 86.2152 228.315 84.9378 228.011C84.5055 227.908 84.0717 227.962 83.6967 228.133C82.5498 228.658 81.3088 228.71 80.5067 228.291C78.6544 227.291 79.279 224.488 81.1543 223.719C82.1397 223.251 83.2565 223.3 84.0554 223.836C84.5515 224.168 85.1429 224.239 85.6755 224.082C88.1817 223.375 90.8749 222.945 93.5453 222.698C96.0571 222.496 98.866 222.327 101.252 222.863C106.265 224.258 111.056 227.196 115.196 230.302L117.485 230.403C121.986 227.499 122.963 217.058 124.136 212.063C125.377 206.084 126.275 199.989 128.998 194.458Z" fill="#371A45"/>
<path d="M128.446 243.992C128.446 243.992 123.384 234.618 116.411 228.76L128.446 243.992Z" fill="#EF82B1"/>
<path d="M128.446 243.993C125.745 237.942 122.307 232.088 117.673 227.257C115.579 225.264 112.822 228.539 115.148 230.263C120.398 233.912 124.718 238.783 128.446 243.993Z" fill="#371A45"/>
<path d="M100.532 233.851C100.532 233.851 95.1742 232.184 92.0658 232.072L100.532 233.851Z" fill="#EF82B1"/>
<path d="M100.532 233.851C97.7974 232.354 95.0762 230.845 91.9938 230.076C89.3608 229.543 88.468 233.34 91.0653 234.034C92.0594 234.194 92.9152 233.758 93.9772 233.768C96.1479 233.626 98.3388 233.703 100.532 233.851Z" fill="#371A45"/>
<path d="M82.105 215.887C82.105 215.887 81.9204 211.101 84.1039 209.096C86.2681 207.109 88.617 208.056 88.8553 209.445C90.5186 209.945 91.4775 212.059 89.9479 213.495C88.1786 215.157 85.9666 214.434 82.105 215.887Z" fill="#BE627C"/>
<path d="M90.0837 213.362C90.0409 213.408 89.996 213.451 89.9483 213.496C88.1778 215.156 85.9666 214.433 82.1048 215.888C82.1048 215.888 82.0611 214.761 82.2677 213.374C82.4836 211.9 82.979 210.129 84.1045 209.097C86.2669 207.109 88.6175 208.055 88.8544 209.445C90.4671 209.929 91.4192 211.931 90.0837 213.362Z" fill="#BE627C"/>
<path d="M90.0838 213.362C90.041 213.408 89.996 213.451 89.9483 213.496C88.1778 215.156 85.9667 214.433 82.1049 215.888C82.1049 215.888 82.0611 214.761 82.2678 213.374C82.3204 213.016 82.39 212.64 82.4819 212.263C82.7615 211.083 83.2528 209.879 84.1046 209.097C86.2669 207.109 88.6176 208.055 88.8544 209.445C89.6841 209.695 90.3405 210.346 90.5988 211.114C90.8406 211.84 90.7326 212.669 90.0838 213.362Z" fill="#BE627C"/>
<path d="M90.0838 213.362C90.041 213.408 89.996 213.451 89.9483 213.496C88.1778 215.156 85.9667 214.433 82.1049 215.888C82.1049 215.888 82.0611 214.761 82.2678 213.374C82.3204 213.016 82.39 212.64 82.4819 212.262C82.4968 212.316 82.7724 213.12 83.2244 213.188C83.8402 213.277 84.8054 211.809 85.3562 211.576C85.3005 211.644 83.9863 213.21 84.9975 213.424C86.5048 213.742 89.6877 213.574 90.5988 211.114C90.8406 211.84 90.7326 212.669 90.0838 213.362Z" fill="#EF82B1"/>
<g opacity="0.3">
<path d="M90.0837 213.362C90.0759 213.329 90.0711 213.292 90.0697 213.248C89.9291 210.804 87.3498 210.193 87.3498 210.193C87.3493 209.46 86.9943 209.364 86.4378 209.4C84.2772 209.532 82.3274 213.257 82.2677 213.374C82.4836 211.9 82.979 210.129 84.1045 209.097C86.2669 207.109 88.6175 208.055 88.8544 209.445C90.4671 209.929 91.4192 211.931 90.0837 213.362Z" fill="white"/>
</g>
<path d="M82.105 216.623C82.1924 216.623 82.2803 216.608 82.3641 216.576C83.9857 215.965 85.2935 215.758 86.447 215.574C87.9744 215.331 89.2926 215.121 90.4519 214.032C91.2834 213.251 91.6194 212.202 91.3731 211.154C91.1396 210.161 90.4071 209.307 89.4568 208.885C89.1883 208.218 88.5886 207.67 87.8072 207.403C86.4586 206.944 84.8906 207.374 83.6061 208.554C81.1997 210.764 81.3615 215.706 81.3696 215.915C81.3783 216.152 81.5007 216.369 81.698 216.5C81.8204 216.582 81.9618 216.623 82.105 216.623ZM86.7027 208.695C86.9204 208.695 87.1313 208.728 87.3316 208.797C87.7677 208.946 88.0735 209.242 88.1299 209.57C88.1771 209.846 88.3761 210.071 88.6434 210.151C89.2746 210.341 89.7957 210.879 89.9395 211.491C90.028 211.865 90.0134 212.424 89.4434 212.959C88.6143 213.738 87.6605 213.89 86.2159 214.12C85.2848 214.268 84.171 214.445 82.8592 214.851C82.9343 213.429 83.2609 210.869 84.6019 209.638C85.2704 209.024 86.0192 208.695 86.7027 208.695Z" fill="#371A45"/>
<path d="M84.7446 212.322C86.1488 210.207 88.5623 209.7 90.3373 211.613C90.5394 211.795 90.8509 211.78 91.0335 211.578C91.2341 211.36 91.1915 211.006 90.9464 210.84C88.6879 209.035 85.9712 209.757 84.7446 212.322Z" fill="#371A45"/>
<path d="M68.6108 236.064C68.6108 236.064 65.0967 232.81 65.2235 229.849C65.3492 226.913 67.6796 225.922 68.8308 226.737C70.3604 225.914 72.5328 226.731 72.4667 228.828C72.3903 231.254 70.3145 232.306 68.6108 236.064Z" fill="#BE627C"/>
<path d="M72.4686 228.638C72.4707 228.701 72.4694 228.763 72.4676 228.829C72.389 231.254 70.3138 232.306 68.6114 236.065C68.6114 236.065 67.784 235.3 66.9494 234.172C66.0597 232.977 65.1583 231.375 65.2246 229.849C65.3485 226.914 67.6793 225.921 68.8295 226.737C70.3125 225.939 72.4015 226.682 72.4686 228.638Z" fill="#BE627C"/>
<path d="M72.4686 228.638C72.4707 228.701 72.4694 228.763 72.4676 228.828C72.389 231.254 70.3138 232.306 68.6114 236.065C68.6114 236.065 67.784 235.299 66.9494 234.172C66.7332 233.882 66.5169 233.567 66.3149 233.235C65.679 232.203 65.1746 231.004 65.2246 229.849C65.3485 226.914 67.6793 225.921 68.8295 226.736C69.5933 226.327 70.5178 226.323 71.2431 226.684C71.9275 227.026 72.4373 227.689 72.4686 228.638Z" fill="#BE627C"/>
<path d="M72.4686 228.638C72.4707 228.701 72.4694 228.763 72.4676 228.829C72.389 231.254 70.3138 232.306 68.6114 236.065C68.6114 236.065 67.784 235.3 66.9494 234.172C66.7332 233.882 66.5169 233.567 66.3149 233.235C66.3633 233.262 67.1266 233.636 67.494 233.364C67.9927 232.992 67.6376 231.271 67.8623 230.717C67.8713 230.805 68.0491 232.841 68.9149 232.277C70.2059 231.437 72.3386 229.068 71.2431 226.684C71.9275 227.026 72.4373 227.689 72.4686 228.638Z" fill="#EF82B1"/>
<g opacity="0.3">
<path d="M72.4687 228.638C72.4399 228.62 72.41 228.597 72.3776 228.567C70.5504 226.938 68.2947 228.33 68.2947 228.33C67.776 227.812 67.4568 227.995 67.089 228.414C65.6541 230.034 66.9089 234.047 66.9494 234.172C66.0597 232.977 65.1583 231.375 65.2246 229.849C65.3485 226.914 67.6794 225.921 68.8296 226.737C70.3125 225.939 72.4016 226.682 72.4687 228.638Z" fill="white"/>
</g>
<path d="M68.6108 236.8C68.6591 236.8 68.708 236.795 68.7564 236.785C68.9881 236.739 69.1838 236.583 69.281 236.368C69.9966 234.791 70.774 233.719 71.4598 232.774C72.3681 231.522 73.1524 230.441 73.2025 228.851C73.2381 227.71 72.7338 226.731 71.8185 226.163C70.9526 225.628 69.8312 225.541 68.8599 225.915C68.199 225.631 67.3879 225.668 66.646 226.032C65.3691 226.659 64.5626 228.074 64.4881 229.817C64.3483 233.081 67.9567 236.462 68.1104 236.604C68.2481 236.731 68.4274 236.8 68.6108 236.8ZM70.0956 227.159C70.4339 227.159 70.767 227.245 71.0435 227.415C71.3703 227.618 71.7551 228.024 71.7306 228.805C71.6951 229.942 71.1273 230.724 70.2685 231.909C69.7148 232.671 69.0527 233.585 68.4117 234.798C67.4591 233.739 65.8811 231.699 65.9592 229.88C66.0104 228.684 66.5095 227.74 67.2949 227.354C67.7083 227.152 68.1327 227.146 68.4058 227.337C68.6323 227.499 68.9322 227.518 69.1796 227.385C69.4603 227.234 69.7801 227.159 70.0956 227.159Z" fill="#371A45"/>
<path d="M67.9577 231.677C67.4552 229.188 68.8028 227.124 71.4112 227.221C71.6831 227.208 71.8923 226.976 71.879 226.705C71.8665 226.409 71.586 226.188 71.2959 226.245C68.4223 226.564 67.0109 228.996 67.9577 231.677Z" fill="#371A45"/>
<path d="M76.1969 271.437C76.9917 275.753 80.3546 279.328 84.479 280.764L85.166 277.9C83.3142 277.687 81.5076 277.084 79.968 275.976C78.3558 274.846 77.0236 273.258 76.1969 271.437Z" fill="#371A45"/>
<path d="M59.6738 267.961C59.6872 272.655 62.7995 277.105 67.3181 278.554L67.9975 275.689C66.5698 275.514 65.1661 275.072 63.9455 274.279C61.7979 272.826 60.3086 270.495 59.6738 267.961Z" fill="#371A45"/>
<path d="M47.8131 264.943C47.994 269.029 50.1591 273.136 53.9395 274.998L54.9579 272.235C54.1809 272.031 53.3663 271.801 52.6454 271.354C50.2811 270.006 48.6409 267.53 47.8131 264.943Z" fill="#371A45"/>
<path d="M72.2296 261.335C74.8135 258.615 78.7339 257.787 82.3423 257.756L83.8874 257.81L83.7369 254.869C79.3814 255.612 74.6083 257.39 72.2296 261.335Z" fill="#371A45"/>
<path d="M53.1371 260.395C55.2953 255.75 61.0002 254.834 65.5244 255.896L67.4885 256.395L68.072 253.509C62.3102 252.778 55.0228 254.063 53.1371 260.395Z" fill="#371A45"/>
</svg>
