<svg width="497" height="456" viewBox="0 0 497 456" fill="none" xmlns="http://www.w3.org/2000/svg">
<g clip-path="url(#clip0_125_53)">
<path d="M295.02 96.4C340.11 79.25 396.48 50.68 437.9 5.62004C445.38 -2.51996 458.46 -1.67996 464.94 7.27004C496.2 50.44 480.59 195.69 299.28 130.22C281.95 123.96 277.79 102.95 295.01 96.4H295.02Z" fill="#A4C841"/>
<path d="M434.265 51.4025L331.959 118.58C326.881 121.914 325.467 128.734 328.802 133.812C332.136 138.89 338.956 140.304 344.034 136.969L446.341 69.7924C451.419 66.4579 452.832 59.638 449.498 54.5598C446.163 49.4816 439.343 48.068 434.265 51.4025Z" fill="#82B731"/>
<path d="M136.93 455.13C212.554 455.13 273.86 393.824 273.86 318.2C273.86 242.576 212.554 181.27 136.93 181.27C61.3056 181.27 0 242.576 0 318.2C0 393.824 61.3056 455.13 136.93 455.13Z" fill="#314A9A"/>
<path d="M197.87 288.1C273.494 288.1 334.8 226.794 334.8 151.17C334.8 75.5456 273.494 14.24 197.87 14.24C122.246 14.24 60.9399 75.5456 60.9399 151.17C60.9399 226.794 122.246 288.1 197.87 288.1Z" fill="#6E80BE"/>
<path d="M359.37 396.34C434.994 396.34 496.3 335.034 496.3 259.41C496.3 183.786 434.994 122.48 359.37 122.48C283.746 122.48 222.44 183.786 222.44 259.41C222.44 335.034 283.746 396.34 359.37 396.34Z" fill="#4F65AD"/>
<path d="M391.44 287.12C376.96 282.84 361.37 288.38 352.82 300.83C349.83 305.19 343.01 303.17 342.87 297.89C342.46 282.79 332.38 269.68 317.9 265.4C312.83 263.9 312.64 256.8 317.62 255.03C331.85 249.98 341.21 236.34 340.81 221.24C340.67 215.96 347.37 213.58 350.59 217.77C359.79 229.74 375.66 234.43 389.89 229.38C394.87 227.61 399.2 233.25 396.21 237.6C387.67 250.05 388.11 266.59 397.31 278.56C400.53 282.75 396.51 288.61 391.44 287.11V287.12Z" fill="#273572"/>
<path d="M156.93 374.7C142.45 370.42 126.86 375.96 118.31 388.41C115.32 392.77 108.5 390.75 108.36 385.47C107.95 370.37 97.8701 357.26 83.3901 352.98C78.3201 351.48 78.1301 344.38 83.1101 342.61C97.3401 337.56 106.7 323.92 106.3 308.82C106.16 303.54 112.86 301.16 116.08 305.35C125.28 317.32 141.15 322.01 155.38 316.96C160.36 315.19 164.69 320.83 161.7 325.18C153.16 337.63 153.6 354.17 162.8 366.14C166.02 370.33 162 376.19 156.93 374.69V374.7Z" fill="#273572"/>
<path d="M179.35 138.83C164.87 134.55 149.28 140.09 140.73 152.54C137.74 156.9 130.92 154.88 130.78 149.6C130.37 134.5 120.29 121.39 105.81 117.11C100.74 115.61 100.55 108.51 105.53 106.74C119.76 101.69 129.12 88.05 128.72 72.95C128.58 67.67 135.28 65.29 138.5 69.48C147.7 81.45 163.57 86.14 177.8 81.09C182.78 79.32 187.11 84.96 184.12 89.31C175.58 101.76 176.02 118.3 185.22 130.27C188.44 134.46 184.42 140.32 179.35 138.82V138.83Z" fill="#273572"/>
<path d="M375.643 69.4901L372.667 103.43C372.34 107.16 375.099 110.449 378.829 110.776C382.559 111.103 385.848 108.344 386.175 104.614L389.151 70.6743C389.478 66.9441 386.719 63.6551 382.989 63.3281C379.259 63.0011 375.97 65.76 375.643 69.4901Z" fill="#82B731"/>
<path d="M409.692 49.7791L406.717 83.7189C406.39 87.4491 409.149 90.7381 412.879 91.0651C416.609 91.3921 419.898 88.6333 420.225 84.9031L423.201 50.9633C423.528 47.2331 420.769 43.9441 417.039 43.6171C413.308 43.2901 410.019 46.0489 409.692 49.7791Z" fill="#82B731"/>
<path d="M408.757 92.7455L441.431 102.399C445.022 103.46 448.793 101.409 449.854 97.8181C450.915 94.227 448.864 90.4558 445.273 89.3948L412.599 79.7412C409.008 78.6802 405.237 80.7313 404.176 84.3223C403.115 87.9133 405.166 91.6845 408.757 92.7455Z" fill="#82B731"/>
<path d="M380.151 107.279L412.154 118.965C415.671 120.25 419.564 118.439 420.848 114.922C422.132 111.405 420.322 107.512 416.805 106.228L384.802 94.5417C381.284 93.2573 377.392 95.0675 376.108 98.5848C374.823 102.102 376.633 105.995 380.151 107.279Z" fill="#82B731"/>
</g>
<defs>
<clipPath id="clip0_125_53">
<rect width="496.3" height="455.12" fill="white"/>
</clipPath>
</defs>
</svg>
