<svg width="312" height="384" viewBox="0 0 312 384" fill="none" xmlns="http://www.w3.org/2000/svg">
<path d="M19.387 95.2391C70.9521 163.631 112.717 251.187 136.171 337.979C137.463 342.757 141.473 346.298 146.369 347.022C159.521 348.967 172.134 342.053 184.641 333.383L182.972 277.742L110.082 124.172L80.592 68.1101L19.387 95.2391Z" fill="#F3834C"/>
<path d="M150.891 349.022C149.313 349.022 147.725 348.91 146.126 348.674C140.562 347.851 136.022 343.824 134.56 338.414C111.098 251.595 68.6332 163.327 18.0545 96.2438C17.7478 95.8373 17.6437 95.3129 17.7714 94.82C17.8995 94.327 18.2452 93.9194 18.711 93.713L79.916 66.5842C80.7191 66.2287 81.6608 66.5557 82.0699 67.3332L111.56 123.395C111.57 123.415 111.581 123.436 111.59 123.457L184.48 277.026C184.579 277.235 184.634 277.462 184.641 277.692L186.31 333.333C186.327 333.898 186.057 334.433 185.592 334.755C174.783 342.249 163.168 349.022 150.891 349.022ZM21.9824 95.9147C47.0915 129.469 69.9121 167.502 89.8258 208.987C109.892 250.79 126.028 294.043 137.783 337.544C138.898 341.67 142.365 344.742 146.614 345.371C159.236 347.24 171.52 340.38 182.946 332.525L181.314 278.142L108.588 124.918L79.8416 70.2688L21.9824 95.9147Z" fill="#4A1600"/>
<path d="M304.774 216.629C303.244 217.705 301.262 217.862 299.497 217.241C296.334 216.128 293.442 214.699 290.923 212.837C288.555 218.156 286.013 222.486 282.763 222.937C282.147 223.024 281.512 222.868 280.993 222.528C279.526 221.567 278.648 220.211 278.51 218.353C278.45 218.386 278.386 218.418 278.326 218.45C270.433 222.67 261.689 224.105 252.306 223.411L245.299 212.202L243.111 208.699L248.168 195.827C257.376 196.263 267.1 195.781 277.218 194.604C277.926 194.521 278.634 194.397 279.328 194.208C283.181 193.165 287.236 193.082 291.502 194.025C294.371 194.659 297.01 196.098 299.124 198.139C306.921 205.646 309.294 213.453 304.774 216.629Z" fill="#EF82B1"/>
<path d="M280.257 209.908C279.144 212.621 278.492 215.521 278.326 218.45C270.433 222.67 261.688 224.105 252.305 223.41L245.299 212.202C245.667 211.655 246.113 211.168 246.66 210.763L246.127 210.345C257.063 213.885 268.934 211.913 280.257 209.908Z" fill="#F292B8"/>
<path d="M256.658 224.953C255.196 224.953 253.712 224.897 252.204 224.786C251.765 224.753 251.369 224.514 251.136 224.141L241.941 209.43C241.71 209.06 241.668 208.601 241.827 208.195L246.884 195.322C247.1 194.772 247.637 194.415 248.234 194.449C257.024 194.867 266.452 194.47 277.056 193.232C277.775 193.148 278.4 193.033 278.966 192.879C283.061 191.769 287.378 191.703 291.798 192.679C294.898 193.365 297.763 194.909 300.082 197.144C305.714 202.571 308.746 208.222 308.404 212.649C308.237 214.804 307.255 216.57 305.565 217.757C303.735 219.043 301.296 219.337 299.039 218.543C296.17 217.533 293.685 216.338 291.493 214.911C289.273 219.642 286.661 223.79 282.95 224.305C282.014 224.434 281.051 224.213 280.238 223.682C278.932 222.829 278.031 221.729 277.542 220.399C271.312 223.427 264.309 224.953 256.658 224.953ZM253.102 222.083C262.503 222.673 270.608 221.054 277.855 217.14C278.265 216.918 278.762 216.919 279.173 217.144C279.583 217.369 279.851 217.786 279.886 218.253C279.985 219.617 280.576 220.608 281.746 221.373C281.998 221.538 282.3 221.612 282.571 221.572C285.363 221.185 287.828 216.401 289.663 212.276C289.833 211.894 290.167 211.61 290.572 211.503C290.976 211.397 291.407 211.479 291.743 211.728C294.038 213.426 296.724 214.804 299.955 215.941C301.373 216.44 302.877 216.275 303.98 215.501C305.002 214.782 305.549 213.78 305.654 212.436C305.924 208.939 303.056 203.841 298.168 199.13C296.215 197.248 293.806 195.949 291.203 195.373C287.223 194.493 283.349 194.55 279.688 195.542C278.988 195.731 278.232 195.872 277.376 195.972C267.016 197.181 257.752 197.599 249.091 197.248L244.649 208.557L253.102 222.083Z" fill="#650000"/>
<path d="M277.399 219.918C277.29 217.942 277.489 215.937 278.085 214.09C278.673 212.24 279.641 210.583 280.809 209.159C279.744 211.61 279.239 214.313 279.663 216.946C279.796 217.844 279.996 218.718 280.144 219.607C280.409 221.517 277.569 221.842 277.399 219.918Z" fill="#650000"/>
<path d="M257.837 279.35C258.95 285.025 259.501 291.379 258.928 297.227C258.454 302.024 257.225 306.469 254.938 309.925C253.297 312.395 250.247 313.675 247.421 312.785C241.122 310.798 241.651 300.338 243.81 289.321C244.717 284.697 245.095 279.979 244.961 275.271C244.867 271.872 244.589 268.634 244.177 265.501C230.461 303.487 203.236 315.962 184.802 337.072C181.041 341.373 174.28 341.34 170.675 336.905C168.088 333.734 165.851 329.266 162.941 325.037C156.893 336.632 171.86 374.279 156.909 378.753C153.142 379.882 148.992 378.358 146.816 375.075C139.955 364.748 145.848 340.65 146.805 306.675C146.248 285.532 136.789 279.411 133.451 262.162C132.488 263.77 131.476 264.994 130.435 265.868C129.111 266.986 127.753 267.526 126.418 267.543C126.418 267.543 126.412 267.543 126.407 267.543C124.22 267.565 122.095 266.168 120.331 263.592C120.331 263.587 120.325 263.587 120.325 263.581C119.101 261.806 118.049 259.458 117.248 256.626C117.248 256.62 117.243 256.615 117.237 256.604C116.631 254.411 116.163 251.924 115.896 249.175C115.896 249.17 115.896 249.17 115.896 249.164C115.779 247.946 115.701 246.672 115.668 245.353C115.662 245.23 115.657 245.108 115.657 244.98C115.584 241.87 115.751 238.492 116.202 234.898C105.124 237.758 104.373 227.993 104.812 214.895C104.812 214.895 104.812 214.895 104.812 214.889C105.057 207.589 105.669 199.26 105.074 191.498C104.284 186.752 101.991 184.131 99.2705 181.561C94.1848 176.759 90.7741 170.421 89.7614 163.499C89.2161 159.738 87.992 157.145 86.2338 155.47C85.7498 155.009 85.1488 154.808 84.5645 154.825C83.5408 154.858 82.5615 155.554 82.3111 156.689C81.6768 159.571 81.7157 163.099 81.9994 166.855C82.1329 168.596 82.4334 170.321 82.8508 172.018C88.3593 194.486 75.1278 199.638 69.0963 192.878C67.9557 191.598 67.249 189.985 66.9708 188.299C65.1903 177.499 65.4017 167.239 65.8691 157.429C65.8635 157.423 65.8691 157.418 65.8691 157.418C66.4311 145.555 67.3547 134.344 65.5686 123.616C64.6617 119.298 61.4178 116.177 58.1238 112.699C52.7044 106.985 47.1625 100.308 51.6584 85.78L57.2225 79.6596L82.8174 65.7493L146.248 51.2827L197.438 50.1699L254.192 69.0879L259.2 81.329C270.523 112.722 268.992 152.216 259.01 195.393C256.79 204.997 255.561 214.795 255.205 224.649C254.682 239.021 255.088 253.644 256.329 268.489C256.63 272.133 257.13 275.761 257.837 279.35Z" fill="#EF82B1"/>
<path d="M71.3779 141.015C69.692 146.535 67.0602 151.781 65.8695 157.418C66.4315 145.555 67.3551 134.344 65.569 123.616C64.6621 119.298 61.4182 116.177 58.1242 112.699C58.2299 112.493 58.3467 112.287 58.4636 112.087L57.8071 110.802C60.1997 112.916 62.5922 115.031 64.9847 117.145C67.0546 118.975 69.1577 120.845 70.599 123.21C73.7873 128.44 73.1696 135.162 71.3779 141.015Z" fill="#F292B8"/>
<path d="M105.592 218.145C105.347 217.06 105.085 215.975 104.813 214.895C104.813 214.895 104.813 214.895 104.813 214.89C105.058 207.589 105.67 199.26 105.074 191.498C104.284 186.752 101.992 184.131 99.271 181.561C94.1854 176.759 90.7746 170.421 89.7619 163.5C89.2166 159.738 87.9926 157.145 86.2344 155.471C85.7503 155.009 85.1494 154.808 84.5651 154.825L83.7471 154.263C87.2358 152.822 91.2586 155.103 93.4843 158.147C95.71 161.196 96.7672 164.93 98.659 168.19C101.803 173.615 107.222 177.694 109.248 183.63C113.025 194.736 103.372 206.627 105.592 218.145Z" fill="#F292B8"/>
<path d="M115.065 245.355C115.231 245.037 115.657 244.885 115.987 245.026C116.918 249.78 119.917 253.991 123.79 256.902C124.581 257.497 125.417 258.047 126.336 258.416C129.11 259.529 132.537 258.745 134.551 256.537C133.828 259.713 132.96 263.037 130.689 265.373C128.419 267.709 124.283 268.553 121.942 266.288C120.399 264.795 120.066 262.49 119.255 260.502C118.467 258.57 117.179 256.863 116.49 254.894C115.429 251.859 115.888 248.53 116.359 245.35L115.065 245.355Z" fill="#F292B8"/>
<path d="M139.525 228.85C145.971 232.341 154.321 231.99 160.451 227.97C162.7 226.494 164.655 224.577 167.015 223.287C169.376 221.996 172.392 221.42 174.712 222.781C176.145 223.621 177.101 225.065 178.318 226.197C180.741 228.451 184.314 229.397 187.535 228.638C190.757 227.879 193.532 225.438 194.694 222.339C195.199 226.664 191.774 230.852 187.564 231.965C183.355 233.079 178.746 231.516 175.451 228.67C174.794 228.102 174.133 227.462 173.285 227.28C172.36 227.082 171.423 227.473 170.551 227.838C165.322 230.029 159.835 231.6 154.239 232.51C150.364 233.14 145.552 233.034 143.564 229.648L139.525 228.85Z" fill="#F292B8"/>
<path d="M258.928 297.227C258.454 302.023 257.225 306.469 254.938 309.925C253.297 312.395 250.247 313.675 247.421 312.785C241.122 310.798 241.651 300.338 243.81 289.321C244.717 284.697 245.095 279.979 244.961 275.271C244.867 271.872 244.589 268.633 244.177 265.501C230.461 303.487 203.236 315.962 184.802 337.072C181.041 341.373 174.28 341.34 170.675 336.905C168.088 333.734 165.851 329.265 162.941 325.037C156.893 336.632 171.86 374.279 156.909 378.753C153.142 379.882 148.992 378.358 146.816 375.075C139.955 364.748 145.848 340.65 146.805 306.675C146.248 285.532 136.789 279.411 133.451 262.162C132.488 263.77 131.476 264.994 130.435 265.868C130.48 265.74 130.53 265.612 130.574 265.484C131.448 263.097 132.639 260.849 134.024 258.712C134.614 257.794 135.243 256.898 135.888 256.025C137.613 265.595 147.2 272.395 151.662 281.369C153.065 284.19 153.96 287.251 155.407 290.049C159.575 298.101 168.327 303.376 177.374 304.038C186.421 304.7 195.535 301 202.129 294.773C205.495 291.596 208.294 287.763 212.167 285.225C216.356 282.477 221.436 281.486 226.005 279.422C235.903 274.943 243.125 265.017 244.338 254.222C243.832 265.145 248.45 275.811 248.038 286.733C247.799 293.026 246.035 299.954 249.535 305.189C250.158 306.124 250.993 306.998 252.083 307.276C254.259 307.832 256.279 305.779 257.035 303.659C257.792 301.545 257.848 299.186 258.922 297.21C258.922 297.216 258.922 297.222 258.928 297.227Z" fill="#F292B8"/>
<path d="M144.132 231.089C147.348 233.96 151.145 236.179 155.225 237.574C156.849 238.129 158.556 238.574 159.935 239.596C163.945 242.567 163.784 249.222 167.939 251.987C165.941 248.376 165.462 243.954 166.643 239.999C168.006 235.431 171.426 231.6 172.289 226.911C164.515 230.272 156.37 233.701 147.919 233.147L144.132 231.089Z" fill="#F292B8"/>
<path d="M154.39 380.788C150.867 380.788 147.439 379.032 145.424 375.999C140.522 368.62 141.645 355.36 143.2 337.007C143.958 328.053 144.817 317.906 145.135 306.674C144.812 294.691 141.597 287.788 138.192 280.481C136.171 276.142 134.092 271.68 132.628 266.074C129.057 269.908 125.59 269.345 124.085 268.825C117.768 266.645 112.548 255.07 114.295 236.961C111.441 237.304 109.106 236.756 107.335 235.322C102.419 231.342 102.845 221.448 103.339 209.991C103.599 203.936 103.869 197.675 103.416 191.701C102.675 187.366 100.581 185.093 98.1248 182.775C92.715 177.67 89.1586 170.91 88.1117 163.74C87.6423 160.526 86.623 158.148 85.0822 156.674C84.8442 156.447 84.5714 156.484 84.4303 156.528C84.3098 156.565 84.0209 156.689 83.942 157.047C83.2701 160.095 83.4627 164.032 83.6662 166.729C83.7841 168.288 84.0477 169.887 84.4719 171.619C88.8772 189.586 81.5402 195.025 79.1866 196.263C75.3993 198.256 70.8456 197.342 67.8533 193.989C66.5421 192.52 65.6682 190.645 65.326 188.569C63.2372 175.903 63.8448 164.143 64.432 152.77C64.9549 142.645 65.4491 133.082 63.9286 123.926C63.1818 120.426 60.6304 117.752 57.678 114.657C52.0589 108.767 45.0654 101.436 50.0642 85.2863C50.1367 85.0527 50.2592 84.8379 50.4239 84.6568L55.9878 78.5363C56.1138 78.3981 56.2616 78.282 56.426 78.1927L82.0211 64.2822C82.155 64.2095 82.2985 64.1554 82.4469 64.1213L145.878 49.6548C145.988 49.6298 146.1 49.6158 146.213 49.6134L197.402 48.5004C197.6 48.496 197.785 48.5251 197.967 48.5857L254.72 67.5038C255.182 67.6578 255.553 68.0052 255.737 68.4554L260.745 80.6963C260.754 80.7181 260.763 80.7399 260.77 80.7621C271.467 110.42 271.422 149.113 260.637 195.767C258.498 205.021 257.231 214.757 256.872 224.706C256.366 238.71 256.743 253.394 257.991 268.351C258.292 271.954 258.791 275.546 259.473 279.026C260.707 285.311 262.87 300.995 256.329 310.848C254.231 314.008 250.361 315.458 246.918 314.374C238.715 311.792 240.282 298.654 242.174 288.997C243.05 284.53 243.427 279.927 243.295 275.317C243.268 274.398 243.229 273.483 243.175 272.566C233.369 295.254 218.735 308.065 204.543 320.492C197.884 326.322 191.594 331.829 186.058 338.168C183.92 340.616 180.84 341.964 177.58 341.932C174.378 341.877 171.389 340.43 169.379 337.961C167.803 336.026 166.386 333.693 164.887 331.223C164.418 330.451 163.942 329.668 163.453 328.883C162.597 333.698 163.427 340.978 164.235 348.064C165.875 362.44 167.57 377.305 157.391 380.35C156.403 380.646 155.393 380.788 154.39 380.788ZM133.451 260.493C133.547 260.493 133.644 260.501 133.742 260.518C134.423 260.638 134.959 261.166 135.09 261.845C136.439 268.811 138.869 274.027 141.219 279.071C144.621 286.374 148.139 293.926 148.474 306.631C148.475 306.661 148.475 306.692 148.474 306.722C148.154 318.066 147.289 328.279 146.526 337.289C145.029 354.968 143.947 367.743 148.205 374.152C149.987 376.835 153.372 378.069 156.434 377.152C163.937 374.907 162.402 361.454 160.919 348.443C159.805 338.679 158.753 329.455 161.461 324.264C161.732 323.745 162.255 323.406 162.84 323.37C163.418 323.335 163.985 323.608 164.317 324.091C165.56 325.9 166.668 327.725 167.741 329.491C169.179 331.86 170.537 334.097 171.967 335.853C173.355 337.557 175.422 338.556 177.638 338.594C179.914 338.637 182.054 337.678 183.543 335.973C189.227 329.465 195.598 323.886 202.344 317.98C217.519 304.694 233.211 290.955 242.607 264.934C242.868 264.21 243.589 263.758 244.357 263.841C245.123 263.924 245.732 264.521 245.832 265.284C246.276 268.679 246.538 271.93 246.632 275.222C246.771 280.078 246.373 284.929 245.45 289.639C242.906 302.622 243.737 309.873 247.92 311.19C249.952 311.831 252.267 310.93 253.548 309.001C257.611 302.881 258.601 291.916 256.197 279.669C255.491 276.068 254.975 272.354 254.664 268.629C253.405 253.541 253.025 238.722 253.535 224.586C253.902 214.425 255.197 204.476 257.384 195.015C268.018 149.014 268.105 110.968 257.642 81.9282L252.938 70.4289L197.185 51.8448L146.454 52.9477L83.413 67.3254L58.2681 80.9914L53.146 86.6257C48.9283 100.65 54.6038 106.598 60.0936 112.353C63.2698 115.682 66.2696 118.827 67.2029 123.273C67.2075 123.296 67.2119 123.318 67.2156 123.341C68.803 132.867 68.2993 142.618 67.7661 152.943C67.1876 164.138 66.5896 175.716 68.6199 188.027C68.8591 189.477 69.4551 190.77 70.344 191.767C72.3277 193.99 75.1876 194.596 77.6317 193.31C81.3658 191.344 84.2719 184.823 81.2297 172.414C80.7609 170.502 80.469 168.725 80.3372 166.981C79.9839 162.297 80.0904 159.012 80.6817 156.328C80.9951 154.907 82.0594 153.76 83.459 153.334C84.8654 152.906 86.3352 153.253 87.3901 154.262C89.4814 156.263 90.8358 159.29 91.4152 163.258C92.3542 169.687 95.5508 175.756 100.416 180.347C103.113 182.893 105.822 185.829 106.721 191.224C106.729 191.272 106.735 191.321 106.739 191.37C107.215 197.566 106.94 203.956 106.674 210.135C106.239 220.251 105.827 229.805 109.436 232.728C110.818 233.846 112.894 234.028 115.786 233.282C116.32 233.142 116.89 233.279 117.305 233.645C117.72 234.01 117.928 234.557 117.859 235.105C115.784 251.708 120.04 263.897 125.174 265.67C128.219 266.72 130.771 263.385 132.02 261.304C132.325 260.795 132.872 260.493 133.451 260.493Z" fill="#4A1600"/>
<path d="M224.753 194.294C222.923 197.997 225.696 199.416 229.437 200.624C230.865 201.085 231.491 202.755 230.719 204.043C229.953 205.32 228.976 206.857 227.998 208.144C225.891 210.915 230.449 212.183 230.449 212.183L231.162 212.449C231.162 212.449 235.436 214.479 235.661 211.005C235.766 209.374 236.04 207.551 236.302 206.076C236.565 204.593 238.149 203.746 239.528 204.351C243.499 206.093 247.144 207.259 247.901 202.936C248.514 199.436 245.61 193.262 239.217 190.875C232.824 188.488 226.647 190.462 224.753 194.294Z" fill="#FC9595"/>
<path d="M226.895 208.959C226.438 211.012 229.858 211.961 229.858 211.961L230.572 212.228C230.572 212.228 234.846 214.259 235.07 210.784C235.176 209.152 235.447 207.331 235.71 205.856C235.972 204.372 237.559 203.527 238.938 204.131C242.906 205.874 246.552 207.037 247.311 202.715C247.696 200.505 246.681 197.232 244.271 194.517C245.38 196.553 245.794 198.631 245.522 200.178C244.766 204.501 241.122 203.334 237.15 201.59C235.771 200.986 234.188 201.832 233.926 203.316C233.663 204.791 233.391 206.616 233.285 208.248C233.059 211.718 228.783 209.69 228.783 209.69L228.073 209.426C228.073 209.426 227.523 209.274 226.895 208.959Z" fill="#F29E6A"/>
<g opacity="0.55">
<path d="M225.848 199.078C225.843 198.465 226.022 197.759 226.427 196.94C228.32 193.108 234.497 191.137 240.889 193.524C243.488 194.494 245.508 196.088 246.95 197.871C245.632 195.106 243.055 192.31 239.217 190.878C232.825 188.491 226.648 190.462 224.755 194.293C223.604 196.618 224.267 198.043 225.848 199.078Z" fill="#F33E3E"/>
</g>
<path d="M234.379 214.236C232.829 214.538 231.151 213.843 230.671 213.621L230.053 213.39C229.429 213.209 226.969 212.384 226.323 210.463C226.087 209.763 226.011 208.66 226.987 207.376C227.773 206.343 228.687 204.965 229.63 203.39C229.798 203.11 229.829 202.774 229.714 202.469C229.647 202.29 229.471 201.969 229.047 201.832C226.694 201.072 224.11 200.085 223.216 197.97C222.698 196.743 222.832 195.317 223.615 193.732C225.963 188.981 233.011 187.203 239.661 189.686C246.918 192.396 249.835 199.25 249.152 203.156C248.849 204.881 248.102 206.075 246.93 206.703C244.769 207.86 241.837 206.75 239.018 205.514C238.719 205.383 238.383 205.396 238.095 205.55C237.807 205.704 237.609 205.977 237.552 206.297C237.228 208.127 237.012 209.783 236.927 211.088C236.824 212.697 236.043 213.48 235.406 213.855C235.081 214.046 234.733 214.167 234.379 214.236ZM225.891 194.857C225.226 196.203 225.474 196.789 225.555 196.982C226.01 198.058 227.969 198.816 229.827 199.416C230.878 199.755 231.703 200.543 232.091 201.576C232.479 202.611 232.376 203.748 231.808 204.696C230.803 206.372 229.861 207.791 229.008 208.913C228.841 209.133 228.657 209.44 228.729 209.653C228.898 210.155 230.043 210.753 230.79 210.96C230.825 210.97 230.859 210.981 230.893 210.994L231.606 211.26C231.64 211.273 231.674 211.287 231.707 211.303C232.396 211.625 233.656 211.94 234.121 211.666C234.314 211.551 234.376 211.199 234.394 210.924C234.486 209.507 234.707 207.802 235.052 205.854C235.246 204.762 235.918 203.835 236.898 203.312C237.877 202.788 239.022 202.743 240.039 203.189C241.479 203.821 244.479 205.137 245.731 204.465C246.181 204.224 246.49 203.636 246.651 202.718C247.18 199.695 244.439 194.18 238.773 192.065C232.776 189.826 227.417 191.77 225.891 194.857L225.891 194.857Z" fill="#4A1600"/>
<path d="M99.0314 148.131C102.317 151.335 104.768 148.891 107.327 145.353C108.304 144.001 110.283 143.913 111.379 145.17C112.467 146.418 113.756 147.978 114.781 149.453C116.986 152.629 119.889 148.247 119.889 148.247L120.415 147.585C120.415 147.585 124.026 143.765 120.432 142.336C118.745 141.665 116.912 140.75 115.443 139.968C113.966 139.181 113.615 137.216 114.727 135.967C117.93 132.368 120.412 128.916 116.104 126.634C112.615 124.785 105.094 125.736 100.379 131.674C95.664 137.611 95.6311 144.816 99.0314 148.131Z" fill="#FC9595"/>
<path d="M115.263 150.897C117.276 152.084 119.452 148.796 119.452 148.796L119.979 148.133C119.979 148.133 123.591 144.313 119.996 142.885C118.308 142.213 116.475 141.302 115.007 140.518C113.529 139.732 113.18 137.765 114.292 136.516C117.494 132.92 119.974 129.466 115.667 127.181C113.463 126.016 109.656 125.966 105.96 127.582C108.493 127.109 110.831 127.383 112.373 128.201C116.682 130.483 114.199 133.933 110.993 137.533C109.882 138.782 110.233 140.746 111.712 141.532C113.18 142.315 115.015 143.23 116.704 143.901C120.293 145.33 116.684 149.153 116.684 149.153L116.16 149.812C116.16 149.813 115.812 150.342 115.263 150.897Z" fill="#F29E6A"/>
<g opacity="0.55">
<path d="M104.463 148.614C103.813 148.409 103.128 147.979 102.401 147.27C99.0016 143.955 99.0371 136.751 103.752 130.814C105.668 128.401 108.046 126.813 110.425 125.901C107.05 126.345 103.212 128.11 100.382 131.674C95.6672 137.61 95.6316 144.814 99.0311 148.129C101.093 150.143 102.826 149.931 104.463 148.614Z" fill="#F33E3E"/>
</g>
<path d="M123.407 144.799C123.194 146.54 121.884 148.075 121.485 148.506L121.029 149.08C120.623 149.678 118.908 151.994 116.656 152.018C115.836 152.027 114.644 151.729 113.622 150.257C112.8 149.073 111.656 147.634 110.316 146.097C110.078 145.824 109.733 145.676 109.371 145.692C109.159 145.702 108.76 145.778 108.469 146.179C106.86 148.405 104.93 150.797 102.389 151.016C100.914 151.143 99.4532 150.512 98.0468 149.141H98.0466C93.8307 145.03 94.3698 136.973 99.2745 130.797C104.627 124.057 112.871 123.325 116.764 125.387C118.484 126.299 119.488 127.498 119.75 128.951C120.232 131.632 118.054 134.35 115.78 136.905C115.539 137.175 115.438 137.536 115.502 137.893C115.566 138.25 115.786 138.553 116.105 138.723C117.927 139.693 119.604 140.489 120.953 141.026C122.618 141.688 123.178 142.781 123.355 143.582C123.446 143.991 123.455 144.401 123.407 144.799ZM100.016 147.122C101.211 148.287 101.915 148.226 102.146 148.206C103.44 148.094 104.913 146.284 106.184 144.527C106.903 143.532 108.018 142.93 109.243 142.875C110.47 142.819 111.636 143.318 112.443 144.244C113.87 145.88 115.046 147.362 115.939 148.649C116.114 148.901 116.375 149.201 116.626 149.198C117.214 149.192 118.238 148.186 118.714 147.469C118.736 147.435 118.76 147.402 118.785 147.37L119.31 146.708C119.336 146.677 119.362 146.646 119.39 146.617C119.967 145.999 120.731 144.775 120.601 144.19C120.547 143.946 120.196 143.76 119.911 143.647C118.446 143.064 116.719 142.245 114.78 141.212C113.692 140.633 112.943 139.605 112.726 138.39C112.508 137.176 112.854 135.951 113.673 135.029C114.836 133.724 117.255 131.005 116.974 129.451C116.874 128.894 116.359 128.365 115.443 127.88C112.431 126.284 105.662 127.289 101.483 132.551C97.0605 138.121 97.2774 144.451 100.016 147.122L100.016 147.122Z" fill="#4A1600"/>
<path d="M174.087 287.856C173.467 292.198 171.367 295.889 167.544 298.821L172.235 301.62C175.911 298.857 178.092 295.202 178.777 290.654L174.087 287.856Z" fill="#9FC642"/>
<g opacity="0.55">
<path d="M178.778 290.654L174.086 287.855C173.976 288.63 173.816 289.385 173.609 290.118L176.52 291.852C175.953 295.622 174.358 298.779 171.732 301.317L172.236 301.621C175.911 298.858 178.093 295.202 178.778 290.654Z" fill="#F33E3E"/>
</g>
<path d="M172.932 302.548C172.555 302.831 172.045 302.858 171.64 302.616L166.949 299.818C166.619 299.621 166.408 299.273 166.385 298.889C166.363 298.505 166.532 298.134 166.838 297.9C170.346 295.209 172.341 291.869 172.938 287.692C172.993 287.308 173.236 286.976 173.587 286.809C173.937 286.641 174.348 286.66 174.682 286.859L179.372 289.658C179.777 289.899 179.995 290.362 179.925 290.828C179.667 292.537 179.207 294.134 178.547 295.615C177.339 298.325 175.461 300.646 172.932 302.548ZM174.918 289.703C174.091 293.181 172.291 296.184 169.546 298.664L172.145 300.215C175.03 297.851 176.788 294.905 177.498 291.243L174.918 289.703Z" fill="#4A1600"/>
<path d="M153.92 255.247C151.378 251.351 150.471 246.94 151.468 241.928L145.771 242.977C144.772 247.751 145.59 252.191 148.223 256.296L153.92 255.247Z" fill="#9FC642"/>
<g opacity="0.55">
<path d="M148.223 256.297L153.922 255.247C153.468 254.552 153.067 253.839 152.719 253.11L149.186 253.763C147 250.36 146.065 246.728 146.383 242.867L145.769 242.978C144.771 247.751 145.589 252.192 148.223 256.297Z" fill="#F33E3E"/>
</g>
<path d="M144.566 242.725C144.668 242.236 145.056 241.857 145.548 241.766L151.245 240.717C151.646 240.643 152.058 240.773 152.345 241.064C152.631 241.354 152.755 241.768 152.675 242.168C151.761 246.768 152.505 250.826 154.951 254.574C155.176 254.918 155.214 255.353 155.052 255.732C154.889 256.111 154.548 256.383 154.143 256.457L148.446 257.506C147.955 257.597 147.457 257.381 147.187 256.96C146.197 255.418 145.447 253.822 144.938 252.18C144.005 249.174 143.879 246.01 144.566 242.725ZM151.966 254.355C150.193 251.004 149.527 247.351 149.981 243.454L146.825 244.035C146.178 247.937 146.836 251.516 148.832 254.932L151.966 254.355Z" fill="#4A1600"/>
<path d="M128.806 177.099C124.059 178.454 119.303 177.988 114.535 175.405L113.81 181.509C118.336 184.02 123.093 184.585 128.081 183.204L128.806 177.099Z" fill="#9FC642"/>
<g opacity="0.55">
<path d="M128.082 183.205L128.807 177.098C127.96 177.34 127.111 177.522 126.263 177.646L125.816 181.433C121.681 182.58 117.705 182.389 113.891 180.854L113.81 181.511C118.336 184.021 123.094 184.586 128.082 183.205Z" fill="#F33E3E"/>
</g>
<path d="M113.176 182.651C112.713 182.394 112.45 181.881 112.513 181.354L113.238 175.25C113.289 174.82 113.549 174.443 113.934 174.244C114.319 174.045 114.777 174.049 115.158 174.256C119.533 176.626 123.881 177.146 128.448 175.843C128.867 175.723 129.32 175.821 129.653 176.105C129.986 176.388 130.155 176.819 130.104 177.253L129.378 183.357C129.316 183.884 128.941 184.321 128.43 184.462C126.555 184.982 124.703 185.241 122.878 185.242C119.538 185.244 116.291 184.379 113.176 182.651ZM127.289 178.801C123.335 179.546 119.423 179.074 115.615 177.39L115.213 180.772C118.966 182.653 122.8 183.109 126.89 182.159L127.289 178.801Z" fill="#4A1600"/>
<path d="M93.4703 119.967C90.1224 117.144 88.1088 113.414 87.6486 108.626L82.7976 111.116C83.1917 115.69 85.1322 119.47 88.6193 122.457L93.4703 119.967Z" fill="#9FC642"/>
<g opacity="0.55">
<path d="M88.6189 122.458L93.472 119.967C92.874 119.464 92.3192 118.929 91.8081 118.366L88.8001 119.913C85.9076 117.438 84.0794 114.418 83.3193 110.851L82.7961 111.117C83.1904 115.69 85.1315 119.472 88.6189 122.458Z" fill="#F33E3E"/>
</g>
<path d="M81.6429 111.215C81.6027 110.747 81.8499 110.3 82.2686 110.085L87.1196 107.595C87.4612 107.419 87.8676 107.425 88.2048 107.609C88.5419 107.793 88.7657 108.132 88.8023 108.515C89.2249 112.909 90.9963 116.365 94.2173 119.081C94.513 119.331 94.6653 119.712 94.6217 120.098C94.5781 120.483 94.3446 120.821 93.9994 120.998L89.1484 123.488C88.7298 123.703 88.2228 123.643 87.8654 123.337C86.5547 122.215 85.4462 120.98 84.5417 119.638C82.8859 117.18 81.9142 114.363 81.6429 111.215ZM91.4667 119.693C88.9597 117.152 87.3694 114.04 86.7223 110.404L84.0345 111.784C84.5091 115.476 86.0731 118.524 88.7978 121.063L91.4667 119.693Z" fill="#4A1600"/>
<path d="M212.443 111.128C214.795 106.554 218.537 103.269 223.898 101.485L219.773 96.5857C214.64 98.2382 210.822 101.453 208.319 106.229L212.443 111.128Z" fill="#9FC642"/>
<g opacity="0.55">
<path d="M208.317 106.228L212.444 111.13C212.863 110.313 213.33 109.537 213.84 108.804L211.278 105.767C213.352 101.806 216.33 98.9197 220.213 97.1127L219.771 96.5837C214.639 98.2363 210.82 101.452 208.317 106.228Z" fill="#F33E3E"/>
</g>
<path d="M219.356 95.2898C219.882 95.1206 220.458 95.2862 220.814 95.7091L224.939 100.608C225.23 100.953 225.33 101.42 225.208 101.854C225.085 102.289 224.756 102.634 224.328 102.776C219.408 104.414 215.917 107.35 213.654 111.751C213.446 112.155 213.049 112.429 212.596 112.481C212.143 112.532 211.695 112.353 211.402 112.005L207.278 107.105C206.921 106.683 206.856 106.086 207.113 105.597C208.054 103.802 209.176 102.208 210.475 100.82C212.853 98.2794 215.824 96.4269 219.356 95.2898ZM212.231 108.762C214.481 105.225 217.626 102.587 221.619 100.891L219.333 98.1769C215.23 99.6901 212.152 102.281 209.962 106.067L212.231 108.762Z" fill="#4A1600"/>
<path d="M189.977 125.229C189.311 120.862 190.261 116.691 193.092 112.751L187.755 111.418C185.015 115.153 183.977 119.312 184.64 123.896L189.977 125.229Z" fill="#9FC642"/>
<g opacity="0.55">
<path d="M184.639 123.897L189.979 125.23C189.859 124.45 189.793 123.676 189.779 122.909L186.467 122.085C185.916 118.284 186.535 114.776 188.327 111.563L187.753 111.418C185.014 115.152 183.975 119.313 184.639 123.897Z" fill="#F33E3E"/>
</g>
<path d="M186.812 110.727C187.093 110.344 187.577 110.169 188.038 110.284L193.375 111.616C193.751 111.71 194.056 111.984 194.19 112.348C194.324 112.712 194.268 113.118 194.042 113.433C191.443 117.05 190.492 120.851 191.133 125.052C191.192 125.438 191.054 125.83 190.765 126.093C190.475 126.357 190.074 126.458 189.694 126.363L184.357 125.031C183.896 124.916 183.551 124.534 183.483 124.064C183.233 122.341 183.212 120.667 183.417 119.047C183.793 116.081 184.927 113.296 186.812 110.727ZM188.638 123.689C188.422 120.095 189.283 116.675 191.207 113.485L188.25 112.747C186.157 115.866 185.32 119.219 185.702 122.956L188.638 123.689Z" fill="#4A1600"/>
<path d="M243.573 94.28C239.937 91.8303 237.531 88.3327 236.557 83.6155L231.996 86.6165C232.88 91.1281 235.219 94.683 239.012 97.281L243.573 94.28Z" fill="#9FC642"/>
<g opacity="0.55">
<path d="M239.011 97.2822L243.575 94.2796C242.925 93.8431 242.315 93.3704 241.746 92.865L238.918 94.7289C235.772 92.5761 233.627 89.7657 232.486 86.2966L231.994 86.6177C232.879 91.1285 235.218 94.6846 239.011 97.2822Z" fill="#F33E3E"/>
</g>
<path d="M230.857 86.84C230.766 86.3776 230.964 85.9062 231.358 85.6474L235.919 82.6461C236.241 82.4348 236.646 82.3962 237.001 82.5434C237.357 82.6907 237.616 83.0042 237.694 83.381C238.587 87.7102 240.723 90.9609 244.222 93.3176C244.543 93.5343 244.736 93.898 244.734 94.2865C244.731 94.6748 244.535 95.0363 244.211 95.2497L239.649 98.2505C239.256 98.5097 238.744 98.5049 238.356 98.2384C236.93 97.2621 235.694 96.1522 234.649 94.9131C232.736 92.645 231.465 89.9441 230.857 86.84ZM241.549 94.2227C238.78 91.9636 236.862 89.0359 235.826 85.4857L233.299 87.1483C234.168 90.7738 236.053 93.6396 239.039 95.8739L241.549 94.2227Z" fill="#4A1600"/>
<path d="M104.377 82.4836C102.163 87.1795 98.5009 90.6232 93.1545 92.6088L97.4854 97.409C102.607 95.5643 106.348 92.1893 108.708 87.2838L104.377 82.4836Z" fill="#9FC642"/>
<g opacity="0.55">
<path d="M108.709 87.284L104.376 82.4817C103.982 83.3201 103.538 84.1188 103.049 84.8759L105.738 87.8516C103.783 91.9199 100.878 94.9348 97.0229 96.8922L97.4871 97.4105C102.608 95.5657 106.35 92.1897 108.709 87.284Z" fill="#F33E3E"/>
</g>
<path d="M97.951 98.7019C97.4262 98.8908 96.8389 98.7437 96.4652 98.3293L92.1341 93.5292C91.8291 93.1912 91.7114 92.7239 91.8198 92.2814C91.9284 91.8389 92.2489 91.4792 92.676 91.3207C97.5824 89.498 101.004 86.4155 103.134 81.8975C103.33 81.4826 103.721 81.1918 104.176 81.1245C104.631 81.0571 105.089 81.2217 105.397 81.5633L109.728 86.3636C110.102 86.7778 110.188 87.377 109.946 87.8797C109.059 89.7235 107.982 91.3697 106.719 92.8152C104.408 95.4607 101.475 97.4323 97.951 98.7019ZM104.673 84.863C102.526 88.5094 99.4436 91.2798 95.4744 93.1287L97.8738 95.7885C101.961 94.1198 104.977 91.3995 107.056 87.5042L104.673 84.863Z" fill="#4A1600"/>
<path d="M238.835 233.308C237.232 237.578 234.272 240.855 229.734 242.976L233.869 246.869C238.221 244.887 241.255 241.664 242.97 237.2L238.835 233.308Z" fill="#9FC642"/>
<g opacity="0.55">
<path d="M242.971 237.201L238.834 233.306C238.549 234.069 238.217 234.8 237.843 235.497L240.41 237.91C238.99 241.612 236.663 244.46 233.427 246.449L233.871 246.87C238.222 244.888 241.256 241.664 242.971 237.201Z" fill="#F33E3E"/>
</g>
<path d="M234.369 247.967C233.923 248.17 233.398 248.083 233.042 247.747L228.906 243.855C228.615 243.58 228.478 243.18 228.542 242.785C228.605 242.39 228.86 242.052 229.222 241.882C233.388 239.935 236.163 236.992 237.705 232.884C237.846 232.506 238.168 232.224 238.562 232.132C238.955 232.041 239.368 232.152 239.662 232.429L243.797 236.322C244.154 236.658 244.273 237.176 244.096 237.634C243.452 239.311 242.627 240.83 241.625 242.186C239.79 244.668 237.364 246.604 234.369 247.967ZM239.264 235.37C237.645 238.716 235.145 241.362 231.802 243.265L234.093 245.422C237.552 243.668 239.998 241.071 241.539 237.512L239.264 235.37Z" fill="#4A1600"/>
<path d="M204.787 323.892C214.737 318.813 225.646 307.802 231.807 295.331C232.407 294.116 232.238 292.656 231.372 291.614C226.801 286.117 214.757 286.642 205.382 294.66C194.174 303.208 192.926 318.52 201.314 323.778C202.361 324.434 203.686 324.454 204.787 323.892Z" fill="#804A98"/>
<g opacity="0.5">
<path d="M231.807 295.331C225.646 307.802 214.737 318.813 204.786 323.892C203.686 324.454 202.36 324.434 201.314 323.778C199.466 322.62 198.088 320.973 197.179 319.02C197.998 320.187 199.024 321.192 200.268 321.972C201.315 322.628 202.641 322.647 203.741 322.086C213.692 317.007 224.601 305.996 230.761 293.525C231.12 292.8 231.198 291.988 231.023 291.229C231.143 291.355 231.261 291.481 231.372 291.614C232.238 292.656 232.407 294.116 231.807 295.331Z" fill="#804A98"/>
</g>
<path d="M203.132 325.682C202.233 325.682 201.344 325.439 200.575 324.957C196.937 322.676 194.721 318.521 194.493 313.555C194.157 306.213 197.993 298.561 204.508 293.578C210.215 288.708 217.375 286.122 223.672 286.657C227.41 286.974 230.524 288.419 232.442 290.725C233.658 292.188 233.899 294.238 233.054 295.947C227.004 308.195 216.155 319.65 205.419 325.131C204.698 325.499 203.911 325.682 203.132 325.682ZM221.998 289.369C216.776 289.369 211.007 291.68 206.287 295.718C206.267 295.735 206.247 295.751 206.226 295.766C200.407 300.204 196.976 306.972 197.272 313.428C197.46 317.527 199.158 320.785 202.053 322.6C202.663 322.982 203.469 323.003 204.154 322.653C214.392 317.427 224.757 306.461 230.56 294.715C230.918 293.99 230.817 293.122 230.302 292.503C228.865 290.775 226.427 289.683 223.437 289.429C222.963 289.388 222.483 289.369 221.998 289.369Z" fill="#4A1600"/>
<path d="M205.114 324.157C194.345 314.754 202.128 299.122 213.494 294.418C217.162 292.821 221.241 292.297 225.097 292.823C221.217 293.14 217.476 294.051 214.122 295.764C207.594 299.027 202.216 305.634 202.194 313.123C202.223 316.732 203.796 320.158 206.521 322.535C207.543 323.47 206.194 325.036 205.114 324.157Z" fill="#4A1600"/>
<path d="M216.317 304.855C216.327 304.262 215.854 303.774 215.261 303.764C214.668 303.755 214.18 304.228 214.17 304.821C214.161 305.414 214.634 305.902 215.227 305.911C215.82 305.921 216.308 305.448 216.317 304.855Z" fill="#946AAC"/>
<path d="M211.382 313.181C212.081 312.482 212.081 311.349 211.382 310.65C210.684 309.951 209.551 309.951 208.852 310.65C208.153 311.349 208.153 312.482 208.852 313.181C209.551 313.879 210.684 313.879 211.382 313.181Z" fill="#946AAC"/>
<path d="M211.279 306.565C211.289 305.972 210.816 305.484 210.223 305.474C209.63 305.465 209.142 305.938 209.132 306.531C209.123 307.124 209.596 307.612 210.189 307.622C210.782 307.631 211.27 307.158 211.279 306.565Z" fill="#946AAC"/>
<path d="M153.793 111.275C171.368 109.346 184.153 94.4528 182.348 78.0101C180.544 61.5674 164.833 49.8017 147.258 51.7308C129.682 53.6598 116.898 68.5531 118.702 84.9958C120.507 101.439 136.218 113.204 153.793 111.275Z" fill="#804A98"/>
<g opacity="0.5">
<path d="M118.709 84.9987C117.871 77.3631 120.182 70.064 124.655 64.2397C121.889 69.2821 120.59 75.0876 121.25 81.104C123.055 97.5472 138.766 109.313 156.342 107.384C165.756 106.351 173.792 101.595 178.952 94.877C174.158 103.616 164.946 110.055 153.801 111.279C136.225 113.208 120.514 101.442 118.709 84.9987Z" fill="#80559F"/>
</g>
<path d="M150.005 113.219C142.474 113.219 135.243 110.863 129.303 106.415C122.287 101.16 117.914 93.622 116.988 85.1875C116.062 76.7533 118.696 68.4454 124.405 61.7947C130.086 55.177 138.137 50.9922 147.076 50.0112C156.014 49.0305 164.783 51.3687 171.764 56.5967C178.779 61.8509 183.153 69.3894 184.079 77.8238C185.005 86.2581 182.37 94.566 176.661 101.217C170.981 107.834 162.928 112.019 153.99 113C152.657 113.147 151.326 113.219 150.005 113.219ZM151.058 53.2563C149.863 53.2563 148.661 53.3218 147.454 53.4542C139.392 54.3391 132.14 58.1025 127.033 64.051C121.956 69.9664 119.611 77.3387 120.431 84.8098C121.251 92.2808 125.139 98.9688 131.379 103.642C137.654 108.341 145.548 110.443 153.612 109.557C161.674 108.672 168.926 104.909 174.033 98.9602C179.11 93.0448 181.455 85.6728 180.636 78.2014C179.815 70.7304 175.927 64.0424 169.687 59.3691C164.351 55.3734 157.843 53.2563 151.058 53.2563Z" fill="#4A1600"/>
<path d="M118.627 91.4379C114.306 73.2106 132.888 56.7407 150.341 57.7384C156.141 57.9698 161.773 60.0659 166.22 63.5128C161.3 60.9447 155.841 59.5222 150.328 59.7116C137.074 60.0785 123.784 69.6643 121.392 83.0055C120.947 85.5794 121.011 88.2214 121.528 90.7874C121.87 92.6661 119.131 93.295 118.627 91.4379Z" fill="#4A1600"/>
<path d="M152.857 98.7296C154.477 98.5518 155.644 97.0748 155.463 95.4305C155.283 93.7863 153.823 92.5975 152.203 92.7752C150.583 92.953 149.417 94.4301 149.597 96.0744C149.778 97.7186 151.237 98.9074 152.857 98.7296Z" fill="#946AAC"/>
<path d="M138.451 91.8717C140.071 91.6939 141.238 90.2169 141.058 88.5726C140.877 86.9284 139.418 85.7395 137.798 85.9173C136.178 86.0951 135.011 87.5722 135.192 89.2165C135.372 90.8607 136.831 92.0495 138.451 91.8717Z" fill="#946AAC"/>
<path d="M149.344 88.2554C150.316 88.1486 151.016 87.2623 150.908 86.2757C150.8 85.2891 149.924 84.5759 148.952 84.6826C147.98 84.7894 147.28 85.6758 147.388 86.6624C147.497 87.649 148.373 88.3622 149.344 88.2554Z" fill="#946AAC"/>
<path d="M161.339 89.3592C162.311 89.2525 163.011 88.3662 162.903 87.3797C162.795 86.3931 161.919 85.6798 160.947 85.7864C159.975 85.8931 159.275 86.7794 159.383 87.766C159.492 88.7525 160.367 89.4659 161.339 89.3592Z" fill="#946AAC"/>
<path d="M194.661 274.13C209.086 273.473 220.193 260.047 219.468 244.143C218.744 228.239 206.463 215.879 192.038 216.536C177.612 217.193 166.506 230.619 167.23 246.523C167.954 262.426 180.236 274.787 194.661 274.13Z" fill="#804A98"/>
<g opacity="0.5">
<path d="M194.648 274.121C187.95 274.426 181.716 271.921 176.885 267.561C181.128 270.342 186.115 271.85 191.393 271.61C205.817 270.953 216.924 257.528 216.2 241.625C215.812 233.106 212.106 225.608 206.533 220.578C213.886 225.398 218.995 234.052 219.455 244.136C220.179 260.039 209.073 273.464 194.648 274.121Z" fill="#804D9A"/>
</g>
<path d="M193.555 275.681C178.813 275.681 166.427 262.883 165.684 246.585C164.923 229.861 176.708 215.69 191.955 214.996C207.193 214.301 220.227 227.343 220.989 244.066C221.75 260.79 209.965 274.96 194.718 275.655C194.33 275.673 193.94 275.681 193.555 275.681ZM193.117 218.04C192.777 218.04 192.437 218.048 192.095 218.063C178.539 218.681 168.067 231.413 168.752 246.445C169.436 261.477 181.022 273.2 194.578 272.587C208.133 271.97 218.604 259.237 217.921 244.206C217.254 229.554 206.228 218.04 193.117 218.04Z" fill="#4A1600"/>
<path d="M200.26 274.551C183.713 277.308 170.726 259.311 172.61 244.01C173.078 239.545 174.717 235.267 177.351 231.656C177.731 231.154 178.129 230.667 178.514 230.177C175.964 234.49 174.503 239.298 174.355 244.134C173.943 255.866 181.257 268.492 192.949 271.584C195.196 272.158 197.54 272.268 199.841 271.949C201.52 271.746 201.931 274.207 200.26 274.551Z" fill="#4A1600"/>
<path d="M205.98 247.028C207.422 246.962 208.538 245.721 208.471 244.255C208.404 242.789 207.181 241.654 205.738 241.72C204.295 241.785 203.18 243.027 203.247 244.493C203.314 245.959 204.537 247.094 205.98 247.028Z" fill="#946AAC"/>
<path d="M199.234 259.558C200.677 259.492 201.792 258.25 201.725 256.785C201.659 255.319 200.435 254.184 198.993 254.249C197.55 254.315 196.435 255.557 196.501 257.023C196.568 258.488 197.792 259.623 199.234 259.558Z" fill="#946AAC"/>
<path d="M197.665 248.474C198.531 248.435 199.2 247.69 199.16 246.811C199.12 245.931 198.386 245.25 197.52 245.289C196.655 245.329 195.986 246.074 196.026 246.953C196.066 247.833 196.8 248.514 197.665 248.474Z" fill="#946AAC"/>
<path d="M200.767 236.078C200.727 235.198 199.993 234.517 199.128 234.557C198.262 234.596 197.593 235.341 197.633 236.22C197.673 237.1 198.407 237.781 199.273 237.741C200.138 237.702 200.807 236.957 200.767 236.078Z" fill="#946AAC"/>
<path d="M271.401 148.982C271.973 139.536 271.821 129.441 270.406 118.876C270.147 116.941 269.489 115.194 268.492 113.929C266.395 111.27 263.271 109.749 259.845 109.568C244.011 108.733 235.158 138.136 246.545 153.183C253.61 162.521 264.035 163.399 269.555 154.928C270.623 153.289 271.268 151.169 271.401 148.982Z" fill="#804A98"/>
<g opacity="0.5">
<path d="M270.406 118.876C271.822 129.441 271.973 139.537 271.401 148.982C271.268 151.169 270.624 153.289 269.555 154.928C266.128 160.187 260.811 161.84 255.581 160.105C260.068 160.778 264.414 158.923 267.363 154.399C268.431 152.76 269.075 150.64 269.208 148.453C269.781 139.008 269.629 128.912 268.213 118.347C267.954 116.412 267.296 114.665 266.299 113.4C264.917 111.647 263.086 110.392 261.018 109.686C263.978 110.117 266.637 111.577 268.492 113.929C269.489 115.194 270.147 116.941 270.406 118.876Z" fill="#804F9B"/>
</g>
<path d="M259.543 162.161C254.483 162.161 249.366 159.217 245.435 154.023C237.834 143.977 239.09 128.462 244.13 118.964C247.941 111.781 253.697 107.858 259.919 108.179C263.829 108.385 267.262 110.121 269.584 113.068C270.725 114.515 271.486 116.459 271.785 118.691C273.103 128.532 273.432 138.469 272.789 149.066H272.789C272.641 151.517 271.906 153.869 270.721 155.687C268.102 159.706 264.294 162.002 259.999 162.153C259.847 162.158 259.695 162.161 259.543 162.161ZM259.21 110.942C254.323 110.942 249.749 114.31 246.588 120.268C241.951 129.006 240.749 143.218 247.654 152.344C251.148 156.962 255.607 159.52 259.901 159.373C263.314 159.253 266.249 157.453 268.39 154.168C269.316 152.747 269.893 150.875 270.012 148.898C270.644 138.481 270.322 128.721 269.027 119.061C268.798 117.347 268.22 115.831 267.4 114.79C265.58 112.482 262.871 111.12 259.772 110.957C259.585 110.947 259.397 110.942 259.21 110.942Z" fill="#4A1600"/>
<path d="M255.301 152.465C245.919 149.842 243.31 136.452 245.818 128.18C246.708 125.146 248.362 122.23 250.84 120.323C248.922 122.767 247.807 125.61 247.22 128.529C245.714 136.575 247.544 148.103 255.301 152.465Z" fill="#4A1600"/>
<path d="M266.477 135.964C266.593 134.703 265.994 133.617 265.139 133.539C264.283 133.46 263.496 134.418 263.38 135.679C263.263 136.939 263.863 138.025 264.718 138.104C265.573 138.183 266.361 137.225 266.477 135.964Z" fill="#946AAC"/>
<path d="M264.16 148.019C264.276 146.758 263.677 145.672 262.822 145.593C261.967 145.514 261.179 146.473 261.063 147.733C260.947 148.994 261.546 150.08 262.401 150.159C263.256 150.238 264.044 149.28 264.16 148.019Z" fill="#946AAC"/>
<path d="M261.35 139.549C261.213 138.835 260.697 138.461 260.198 138.714C259.698 138.967 259.404 139.751 259.541 140.465C259.679 141.18 260.195 141.554 260.694 141.301C261.193 141.048 261.487 140.263 261.35 139.549Z" fill="#946AAC"/>
<path d="M260.917 130.842C260.987 130.085 260.627 129.434 260.114 129.386C259.601 129.339 259.128 129.914 259.059 130.67C258.989 131.427 259.348 132.078 259.862 132.126C260.375 132.173 260.847 131.598 260.917 130.842Z" fill="#946AAC"/>
<path d="M265.014 87.6716C263.201 87.9777 261.348 87.4936 259.851 86.4253C212.411 52.7068 100.734 61.8986 53.9678 90.003C50.8575 91.8671 48.0532 94.1816 45.4269 96.6855C34.499 107.113 14.1844 107.964 4.36378 92.4568C3.80739 83.5543 23.2817 83.5543 13.2663 66.3055C17.7176 64.0798 17.7176 55.7337 14.3791 50.726C20.3772 45.3233 26.8482 40.8163 33.7032 37.0494C38.0599 34.6456 42.5669 32.5425 47.2074 30.6951C50.3622 30.6728 53.3391 34.245 56.6998 37.7225C61.6073 42.797 67.3272 47.6489 75.5844 40.7104C90.0511 55.7336 99.5101 42.3797 112.864 39.5977C124.548 46.2745 130.113 37.372 138.459 27.913C153.143 28.959 155.964 17.6527 150.65 9.82959C150.327 9.35103 149.971 8.88369 149.587 8.43863L151.245 6.78056C152.681 5.34501 154.611 4.49375 156.642 4.44368C211.371 2.99146 259.884 18.6321 281.718 41.0555C282.046 41.3948 282.363 41.7455 282.664 42.1071C284.695 44.5553 286.03 47.4988 286.498 50.6647C289.085 68.2918 281.212 84.9897 265.014 87.6716Z" fill="#EB984E"/>
<path d="M265.014 87.6717C263.201 87.9778 261.348 87.4936 259.851 86.4253C212.411 52.7069 100.734 61.8987 53.9678 90.0031C50.8575 91.8671 48.0532 94.1817 45.4269 96.6855C34.499 107.113 14.1844 107.964 4.36378 92.4569C3.80739 83.5543 23.2817 83.5543 13.2663 66.3055C17.7176 64.0799 17.7176 55.7337 14.3791 50.726C20.3772 45.3233 26.8482 40.8163 33.7032 37.0494C33.7311 37.055 33.7533 37.0605 33.7812 37.0661L34.9275 37.0327C30.9826 37.5557 29.0017 42.6023 30.248 46.386C31.4888 50.164 34.8495 52.8126 38.149 55.0327C41.454 57.2527 45.0095 59.406 47.0738 62.8112C48.9433 65.8937 49.5443 69.9222 52.4431 72.0755C55.7872 74.5627 60.4833 73.344 64.4505 72.0755C123.413 53.241 188.814 46.603 246.536 68.9485C252.184 71.1352 257.931 73.628 263.985 73.5723C271.302 73.5055 278.457 69.3881 282.185 63.0895C285.913 56.7966 286.086 48.5449 282.625 42.0962C282.636 42.1018 282.653 42.1018 282.664 42.1073C284.695 44.5555 286.03 47.4989 286.498 50.6649C289.085 68.2919 281.212 84.9898 265.014 87.6717Z" fill="#F3834C"/>
<g opacity="0.5">
<path d="M151.222 10.747C152.585 9.60696 154.296 8.93913 156.086 8.89503C210.815 7.4428 259.328 23.0835 281.162 45.5068C283.721 48.1387 285.407 51.4827 285.941 55.1161C286.413 58.3316 286.533 61.5151 286.322 64.5894C287.125 60.1919 287.202 55.4641 286.498 50.6647C285.963 47.0313 284.277 43.6874 281.718 41.0555C259.884 18.6321 211.371 2.99135 156.642 4.4437C154.612 4.49376 152.681 5.34503 151.245 6.78057L149.587 8.43864C149.971 8.8837 150.327 9.35117 150.65 9.8296C150.854 10.1302 151.042 10.4372 151.222 10.747Z" fill="#FF6449"/>
<path d="M16.1834 62.6697C15.6302 64.2924 14.6701 65.6037 13.2664 66.3056C13.825 67.2677 14.2871 68.1733 14.6708 69.0326C15.8165 67.4087 16.2979 65.0946 16.1834 62.6697Z" fill="#FF6449"/>
</g>
<path d="M25.9291 106.003C24.7709 106.003 23.6159 105.934 22.4703 105.793C14.3338 104.794 7.40278 100.375 2.95384 93.3501C2.80342 93.1129 2.71546 92.8414 2.69806 92.5611C2.43262 88.3147 5.58297 85.8363 8.62974 83.4397C13.2912 79.7725 17.3168 76.6057 11.8229 67.1437C11.5915 66.7453 11.535 66.2689 11.6672 65.8275C11.7993 65.386 12.1077 65.0185 12.5201 64.8124C13.8465 64.1492 14.4713 62.706 14.762 61.6118C15.5786 58.5369 14.8502 54.4411 12.9905 51.6519C12.531 50.9625 12.6465 50.0407 13.262 49.4861C22.7121 40.9692 33.6136 34.3156 46.59 29.1446C46.7826 29.0677 46.9883 29.0277 47.1958 29.0261C47.2098 29.0259 47.2243 29.0259 47.238 29.0259C50.7308 29.0259 53.655 32.1028 56.7509 35.36C57.1298 35.7583 57.5124 36.1614 57.9006 36.563C62.8126 41.642 67.4531 45.3641 74.5109 39.4327C75.1838 38.8685 76.1781 38.9209 76.7871 39.5529C86.2572 49.3876 92.9289 46.2106 101.376 42.1899C104.871 40.5257 108.486 38.8051 112.524 37.9635C112.922 37.8809 113.338 37.9459 113.693 38.1486C122.531 43.1991 126.947 38.7576 134.623 29.7955C135.46 28.818 136.318 27.8165 137.208 26.8087C137.552 26.4185 138.056 26.2125 138.578 26.2479C144.293 26.6541 148.488 25.0671 150.384 21.7762C152.158 18.6969 151.72 14.3756 149.269 10.7675C148.978 10.3345 148.66 9.91962 148.324 9.52903C147.753 8.86704 147.789 7.87644 148.407 7.25843L150.065 5.60036C151.827 3.83871 154.149 2.83535 156.602 2.7748C183.106 2.07145 209.181 5.33003 231.998 12.1978C254.164 18.8704 271.771 28.4464 282.915 39.8909C285.756 42.8131 287.566 46.4543 288.15 50.4217C291.065 70.2815 281.452 86.6384 265.293 89.3176C263.068 89.6921 260.793 89.1476 258.882 87.7841C237.563 72.6311 200.33 64.9453 156.725 66.6983C116.575 68.313 77.5303 77.7907 54.8284 91.4337C52.1585 93.0339 49.4607 95.1468 46.5795 97.8938C41.183 103.042 33.5144 106.002 25.9291 106.003ZM6.02385 91.9504C9.93452 97.8904 15.902 101.623 22.8772 102.48C30.5612 103.421 38.7597 100.741 44.2749 95.4781C47.3373 92.5583 50.2272 90.299 53.1099 88.5713C76.2617 74.658 115.914 64.9985 156.59 63.3627C200.917 61.5786 238.906 69.4904 260.818 85.0648C261.987 85.8994 263.415 86.2477 264.737 86.026C264.739 86.0258 264.74 86.0254 264.742 86.0252C280.931 83.3442 287.11 66.3295 284.846 50.9073C284.366 47.6388 282.87 44.6346 280.522 42.2193C269.773 31.1804 252.66 21.9044 231.035 15.3948C208.555 8.62806 182.844 5.42002 156.687 6.11241C155.091 6.15174 153.579 6.80848 152.425 7.96142L151.811 8.57514C151.887 8.68169 151.961 8.78897 152.034 8.89695C155.195 13.5511 155.684 19.2624 153.276 23.443C151.833 25.949 148.099 30.0118 139.177 29.626C138.487 30.4158 137.816 31.1991 137.158 31.9677C132.081 37.8955 127.208 43.5824 120.387 43.5834C118.051 43.5839 115.488 42.917 112.608 41.3645C109.183 42.1702 105.946 43.7114 102.81 45.2041C94.5842 49.1212 86.0862 53.1649 75.4508 42.9376C66.0592 49.801 59.2359 42.7462 55.5005 38.8834C55.1054 38.4746 54.7162 38.0651 54.3312 37.66C51.8507 35.0503 49.5016 32.579 47.4963 32.3776C35.5029 37.1941 25.3504 43.3155 16.5156 51.0603C18.3329 54.5127 18.9303 58.9227 17.9885 62.4685C17.5002 64.3067 16.6374 65.7844 15.4575 66.8244C21.1732 77.8205 15.1432 82.5634 10.6939 86.0636C7.87752 88.2792 6.09513 89.7938 6.02385 91.9504Z" fill="#4A1600"/>
<path d="M13.985 49.1042C29.9157 44.7799 46.3428 55.2725 49.4538 71.3819C50.4519 76.4195 50.0201 81.6571 48.3206 86.3364C48.7778 81.3817 48.5473 76.4927 47.2483 71.9051C44.2655 60.4103 33.6465 51.6739 21.6989 51.6201C19.3746 51.5748 17.0461 51.8486 14.7598 52.3514C12.6465 52.771 11.8981 49.6942 13.985 49.1042Z" fill="#4A1600"/>
<path d="M138.459 27.9131C130.113 37.3721 124.549 46.2747 112.864 39.5978C99.5102 42.3798 90.0512 55.7337 75.5845 40.7106C67.3273 47.6489 61.6075 42.7971 56.7 37.7227C56.9837 34.5289 57.9351 31.4909 59.3763 28.8368C64.4953 19.3612 75.7849 14.7151 85.0436 25.1312C90.0513 12.3337 100.067 11.7773 103.962 18.4542C107.856 10.6644 117.054 6.38567 123.992 14.5593C125.623 5.32295 143.166 7.22585 150.16 9.65176C150.333 9.71302 150.494 9.76868 150.65 9.82982C155.964 17.6528 153.143 28.9591 138.459 27.9131Z" fill="#FF67A0"/>
<path d="M138.459 27.9132C130.113 37.3722 124.549 46.2747 112.864 39.5979C99.5102 42.3799 90.0512 55.7338 75.5845 40.7106C67.3273 47.649 61.6075 42.7972 56.7 37.7228C56.9837 34.529 57.9351 31.4909 59.3763 28.8369C59.5154 28.7479 59.6545 28.6644 59.7992 28.581L61.3238 27.7352C60.8007 30.584 61.2013 33.7667 63.1377 35.9256C65.0684 38.0789 68.763 38.7132 70.8997 36.7602C72.3686 35.4137 72.7859 33.2937 73.1254 31.3296C74.4607 33.1991 75.2675 35.4637 76.9256 37.055C78.5892 38.6464 81.6551 39.175 82.9961 37.3111C83.8918 36.0703 83.6248 34.3843 83.5525 32.8597C83.2965 27.8076 85.7225 22.6941 89.7954 19.6894C88.8606 23.5676 88.5991 27.7741 90.1626 31.4464C91.7206 35.1132 95.4819 38.0454 99.4547 37.6726C106.421 37.0161 109.748 27.5848 116.642 26.3552C114.305 28.4585 114.633 32.5981 116.943 34.7291C119.246 36.8658 122.919 37.0828 125.778 35.7808C127.526 34.9796 129.15 33.4438 129.206 31.5186C129.273 29.1038 126.991 27.4011 125.573 25.4426C124.003 23.2893 123.414 20.4571 123.987 17.8587C124.838 20.3569 125.951 22.8775 127.932 24.6246C129.907 26.3717 132.951 27.1507 135.248 25.8543C137.964 24.3241 138.631 20.663 138.203 17.5749C140.518 20.1511 144.78 20.6741 147.651 18.7433C150.489 16.8292 151.607 12.7508 150.16 9.65161C150.333 9.71288 150.494 9.76853 150.65 9.82968C155.964 17.6529 153.143 28.9592 138.459 27.9132Z" fill="#E54A89"/>
<path d="M89.2106 49.396C84.9664 49.3962 80.4444 47.7397 75.4507 42.9376C66.0589 49.8018 59.2359 42.7461 55.5004 38.8834C55.1631 38.5348 54.9943 38.0573 55.0377 37.5742C55.8356 28.6456 61.5248 20.716 68.8731 18.2906C74.3156 16.4942 79.7903 17.8864 84.5068 22.2062C87.349 16.4213 91.5247 12.9576 96.2039 12.594C99.083 12.372 101.776 13.4205 103.779 15.4696C106.399 11.6143 110.212 9.03462 114.163 8.55762C116.567 8.26667 119.95 8.62425 123.331 11.5229C124.102 10.1834 125.262 9.06895 126.801 8.19277C133.635 4.30331 146.09 6.3223 151.24 8.26846C151.561 8.38979 151.838 8.6078 152.031 8.89207C155.196 13.5511 155.684 19.2626 153.276 23.443C151.833 25.9487 148.104 30.0037 139.177 29.626C138.487 30.4158 137.816 31.1991 137.158 31.9677C130.342 39.9255 123.897 47.4486 112.608 41.3645C109.183 42.1702 105.946 43.7114 102.81 45.2041C98.4465 47.2816 94.0053 49.3954 89.2106 49.396ZM75.5839 39.0418C76.023 39.0418 76.4605 39.214 76.7869 39.5531C86.2571 49.3879 92.9287 46.2108 101.375 42.1901C104.871 40.526 108.485 38.8053 112.524 37.9637C112.922 37.8811 113.338 37.9462 113.692 38.1488C122.53 43.1993 126.947 38.7579 134.623 29.7958C135.46 28.8186 136.318 27.8169 137.207 26.8089C137.552 26.4187 138.056 26.2127 138.578 26.2481C144.293 26.6543 148.488 25.0673 150.384 21.7764C152.086 18.8219 151.752 14.7245 149.558 11.2103C144.534 9.48302 133.798 8.05189 128.453 11.0943C126.842 12.0112 125.92 13.2395 125.636 14.8495C125.524 15.4865 125.054 16.0012 124.429 16.1706C123.807 16.3392 123.139 16.1333 122.72 15.6395C120.327 12.8198 117.506 11.5187 114.563 11.872C110.99 12.3032 107.499 15.1116 105.455 19.2007C105.181 19.749 104.628 20.1031 104.016 20.1225C103.407 20.1421 102.829 19.8249 102.52 19.2952C101.157 16.9588 98.9498 15.7308 96.4627 15.9223C92.5732 16.2244 88.8858 19.8944 86.5985 25.7393C86.387 26.2803 85.9095 26.6722 85.3376 26.7744C84.7649 26.8757 84.1821 26.6737 83.7965 26.2402C79.648 21.5744 74.7198 19.8766 69.9198 21.4608C64.0001 23.4146 59.3608 29.7903 58.4438 37.1192C63.1588 41.9041 67.7141 45.1449 74.5111 39.4326C74.8227 39.171 75.2038 39.0418 75.5839 39.0418Z" fill="#4A1600"/>
<path d="M76.5716 43.9694C73.1571 40.7512 72.2254 35.6307 73.0105 31.2359C73.069 30.8267 73.6875 30.8529 73.7073 31.2676C74.0347 35.4238 75.378 38.8104 78.7029 41.3997C80.6059 42.889 78.3625 45.5924 76.5716 43.9694Z" fill="#4A1600"/>
<path d="M98.4014 45.4221C94.627 45.4221 91.1658 44.1507 88.4375 41.6758C83.8483 37.5137 82.2562 30.7836 84.0694 23.211C84.2844 22.3142 85.187 21.7621 86.0816 21.9763C86.9781 22.1911 87.5307 23.0919 87.3163 23.9885C85.7955 30.3391 87.0215 35.8846 90.6802 39.2029C93.9347 42.1548 98.6293 42.8715 103.562 41.1683C104.434 40.8674 105.384 41.3298 105.685 42.2013C105.985 43.0725 105.523 44.0229 104.651 44.3239C102.522 45.0595 100.417 45.4221 98.4014 45.4221Z" fill="#4A1600"/>
<path d="M105.895 18.3769C103.54 22.5098 102.713 27.0226 104.31 31.6327C104.489 32.0668 103.855 32.3886 103.613 31.9836C100.826 27.4358 100.472 21.4209 103.08 16.5815C104.319 14.5755 107.123 16.357 105.895 18.3769Z" fill="#4A1600"/>
<path d="M117.67 43.2941C108.67 40.57 110.123 26.9625 118.329 24.3172C118.475 24.2715 118.63 24.3527 118.676 24.4986C118.718 24.633 118.652 24.7754 118.527 24.8327C116.906 25.5794 115.616 26.8712 114.782 28.3799C112.418 32.3693 113.285 39.2131 118.51 40.0629C120.836 40.5748 119.958 43.9776 117.67 43.2941Z" fill="#4A1600"/>
<path d="M126.018 13.5957C125.054 17.4093 124.909 21.8378 127.38 25.1451C128.235 26.2677 129.446 27.1138 130.775 27.6055C131.119 27.7402 130.973 28.2922 130.609 28.2411C127.307 27.9345 124.678 25.2088 123.469 22.2378C122.182 19.1292 121.895 15.6699 122.909 12.3784C123.182 11.5149 124.104 11.036 124.967 11.3088C125.752 11.557 126.22 12.3414 126.093 13.131L126.018 13.5957Z" fill="#4A1600"/>
<path d="M139.704 27.0319C141.09 23.5856 140.459 19.2124 137.231 16.9896C137.125 16.913 137.102 16.7652 137.178 16.6596C137.244 16.5694 137.362 16.5396 137.461 16.5806C139.471 17.4035 141.148 19.0584 142.052 21.0728C143.009 23.1512 143.227 25.5347 142.955 27.8083C142.548 30.2605 138.959 29.4078 139.704 27.0319Z" fill="#4A1600"/>
<g opacity="0.4">
<path d="M231.296 37.0405C240.338 39.4932 249.194 42.6276 257.765 46.4083C259.992 47.3903 262.24 48.428 264.652 48.7506C266.205 48.9584 268.104 48.6703 268.776 47.2548C269.511 45.7078 268.297 43.9683 267.086 42.7571C262.677 38.3458 257.188 34.9517 251.159 33.3531C245.131 31.7544 238.564 32.0087 232.815 34.4264C232.24 34.6683 231.636 34.964 231.331 35.5086C231.027 36.0531 231.214 36.9027 231.821 37.0492" fill="#FF6449"/>
</g>
<g opacity="0.4">
<path d="M217.714 33.5411C218.59 33.835 219.466 34.1289 220.342 34.4229C221.955 34.9636 223.684 35.5094 225.324 35.0597C226.964 34.61 228.31 32.7103 227.539 31.1948C227.172 30.473 226.44 30.0221 225.744 29.6079C224.24 28.7131 222.686 27.7999 220.954 27.5487C219.223 27.2975 217.249 27.8713 216.354 29.375C215.459 30.8787 216.249 33.2594 217.981 33.511" fill="#FF6449"/>
</g>
<path d="M130.654 263.268C133.197 260 134.736 256.24 135.677 252.147C136.325 256.515 135.893 261.421 133.365 265.217C132.045 267.073 129.314 265.114 130.654 263.268Z" fill="#4A1600"/>
<path d="M243.007 270.087C242.883 268.493 242.769 266.512 242.803 264.925L242.806 264.82C242.817 264.803 242.606 264.788 242.59 264.771C242.586 264.753 242.591 264.736 242.591 264.718C243.024 257.673 244.981 250.874 244.733 243.801C245.616 248.074 245.601 252.528 245.602 256.868C245.63 261.211 245.652 265.457 246.322 269.717C246.596 271.983 243.243 272.363 243.007 270.087Z" fill="#4A1600"/>
<path d="M202.374 220.26C204.047 217.654 202.281 213.537 198.43 211.065C194.579 208.594 190.101 208.703 188.428 211.31C186.755 213.916 188.521 218.033 192.372 220.504C196.224 222.976 200.702 222.866 202.374 220.26Z" fill="#F292B8"/>
<path d="M198 223.679C195.979 223.679 193.727 223.013 191.618 221.66C187.051 218.73 185.134 213.847 187.254 210.544C189.373 207.241 194.611 206.95 199.178 209.88C201.272 211.224 202.895 213.059 203.749 215.049C204.682 217.223 204.608 219.335 203.542 220.996C202.401 222.774 200.357 223.679 198 223.679ZM192.776 210.654C191.367 210.654 190.192 211.116 189.595 212.046C188.361 213.97 189.975 217.3 193.121 219.319C196.267 221.337 199.967 221.417 201.201 219.494C201.946 218.333 201.515 216.898 201.192 216.146C200.555 214.662 199.307 213.268 197.675 212.221C196.052 211.18 194.28 210.654 192.776 210.654Z" fill="#4A1600"/>
<path d="M192.058 228.87C187.579 234.469 178.758 234.482 172.304 226.489C159.442 234.225 147.56 233.716 138.634 227.785L137.167 205.938C142.812 205.695 148.718 205.641 154.87 205.771C160.226 205.883 165.774 206.132 171.508 206.516C176.501 206.297 181.524 206.537 186.589 207.452C190.504 208.159 193.601 211.173 194.411 215.066C195.662 221.074 194.512 225.806 192.058 228.87Z" fill="#EF82B1"/>
<path d="M137.167 205.938C148.21 203.555 160.911 204.518 171.439 204.968C176.21 204.715 181.038 204.909 185.771 205.642C189.635 206.018 193.258 208.308 195.016 211.811C197.37 216.9 197.222 224.13 194.06 228.926C187.99 237.665 176.911 235.002 171.222 227.362L173.021 227.681C166.001 232.309 157.087 234.83 148.747 232.86C145.043 232.023 141.453 230.238 138.634 227.785C141.331 229.095 144.117 230.05 146.954 230.564C155.517 232.217 164.089 229.357 171.587 225.296C172.2 224.957 172.957 225.111 173.393 225.622C177.974 231.315 186.55 234.052 191.288 227.097C193.235 224.146 193.53 220.183 192.985 216.666C192.787 215.457 192.598 214.399 192.033 213.351C191.027 211.378 189.172 209.85 187.03 209.258C184.545 208.672 181.966 208.405 179.422 208.197C176.818 208.005 174.197 207.98 171.574 208.065C165.828 207.645 160.076 207.279 154.318 207.112C148.579 206.913 142.892 206.682 137.167 205.938Z" fill="#4A1600"/>
<path d="M177.632 194.934C178.085 195.369 178.556 195.744 179.04 196.067C182.24 198.229 185.906 198.186 187.318 198.171C188.646 198.157 194.627 198.089 198.387 193.496C198.74 193.064 199.055 192.618 199.328 192.158C202.663 186.647 200.802 179.26 198.733 175.152C198.207 174.109 193.696 165.157 186.453 165.621C178.988 166.099 175.608 176.13 175.211 177.31C174.976 178.004 171.44 189 177.632 194.934Z" fill="#650000"/>
<path d="M174.865 189.129C175.885 191.485 177.248 193.909 179.04 196.067C182.239 198.229 185.906 198.186 187.318 198.171C188.646 198.157 194.627 198.089 198.387 193.495C198.74 193.064 199.054 192.618 199.328 192.157C195.578 187.629 189.95 185.518 184.616 187.719C184.049 187.953 183.488 188.233 182.935 188.564C181.821 188.158 179.977 187.942 178.213 188.115C176.961 188.237 175.75 188.554 174.865 189.129Z" fill="#FC9595"/>
<path d="M178.2 184.075L178.212 188.122C178.212 188.122 182.658 187.504 186.332 193.479C186.332 193.479 185.744 183.753 178.2 184.075Z" fill="#650000"/>
<path d="M186.85 199.566C184.816 199.566 180.213 199.335 176.669 195.939C169.793 189.347 173.719 177.38 173.893 176.866C174.848 174.028 178.571 164.73 186.364 164.232C193.939 163.745 198.696 171.988 199.975 174.525C202.204 178.947 204.603 188.104 199.463 194.377C196.773 197.661 192.465 199.503 187.334 199.562C187.196 199.564 187.033 199.566 186.85 199.566ZM186.995 166.994C186.845 166.994 186.694 166.999 186.542 167.009C180.478 167.396 177.345 175.331 176.529 177.754C176.529 177.754 176.529 177.754 176.529 177.755C176.381 178.192 172.977 188.545 178.595 193.93C181.636 196.846 185.753 196.797 187.301 196.781C191.658 196.73 195.119 195.289 197.311 192.614C201.546 187.445 199.417 179.599 197.491 175.778C196.434 173.682 192.615 166.994 186.995 166.994Z" fill="#650000"/>
<path d="M129.835 122.503C131.218 122.503 132.339 121.133 132.339 119.443C132.339 117.753 131.218 116.383 129.835 116.383C128.452 116.383 127.331 117.753 127.331 119.443C127.331 121.133 128.452 122.503 129.835 122.503Z" fill="#F292B8"/>
<path d="M128.722 129.18C129.49 129.18 130.113 128.308 130.113 127.233C130.113 126.157 129.49 125.285 128.722 125.285C127.954 125.285 127.331 126.157 127.331 127.233C127.331 128.308 127.954 129.18 128.722 129.18Z" fill="#F292B8"/>
<path d="M177.13 138.083C178.82 138.083 180.19 136.09 180.19 133.631C180.19 131.173 178.82 129.18 177.13 129.18C175.439 129.18 174.069 131.173 174.069 133.631C174.069 136.09 175.439 138.083 177.13 138.083Z" fill="#F292B8"/>
<path d="M182.137 145.316C182.906 145.316 183.528 144.569 183.528 143.647C183.528 142.725 182.906 141.978 182.137 141.978C181.369 141.978 180.746 142.725 180.746 143.647C180.746 144.569 181.369 145.316 182.137 145.316Z" fill="#F292B8"/>
<path d="M196.882 92.4569C197.804 92.4569 198.551 91.3359 198.551 89.9531C198.551 88.5702 197.804 87.4492 196.882 87.4492C195.96 87.4492 195.213 88.5702 195.213 89.9531C195.213 91.3359 195.96 92.4569 196.882 92.4569Z" fill="#F292B8"/>
<path d="M199.942 97.4646C200.711 97.4646 201.333 97.0909 201.333 96.63C201.333 96.1691 200.711 95.7954 199.942 95.7954C199.174 95.7954 198.551 96.1691 198.551 96.63C198.551 97.0909 199.174 97.4646 199.942 97.4646Z" fill="#F292B8"/>
<path d="M240.56 178.144C241.943 178.144 243.064 176.401 243.064 174.249C243.064 172.098 241.943 170.354 240.56 170.354C239.178 170.354 238.057 172.098 238.057 174.249C238.057 176.401 239.178 178.144 240.56 178.144Z" fill="#F292B8"/>
<path d="M245.568 183.708C246.029 183.708 246.403 183.21 246.403 182.596C246.403 181.981 246.029 181.483 245.568 181.483C245.107 181.483 244.734 181.981 244.734 182.596C244.734 183.21 245.107 183.708 245.568 183.708Z" fill="#F292B8"/>
<path d="M214.131 190.385C215.053 190.385 215.8 188.642 215.8 186.49C215.8 184.339 215.053 182.595 214.131 182.595C213.209 182.595 212.462 184.339 212.462 186.49C212.462 188.642 213.209 190.385 214.131 190.385Z" fill="#F292B8"/>
<path d="M212.184 195.393C212.952 195.393 213.575 194.895 213.575 194.28C213.575 193.666 212.952 193.167 212.184 193.167C211.415 193.167 210.792 193.666 210.792 194.28C210.792 194.895 211.415 195.393 212.184 195.393Z" fill="#F292B8"/>
<path d="M235.275 111.375C235.889 111.375 236.387 110.254 236.387 108.871C236.387 107.488 235.889 106.367 235.275 106.367C234.66 106.367 234.162 107.488 234.162 108.871C234.162 110.254 234.66 111.375 235.275 111.375Z" fill="#F292B8"/>
<path d="M233.327 118.608C234.403 118.608 235.275 117.363 235.275 115.826C235.275 114.29 234.403 113.044 233.327 113.044C232.252 113.044 231.38 114.29 231.38 115.826C231.38 117.363 232.252 118.608 233.327 118.608Z" fill="#F292B8"/>
<path d="M190.205 293.878C191.742 293.878 192.987 292.259 192.987 290.261C192.987 288.264 191.742 286.645 190.205 286.645C188.669 286.645 187.423 288.264 187.423 290.261C187.423 292.259 188.669 293.878 190.205 293.878Z" fill="#F292B8"/>
<path d="M197.16 288.313C197.621 288.313 197.995 287.815 197.995 287.201C197.995 286.586 197.621 286.088 197.16 286.088C196.699 286.088 196.326 286.586 196.326 287.201C196.326 287.815 196.699 288.313 197.16 288.313Z" fill="#F292B8"/>
<path d="M228.876 264.388C229.644 264.388 230.267 263.142 230.267 261.606C230.267 260.069 229.644 258.824 228.876 258.824C228.107 258.824 227.485 260.069 227.485 261.606C227.485 263.142 228.107 264.388 228.876 264.388Z" fill="#F292B8"/>
<path d="M224.702 269.396C225.624 269.396 226.372 268.524 226.372 267.448C226.372 266.373 225.624 265.501 224.702 265.501C223.781 265.501 223.033 266.373 223.033 267.448C223.033 268.524 223.781 269.396 224.702 269.396Z" fill="#F292B8"/>
<path d="M157.933 191.498C159.777 191.498 161.272 189.63 161.272 187.325C161.272 185.02 159.777 183.152 157.933 183.152C156.09 183.152 154.595 185.02 154.595 187.325C154.595 189.63 156.09 191.498 157.933 191.498Z" fill="#F292B8"/>
<path d="M152.647 192.054C153.108 192.054 153.482 191.432 153.482 190.663C153.482 189.895 153.108 189.272 152.647 189.272C152.186 189.272 151.813 189.895 151.813 190.663C151.813 191.432 152.186 192.054 152.647 192.054Z" fill="#F292B8"/>
<path d="M201.024 149.663C201.024 159.114 207.45 166.777 215.385 166.777C223.316 166.777 229.742 159.114 229.742 149.663C229.742 145.174 228.299 141.09 225.923 138.041C225.923 138.041 222.237 133.701 218.585 136.294C212.481 141.21 201.157 147.367 201.157 147.367C201.067 148.115 201.024 148.884 201.024 149.663Z" fill="#650000"/>
<path d="M212.52 159.364C215.311 159.364 217.573 156.353 217.573 152.639C217.573 148.925 215.311 145.914 212.52 145.914C209.73 145.914 207.468 148.925 207.468 152.639C207.468 156.353 209.73 159.364 212.52 159.364Z" fill="#FF6449"/>
<g opacity="0.2">
<path d="M221.187 147.999C222.476 147.999 223.52 146.609 223.52 144.894C223.52 143.179 222.476 141.788 221.187 141.788C219.898 141.788 218.854 143.179 218.854 144.894C218.854 146.609 219.898 147.999 221.187 147.999Z" fill="#FF6449"/>
</g>
<path d="M231.778 137.391C225.26 135.859 220.488 137.042 215.239 141.218C211.062 144.437 205.117 149.566 199.139 146.743C198.323 146.323 197.579 145.671 197.235 144.851C198.089 145.072 198.832 145.082 199.551 145.026C201.588 144.777 203.665 144.371 205.423 143.278C209.255 140.657 212.722 137.032 217.248 135.295C221.997 133.212 227.857 134.039 231.778 137.391Z" fill="#650000"/>
<path d="M166.784 153.001C166.784 162.452 160.358 170.115 152.423 170.115C144.492 170.115 138.066 162.452 138.066 153.001C138.066 148.512 139.509 144.428 141.885 141.379C141.885 141.379 145.571 137.039 149.223 139.632C155.327 144.548 166.651 150.705 166.651 150.705C166.741 151.453 166.784 152.222 166.784 153.001Z" fill="#650000"/>
<path d="M155.288 162.702C158.078 162.702 160.34 159.691 160.34 155.977C160.34 152.263 158.078 149.252 155.288 149.252C152.497 149.252 150.235 152.263 150.235 155.977C150.235 159.691 152.497 162.702 155.288 162.702Z" fill="#FF6449"/>
<g opacity="0.2">
<path d="M146.621 151.338C147.91 151.338 148.954 149.947 148.954 148.232C148.954 146.517 147.91 145.126 146.621 145.126C145.332 145.126 144.288 146.517 144.288 148.232C144.288 149.947 145.332 151.338 146.621 151.338Z" fill="#FF6449"/>
</g>
<path d="M136.03 140.729C139.953 137.378 145.81 136.549 150.561 138.634C155.085 140.37 158.554 143.996 162.385 146.616C164.144 147.709 166.22 148.115 168.257 148.364C168.976 148.42 169.719 148.411 170.573 148.189C170.229 149.009 169.485 149.661 168.669 150.082C162.699 152.905 156.74 147.773 152.569 144.556C147.311 140.376 142.554 139.199 136.03 140.729Z" fill="#650000"/>
<path d="M154.391 383.47C149.868 383.47 145.681 381.232 143.191 377.483C139.105 371.333 138.702 362.367 139.559 349.121C135.835 346.903 133.113 343.341 131.971 339.114C119.386 292.545 100.863 244.323 78.3503 199.496C73.9539 200.834 69.1481 199.469 65.8521 195.775C64.2019 193.925 63.1049 191.584 62.68 189.006C61.5908 182.401 61.1196 175.504 61.2038 167.357C49.4179 146.536 36.839 126.779 23.7994 108.606C23.2173 108.57 22.6692 108.52 22.1436 108.455C13.1949 107.357 5.57522 102.502 0.688249 94.7851C0.298016 94.1696 0.0670209 93.4579 0.0216089 92.7281C-0.331675 87.077 3.71786 83.8915 6.97179 81.3322C11.5369 77.7408 13.8282 75.9383 9.50377 68.4907C8.90281 67.4558 8.75501 66.2052 9.09816 65.0589C9.44119 63.9124 10.2517 62.9484 11.3217 62.4138C11.6433 62.2529 11.9689 61.6816 12.1702 60.9233C12.7938 58.5752 12.2005 55.3015 10.7592 53.1398C9.68685 51.5308 9.79579 49.4479 11.0304 47.956C11.0554 47.9255 11.0857 47.8908 11.1156 47.8577C11.2329 47.7226 11.3435 47.6051 11.4669 47.4942C21.1564 38.7612 32.3207 31.9443 45.5971 26.6537C46.1014 26.4527 46.633 26.3485 47.1769 26.3447C47.1833 26.3447 47.2316 26.3444 47.238 26.3444C49.9664 26.3444 52.2725 27.5928 54.3537 29.2954C57.0507 22.8099 62.1135 17.698 68.0325 15.744C73.3964 13.9735 78.8639 14.8372 83.7145 18.1551C86.9178 13.186 91.1965 10.2933 95.996 9.92056C98.6306 9.71305 101.158 10.3326 103.336 11.6901C106.256 8.43388 109.971 6.36257 113.842 5.89522C116.15 5.6162 119.413 5.79916 122.818 7.84925C123.581 7.09966 124.468 6.43528 125.475 5.86209C131.376 2.50482 140.663 2.92688 147.462 4.41093L148.169 3.70437C150.419 1.45415 153.39 0.171647 156.536 0.094292C183.323 -0.614301 209.686 2.68123 232.771 9.63021C255.372 16.4337 273.376 26.251 284.836 38.0205C288.074 41.3504 290.137 45.5035 290.803 50.0322C293.87 70.9244 283.858 88.2474 266.901 91.746C268.331 97.4625 269.432 103.503 270.184 109.756C270.724 110.268 271.228 110.821 271.69 111.407C273.128 113.231 274.08 115.627 274.443 118.335C275.785 128.35 276.119 138.455 275.466 149.228C275.29 152.135 274.403 154.949 272.968 157.152C271.986 158.659 270.842 159.974 269.559 161.076C268.374 170.815 266.61 181.081 264.304 191.656C268.305 191.434 272.406 191.075 276.745 190.569C277.333 190.5 277.829 190.41 278.265 190.292C282.781 189.067 287.529 188.99 292.376 190.061C295.959 190.853 299.267 192.635 301.943 195.213C308.244 201.286 311.488 207.551 311.078 212.856C310.85 215.794 309.44 218.314 307.106 219.953C304.568 221.735 301.219 222.154 298.148 221.073C296.133 220.364 294.301 219.571 292.61 218.676C290.428 222.733 287.579 226.371 283.318 226.962C281.741 227.179 280.127 226.813 278.772 225.928C277.856 225.33 277.079 224.631 276.445 223.838C271.237 226.024 265.545 227.273 259.466 227.566C259.105 240.635 259.507 254.267 260.664 268.129C260.956 271.633 261.441 275.127 262.105 278.511C263.403 285.12 265.655 301.649 258.563 312.331C255.808 316.48 250.689 318.372 246.113 316.933C234.673 313.332 238.211 295.278 239.543 288.481C239.797 287.183 240.007 285.872 240.174 284.553C238.824 286.902 237.384 289.193 235.845 291.446C236.458 293.298 236.339 295.353 235.459 297.135C229.169 309.866 217.857 321.793 206.638 327.519C204.681 328.519 202.29 328.621 200.3 327.816C196.205 331.49 191.961 335.487 188.078 339.933C185.421 342.975 181.58 344.669 177.536 344.614C176.815 344.602 176.083 344.527 175.348 344.39C172.423 346.005 169.659 347.322 166.971 348.383C168.633 362.978 170.317 379.283 158.16 382.92C156.94 383.285 155.672 383.47 154.391 383.47ZM79.6043 193.345C79.8529 193.345 80.102 193.379 80.3452 193.449C81.0617 193.655 81.6599 194.15 81.9969 194.815C105.187 240.599 124.258 290.014 137.149 337.715C138.038 341.004 140.338 343.702 143.46 345.116C144.482 345.579 145.108 346.629 145.028 347.748C144.129 360.476 144.256 369.393 147.658 374.515C149.13 376.73 151.709 378.106 154.391 378.106C155.151 378.106 155.901 377.997 156.622 377.781C164.652 375.379 163.086 361.648 161.571 348.368L161.405 346.904C161.265 345.662 162.001 344.488 163.18 344.074C166.473 342.916 169.886 341.326 173.614 339.214C174.227 338.867 174.952 338.776 175.632 338.958C176.313 339.141 176.983 339.24 177.626 339.251C180.096 339.3 182.423 338.254 184.038 336.405C188.572 331.213 193.509 326.668 198.169 322.529C199.108 321.696 200.498 321.624 201.517 322.358C201.674 322.471 201.834 322.581 201.999 322.684C202.624 323.076 203.5 323.099 204.2 322.742C214.456 317.506 224.838 306.523 230.65 294.759C230.982 294.087 230.932 293.276 230.519 292.642C229.92 291.722 229.942 290.531 230.574 289.633C234.582 283.946 237.898 278.015 240.713 271.502C241.206 270.362 242.417 269.708 243.641 269.925C244.864 270.141 245.779 271.169 245.852 272.409C245.907 273.346 245.949 274.299 245.975 275.241C246.113 280.049 245.72 284.851 244.806 289.513C242.15 303.067 243.104 310.362 247.723 311.816C250.035 312.545 252.654 311.535 254.095 309.364C260.086 300.34 258.012 285.503 256.842 279.543C256.14 275.966 255.628 272.275 255.319 268.575C254.07 253.609 253.688 238.899 254.185 224.855C254.236 223.416 255.415 222.274 256.856 222.269C264.005 222.243 270.565 220.805 276.353 217.995C277.015 217.674 277.779 217.638 278.467 217.897C279.126 218.144 279.66 218.641 279.956 219.277C280.016 219.381 280.068 219.488 280.114 219.599C280.414 220.332 280.934 220.933 281.704 221.437C281.976 221.614 282.286 221.691 282.581 221.648C285.254 221.278 287.561 216.976 289.065 213.772C289.394 213.069 290.012 212.544 290.758 212.331C291.504 212.118 292.306 212.24 292.956 212.663C294.971 213.975 297.251 215.071 299.929 216.013C301.37 216.52 302.9 216.352 304.023 215.563C305.051 214.841 305.625 213.791 305.73 212.442C306.006 208.87 303.199 203.872 298.221 199.075C296.257 197.183 293.836 195.877 291.219 195.298C287.225 194.415 283.338 194.472 279.668 195.468C278.973 195.656 278.22 195.796 277.366 195.896C271.619 196.567 266.272 196.986 261.02 197.175C260.185 197.201 259.389 196.847 258.857 196.205C258.326 195.564 258.124 194.712 258.308 193.9C261.04 181.898 263.077 170.276 264.362 159.355C264.449 158.62 264.835 157.954 265.43 157.513C266.584 156.658 267.608 155.551 268.474 154.223C269.41 152.787 269.992 150.898 270.112 148.903C270.744 138.48 270.422 128.714 269.127 119.047C268.891 117.291 268.321 115.797 267.478 114.728C267.022 114.149 266.506 113.623 265.943 113.163C265.401 112.721 265.054 112.084 264.975 111.39C264.126 103.922 262.765 96.7706 260.931 90.133C260.702 89.3039 260.884 88.4152 261.422 87.7437C261.959 87.0718 262.786 86.7001 263.645 86.7403C264.059 86.7607 264.464 86.7379 264.846 86.6733C279.508 84.2423 288.189 69.1612 285.496 50.8117C284.995 47.4062 283.437 44.2763 280.991 41.7609C270.166 30.6428 252.956 21.3078 231.224 14.7662C208.68 7.98012 182.904 4.76326 156.672 5.45612C154.905 5.49975 153.233 6.22431 151.961 7.49692L150.394 9.06393C150.386 9.07382 150.378 9.08348 150.37 9.09337C149.707 9.8823 148.651 10.2221 147.653 9.96669C141.487 8.39181 132.748 7.89454 128.128 10.5237C127.015 11.1572 126.183 11.9435 125.655 12.8609C125.257 13.5529 124.571 14.0312 123.784 14.1663C122.996 14.3004 122.191 14.0787 121.585 13.5592C119.417 11.7009 117.028 10.9126 114.484 11.2205C111.362 11.597 108.19 13.7492 105.997 16.9769C105.545 17.6424 104.818 18.0699 104.016 18.1412C103.214 18.2128 102.424 17.9195 101.861 17.3442C100.395 15.8438 98.4579 15.1053 96.4137 15.268C92.7178 15.5549 89.3448 18.4389 86.913 23.3891C86.5406 24.1471 85.8326 24.6855 85.0026 24.842C84.1735 24.9983 83.3172 24.7544 82.6945 24.1841C78.6884 20.5147 74.1997 19.3571 69.7129 20.8377C64.287 22.6288 59.7696 28.0951 58.2046 34.7635C57.9805 35.7188 57.2527 36.4751 56.3073 36.7361C55.361 36.9969 54.3489 36.721 53.6665 36.016C51.1636 33.4297 49.2285 31.7998 47.393 31.7119C35.087 36.6376 24.7044 42.9254 15.6865 50.9158C17.6236 54.286 18.2966 58.7482 17.3532 62.3003C16.8455 64.2122 15.9106 65.6972 14.6232 66.6548C20.5115 77.5057 14.8548 81.9544 10.2873 85.5476C7.2302 87.9526 5.3273 89.5846 5.36461 92.1424C9.38124 98.345 15.5611 102.243 22.7966 103.132C23.5357 103.222 24.3485 103.278 25.2814 103.301C26.1198 103.322 26.8999 103.733 27.3905 104.413C40.9479 123.218 54.015 143.72 66.229 165.348C66.4626 165.762 66.582 166.23 66.5753 166.705C66.4594 174.845 66.9029 181.654 67.9715 188.133C68.2311 189.707 68.8818 191.115 69.8536 192.204C72.0114 194.622 75.2594 195.3 77.9372 193.89C78.023 193.845 78.1183 193.791 78.22 193.729C78.6423 193.475 79.1213 193.345 79.6043 193.345ZM279.883 219.158C279.885 219.16 279.886 219.162 279.887 219.164C279.886 219.162 279.885 219.16 279.883 219.158ZM13.5148 49.9811L14.7344 50.9707L13.1193 49.6403L13.5148 49.9811Z" fill="#4A1600"/>
</svg>
