<svg width="734" height="724" viewBox="0 0 734 724" fill="none" xmlns="http://www.w3.org/2000/svg">
<g clip-path="url(#clip0_143_493)">
<path d="M724.89 291.61L724.97 292.46C724.49 292.85 723.93 293.62 724.15 294.08C724.5 294.8 725.38 295.21 725.97 294.8L726.25 297.56C726.32 298.23 726.14 299.64 727.05 299.73C730.37 315.82 732.19 331.9 733.27 348.79C737.18 410.34 719.69 484.82 690.57 539.28C663.98 589 626.2 630.32 581.23 663.15C570.01 671.34 557.13 677.86 544.37 684.58C495.4 710.36 441.57 722.69 386.28 723.73C361.36 724.2 338.18 721.62 313.83 716.86C265.38 707.39 220.46 688.36 178.98 662.67C168.18 655.98 158.05 647.55 148.3 639.54C154.39 635.12 144.01 634.78 141.7 624.91C136.47 625.46 134.65 622 131.91 618.87C125.05 611.03 132.7 612.53 128.42 607.86C126.25 605.5 118.49 607.81 118.43 605.31L118.28 599.73C118.21 596.89 115.09 594.53 116.44 591.59C132.82 606.33 148.86 621.48 166.88 634.37C182.96 645.88 199.67 657.01 217.23 666.4L227.2 671.73C246.39 681.99 267.25 689.26 288.26 694.7C300.03 697.75 311.68 702.09 323.96 703.43C327.26 703.79 330.79 704.05 334.04 704.62C351.89 707.74 370.13 708.74 389.25 708.42L405.22 677.95C408.86 676.56 412.15 678.16 415.19 677.92L401.38 707.72C416.38 706.92 430.77 705.01 445.69 702.21L459.93 673.46L471.01 671.8L458.16 699.49C479.21 695.55 499.19 688.06 519.13 679.6C521.07 674.31 523.92 670.22 526.22 665.76C529.46 665.39 526.74 673.83 531.05 672.6C545.8 668.38 559.26 658.23 572.32 649.52C574.74 649.98 576.55 648.68 578.32 646.85L582.31 642.7C590 634.7 632.67 604.78 634.71 587.8C632.06 588.97 629.7 591.26 627.2 593.66C621.21 599.42 614.35 603.64 608.28 608.53C608.51 606.66 607.24 605.2 606.13 603.81C611.37 600 615.59 593.93 620.74 589.1C641.27 569.9 659.01 548.43 674 524.52C702.99 478.3 722.43 400.3 716.94 351.64C719.66 352.98 720.39 349.8 722.01 348.71C725.07 346.64 727.61 346.14 727.42 341.5C727.24 337.26 729.47 332.24 727.62 327.99C725.46 323.02 723.01 316.66 718.26 316.78C716.27 316.83 715.02 319.32 713.22 318.7C713 316.72 712 314.7 712.26 312.64C712.64 312.27 712.84 311.79 713.05 311.32C713.29 310.8 713.47 310.22 713.11 309.71C713.27 309.02 713.21 308.1 712.54 307.79C712.05 307.57 711.48 307.61 711.05 307.64C709.86 304.78 710.81 301.38 709.88 298.6C712.75 299.17 714.19 296.57 716.46 295C717.27 294.44 719.5 296.17 720.34 295.47C722.63 293.57 721.76 290.88 724.88 291.6L724.89 291.61ZM644.39 581.45C645.18 579.36 646.57 578.47 647.01 576.66C648.56 574.68 633.93 590 644.39 581.45ZM641.35 585.43C642.28 583.85 641.92 583.49 640.34 584.42C637.77 585.76 640.01 588 641.35 585.43ZM636.13 586.15C636.13 585.87 635.91 585.65 635.63 585.65C635.35 585.65 635.13 585.87 635.13 586.15C635.13 586.43 635.35 586.65 635.63 586.65C635.91 586.65 636.13 586.43 636.13 586.15ZM638.13 589.15C638.13 588.87 637.91 588.65 637.63 588.65C637.35 588.65 637.13 588.87 637.13 589.15C637.13 589.43 637.35 589.65 637.63 589.65C637.91 589.65 638.13 589.43 638.13 589.15Z" fill="#7D133F"/>
<path d="M100.18 135.83C70.56 169.04 48.09 208.48 34.15 250.63C27.83 269.75 22.55 288.66 20.02 308.71C17.26 330.59 15.4 352.42 17.57 374.5C19.45 393.7 21.11 413.09 26.94 431.68C28.29 435.98 28.61 440.73 31.13 444.56C34.42 460.75 41.83 475.94 48.01 491.69C49.09 494.46 51.11 496.26 52.15 498.45C53.41 501.1 53.35 504.88 56.17 506.57C56.21 508.48 58.22 510.14 58.92 511.68C63.93 522.63 70.8 532.97 78.1 542.55C80.23 545.34 81.11 549.92 84.92 550.82C84.53 555.38 104.5 577.14 108.08 580.62C110.35 582.82 111.45 586.96 115.05 587.63C115.52 588.96 116.19 590.21 116.45 591.6C115.1 594.54 118.21 596.9 118.29 599.74L118.44 605.32C118.51 607.82 126.27 605.5 128.43 607.87C132.71 612.53 125.06 611.04 131.92 618.88C134.66 622.01 136.48 625.47 141.71 624.92C144.01 634.79 154.4 635.13 148.31 639.55C147.6 638.97 146.29 638.95 146.07 637.76C145.81 636.32 144.51 635.54 143.1 635.62C141.77 635.13 140.65 634.19 140.07 632.88L137.8 629.77C137.34 629.56 137.02 630.16 137.11 630.54C135.75 630.08 134.58 629.16 134.05 627.8C133.74 625.57 131.83 625.23 130.11 624.6C128.92 624.17 126.93 622.8 126.15 621.8C126.01 619.1 123.73 617.02 121.14 616.54C98.44 596.41 78.94 572.82 61.59 547.26C34.33 507.11 15.8 462.38 6.32 414.64C-4.72 359.03 -1.19 302.51 16.49 248.67C31.95 201.6 56.81 157.62 89.74 121.21C94.84 124.58 98.01 130.21 100.2 135.84L100.18 135.83Z" fill="#821442"/>
<path d="M480.17 19.6201C475.89 26.8701 475.03 25.0801 472.08 34.3701C434.24 22.4401 395.53 16.1501 355.06 17.2201C308.91 18.4401 263.37 27.4501 221.97 46.5601C212.46 50.9501 210.63 47.3901 201.22 53.7501L168.4 75.9601C158.14 82.9101 148 89.7201 140.03 98.5701C134.63 97.8201 130.29 94.2601 125.14 92.6001L122.95 88.7901C154.9 59.9801 193.2 37.9501 233.92 22.7801C313.54 -6.88986 400.47 -7.21986 480.16 19.6101L480.17 19.6201Z" fill="#931A4F"/>
<path d="M724.89 291.61C721.77 290.89 722.65 293.58 720.35 295.48C719.51 296.18 717.28 294.44 716.47 295.01C714.19 296.58 712.75 299.18 709.89 298.61L705.19 284.59C696.75 259.44 688.31 233.3 675.96 209.71C654.98 169.61 626.31 133.14 592.01 102.74C561.64 75.8204 526.7 55.4804 489.22 40.5904C487.98 40.1004 487.47 39.6604 487.11 38.9104L491.83 36.7704C485.87 33.5704 480.47 32.9204 473.94 32.6504C473.68 33.4004 474.13 34.0804 474.16 34.7004C473.49 34.5304 472.75 34.5704 472.08 34.3604C475.03 25.0704 475.88 26.8604 480.17 19.6104C534.61 37.9404 584.19 68.3604 624.58 110.23C665.71 152.86 719.89 237.72 724.89 291.6V291.61Z" fill="#821442"/>
<path d="M140.05 98.5804C142.65 101.28 146.95 101.36 151.12 103.03C120.53 115.28 118.25 118.79 106.13 149.69L102.27 139.69C101.73 138.29 100.79 137.03 100.18 135.83C98 130.2 94.82 124.57 89.72 121.2C89.77 120.59 89.63 119.98 89.38 119.43L93.19 113.5C98.47 117.86 101.9 123.63 106.01 130.24C111.54 117.89 120.25 109.72 131.3 103.4C127 101.2 123.33 99.4404 120.97 96.8204C121.22 94.3504 124.26 94.6104 125.16 92.6104C130.31 94.2604 134.65 97.8204 140.05 98.5804Z" fill="#FC5C91"/>
<path d="M122.96 88.8003L125.15 92.6103C124.25 94.6103 121.21 94.3403 120.96 96.8203C113.43 94.0903 109.8 86.5703 105.15 79.1503C103.76 81.2703 101.83 82.9703 101.04 84.7303C98.28 85.0103 96.12 83.2103 95.07 80.7303C99.24 74.3203 101.39 66.9903 104.73 59.5303C108.05 68.4603 115.68 85.4903 122.96 88.8003Z" fill="#D83D7F"/>
<path d="M101.05 84.73C96.95 93.8 88.05 100.47 78.44 104.03C78.22 104.65 78.95 105.22 79.23 105.7C78.56 107.63 78.05 109.62 78.11 111.67L59.56 104.4C75.48 97.61 86.05 94.57 95.07 80.73C96.12 83.21 98.28 85 101.04 84.73H101.05Z" fill="#B92D6D"/>
<path d="M93.19 113.5L89.38 119.43L78.11 111.67C78.05 109.62 78.56 107.63 79.23 105.7C84.58 106.24 89.08 110.1 93.19 113.49V113.5Z" fill="#D83D7F"/>
<path d="M725.97 294.81C725.38 295.22 724.5 294.81 724.15 294.09C723.92 293.63 724.48 292.86 724.97 292.47C726.26 292.46 725.89 293.95 725.97 294.81Z" fill="#821442"/>
<path d="M126.13 621.79C124.61 619.83 122.98 618.18 121.12 616.53C123.71 617.02 125.99 619.09 126.13 621.79Z" fill="#7D133F"/>
<path d="M727.05 299.73C726.15 299.65 726.32 298.24 726.25 297.56C727.21 297.62 726.91 299.05 727.05 299.73Z" fill="#821442"/>
<path d="M146.05 637.75C144.88 637.32 143.87 636.57 143.08 635.61C144.48 635.53 145.79 636.32 146.05 637.75Z" fill="#7D133F"/>
<path d="M140.05 632.86C138.69 632.67 137.53 631.84 137.08 630.53C137 630.15 137.31 629.54 137.77 629.76L140.04 632.87L140.05 632.86Z" fill="#7D133F"/>
<path d="M134.03 627.79C132.7 626.74 131.17 625.91 130.09 624.59C131.81 625.21 133.73 625.56 134.03 627.79Z" fill="#7D133F"/>
<path d="M712.27 312.65C712.01 314.72 713.01 316.74 713.23 318.71L716.94 351.66C722.43 400.32 702.99 478.32 674 524.54C659 548.45 641.26 569.92 620.74 589.12C615.59 593.94 611.37 600.02 606.13 603.83C595.97 611.21 585.75 618.75 575.23 625.58C558.85 636.23 540.75 643.66 522.9 650.96C519.6 651.9 516.61 650.26 513.09 649.96C507.86 649.52 501.36 649.75 499.14 644.74C528.12 634.63 556.05 622.02 581.73 604.4C589.84 598.84 598.01 594.35 605.45 588.02C609.26 584.78 611.65 579.62 615.21 575.74C640.37 548.29 670.93 512.2 683.25 477.64C683.89 476.64 684.38 475.09 685.4 474.31C688.96 473.66 692.5 471.46 694.48 467.64C692.73 465.45 690.4 465.44 688.51 464.67C688.64 463.99 688.56 463.29 688.19 462.69C689.37 461.93 689.89 460.51 690.49 458.72C704.21 417.23 705.42 380.38 702.87 337.83C702.62 333.7 700.79 329.05 703.42 325.06C704.78 323.01 707.1 320.81 705.24 318.78C707.06 315.96 709.26 313.18 712.1 311.36C712.08 311.78 712.31 312.22 712.26 312.64L712.27 312.65Z" fill="#FCA3C3"/>
<path d="M579.17 628.63C567.94 636.36 555.67 642.46 542.71 648.46L531.05 672.61C526.74 673.84 529.46 665.4 526.22 665.77C528.12 662.08 529.35 657.91 531.16 653.56C511.32 661.87 491.62 668.73 471.01 671.81L459.93 673.47C445.09 675.69 430.13 676.78 415.18 677.93C412.14 678.16 408.85 676.56 405.21 677.96L389.24 708.43C370.12 708.76 351.89 707.75 334.03 704.63L348 673.47C348.32 672.76 349.7 672.42 348.86 671.4C348.21 670.62 347.73 669.9 347.14 669.31C363.16 670.98 379.18 673.41 395.29 673.42L420.14 673.44C420.59 673.44 421.32 673.67 421.14 672.94C442.19 673.13 462.89 668.46 483.06 663.65C496.85 660.37 509.85 656.29 522.92 650.95C540.77 643.65 558.87 636.22 575.25 625.57C576.98 625.93 578.55 627 579.19 628.62L579.17 628.63Z" fill="#931A4F"/>
<path d="M181.06 600.43C181.03 601.04 181.42 601.66 181.36 602.29L166.86 634.39C148.85 621.5 132.8 606.35 116.42 591.61C116.17 590.22 115.49 588.96 115.02 587.64L130.17 554.65C143.39 569 156.86 581.34 171.35 593.35C174.67 596.1 177.42 598.91 181.05 600.44L181.06 600.43Z" fill="#D83D7F"/>
<path d="M288.25 694.72C267.23 689.28 246.38 682.01 227.19 671.75C226.65 670.12 227.59 668.73 228.32 667.02L240.43 638.56C260.63 647.64 280.66 656.82 302.88 663.08L288.25 694.72Z" fill="#B92D6D"/>
<path d="M231.2 632.53C231.76 635.47 229.56 637.78 228.34 640.62C224.53 649.47 220.17 657.69 217.21 666.42C199.65 657.03 182.94 645.89 166.86 634.39L181.36 602.29C182.04 602.26 182.74 602.4 183.62 603C199.31 613.6 214.38 624.77 231.19 632.54L231.2 632.53Z" fill="#B92D6D"/>
<path d="M347.13 669.32C347.73 669.92 348.2 670.63 348.85 671.41C349.69 672.42 348.31 672.77 347.99 673.48C345.02 672.67 341.95 671.91 338.17 671.67C333.67 680.29 325.98 695.07 323.95 703.45C311.67 702.11 300.03 697.77 288.25 694.72L302.88 663.08C280.65 656.81 260.63 647.64 240.43 638.56L240.36 634.44C265.5 646.32 316.69 666.14 347.13 669.32Z" fill="#AC2663"/>
<path d="M526.22 665.77C523.92 670.24 521.07 674.32 519.13 679.61C499.19 688.07 479.2 695.56 458.16 699.5L471.01 671.81C491.63 668.72 511.32 661.87 531.16 653.56C529.35 657.91 528.12 662.08 526.22 665.77Z" fill="#AC2663"/>
<path d="M459.93 673.47L445.69 702.22C430.77 705.02 416.38 706.92 401.38 707.73L415.19 677.93C430.14 676.78 445.09 675.69 459.94 673.47H459.93Z" fill="#B92D6D"/>
<path d="M572.32 649.53C559.26 658.24 545.8 668.4 531.05 672.61L542.71 648.46C555.67 642.46 567.94 636.36 579.17 628.63C585.13 627.26 572.16 646.01 572.31 649.53H572.32Z" fill="#AC2663"/>
<path d="M582.3 642.71C581.35 642.86 580.86 642.16 581.45 641.11C596.96 612.83 584.91 627.38 608.27 608.54C614.34 603.65 621.19 599.42 627.19 593.67C629.69 591.27 632.05 588.98 634.7 587.81C632.66 604.79 589.99 634.71 582.3 642.71Z" fill="#AC2663"/>
<path d="M240.36 634.44L240.43 638.56L228.32 667.02C227.59 668.73 226.65 670.13 227.19 671.75L217.22 666.42C220.18 657.69 224.54 649.48 228.35 640.62C229.57 637.78 231.76 635.47 231.21 632.53C232.09 632.2 232.75 631.52 233.16 630.69C234.92 631.87 238.5 633.55 240.37 634.44H240.36Z" fill="#931A4F"/>
<path d="M716.95 351.66L713.24 318.71C715.04 319.33 716.28 316.84 718.28 316.79C723.02 316.67 725.48 323.03 727.64 328C729.49 332.25 727.26 337.27 727.44 341.51C727.63 346.15 725.09 346.65 722.03 348.72C720.41 349.81 719.68 353 716.96 351.65L716.95 351.66Z" fill="#821442"/>
<path d="M608.28 608.55C584.92 627.38 596.97 612.84 581.46 641.12C580.87 642.16 581.36 642.87 582.31 642.72L578.32 646.87C576.56 648.7 574.74 650 572.32 649.54C572.16 646.02 585.14 627.27 579.18 628.64C578.54 627.02 576.98 625.95 575.24 625.59C585.75 618.76 595.97 611.22 606.14 603.84C607.25 605.23 608.52 606.69 608.29 608.56L608.28 608.55Z" fill="#821442"/>
<path d="M347.99 673.48L334.02 704.64C330.77 704.07 327.25 703.81 323.94 703.45C325.97 695.06 333.66 680.29 338.16 671.67C341.94 671.9 345.01 672.66 347.98 673.48H347.99Z" fill="#B92D6D"/>
<path d="M705.19 284.6L709.89 298.62C710.82 301.4 709.86 304.79 711.06 307.66C711.18 307.95 710.9 308.39 710.96 308.7C707.02 308.2 703.72 304.7 700.13 303.72C696.5 300.77 696.67 292.51 695.25 287.85L705.19 284.61V284.6Z" fill="#FCA3C3"/>
<path d="M644.39 581.45C633.93 590 648.56 574.68 647.01 576.66C646.57 578.47 645.18 579.36 644.39 581.45Z" fill="#AC2663"/>
<path d="M641.35 585.43C640 588 637.77 585.76 640.34 584.42C641.92 583.49 642.28 583.85 641.35 585.43Z" fill="#AC2663"/>
<path d="M637.63 589.65C637.906 589.65 638.13 589.427 638.13 589.15C638.13 588.874 637.906 588.65 637.63 588.65C637.354 588.65 637.13 588.874 637.13 589.15C637.13 589.427 637.354 589.65 637.63 589.65Z" fill="#AC2663"/>
<path d="M635.63 586.65C635.906 586.65 636.13 586.427 636.13 586.15C636.13 585.874 635.906 585.65 635.63 585.65C635.354 585.65 635.13 585.874 635.13 586.15C635.13 586.427 635.354 586.65 635.63 586.65Z" fill="#AC2663"/>
<path d="M67.96 457.53C68.52 461.07 66.81 464.15 65.33 467.63L52.15 498.47C51.11 496.28 49.09 494.47 48.01 491.71C41.83 475.95 34.42 460.77 31.13 444.58L48.42 402.24L55.34 426.5L65.62 455.33C66.07 456.6 67 457.48 67.96 457.53Z" fill="#FC5C91"/>
<path d="M40.12 340.56C39.98 342.16 40.78 344.02 40.92 345.65C41.92 356.94 42.62 368.51 45 379.65C42.56 380.71 45.85 384.1 45.13 385.91L26.93 431.69C21.1 413.1 19.44 393.72 17.56 374.51C22.3 368.89 32.22 342.21 40.11 340.56H40.12Z" fill="#FC5C91"/>
<path d="M113.21 531.63C114.59 535.34 116.59 537.56 120.23 538.63C119.48 538.74 118.69 538.61 117.62 539.13L123.44 546.73L108.07 580.62C104.49 577.14 84.52 555.38 84.91 550.82L99.98 516.97C101.57 518.73 113.44 536.54 113.21 531.63Z" fill="#D83D7F"/>
<path d="M78.09 542.56C70.79 532.98 63.92 522.64 58.91 511.69C62.82 503.39 71.63 483.23 70.71 474.65C71.24 473.49 70.37 471.63 72.25 470.42L84.04 491.96L93.12 506.71L78.1 542.56H78.09Z" fill="#D83D7F"/>
<path d="M40.3 300.71C38.14 313.65 41.22 327.52 40.12 340.56C32.23 342.21 22.31 368.89 17.57 374.51C15.41 352.43 17.27 330.6 20.02 308.72C22.16 309.5 22.69 306.69 24.25 305.79C27.06 304.17 37.05 301.14 40.3 300.72V300.71Z" fill="#FC84A6"/>
<path d="M102.27 139.69C100.27 138.41 89.66 155.67 89.07 156.55C69.69 185.46 56.74 217.94 47.36 251.42C45.36 250.24 42.94 249.75 40.23 249.58C38.02 250.27 36.07 250.79 34.15 250.63C48.09 208.48 70.56 169.03 100.18 135.83C100.79 137.02 101.73 138.28 102.27 139.69Z" fill="#FCA3C3"/>
<path d="M106.07 519.56C107.24 521.13 107.63 523.5 109.53 525.14C111.68 527 112.4 529.45 113.21 531.63C113.44 536.54 101.57 518.73 99.98 516.97L84.91 550.82C81.11 549.92 80.22 545.34 78.09 542.55L93.11 506.7L84.03 491.95L72.24 470.41C70.36 471.61 71.23 473.48 70.7 474.64L56.15 506.57C53.33 504.88 53.39 501.1 52.13 498.45L65.31 467.61C66.79 464.14 68.51 461.05 67.94 457.51C67.9 457.23 68.22 456.9 68.24 456.61C78.36 478.83 91.54 500.08 106.05 519.55L106.07 519.56Z" fill="#AC2663"/>
<path d="M47.36 251.42C42.95 267.15 42.99 284.57 40.3 300.71C37.05 301.14 27.06 304.16 24.25 305.78C22.69 306.68 22.15 309.49 20.02 308.71C22.55 288.66 27.83 269.75 34.15 250.63C36.07 250.79 38.02 250.27 40.23 249.58C42.94 249.75 45.36 250.24 47.36 251.42Z" fill="#FD8DB0"/>
<path d="M120.23 538.63C122.56 540.67 125.93 543.13 127.84 545.59C142.9 565 161.97 581.42 181.26 596.81L181.07 600.44C177.44 598.91 174.69 596.1 171.37 593.35C156.89 581.34 143.41 569 130.19 554.65L115.04 587.64C111.45 586.97 110.34 582.83 108.07 580.63L123.44 546.74L117.62 539.14C118.69 538.62 119.48 538.75 120.23 538.64V538.63Z" fill="#B92D6D"/>
<path d="M68.26 456.63C68.25 456.92 67.92 457.25 67.96 457.53C67 457.47 66.07 456.59 65.62 455.33L55.34 426.5L48.42 402.24L31.13 444.58C28.61 440.75 28.29 436 26.94 431.7L45.14 385.92C45.86 384.11 42.57 380.72 45.01 379.66C50.58 405.76 57.15 432.22 68.27 456.64L68.26 456.63Z" fill="#B92D6D"/>
<path d="M58.92 511.69C58.22 510.15 56.21 508.5 56.17 506.58L70.72 474.65C71.65 483.23 62.84 503.39 58.92 511.69Z" fill="#F46399"/>
<path d="M472.08 34.3704C472.74 34.5804 473.48 34.5404 474.16 34.7104C475.13 35.6304 476.74 36.3604 478.13 36.0004C480.39 37.7604 483.2 38.6404 486.05 38.8404L487.11 38.9104C487.47 39.6604 487.98 40.1004 489.22 40.5904C526.71 55.4804 561.65 75.8204 592.01 102.74C626.31 133.14 654.98 169.61 675.96 209.71C672.4 209.25 669.5 211.91 666.07 212.67C655.5 194.97 645.61 177.16 632.18 160.57C612.56 136.34 590.17 115.02 564.68 97.0504C500.69 51.9204 424.37 29.5604 346.16 30.8904C303.03 31.6204 262.62 40.9904 223.28 56.5904C222.08 53.3704 221.9 49.9804 221.97 46.5604C263.37 27.4504 308.92 18.4404 355.06 17.2204C395.53 16.1504 434.24 22.4404 472.08 34.3704Z" fill="#FCEBF1"/>
<path d="M223.29 56.6003C222.43 56.9403 221.82 57.8703 221.08 58.3803C216.05 56.7203 220.37 70.9903 205.68 76.4603L185.55 83.9503C183.76 84.6203 183.02 86.2003 183.18 87.6703C181.74 87.6903 178.67 87.9903 177.16 88.3003L168.34 95.9103C155.15 107.28 141.74 117.49 130 130.51L102.05 161.5C100.09 163.67 98.17 164.14 96.84 166.65C92.94 165.64 96.32 160.16 90.85 159.08C89.41 158.8 88.78 157.6 89.08 156.57C89.67 155.69 100.28 138.43 102.28 139.71L106.14 149.71C118.25 118.81 120.54 115.3 151.13 103.05C146.96 101.38 142.66 101.3 140.06 98.6003C148.02 89.7403 158.16 82.9303 168.43 75.9903L201.25 53.7803C210.66 47.4103 212.49 50.9703 222 46.5903C221.93 50.0103 222.11 53.4003 223.31 56.6203L223.29 56.6003Z" fill="#FDFCFC"/>
<path d="M675.97 209.72C688.31 233.31 696.76 259.45 705.2 284.6L695.26 287.84C689.42 268.68 683.35 249.35 674.18 231.54C671.13 225.62 669.48 218.36 666.08 212.68C669.52 211.92 672.41 209.26 675.97 209.72Z" fill="#FBD4E0"/>
<path d="M487.11 38.9199L486.05 38.8499C484.38 36.2899 481.03 35.2499 478.13 36.0099C476.75 36.3699 475.13 35.6299 474.16 34.7199C474.14 34.0999 473.69 33.4199 473.94 32.6699C480.47 32.9399 485.87 33.5899 491.83 36.7899L487.11 38.9299V38.9199Z" fill="#931A4F"/>
<path d="M120.97 96.8202C123.34 99.4402 127.01 101.19 131.3 103.4C120.25 109.72 111.53 117.89 106.01 130.24C101.9 123.64 98.47 117.87 93.19 113.5C89.08 110.1 84.58 106.25 79.23 105.71C78.94 105.23 78.22 104.66 78.44 104.04C88.05 100.48 96.95 93.8102 101.05 84.7402C101.84 82.9802 103.77 81.2802 105.16 79.1602C109.81 86.5802 113.43 94.0902 120.97 96.8302V96.8202Z" fill="#FDFCFC"/>
<path d="M693.11 344.72C697.19 343.01 700.12 337.68 702.87 337.83C705.42 380.38 704.21 417.23 690.49 458.72C689.9 460.52 689.38 461.93 688.19 462.69C683.14 461.11 680.81 456.35 679.76 450.28C675.78 459.45 682.58 462.37 669.29 468.09C667.87 470.38 675.77 470.19 676.78 474.34C677.29 476.45 675.96 478.4 675.01 480.9C678.36 482.13 680.45 478.59 683.25 477.63C670.94 512.2 640.37 548.28 615.21 575.73C611.65 579.61 609.26 584.77 605.45 588.01C598.01 594.34 589.84 598.82 581.73 604.39C556.05 622.01 528.12 634.62 499.14 644.73C497.99 645.13 496.5 644.5 495.32 644.62C495.35 643.91 495.06 643.24 494.16 642.61C482.31 634.36 479.76 626.08 482.22 612.8C507.7 604.71 531.5 592.62 553.2 576.83C553.12 580.59 574.09 580.96 577.07 580.39C579.31 579.96 581.93 580.21 584.29 580.7C586.75 577.65 583.98 573.84 581.78 571.04C580.74 569.5 580.58 566.18 580.76 564.57C581.37 559.14 583.38 553.23 587.17 548.84L595.73 538.92C592.29 537 587.71 537.11 585.89 533.83L588.28 533.7C590.62 537.18 595.69 534.71 599.21 537.78C599.19 538.94 596.62 539.26 597.6 540.92C617 524.26 632.3 503.62 643.85 480.66L650.33 467.78C651.97 468.54 653.76 469.58 655.56 469.26C657.04 469 659.87 467.67 659.86 465.62C659.84 461.93 655.71 460.84 653.03 459.15C668.76 419.46 674.8 377.98 670.45 336.14C670.21 333.8 670.18 331.92 671.25 330.42C684.69 334.6 688.42 346.7 693.12 344.73L693.11 344.72Z" fill="#F2739F"/>
<path d="M128.16 525.68C152.88 556.52 183.02 582.65 216.73 604.19C268.8 637.45 328.04 656.46 389.24 659.44C403.57 660.14 417.94 660.26 432.67 658.41C452.4 655.93 471.35 652.79 490.41 647.29C492.48 646.69 494.24 646.02 495.34 644.64C496.52 644.52 498.01 645.15 499.16 644.75C501.38 649.76 507.87 649.53 513.11 649.97C516.63 650.27 519.61 651.9 522.92 650.97C509.85 656.31 496.85 660.39 483.06 663.67C482.53 662.67 481.93 661.52 482.2 660.33C482.49 659.04 484.64 659.16 485.04 656.69L453.23 660.86C450.86 661.17 447.63 659.96 445.72 661.35C443.06 663.28 440.67 664.71 437.16 665.1C422.85 666.72 408.8 666.91 394.15 666.71C394.4 669.45 395.7 671.32 395.29 673.44C379.18 673.43 363.16 671 347.14 669.33C316.7 666.15 265.51 646.33 240.37 634.45C238.5 633.56 234.92 631.88 233.16 630.7C216.04 619.25 197.47 609.74 181.26 596.82C161.97 581.43 142.9 565.01 127.84 545.6C129.74 537.13 123.54 538.19 121.37 532.51C121.6 529.17 125.31 526.28 128.15 525.69L128.16 525.68Z" fill="#FBD4E0"/>
<path d="M688.2 462.7C688.57 463.29 688.65 464 688.52 464.68C688.36 465.34 687.83 465.8 687.2 466L681.94 465.11C680.21 464.82 680.83 468.25 680.95 469.48C681.16 471.51 683.12 473.09 685.23 472.55L685.41 474.32C684.38 475.1 683.9 476.65 683.26 477.65C680.47 478.61 678.37 482.15 675.02 480.92C675.97 478.42 677.3 476.47 676.79 474.36C675.79 470.21 667.88 470.4 669.3 468.11C682.59 462.39 675.79 459.47 679.77 450.3C680.82 456.38 683.15 461.13 688.2 462.71V462.7Z" fill="#FD8DB0"/>
<path d="M700.13 303.71C703.73 304.68 707.03 308.18 710.96 308.69C711.66 308.78 712.26 309.87 713.11 309.72C713.47 310.23 713.29 310.8 713.05 311.33L712.1 311.37C709.26 313.19 707.06 315.97 705.24 318.79C698.15 324.52 696.85 336.72 693.1 344.72C688.41 346.69 684.68 334.59 671.23 330.41C681.16 333.5 646.63 320.5 657.17 321.65C672.72 308.94 670.22 305.42 678.06 287.88C687.67 296.2 688.54 300.58 700.11 303.7L700.13 303.71Z" fill="#FDFCFC"/>
<path d="M713.12 309.72C712.27 309.87 711.66 308.78 710.97 308.69C710.9 308.38 711.19 307.94 711.07 307.65C711.5 307.62 712.07 307.58 712.56 307.8C713.23 308.1 713.28 309.03 713.13 309.72H713.12Z" fill="#821442"/>
<path d="M712.27 312.651C712.32 312.231 712.09 311.801 712.11 311.371L713.06 311.331C712.85 311.801 712.65 312.281 712.27 312.651Z" fill="#821442"/>
<path d="M702.87 337.84C700.12 337.69 697.19 343.02 693.11 344.73C696.86 336.73 698.16 324.53 705.25 318.8C707.1 320.82 704.79 323.02 703.43 325.08C700.79 329.06 702.63 333.72 702.88 337.85L702.87 337.84Z" fill="#FC84A6"/>
<path d="M685.41 474.31L685.23 472.54C686.09 470.39 687.5 468.37 687.2 465.99C687.83 465.79 688.36 465.33 688.52 464.67C690.41 465.44 692.74 465.45 694.49 467.64C692.51 471.46 688.97 473.66 685.41 474.31Z" fill="#FBD4E0"/>
<path d="M483.05 663.66C462.88 668.46 442.18 673.14 421.13 672.95C420.69 672.95 419.96 672.75 420.13 673.45L395.28 673.43C395.69 671.31 394.38 669.44 394.14 666.7C408.79 666.9 422.84 666.7 437.15 665.09C440.66 664.69 443.05 663.27 445.71 661.34C447.62 659.95 450.84 661.17 453.22 660.85L485.03 656.68C484.63 659.15 482.48 659.03 482.19 660.32C481.92 661.51 482.52 662.67 483.05 663.66Z" fill="#FCEBF1"/>
<path d="M420.13 673.45C419.96 672.75 420.69 672.95 421.13 672.95C421.31 673.67 420.58 673.45 420.13 673.45Z" fill="#FBD4E0"/>
<path d="M233.15 630.69C232.74 631.52 232.08 632.21 231.2 632.53C214.39 624.77 199.32 613.59 183.63 602.99C182.74 602.39 182.05 602.26 181.37 602.28C181.43 601.66 181.03 601.03 181.07 600.42L181.26 596.79C197.46 609.72 216.03 619.22 233.16 630.67L233.15 630.69Z" fill="#AC2663"/>
<path d="M674.17 231.54C683.34 249.35 689.41 268.68 695.25 287.84C696.67 292.5 696.5 300.77 700.13 303.71C688.56 300.58 687.68 296.2 678.08 287.89C670.24 305.43 672.73 308.94 657.19 321.66C656.83 321.63 656.47 321.66 656.11 321.73C657.15 319.83 658.87 318.12 658.36 315.84C661.35 315.33 666.17 310.6 665.66 306.79C663.26 288.8 657.31 272.03 649.95 255.76C648.16 251.8 645.14 249.24 644.82 244.12C649.31 245.23 652.06 242.88 655.34 240.94C661.54 237.28 667.81 233.99 674.17 231.55V231.54Z" fill="#FD8DB0"/>
<path d="M657.18 321.66C646.64 320.51 681.18 333.51 671.24 330.42C670.17 331.92 670.2 333.8 670.44 336.14C674.79 377.98 668.75 419.46 653.02 459.15C655.69 460.84 659.83 461.94 659.85 465.62C659.86 467.68 657.03 469 655.55 469.26C653.75 469.58 651.96 468.54 650.32 467.78C652.2 460.55 651.78 461.11 651.38 451.71C651.08 444.66 652.78 438.84 654.32 432.23L657.92 416.8C661.53 401.32 662.92 385.77 663.14 370.04C663.14 369.66 661.99 369.59 662.01 369.66C661.68 355.61 661.87 341.5 659.99 327.19L652.09 324.1C654.04 323.48 655.06 322.66 656.1 321.74C656.45 321.67 656.82 321.64 657.18 321.67V321.66Z" fill="#FCA3C3"/>
<path d="M54.16 337.41C54.41 337.36 54.71 337.66 54.97 337.63C54.54 356.78 58.21 375.58 62.73 394.94C72.08 434.97 89.67 471.78 112.83 505.61C113.03 509.46 102.88 513.5 108.94 515.71C107.82 516.49 107.47 518.84 106.07 519.57C91.56 500.11 78.38 478.85 68.26 456.63C57.14 432.21 50.57 405.75 45 379.65C42.62 368.51 41.93 356.94 40.92 345.65C43.07 345.62 41.28 341.78 42.41 340.75C45.48 337.99 50.48 338.16 54.15 337.41H54.16Z" fill="#FBD4E0"/>
<path d="M96.83 166.63C86.32 186.35 76.56 206.01 69.26 227.8C57.29 263.53 53.07 300.29 54.16 337.41C50.49 338.16 45.49 337.99 42.42 340.75C41.28 341.77 43.07 345.62 40.93 345.65C40.79 344.02 39.99 342.17 40.13 340.56C41.23 327.52 38.16 313.65 40.31 300.71C43 284.57 42.96 267.15 47.37 251.42C56.75 217.94 69.69 185.46 89.08 156.55C88.77 157.58 89.41 158.78 90.85 159.06C96.32 160.14 92.94 165.63 96.84 166.63H96.83Z" fill="#FCEBF1"/>
<path d="M128.16 525.68C125.32 526.26 121.6 529.16 121.38 532.5C123.55 538.18 129.74 537.12 127.85 545.59C125.94 543.13 122.57 540.67 120.24 538.63C116.59 537.56 114.6 535.34 113.22 531.63C112.41 529.45 111.69 527 109.54 525.14C107.64 523.5 107.25 521.13 106.08 519.56C107.49 518.84 107.83 516.49 108.95 515.7C117.24 509.91 123.39 501.01 134.04 495.09C137.3 499.17 142.82 504.17 142.32 509.05C139.44 516.06 132.16 519.9 128.16 525.67V525.68Z" fill="#FDFCFC"/>
<path d="M666.07 212.68C669.47 218.37 671.12 225.63 674.17 231.54C667.8 233.98 661.53 237.28 655.34 240.93C652.06 242.87 649.31 245.22 644.82 244.11C645.14 249.22 648.16 251.79 649.95 255.75C657.31 272.03 663.26 288.8 665.66 306.78C666.17 310.59 661.35 315.32 658.36 315.83C644.83 250.27 621 200.57 572.8 153.12C565.14 145.58 557.19 139.85 549.16 133.75C539.09 126.09 528.86 117.95 517.23 112.6C480.83 90.5202 439.17 77.2402 396.51 71.5202C366.84 67.5402 338.4 69.3902 309.17 74.6002C267.73 82.0002 229.74 98.2902 196.28 123.71C184.53 132.64 174.54 142.31 164.95 153.57C155.36 164.83 145.41 175.29 138.37 187.71C105.69 231.39 93.89 293.06 95.48 346.7C82.65 340.92 69.05 335.9 54.96 337.61C54.7 337.64 54.4 337.34 54.15 337.39C53.06 300.27 57.28 263.51 69.25 227.78C76.55 205.99 86.31 186.33 96.82 166.61C98.16 164.1 100.08 163.63 102.03 161.46L129.98 130.47C141.72 117.46 155.12 107.25 168.32 95.8702L177.14 88.2602C178.65 87.9502 181.72 87.6502 183.16 87.6302C185.73 87.5902 189.96 88.0202 193.05 87.3902C209.17 84.1102 219.52 97.9802 237.38 89.7902C242.32 87.5202 245.67 83.4902 246.25 78.9502C247.92 65.9502 231.21 60.2602 221.06 58.3402C221.8 57.8302 222.41 56.9002 223.27 56.5602C262.61 40.9602 303.03 31.5902 346.15 30.8602C424.36 29.5302 500.68 51.9002 564.67 97.0202C590.16 115 612.55 136.31 632.17 160.54C645.6 177.13 655.49 194.94 666.06 212.64L666.07 212.68ZM194.03 110.28C195.7 106.58 195.78 99.5902 191.66 98.2102C180.12 94.3502 167.1 100.34 160.75 110.19C158.76 113.28 158.27 117.11 159.97 120.12C165.36 129.73 187.03 125.79 194.03 110.28ZM147.21 143.02C152.18 143.71 157.06 140.75 158.65 136.39C159.33 134.52 158.76 132.63 157.85 131.43C155.52 128.34 146.42 129.56 143.43 136.8C142.32 139.48 143.87 142.56 147.2 143.02H147.21ZM122.07 167.81C116.82 165.86 110.4 170.77 111.39 176.1C116.5 175.3 120.05 172.67 122.07 167.81Z" fill="#FCA3C3"/>
<path d="M486.05 38.85C483.2 38.65 480.39 37.77 478.13 36.01C481.03 35.25 484.38 36.29 486.05 38.85Z" fill="#821442"/>
<path d="M221.08 58.38C231.23 60.31 247.93 65.99 246.27 78.99C245.69 83.53 242.34 87.57 237.4 89.83C219.54 98.03 209.18 84.15 193.07 87.43C189.99 88.06 185.75 87.63 183.18 87.67C183.03 86.19 183.76 84.61 185.55 83.95L205.68 76.46C220.37 70.99 216.05 56.72 221.08 58.38Z" fill="#FCEBF1"/>
<path d="M139.35 479.49C163.84 513.27 193.53 542.08 229.78 563.84C231.8 565.05 233.19 566.03 233.19 568.03C231.56 569.37 230.93 571.31 230.83 573.14C230.65 576.12 233.36 575.85 235.45 577.12C251.04 586.66 267.42 593.23 284.71 599.04C292.82 601.77 331 615.66 334.92 607.5C336.18 607.82 337.91 608.45 339.12 608.64C420.68 621.46 490.81 608.05 558.45 558.98C560.47 557.51 562.78 556.95 563.16 554.66C564.44 555.19 565.14 555.99 566.21 556.59C561.75 555.91 572.19 562.27 570.92 564.07C569.79 566.89 566.01 567.14 563.9 568.3C559.59 570.68 556.68 574.31 553.2 576.84C531.5 592.63 507.7 604.72 482.22 612.81C460.09 619.83 437.4 624.82 414.09 626.58L390 626.97C346.21 627.67 304.04 614.75 264.39 596.15C221.9 576.23 185.42 547.3 155.8 511.12C149.33 503.22 142.47 496.68 138.09 487.67L134.3 479.88C135.98 480.43 137.73 480.12 139.35 479.5V479.49Z" fill="#FBD4E0"/>
<path d="M495.33 644.63C494.23 646.01 492.47 646.68 490.4 647.28C471.35 652.78 452.39 655.92 432.66 658.4C417.93 660.25 403.56 660.13 389.23 659.43C389 654.38 383.59 644.82 385.07 638.98C390.88 644.8 397.05 648.63 404.72 649.97C410.86 651.04 416.8 653.15 423.4 652.74C426.26 652.56 426.89 646.64 425.14 644.84C422.58 642.21 417.9 642.64 415.91 640.23C413.59 636.17 414.79 630.74 414.09 626.57C437.41 624.81 460.1 619.82 482.22 612.8C479.76 626.09 482.32 634.36 494.16 642.61C495.07 643.24 495.36 643.91 495.32 644.62L495.33 644.63Z" fill="#FD8DB0"/>
<path d="M650.33 467.77L643.85 480.65C632.3 503.61 617.01 524.24 597.6 540.91C596.61 539.26 599.19 538.94 599.21 537.77C595.69 534.7 590.63 537.17 588.28 533.69C612.59 507.24 627.13 489.97 642.05 456.32C649.4 439.75 655.09 423.28 657.8 405.19C658.86 398.12 662.12 374.55 662.01 369.64C662 369.56 663.15 369.64 663.14 370.02C662.92 385.76 661.53 401.31 657.92 416.78L654.32 432.21C652.78 438.82 651.07 444.65 651.38 451.69C651.78 461.09 652.2 460.53 650.32 467.76L650.33 467.77Z" fill="#FCEBF1"/>
<path d="M583.31 533.47C584.17 533.62 585.02 533.8 585.89 533.83C587.72 537.11 592.29 537 595.73 538.92L587.17 548.84C583.38 553.23 581.37 559.14 580.76 564.57C579.87 565.34 579.58 566.71 578.55 567.41C574.3 563.24 570.88 559.18 566.21 556.59C565.14 556 564.44 555.19 563.16 554.66C559.66 553.22 556.1 552.3 552.37 551.57C551.96 550.74 550.98 550.56 549.9 549.22C560.01 542.35 565.17 532.33 567.85 520.27C572.95 525.44 577.73 532.47 583.31 533.46V533.47Z" fill="#FDFCFC"/>
<path d="M580.76 564.57C580.58 566.18 580.74 569.5 581.78 571.04C583.98 573.85 586.75 577.66 584.29 580.7C581.93 580.22 579.31 579.97 577.07 580.39C574.09 580.96 553.12 580.59 553.2 576.83C556.68 574.3 559.59 570.67 563.9 568.29C566.01 567.13 569.79 566.89 570.92 564.06C572.19 562.26 561.75 555.9 566.21 556.58C570.88 559.17 574.3 563.23 578.55 567.4C579.57 566.7 579.87 565.33 580.76 564.56V564.57Z" fill="#F46399"/>
<path d="M95.48 346.72C95.8 357.37 98.35 368.19 100.19 378.6C102.77 393.13 106.41 407.59 112.38 421.73C115.57 429.28 117.12 438.15 121.01 444.85C118.93 449.02 125.74 461.07 127.66 466.25C129.58 471.43 132.14 475.47 134.29 479.89L138.08 487.68C142.46 496.69 149.32 503.23 155.79 511.13C185.41 547.31 221.89 576.24 264.38 596.16C304.04 614.75 346.2 627.68 389.99 626.98L414.08 626.59C414.78 630.75 413.58 636.19 415.9 640.25C417.89 642.66 422.57 642.23 425.13 644.86C426.88 646.66 426.25 652.58 423.39 652.76C416.79 653.17 410.85 651.06 404.71 649.99C397.04 648.65 390.87 644.82 385.06 639C383.58 644.84 388.99 654.4 389.22 659.45C328.03 656.47 268.78 637.46 216.71 604.2C183 582.66 152.86 556.53 128.14 525.69C132.14 519.92 139.42 516.08 142.3 509.07C142.8 504.19 137.28 499.18 134.02 495.11C123.36 501.04 117.22 509.94 108.93 515.72C102.87 513.51 113.02 509.47 112.82 505.62C89.65 471.8 72.06 434.98 62.72 394.95C58.2 375.58 54.53 356.79 54.96 337.64C69.05 335.93 82.65 340.95 95.48 346.73V346.72ZM85.72 373.61C87.66 367.84 85.66 362.2 81.1 359.17C76.54 356.14 70.7 357.19 67.09 361.13C63.48 365.07 63.28 370.33 65.85 375.06C68.09 379.18 72.01 382.36 76.54 381.75C80.59 381.2 84.15 378.28 85.72 373.61Z" fill="#FC84A6"/>
<path d="M687.2 465.99C687.5 468.37 686.09 470.38 685.23 472.54C683.12 473.08 681.16 471.51 680.95 469.47C680.83 468.25 680.2 464.81 681.94 465.1L687.2 465.99Z" fill="#FCA3C3"/>
<path d="M194.03 110.28C187.03 125.79 165.35 129.73 159.97 120.12C158.28 117.11 158.76 113.27 160.75 110.19C167.1 100.34 180.12 94.35 191.66 98.21C195.79 99.59 195.7 106.58 194.03 110.28Z" fill="#FCEBF1"/>
<path d="M147.21 143.02C143.88 142.56 142.33 139.48 143.44 136.8C146.43 129.56 155.53 128.34 157.86 131.43C158.77 132.64 159.34 134.52 158.66 136.39C157.07 140.74 152.19 143.71 147.22 143.02H147.21Z" fill="#FCEBF1"/>
<path d="M122.07 167.81C120.05 172.67 116.5 175.3 111.39 176.1C110.4 170.77 116.83 165.87 122.07 167.81Z" fill="#FBD4E0"/>
<path d="M334.93 607.51C331.01 615.68 292.83 601.78 284.72 599.05C267.43 593.24 251.05 586.67 235.46 577.13C233.37 575.85 230.66 576.12 230.84 573.15C230.95 571.32 231.57 569.38 233.2 568.04C234.28 569.05 236.28 567.86 237.92 568.85C268.3 587.11 301.1 598.82 334.93 607.51Z" fill="#FCA3C3"/>
<path d="M85.72 373.61C84.15 378.28 80.59 381.2 76.54 381.75C72.01 382.36 68.09 379.18 65.85 375.06C63.28 370.33 63.67 364.87 67.09 361.13C70.7 357.19 76.75 356.28 81.1 359.17C85.66 362.21 87.66 367.84 85.72 373.61Z" fill="#FCA3C3"/>
<path d="M658.35 315.83C658.86 318.11 657.14 319.821 656.1 321.721C655.06 322.65 654.03 323.47 652.09 324.08L659.99 327.171C661.87 341.481 661.68 355.591 662.01 369.641C662.12 374.551 658.86 398.111 657.8 405.19C655.08 423.28 649.4 439.75 642.05 456.32C627.12 489.97 612.58 507.24 588.28 533.69L585.89 533.82C585.02 533.79 584.17 533.611 583.31 533.461L580.1 529.591C608.63 500.491 630.4 466.581 641.97 427.38C651.77 394.16 653.99 359.201 648.21 325.52C643.85 300.11 636.51 274.32 625.99 250.671C627.92 248.87 630.88 246.181 629.84 242.961C629.45 241.741 627.88 240.71 627.33 239.93C626.3 238.47 628.67 236.891 628.41 235.601C627.74 232.311 622.16 218.59 619.11 217.751L608.67 201.01C603.76 193.13 598.45 185.56 592.2 178.65L578.85 163.881C576.05 160.781 572.9 156.931 569.16 155.751C570.37 154.241 561.92 144.721 560.21 144.581C555.89 144.241 554.29 141.57 552.42 138.23C551.54 136.65 548.47 136.031 549.15 133.771C557.18 139.871 565.13 145.601 572.79 153.141C620.99 200.59 644.82 250.291 658.35 315.851V315.83Z" fill="#AC2663"/>
<path d="M517.22 112.61C509.35 114.2 500.61 102.31 488.82 99.9903L480.02 98.2603C483.98 101.24 488.67 106.34 485.69 109.81C484.84 110.8 483.45 110.61 481.93 110.01C459.2 101.1 436.57 93.4903 412.16 89.8803C334.02 78.3203 250.94 96.9503 188.42 145.91C176.23 155.46 164.03 163.76 152.57 174.14C147.55 178.69 144.27 185.12 138.38 187.73C145.42 175.31 155.42 164.8 164.96 153.59C174.5 142.38 184.53 132.66 196.29 123.73C229.75 98.3103 267.73 82.0203 309.18 74.6203C338.41 69.4003 366.85 67.5603 396.52 71.5403C439.18 77.2603 480.84 90.5503 517.24 112.62L517.22 112.61Z" fill="#AC2663"/>
<path d="M517.22 112.61C528.85 117.96 539.07 126.1 549.15 133.76C548.46 136.02 551.53 136.65 552.42 138.22C554.29 141.56 555.89 144.23 560.21 144.57C561.93 144.71 570.37 154.23 569.16 155.74C566.64 154.95 563.28 154.87 559.65 155.27L586.8 183C585.45 181.62 606.41 209.96 606.62 210.29C609.23 214.34 611.69 219.06 616.35 221.38C618.24 222.32 619.25 218.89 619.11 217.73C622.16 218.57 627.74 232.29 628.41 235.58C628.67 236.87 626.3 238.44 627.33 239.91C627.88 240.69 629.45 241.73 629.84 242.94C630.88 246.16 627.92 248.86 625.99 250.65C617.14 230.76 603.33 212.45 590.2 194.83C575.76 175.45 558.86 160.23 539.44 145.99C492.88 111.85 437.03 92.0301 379.3 88.7001C367.14 88.0001 355.99 88.9101 344.49 89.0501C322.99 89.3001 303.54 95.7001 283.95 100.76C255.93 107.99 229.35 121.13 206.12 138.28C189.54 150.52 173.88 163.01 160.13 179.86C137.95 207.05 120.55 237.89 111.84 272.48C103.9 304.05 101.97 336.77 106.32 368.62C103.89 367.62 106.49 376.76 104.28 378.21C103.19 378.93 101.46 378.55 100.18 378.57C98.33 368.17 95.78 357.34 95.47 346.69C93.88 293.05 105.68 231.38 138.36 187.7C144.24 185.09 147.53 178.65 152.55 174.11C164.01 163.74 176.21 155.43 188.4 145.88C250.91 96.9201 334 78.2901 412.14 89.8501C436.56 93.4601 459.18 101.07 481.91 109.98C483.44 110.58 484.83 110.76 485.67 109.78C488.65 106.31 483.96 101.22 480 98.2301L488.8 99.9601C500.59 102.28 509.33 114.17 517.2 112.58L517.22 112.61ZM555.98 149.23L554.45 151.01L557.69 153.8L559.22 152.02L555.98 149.23Z" fill="#931A4F"/>
<path d="M339.06 602.57C338.93 604.15 338.91 605.96 341.03 607.19C340.38 607.69 339.66 608.02 339.12 608.65C337.91 608.46 336.18 607.83 334.92 607.51C301.09 598.82 268.28 587.11 237.91 568.85C236.27 567.86 234.27 569.05 233.19 568.04C233.19 566.04 231.8 565.06 229.78 563.85C193.53 542.09 163.84 513.28 139.35 479.5C131.84 469.14 127.47 455.97 121.02 444.85C117.13 438.15 115.58 429.29 112.39 421.73C106.41 407.59 102.77 393.13 100.2 378.6C101.48 378.58 103.21 378.96 104.3 378.24C106.51 376.79 103.91 367.65 106.34 368.65C111.42 405.82 124.14 441.57 143.64 473.97C152.72 489.07 163.95 501.29 176.55 513.3C199 534.69 223.2 552.39 250.36 567.56C275.62 581.68 302.27 591.27 330.23 598.64C333.59 599.53 336.95 600.79 339.08 602.57H339.06Z" fill="#821442"/>
<path d="M563.17 554.67C562.79 556.95 560.48 557.52 558.46 558.99C490.82 608.06 420.69 621.47 339.13 608.65C339.67 608.02 340.39 607.68 341.04 607.19C338.92 605.96 338.94 604.15 339.07 602.57C376.76 608.08 415.1 609.45 452.09 599.75C464.36 596.53 476.6 593.7 488.81 588.37C509.71 579.25 529.44 568.92 548.11 555.77C549.96 554.47 550.95 552.72 552.38 551.57C556.11 552.31 559.67 553.22 563.17 554.66V554.67Z" fill="#AC2663"/>
<path d="M139.35 479.49C137.73 480.11 135.98 480.42 134.3 479.87C132.15 475.45 129.58 471.37 127.67 466.23C125.76 461.09 118.94 449.01 121.02 444.83C127.47 455.95 131.84 469.12 139.35 479.48V479.49Z" fill="#FCA3C3"/>
<path d="M157.84 295.56C153.75 320.38 151.45 351.07 157.44 375.54C157.84 377.19 158.82 380.24 158.76 381.88C158.63 385.52 161.6 392.23 162.48 395.88C165.55 408.55 172.11 419.92 177.28 431.79C202.36 489.37 272.8 509.93 326.99 480.48C353.87 465.87 372.42 440.71 378.51 411.46L421.4 402.91C424.03 400.25 424.38 395.86 427.1 395.63C422.56 413.12 420.05 431.25 417.36 449.56C416.53 455.2 418.46 460.04 420.82 465.14C419.92 477.95 429.56 490.26 443.33 491.15C459.79 492.22 476.23 491.82 492.54 491.17C501.27 490.82 507.4 485.11 508.46 476.99C512.12 448.85 528.37 404.53 538.68 377.37C539.48 375.27 540.58 373.64 540.22 371.66L541.93 370.35C568.11 358.93 593.79 346.6 620.08 334.5L639.21 325.7L648.21 325.53C653.99 359.22 651.77 394.17 641.97 427.39C630.4 466.59 608.63 500.5 580.1 529.6L583.31 533.47C577.73 532.48 572.94 525.46 567.85 520.28C565.17 532.34 560.01 542.36 549.9 549.23C550.99 550.56 551.97 550.75 552.37 551.58C550.94 552.73 549.95 554.48 548.1 555.78C529.44 568.93 509.7 579.26 488.8 588.38C476.59 593.71 464.36 596.54 452.08 599.76C452.05 595.32 450.54 590.82 448.33 586.51C404.48 595.35 360.53 593.43 318.05 580.61C272.71 566.92 232.03 543.48 196.67 512.18C173.38 491.56 155.12 466.86 142.06 438.6C117.06 384.47 112.27 322.14 128.99 265.74C131.84 265.12 134.66 262.63 138.11 263.48C141.12 264.22 140.7 267.89 141.68 270.23C146.05 280.63 151.39 277.16 152.92 288.88C153.32 291.94 154.91 295.2 157.83 295.56H157.84ZM629.51 386.68C629.51 379.72 623.87 374.08 616.91 374.08C609.95 374.08 604.31 379.72 604.31 386.68C604.31 393.64 609.95 399.28 616.91 399.28C623.87 399.28 629.51 393.64 629.51 386.68ZM608.01 412C608.01 408.22 604.95 405.16 601.17 405.16C597.39 405.16 594.33 408.22 594.33 412C594.33 415.78 597.39 418.84 601.17 418.84C604.95 418.84 608.01 415.78 608.01 412ZM515.43 484.7C515.43 483.52 515.1 482.11 514.49 481.79C514 481.53 512.82 482.14 512.3 482.89C507.71 489.48 502.47 494.75 496.48 499.94C495.13 501.11 495 503.78 495.71 504.71C498.59 508.48 515.48 498.53 515.43 484.7ZM497.13 532.39C490.99 521.76 465.66 528.19 454.36 544.83C452.55 547.5 450.18 553.7 452.59 556.15C455.39 559.01 460.59 559.17 463.97 561.95C472.62 569.08 505.91 547.6 497.13 532.39Z" fill="#FC5C91"/>
<path d="M625.99 250.67C636.51 274.32 643.85 300.11 648.21 325.52L639.21 325.69C638.79 320.54 637.46 315.39 635.88 309.53C624.45 312.92 614.14 317.85 601.46 319.3L630.47 302.06C631.76 301.29 633.58 299.48 633.1 297.67C625.66 269.55 614.17 242.87 597.94 219.6C590.18 208.48 583.2 196.79 573.16 186.48C571.16 184.43 571.04 181.34 568.02 179.59L553.45 171.12C543.66 165.44 536.55 157.13 526.88 150.7C489.27 125.68 447.37 108.66 403.14 102C366.88 96.5401 329.4 96.6501 293.97 106.67C294.29 102.63 284.34 104.52 283.95 100.78C303.54 95.7301 322.99 89.3201 344.49 89.0701C355.99 88.9401 367.13 88.0201 379.3 88.7201C437.03 92.0501 492.88 111.86 539.44 146.01C558.86 160.25 575.75 175.46 590.2 194.85C603.33 212.47 617.14 230.78 625.99 250.67Z" fill="#F46399"/>
<path d="M569.17 155.75C572.91 156.92 576.06 160.77 578.86 163.88L592.21 178.65C598.46 185.56 603.77 193.13 608.68 201.01L619.12 217.75C619.26 218.91 618.25 222.34 616.36 221.4C611.7 219.08 609.24 214.35 606.63 210.31C606.41 209.98 585.46 181.64 586.81 183.02L559.66 155.29C563.28 154.89 566.64 154.97 569.17 155.76V155.75Z" fill="#821442"/>
<path d="M206.12 138.3C209.58 139.02 212.96 140.23 216.1 141.85C204.4 149.26 195.15 160.42 185.23 169.65C157.75 195.22 139.53 230.22 129 265.73C112.28 322.13 117.07 384.45 142.07 438.59C155.12 466.85 173.39 491.56 196.68 512.17C232.04 543.47 272.72 566.91 318.06 580.6C360.54 593.42 404.49 595.34 448.34 586.5C450.55 590.81 452.06 595.3 452.09 599.75C415.09 609.44 376.75 608.07 339.07 602.57C336.93 600.8 333.58 599.53 330.22 598.64C302.27 591.26 275.61 581.67 250.35 567.56C223.2 552.38 198.99 534.68 176.54 513.3C163.94 501.3 152.72 489.07 143.63 473.97C124.13 441.57 111.41 405.82 106.33 368.65C101.98 336.8 103.9 304.08 111.85 272.51C120.55 237.92 137.96 207.08 160.14 179.89C173.88 163.04 189.55 150.55 206.13 138.31L206.12 138.3Z" fill="#D83D7F"/>
<path d="M283.95 100.78C284.34 104.53 294.29 102.63 293.97 106.67L287.08 108.62C261.71 115.79 238.32 127.77 216.1 141.86C212.96 140.24 209.58 139.03 206.12 138.31C229.35 121.15 255.93 108.02 283.95 100.79V100.78Z" fill="#FC5C91"/>
<path d="M555.974 149.228L554.448 151.001L557.685 153.786L559.211 152.013L555.974 149.228Z" fill="#821442"/>
<path d="M403.14 102C403.88 107.49 398.75 114.64 397.1 121.58C403.31 124.26 402.56 130.06 403.88 135.79L406.98 149.27C407.39 151.05 404.9 152.8 405.74 154.64C406.4 156.07 407.6 157.33 409.52 158.18C414.44 160.38 409.13 170.64 411.91 172.86C422.91 181.67 424.58 178.7 429.34 186.57C430.99 189.29 431.65 191.86 430.01 194.72L382.27 195.25C374.07 195.34 368.23 204 368.18 211.57L367.95 246.61C367.9 253.71 369.94 259.56 372.48 265.5C373.81 268.6 374.18 272.09 377.04 274.88C382.99 280.7 390.62 283.31 399.13 283.22L444.14 282.74C453.07 282.65 461.43 281.93 469.68 280.62C469.51 282.68 468.9 284.04 467.76 286.37C450.44 321.55 436.86 357.98 427.1 395.64C424.38 395.87 424.03 400.27 421.4 402.92L378.51 411.47C383.19 388.99 379.89 366.9 371.69 345.19C363.66 323.93 349.17 307.12 329.7 294.98C310.23 282.84 286.84 278.97 264.1 281.96C269.79 272.84 291.98 272.7 290.28 268.47L298.24 268.4C316.82 268.23 329.83 294.25 343.16 282.56C353.15 273.8 349.2 245.66 349.55 231.82C349.82 221.02 345.35 211.79 335.34 205.15C326.79 199.48 316.34 195.13 306.03 193.4C305.92 192.08 307.42 190.22 307.09 188.65C305.91 183.08 300.84 180.91 296.46 178.23C293.07 176.15 291.25 172.34 286.92 170.64C290.38 163.52 286.31 159.12 283.03 153.85C280.73 150.15 281.12 145.34 277.74 141.69C274.66 138.36 273.65 131 276.9 127.82C280.22 125.24 285.35 126.83 288.97 124.38C291.99 122.34 291.99 115.82 289.78 113.25C288.31 111.54 286.05 110.95 287.08 108.63L293.97 106.68C329.39 96.6603 366.88 96.5503 403.14 102.01V102Z" fill="#FC84A6"/>
<path d="M597.94 219.6C614.17 242.87 625.66 269.56 633.1 297.67C633.58 299.48 631.76 301.3 630.47 302.06L601.46 319.3C614.14 317.85 624.45 312.92 635.88 309.53C637.46 315.39 638.79 320.54 639.21 325.69L620.08 334.49C593.79 346.59 568.11 358.92 541.93 370.34C552.68 342.21 565.76 315.08 578.52 287.34C581.08 281.77 580.39 276.13 581.32 270.71C591.17 258.87 588.1 259.09 588.65 250.88C589.14 243.59 594.45 236.65 592.76 229.13C592.24 226.81 591.32 224.35 592.66 222.01C593.49 220.55 595.94 220.04 597.94 219.58V219.6Z" fill="#FC84A6"/>
<path d="M226.22 202.68C196.53 216.87 175.04 242.1 164.16 273.29C160.8 280.71 160.23 288.29 157.84 295.56C154.92 295.19 153.33 291.94 152.93 288.88C151.4 277.15 146.06 280.63 141.69 270.23C140.71 267.89 141.13 264.22 138.12 263.48C134.67 262.63 131.85 265.12 129 265.74C139.53 230.23 157.75 195.23 185.23 169.66C189.26 167.91 197.65 176.71 199.57 180.27C205.26 182.69 208.59 187.3 210.64 192.98C213.95 202.14 218.06 196.33 226.22 202.69V202.68Z" fill="#F46399"/>
<path d="M378.51 411.46C372.42 440.71 353.87 465.87 326.99 480.48C272.8 509.93 202.36 489.37 177.28 431.79C178.48 431.98 179.76 432.79 180.66 434.1C198.93 460.69 227.61 476.57 259.05 479.54C277.61 481.3 296.13 480 314.21 473.01C347.12 460.29 372.58 430.11 373.09 394.66C376.82 390.15 371.33 370.8 369.68 364.14C367.05 353.53 364.45 342.5 357.02 334.88C350.2 320.77 340.58 308.35 326.69 299.97C298.26 282.83 254.94 280.69 231.12 307.83C230.13 305.54 231.46 303.54 231.53 301.62C234.97 299.36 249.05 286.53 252.02 285.5C255.61 284.25 260.41 282.43 264.11 281.94C286.86 278.95 309.97 282.66 329.71 294.96C349.45 307.26 363.67 323.9 371.7 345.17C379.9 366.88 383.2 388.98 378.52 411.45L378.51 411.46Z" fill="#D83D7F"/>
<path d="M433.07 474.34C434.49 474.6 435.89 475.97 438.01 475.96L484.32 475.62C491.4 475.57 501.45 470.83 503.27 463.03C510.47 432.27 520.89 403.33 532.02 374.53L540.22 371.65C540.58 373.63 539.48 375.26 538.68 377.36C528.37 404.51 512.12 448.84 508.46 476.98C507.4 485.1 501.27 490.81 492.54 491.16C476.22 491.81 459.79 492.21 443.33 491.14C429.56 490.25 419.92 477.94 420.82 465.13C418.46 460.04 416.53 455.2 417.36 449.55C420.05 431.24 422.57 413.11 427.1 395.62C436.87 357.96 450.44 321.53 467.76 286.35C468.9 284.03 469.51 282.66 469.68 280.6C469.86 278.38 471.31 276.3 471.3 274.02C474.05 274.05 476.73 273.22 480.14 273.99C454.75 327.22 434.32 383.75 425.94 442.34C424.76 450.59 424.58 457.51 425.91 465.88C426.64 470.45 427.92 473.37 433.07 474.31V474.34Z" fill="#D83D7F"/>
<path d="M189.33 411.63C191.64 414.99 193.35 418.43 196.23 421.45C198.4 423.73 199.95 426.14 202.27 428.49L209.26 435.56C217.47 443.87 227.98 448.95 239.15 451.64C239.41 451.7 239.74 451.59 240.02 451.59C241.45 453.13 244.14 453.74 246.3 453.65C247.82 453.59 248.98 454.43 250.33 454.62C250.2 454.62 248.52 454.43 248.38 454.93C248.34 459.2 246.77 464.14 248.78 468.02C249.26 468.94 252.37 468.41 253.19 468.99C254.51 469.92 254.43 471.92 255.3 473.75C255.94 475.09 258.06 475.01 258.52 475.78C259.23 476.95 258.96 478.45 259.04 479.54C227.6 476.56 198.92 460.69 180.65 434.1C179.75 432.79 178.47 431.98 177.27 431.79C172.1 419.92 165.55 408.55 162.47 395.88C164.58 399.45 164.55 382.71 163.99 381.89C161.91 381.47 160.32 381.8 158.75 381.87C158.81 380.24 157.83 377.19 157.43 375.53C159.34 375.6 160.87 377.15 163.34 377.77C167.19 370.8 163.93 357.37 169.2 353.51C172.1 373.98 177.58 394.56 189.31 411.62L189.33 411.63Z" fill="#B92D6D"/>
<path d="M306.02 193.39C316.33 195.12 326.79 199.47 335.33 205.14C345.33 211.77 349.81 221 349.54 231.81C346.27 230.47 345.14 222.8 338.93 219.79C335.62 213.26 329.83 208.34 322.35 205.38C283.33 189.96 233.57 197.44 204.1 226.85C198.16 224.33 186.95 242.77 183.93 247.54C179.82 254.03 176.46 260.19 173.9 267.54C168.44 283.22 164.69 298.9 161.8 315.31C160.64 321.88 160.81 337.75 168.06 337.72C168.04 339.97 168.92 342.42 168.22 344.66C167.94 345.56 166.85 346.1 166.94 347.15C167.07 348.64 167.21 350.36 169.04 349.79C169.06 351 169.04 352.34 169.21 353.54C163.94 357.4 167.2 370.83 163.35 377.8C160.87 377.18 159.34 375.63 157.44 375.56C151.45 351.09 153.75 320.4 157.84 295.58C160.24 288.31 160.8 280.73 164.16 273.31C175.04 242.12 196.53 216.88 226.22 202.7C250.94 190.89 279.27 188.93 306.02 193.41V193.39Z" fill="#D83D7F"/>
<path d="M497.13 532.39C505.91 547.59 472.62 569.08 463.97 561.95C460.6 559.17 455.4 559.01 452.59 556.15C450.18 553.7 452.55 547.5 454.36 544.83C465.65 528.19 490.99 521.76 497.13 532.39Z" fill="#F46399"/>
<path d="M581.33 270.72C580.4 276.14 581.09 281.78 578.53 287.35C565.77 315.09 552.68 342.21 541.94 370.35L540.23 371.66L532.03 374.54C544.69 341.78 559.04 309.63 575.84 278.15C577.39 275.25 577.25 271.81 580.07 270.47L581.33 270.72Z" fill="#F46399"/>
<path d="M616.91 399.28C623.869 399.28 629.51 393.639 629.51 386.68C629.51 379.721 623.869 374.08 616.91 374.08C609.951 374.08 604.31 379.721 604.31 386.68C604.31 393.639 609.951 399.28 616.91 399.28Z" fill="#FD8DB0"/>
<path d="M515.43 484.7C515.48 498.53 498.59 508.48 495.71 504.71C495 503.77 495.13 501.1 496.48 499.94C502.47 494.75 507.71 489.48 512.3 482.89C512.82 482.14 514 481.53 514.49 481.79C515.1 482.11 515.42 483.52 515.43 484.7Z" fill="#F2739F"/>
<path d="M601.17 418.84C604.948 418.84 608.01 415.778 608.01 412C608.01 408.223 604.948 405.16 601.17 405.16C597.392 405.16 594.33 408.223 594.33 412C594.33 415.778 597.392 418.84 601.17 418.84Z" fill="#FD8DB0"/>
<path d="M162.49 395.88C161.61 392.23 158.64 385.52 158.77 381.88C160.34 381.81 161.93 381.47 164.01 381.9C164.57 382.72 164.61 399.45 162.49 395.89V395.88Z" fill="#D83D7F"/>
<path d="M597.94 219.601C595.94 220.061 593.49 220.571 592.66 222.031C591.33 224.371 592.24 226.831 592.76 229.151C594.45 236.671 589.14 243.611 588.65 250.901C588.1 259.111 591.17 258.891 581.32 270.731L580.06 270.481L581.25 262.711L581.44 226.701C581.46 222.821 580.83 219.661 580.46 216.391C579.58 208.771 575.67 195.691 565.95 195.621L430 194.741C431.64 191.871 430.98 189.311 429.33 186.591C424.57 178.721 422.9 181.701 411.9 172.881C409.12 170.661 414.43 160.391 409.51 158.201C407.59 157.341 406.39 156.091 405.73 154.661C404.89 152.821 407.38 151.071 406.97 149.291L403.87 135.811C402.55 130.081 403.3 124.281 397.09 121.601C398.75 114.661 403.87 107.511 403.13 102.021C447.36 108.681 489.26 125.701 526.87 150.721C536.54 157.151 543.65 165.451 553.44 171.141L568.01 179.611C571.03 181.361 571.16 184.451 573.15 186.501C583.19 196.811 590.17 208.491 597.93 219.621L597.94 219.601Z" fill="#FD8DB0"/>
<path d="M306.02 193.39C279.27 188.91 250.94 190.87 226.22 202.68C218.06 196.32 213.95 202.13 210.64 192.97C208.59 187.29 205.26 182.68 199.57 180.26C197.65 176.71 189.25 167.9 185.23 169.65C195.15 160.42 204.4 149.26 216.1 141.85C238.32 127.76 261.71 115.79 287.08 108.61C286.05 110.93 288.31 111.53 289.78 113.23C291.99 115.79 291.99 122.31 288.97 124.36C285.35 126.82 280.22 125.23 276.9 127.8C273.64 130.99 274.65 138.35 277.74 141.67C281.12 145.32 280.73 150.12 283.03 153.83C286.31 159.11 290.38 163.5 286.92 170.62C291.25 172.32 293.07 176.13 296.46 178.21C300.84 180.89 305.91 183.06 307.09 188.63C307.42 190.2 305.92 192.06 306.03 193.38L306.02 193.39Z" fill="#F2739F"/>
<path d="M349.54 231.81C349.19 245.65 353.15 273.79 343.15 282.55C329.82 294.24 316.8 268.23 298.23 268.39L290.27 268.46C275.08 268.6 262.9 269.07 252.01 285.51C249.04 286.54 234.96 299.37 231.52 301.63C231.9 290.21 235.4 278.76 240.53 268.48C246.89 255.72 257.49 249.18 269.95 245.89C269.52 247.16 271.02 247.37 271.72 247.54C272.69 247.78 300.15 240.17 329.35 265.24C330.5 266.23 332.13 266.1 333.46 266.3C334.96 266.53 334.89 264.83 335.07 263.73C336.36 263.3 337.49 262.56 337.93 260.67C340.86 248.32 342.43 235.59 339.27 223.66C338.95 222.44 339.36 221.01 338.93 219.79C345.14 222.8 346.28 230.47 349.54 231.81Z" fill="#B92D6D"/>
<path d="M430 194.72L565.95 195.6C575.67 195.66 579.58 208.74 580.46 216.37C577.39 213.78 575.49 209.44 571.36 208.85C570.96 208.53 570.33 208.06 569.94 207.71C568 205.96 566.87 201.48 563.04 201.48L386.26 201.37C382.07 201.37 379.97 203.51 379.1 206.78C370.2 211.91 373.88 232.16 372.71 245.58C371.46 260 377.58 262.65 383.03 271.45C373.66 267.68 379.22 268.29 372.48 265.51C369.94 259.58 367.9 253.72 367.95 246.62L368.18 211.58C368.23 204.01 374.07 195.35 382.27 195.26L430.01 194.73L430 194.72Z" fill="#D83D7F"/>
<path d="M383.02 271.44C384.96 272.22 386.46 273.39 389.21 273.41L423.2 273.57L471.29 274.05C471.3 276.33 469.85 278.4 469.67 280.63C461.42 281.94 453.06 282.66 444.13 282.75L399.12 283.23C390.61 283.32 382.98 280.71 377.03 274.89C374.17 272.1 373.8 268.61 372.47 265.51C379.21 268.29 373.65 267.68 383.02 271.45V271.44Z" fill="#F46399"/>
<path d="M290.27 268.46C291.97 272.68 269.78 272.83 264.09 281.95C260.39 282.44 255.6 284.26 252 285.51C262.89 269.07 275.07 268.6 290.26 268.46H290.27Z" fill="#FC5C91"/>
<path d="M373.09 394.67C372.58 430.11 347.12 460.3 314.21 473.02C296.13 480.01 277.6 481.3 259.05 479.55C258.97 478.46 259.24 476.96 258.53 475.79C258.06 475.02 255.94 475.1 255.31 473.76C254.44 471.93 254.51 469.93 253.2 469C252.38 468.42 249.27 468.95 248.79 468.03C246.78 464.15 248.35 459.21 248.39 454.94C248.52 454.44 250.21 454.63 250.34 454.63C271.38 457.69 294.62 457.38 314.03 447.62C340.76 437.46 359.46 410 362.3 381.64L362.47 379.93C363.13 380.55 363.78 379.75 364.05 379.02C364.26 378.44 363.42 377.88 363.1 377.44L363.95 362.65C364.23 363.64 365.83 364.54 365.37 366.58C363.53 374.67 372.1 378.85 371.61 390.32C371.53 392.1 372.23 393.67 373.12 394.67H373.09Z" fill="#AC2663"/>
<path d="M373.09 394.67C372.2 393.67 371.51 392.1 371.58 390.32C372.07 378.84 363.5 374.66 365.34 366.58C365.8 364.55 364.21 363.64 363.92 362.65C361.29 353.56 361.19 343.54 357.01 334.89C364.44 342.51 367.04 353.54 369.67 364.15C371.32 370.81 376.82 390.15 373.08 394.67H373.09Z" fill="#B92D6D"/>
<path d="M580.46 216.38C580.84 219.64 581.46 222.81 581.44 226.69L581.25 262.7L580.06 270.47C577.24 271.81 577.38 275.25 575.83 278.15C559.03 309.63 544.68 341.78 532.02 374.54C520.89 403.34 510.47 432.28 503.27 463.04C501.45 470.83 491.39 475.58 484.32 475.63L438.01 475.97C435.89 475.99 434.48 474.61 433.07 474.35C434.24 471.83 433.83 468.85 434.08 465.65L435.03 453.48L483.2 452.72C485.42 452.68 488.93 452.54 489.83 449.53C492.02 442.22 493.66 434.95 494.97 427.82C495.03 427.47 495.01 427.09 495.12 426.75C495.96 427.2 495.86 426.08 495.98 425.58C500.52 406.45 507.67 388.02 514.16 369.48C520.6 367.24 521.14 358.96 523.88 353.2L529.99 340.32L536.41 329.98C537.46 328.29 536.95 326.02 537.6 324.12C540.73 314.88 547.14 307.72 551.58 299.14C553.21 296 551.41 292.45 556.07 290.27C560.65 288.12 567.52 283.75 567.87 278.69L568.55 269.05C568.8 265.47 574.77 263.2 575.85 259.57C577.1 255.39 574.17 251 573.83 246.9C572.23 246.72 571.54 247.51 570.52 247.82L570.23 210.68C570.96 210.38 571.31 209.64 571.33 208.88C575.47 209.47 577.36 213.81 580.43 216.4L580.46 216.38Z" fill="#AC2663"/>
<path d="M204.09 226.85C191.08 239.83 182.86 257.1 176.8 274.48C169.54 295.32 168.26 316.4 168.05 337.71C160.8 337.74 160.63 321.87 161.79 315.3C164.68 298.89 168.43 283.21 173.89 267.53C176.45 260.18 179.81 254.02 183.92 247.53C186.94 242.76 198.15 224.32 204.09 226.84V226.85Z" fill="#B92D6D"/>
<path d="M379.09 206.77L378.87 246.73C379.14 248.83 380.21 254.68 383.52 254.69L495.45 255.04C463.66 315.12 439.82 378.38 429.91 445.641C428.82 448.851 431.69 453.51 435.03 453.451L434.08 465.62C433.83 468.82 434.24 471.801 433.07 474.32C427.92 473.38 426.64 470.461 425.91 465.891C424.57 457.521 424.76 450.6 425.94 442.35C434.31 383.75 454.75 327.22 480.14 274C476.73 273.22 474.05 274.05 471.3 274.03L423.21 273.55L389.22 273.391C386.47 273.381 384.97 272.201 383.03 271.421C377.58 262.621 371.45 259.98 372.71 245.55C373.88 232.13 370.21 211.88 379.1 206.75L379.09 206.77Z" fill="#B92D6D"/>
<path d="M569.93 207.71L570.25 210.65L570.54 247.79C549.12 287.1 528.98 327.16 514.16 369.46C507.67 388 500.52 406.43 495.98 425.56C495.29 425.22 495.26 426.3 495.12 426.73C495.01 427.07 495.03 427.45 494.97 427.8C487.63 434.85 493.1 436.5 484.13 449.51C483.38 450.6 483.37 451.78 483.19 452.71L435.02 453.47C431.68 453.52 428.8 448.87 429.9 445.66C439.8 378.39 463.65 315.13 495.44 255.06L383.51 254.71C380.2 254.7 379.13 248.85 378.86 246.75L379.08 206.79C379.95 203.53 382.05 201.38 386.24 201.38L563.02 201.49C566.84 201.49 567.98 205.97 569.92 207.72L569.93 207.71Z" fill="#FDFCFC"/>
<path d="M571.36 208.85C571.34 209.61 570.99 210.35 570.26 210.65L569.94 207.71C570.33 208.06 570.97 208.53 571.36 208.85Z" fill="#B92D6D"/>
<path d="M514.17 369.46C528.98 327.16 549.12 287.1 570.55 247.79C571.57 247.49 572.26 246.69 573.86 246.87C574.19 250.97 577.12 255.36 575.88 259.54C574.8 263.17 568.83 265.44 568.58 269.02L567.9 278.66C567.54 283.73 560.68 288.09 556.1 290.24C551.44 292.42 553.23 295.97 551.61 299.11C547.17 307.7 540.76 314.85 537.63 324.09C536.98 326 537.49 328.26 536.44 329.95L530.02 340.29L523.91 353.17C521.18 358.92 520.63 367.21 514.19 369.45L514.17 369.46Z" fill="#B92D6D"/>
<path d="M483.2 452.701C483.37 451.771 483.39 450.591 484.14 449.501C493.1 436.491 487.63 434.841 494.98 427.791C493.67 434.931 492.03 442.191 489.84 449.501C488.94 452.511 485.43 452.661 483.21 452.691L483.2 452.701Z" fill="#FBD4E0"/>
<path d="M495.13 426.73C495.27 426.3 495.3 425.23 495.99 425.56C495.87 426.06 495.97 427.18 495.13 426.73Z" fill="#FBD4E0"/>
<path d="M338.93 219.79C339.36 221.01 338.95 222.44 339.27 223.66C333.76 230.22 340.04 238.13 335.18 253.86C334.13 257.25 333.84 260.57 334.19 263.7C331.69 263.99 329.65 262 327.72 260.38C311.14 246.45 290.03 240.6 269.95 245.9C257.49 249.19 246.89 255.73 240.53 268.49C235.4 278.77 231.9 290.22 231.52 301.64C231.46 303.56 230.12 305.56 231.11 307.85C254.94 280.72 298.26 282.85 326.68 299.99C340.57 308.37 350.19 320.79 357.01 334.9C361.19 343.54 361.29 353.57 363.92 362.66L363.07 377.45C362.08 377.76 362.52 379.15 362.44 379.94L362.27 381.65C354.23 400.26 360.9 397.82 346.91 416.44C334.31 433.2 316.99 444.57 296.95 450.35C302.67 449.18 309.23 449.27 314 447.64C294.59 457.4 271.36 457.71 250.31 454.65C248.96 454.45 247.8 453.62 246.28 453.68C245.43 451.11 242.28 451.64 240 451.62C239.73 451.62 239.4 451.73 239.13 451.67C231.45 445.35 225.5 442.76 216.46 436.35L205.88 428.85C204.5 427.87 203.37 427.58 202.25 428.52C199.93 426.17 198.38 423.76 196.21 421.48C195.94 421.04 196.87 418.88 197.84 419.15C199.13 419.51 200.12 423.52 200.1 423.16C200.16 424.44 202.7 423.47 202.17 422.73C200.54 420.46 198.31 419.29 197.81 416.64C195.15 422.89 194.17 412.79 189.32 411.67C177.59 394.61 172.11 374.03 169.21 353.56C169.04 352.36 169.05 351.02 169.04 349.81C169.01 348.05 169.24 346.24 168.21 344.68C168.91 342.44 168.03 340 168.05 337.74C168.26 316.43 169.53 295.35 176.8 274.51C182.86 257.13 191.08 239.86 204.09 226.88C233.56 197.47 283.32 189.99 322.34 205.41C329.82 208.37 335.61 213.29 338.92 219.82L338.93 219.79ZM234.11 375.66C234.64 394.29 249.45 409.32 268.48 410.11C276.26 410.43 283.26 409.37 290.19 405.33C295.85 402.02 300.33 397.45 302.99 390.6C307 380.28 308.32 368.36 304.33 357.56C301.84 343.74 290.64 334.32 276.11 333.47C266.16 332.88 256.11 333.49 247.83 339.45C236.42 347.66 232.28 361.86 234.11 375.68V375.66ZM204.24 425.65C204.24 425.04 203.74 424.54 203.13 424.54C202.52 424.54 202.02 425.04 202.02 425.65C202.02 426.26 202.52 426.76 203.13 426.76C203.74 426.76 204.24 426.26 204.24 425.65Z" fill="#FDFCFC"/>
<path d="M239.15 451.641C227.98 448.951 217.47 443.87 209.26 435.56L202.27 428.49C203.39 427.55 204.52 427.84 205.9 428.82L216.48 436.32C225.52 442.73 231.48 445.331 239.15 451.641Z" fill="#FBD4E0"/>
<path d="M196.23 421.45C193.35 418.43 191.64 414.99 189.33 411.63C194.18 412.75 195.16 422.86 197.82 416.6C198.32 419.25 200.55 420.42 202.18 422.69C202.71 423.43 200.18 424.41 200.11 423.12C200.13 423.48 199.14 419.47 197.85 419.11C196.89 418.84 195.96 421 196.22 421.44L196.23 421.45Z" fill="#FBD4E0"/>
<path d="M246.3 453.65C244.14 453.73 241.45 453.13 240.02 451.59C242.3 451.61 245.45 451.09 246.3 453.65Z" fill="#FBD4E0"/>
<path d="M169.04 349.77C167.21 350.34 167.07 348.63 166.94 347.13C166.85 346.08 167.94 345.54 168.22 344.64C169.24 346.2 169.02 348.01 169.05 349.77H169.04Z" fill="#B92D6D"/>
<path d="M334.19 263.69C334.48 263.66 334.78 263.74 335.07 263.73C334.89 264.83 334.96 266.52 333.46 266.3C332.14 266.1 330.5 266.23 329.35 265.24C300.14 240.17 272.68 247.79 271.72 247.54C271.02 247.36 269.52 247.16 269.95 245.89C290.02 240.59 311.14 246.44 327.72 260.37C329.65 261.99 331.69 263.99 334.19 263.69Z" fill="#D83D7F"/>
<path d="M335.07 263.72C334.78 263.73 334.48 263.65 334.19 263.68C333.84 260.56 334.13 257.24 335.18 253.84C340.04 238.11 333.76 230.2 339.27 223.64C342.43 235.57 340.86 248.3 337.93 260.65C337.48 262.54 336.35 263.28 335.07 263.71V263.72Z" fill="#FBD4E0"/>
<path d="M304.34 357.55C298.54 357.49 294.4 354.52 289.08 361.53C280.27 356.1 269.05 355.7 259.51 359.85C244.17 366.52 244.96 379.96 242.6 380.51C240.56 380.99 238.19 374.76 234.12 375.66C232.3 361.84 236.44 347.64 247.84 339.43C256.12 333.47 266.17 332.86 276.12 333.45C290.65 334.31 301.85 343.72 304.34 357.54V357.55Z" fill="#AC2663"/>
<path d="M289.08 361.53C292.64 363.72 297.03 369.03 298.59 372.85C302.18 381.66 298.58 390.91 293.54 398.12C291.78 400.63 289.88 402.49 290.21 405.33C283.29 409.38 276.28 410.44 268.5 410.11C249.46 409.32 234.65 394.29 234.13 375.66C238.21 374.76 240.57 380.99 242.61 380.51C244.97 379.96 244.18 366.52 259.52 359.85C269.06 355.7 280.27 356.1 289.09 361.53H289.08ZM289.06 397.02C295.48 390.37 295.68 378.41 290.36 371.76C285.04 365.11 276.9 364.59 268.92 365.68C256.08 367.42 244.33 378.65 246.64 392.24C248.21 401.49 275.78 410.79 289.06 397.02Z" fill="#D83D7F"/>
<path d="M304.34 357.55C308.33 368.35 307.01 380.27 303 390.59C300.34 397.45 295.86 402.02 290.2 405.32C289.87 402.49 291.78 400.63 293.53 398.11C298.57 390.9 302.17 381.65 298.58 372.84C297.02 369.01 292.63 363.71 289.07 361.52C294.4 354.51 298.53 357.48 304.33 357.54L304.34 357.55Z" fill="#B92D6D"/>
<path d="M314.02 447.61C309.25 449.24 302.69 449.15 296.97 450.32C317.01 444.54 334.33 433.18 346.93 416.41C360.92 397.8 354.25 400.24 362.29 381.62C359.45 409.98 340.75 437.44 314.02 447.6V447.61Z" fill="#FCA3C3"/>
<path d="M362.45 379.92C362.53 379.13 362.09 377.74 363.08 377.43C363.41 377.87 364.25 378.43 364.03 379.01C363.76 379.74 363.11 380.54 362.45 379.92Z" fill="#B92D6D"/>
<path d="M203.13 426.761C203.743 426.761 204.24 426.264 204.24 425.651C204.24 425.037 203.743 424.541 203.13 424.541C202.517 424.541 202.02 425.037 202.02 425.651C202.02 426.264 202.517 426.761 203.13 426.761Z" fill="#FBD4E0"/>
<path d="M289.06 397.02C275.78 410.79 248.2 401.49 246.64 392.24C244.34 378.66 256.09 367.43 268.92 365.68C276.9 364.6 285.11 365.19 290.36 371.76C295.61 378.33 295.47 390.37 289.06 397.02Z" fill="#F2739F"/>
</g>
<defs>
<clipPath id="clip0_143_493">
<rect width="733.81" height="723.79" fill="white"/>
</clipPath>
</defs>
</svg>
