<svg width="226" height="59" viewBox="0 0 226 59" fill="none" xmlns="http://www.w3.org/2000/svg">
<g clip-path="url(#clip0_85_107)">
<path d="M7.9455 7.90039H209.378C218.136 7.90039 225.253 15.0057 225.253 23.7494C225.253 32.4932 218.136 39.5985 209.378 39.5985H15.8748C7.11683 39.6147 0 32.5094 0 23.7657V15.833C0 11.453 3.55841 7.90039 7.9455 7.90039Z" fill="#6F4E9B"/>
<path d="M186.922 27.2856H39.1426C30.3752 27.2856 23.2678 34.3815 23.2678 43.1347C23.2678 51.8879 30.3752 58.9837 39.1426 58.9837H186.922C195.69 58.9837 202.797 51.8879 202.797 43.1347C202.797 34.3815 195.69 27.2856 186.922 27.2856Z" fill="#6F4E9B"/>
<path d="M0.211124 10.7879C0.25987 9.31172 0.243621 8.77639 0.25987 8.04639C0.341112 5.2724 0.373609 3.81241 0.974803 2.75797C2.35592 0.373312 6.41804 0.292201 7.63668 0.308423L218.493 0.0650903C220.183 0.0488682 221.857 0.032646 223.546 0.000201673C224.294 -0.0484648 224.781 0.146201 225.09 0.373311C226.374 1.34664 226.016 3.71508 225.74 6.5864C225.545 8.59795 225.366 11.3882 225.366 14.7948C225.317 16.5144 225.285 18.2339 225.236 19.9535C225.415 23.7981 225.187 26.9128 223.985 27.2697C222.312 27.7725 219.631 22.6463 218.526 23.1654C217.664 23.5872 219.484 26.8317 218.249 30.8223C217.518 33.1745 215.78 36.2405 214.057 36.0945C212.79 35.9972 211.977 34.1641 211.539 33.1907C210.32 30.433 211.035 28.8594 210.694 26.3288C210.206 22.549 207.818 19.921 205.511 17.3579C203.285 14.8921 201.513 12.9617 198.881 12.0857C192.414 9.96061 189.035 16.9848 180.163 17.0984C172.347 17.1957 171.827 11.7613 162.81 11.4368C155.335 11.161 154.198 14.8597 146.529 14.2757C140.094 13.789 140.094 11.1286 132.587 9.97683C129.484 9.49017 120.482 8.09506 114.178 13.1402C113.365 13.789 109.677 16.7415 108.653 21.4297C107.776 25.4203 109.303 28.5999 106.98 32.8014C106.606 33.4665 105.712 35.0563 104.754 34.9752C103.828 34.8941 103.275 33.3367 102.853 31.9092C100.675 24.7714 101.277 20.0021 99.798 19.629C98.9206 19.4181 97.6207 20.8132 97.052 21.7379C96.0609 23.3439 96.4996 24.885 95.4272 25.3554C95.0372 25.5339 94.4523 25.5501 94.0786 25.2906C93.0387 24.5768 94.3548 22.2732 94.4035 19.6615C94.4685 16.2224 92.3237 12.1182 89.594 11.4693C86.9617 10.8366 86.133 13.9513 82.4771 14.0648C78.1388 14.1946 76.6927 9.89572 71.8506 9.96061C69.6896 9.99305 69.4459 10.8528 66.8136 11.5504C61.0942 13.0753 58.4132 10.0093 51.7025 9.4415C44.6182 8.84128 45.1382 12.0533 36.0553 12.1182C29.2796 12.1668 25.1038 10.3986 23.1702 12.7184C21.5779 14.6326 22.2928 18.3961 20.9767 18.607C20.603 18.6719 20.2455 18.4124 20.213 18.3799C19.4168 17.7797 20.213 16.4819 19.8393 15.103C19.3193 13.1888 16.8658 12.3453 16.6383 12.2642C14.8347 11.6639 13.2424 12.2155 11.6176 12.7995C10.1227 13.3348 7.03548 14.4379 5.37814 17.1795C3.23334 20.7483 4.95568 24.7066 3.73704 25.0634C3.0871 25.2419 2.1122 24.2361 1.62474 23.3926C0.568591 21.5108 1.65724 19.8399 1.77098 17.0659C1.77098 16.9037 1.91721 16.5306 1.70598 16.2873C1.38101 15.8979 0.666082 16.3359 0.211124 15.9953C-0.178839 15.7033 -0.0163543 15.0868 0.0811365 13.3673C0.129882 12.5075 0.14613 11.6639 0.162379 10.8042L0.211124 10.7879Z" fill="#FCE3ED"/>
<path d="M140.042 25.9179L131.916 23.2741C130.892 22.9409 129.792 23.4996 129.458 24.5218L129.237 25.2004C128.903 26.2226 129.462 27.3213 130.486 27.6544L138.612 30.2983C139.636 30.6314 140.737 30.0728 141.07 29.0506L141.292 28.372C141.626 27.3498 141.066 26.2511 140.042 25.9179Z" fill="#CCEAFC"/>
<path d="M48.6562 38.3746L46.0165 46.4903C45.6839 47.5129 46.2446 48.611 47.2688 48.943L47.9488 49.1635C48.973 49.4955 50.0729 48.9358 50.4055 47.9132L53.0451 39.7975C53.3777 38.775 52.817 37.6769 51.7928 37.3448L51.1129 37.1244C50.0887 36.7923 48.9888 37.3521 48.6562 38.3746Z" fill="#F39B97"/>
<path d="M23.2667 22.7298L23.9447 31.2357C24.0301 32.3075 24.9696 33.1071 26.043 33.0218L26.7557 32.9652C27.8292 32.8799 28.6301 31.942 28.5447 30.8703L27.8667 22.3643C27.7813 21.2926 26.8418 20.4929 25.7684 20.5782L25.0557 20.6348C23.9822 20.7201 23.1813 21.6581 23.2667 22.7298Z" fill="#FFF5BE"/>
<path d="M94.8938 41.2044L87.4839 45.4567C86.5503 45.9924 86.2285 47.1824 86.7651 48.1145L87.1214 48.7333C87.658 49.6654 88.8499 49.9867 89.7835 49.4509L97.1934 45.1987C98.127 44.6629 98.4488 43.473 97.9122 42.5409L97.5559 41.9221C97.0193 40.99 95.8274 40.6687 94.8938 41.2044Z" fill="#CA9755"/>
<path d="M76.1669 26.8971L74.4629 18.5355C74.2483 17.482 73.2188 16.8017 72.1635 17.016L71.463 17.1583C70.4077 17.3727 69.7263 18.4005 69.941 19.454L71.645 27.8156C71.8596 28.8691 72.8891 29.5494 73.9444 29.3351L74.6449 29.1927C75.7002 28.9784 76.3816 27.9506 76.1669 26.8971Z" fill="#72C1E3"/>
<path d="M140.787 45.5882L132.789 48.596C131.781 48.975 131.272 50.0978 131.652 51.1039L131.904 51.7719C132.283 52.778 133.408 53.2864 134.416 52.9074L142.414 49.8996C143.421 49.5207 143.931 48.3978 143.551 47.3917L143.299 46.7238C142.92 45.7177 141.795 45.2093 140.787 45.5882Z" fill="#F3A2B4"/>
<path d="M188.715 28.2423L186.076 36.358C185.743 37.3805 186.304 38.4787 187.328 38.8107L188.008 39.0312C189.032 39.3632 190.132 38.8034 190.465 37.7809L193.104 29.6652C193.437 28.6427 192.876 27.5445 191.852 27.2125L191.172 26.992C190.148 26.66 189.048 27.2197 188.715 28.2423Z" fill="#F39B97"/>
<path d="M163.762 44.6808L162.058 36.3192C161.843 35.2657 160.814 34.5854 159.759 34.7997L159.058 34.942C158.003 35.1564 157.322 36.1842 157.536 37.2377L159.24 45.5993C159.455 46.6528 160.484 47.3331 161.54 47.1187L162.24 46.9764C163.295 46.7621 163.977 45.7343 163.762 44.6808Z" fill="#72C1E3"/>
</g>
<defs>
<clipPath id="clip0_85_107">
<rect width="226" height="59" fill="white"/>
</clipPath>
</defs>
</svg>
