<svg width="1442" height="203" viewBox="0 0 1442 203" fill="none" xmlns="http://www.w3.org/2000/svg">
<path d="M1441 0H1V203H1441V0Z" fill="#6F4E9B"/>
<path d="M133.543 161.608L126.327 157.149C125.418 156.587 124.116 156.726 123.42 157.459L122.957 157.946C122.261 158.679 122.433 159.729 123.342 160.291L130.558 164.75C131.467 165.311 132.769 165.172 133.466 164.439L133.928 163.952C134.625 163.219 134.453 162.169 133.543 161.608Z" fill="#FCE3ED"/>
<path d="M194.219 97.4535L186.346 101.119C185.354 101.581 185.014 102.604 185.587 103.404L185.967 103.935C186.54 104.735 187.808 105.009 188.8 104.547L196.673 100.881C197.665 100.42 198.005 99.3967 197.432 98.5968L197.052 98.0657C196.479 97.2658 195.211 96.9917 194.219 97.4535Z" fill="#F39B97"/>
<path d="M127.643 126.282L119 124.011C117.911 123.724 116.74 124.204 116.385 125.083L116.15 125.666C115.795 126.544 116.39 127.488 117.479 127.774L126.122 130.046C127.211 130.332 128.382 129.852 128.737 128.974L128.972 128.391C129.327 127.512 128.732 126.568 127.643 126.282Z" fill="#CCEAFC"/>
<path d="M113.852 92.1608L108.323 97.98C107.627 98.7132 107.799 99.7631 108.708 100.325L109.312 100.698C110.221 101.26 111.523 101.121 112.22 100.387L117.749 94.5682C118.445 93.835 118.273 92.7852 117.364 92.2234L116.76 91.8504C115.851 91.2886 114.549 91.4275 113.852 92.1608Z" fill="#FFF5BE"/>
<path d="M154.328 81.5899L145.44 80.0506C144.32 79.8567 143.217 80.4315 142.977 81.3346L142.817 81.9342C142.577 82.8373 143.289 83.7266 144.409 83.9206L153.297 85.4598C154.417 85.6538 155.52 85.0789 155.761 84.1757L155.92 83.5762C156.161 82.6731 155.448 81.7838 154.328 81.5899Z" fill="#CA9755"/>
<path d="M66.9048 69.1338L64.0971 76.1065C63.7433 76.9851 64.3397 77.9285 65.4291 78.2138L66.1524 78.4032C67.2418 78.6885 68.4117 78.2076 68.7655 77.3291L71.5732 70.3564C71.927 69.4778 71.3306 68.5344 70.2412 68.2491L69.5179 68.0597C68.4285 67.7744 67.2585 68.2553 66.9048 69.1338Z" fill="#F39B97"/>
<path d="M2.78716 108.575L3.50833 115.883C3.59919 116.804 4.59838 117.491 5.74018 117.417L6.49823 117.369C7.64003 117.295 8.492 116.49 8.40113 115.569L7.67997 108.261C7.58911 107.34 6.58982 106.653 5.44802 106.726L4.68996 106.775C3.54817 106.848 2.6963 107.654 2.78716 108.575Z" fill="#FFF5BE"/>
<path d="M24.123 78.8747L16.2414 82.5281C15.2484 82.9884 14.9061 84.0108 15.4769 84.8116L15.8559 85.3433C16.4266 86.1441 17.6944 86.4202 18.6875 85.9599L26.569 82.3065C27.5621 81.8462 27.9044 80.8238 27.3336 80.023L26.9546 79.4913C26.3838 78.6905 25.116 78.4144 24.123 78.8747Z" fill="#CA9755"/>
<path d="M59.7288 127.126L57.9164 119.942C57.6881 119.037 56.593 118.453 55.4706 118.637L54.7254 118.759C53.603 118.943 52.8782 119.826 53.1066 120.731L54.919 127.915C55.1473 128.82 56.2424 129.405 57.3648 129.221L58.11 129.098C59.2324 128.914 59.9572 128.031 59.7288 127.126Z" fill="#72C1E3"/>
<path d="M38.183 156.183L29.6757 158.767C28.6038 159.093 28.0622 160.057 28.4659 160.922L28.734 161.496C29.1377 162.36 30.3339 162.797 31.4058 162.471L39.9131 159.887C40.985 159.561 41.5267 158.597 41.1229 157.732L40.8549 157.159C40.4511 156.294 39.2549 155.857 38.183 156.183Z" fill="#F3A2B4"/>
<path d="M340.825 144.052L333.609 139.593C332.699 139.032 331.398 139.171 330.701 139.904L330.239 140.39C329.542 141.124 329.714 142.174 330.623 142.735L337.839 147.194C338.749 147.756 340.05 147.617 340.747 146.884L341.21 146.397C341.906 145.664 341.734 144.614 340.825 144.052Z" fill="#FCE3ED"/>
<path d="M413.919 63.3603L406.047 67.0258C405.055 67.4877 404.715 68.5106 405.287 69.3105L405.668 69.8416C406.24 70.6415 407.509 70.9155 408.501 70.4537L416.374 66.7882C417.366 66.3263 417.705 65.3035 417.133 64.5035L416.753 63.9724C416.18 63.1725 414.911 62.8984 413.919 63.3603Z" fill="#F39B97"/>
<path d="M347.357 92.1813L338.714 89.9098C337.625 89.6236 336.454 90.1036 336.1 90.9818L335.864 91.5649C335.509 92.4431 336.104 93.3871 337.193 93.6733L345.837 95.9448C346.926 96.231 348.096 95.7511 348.451 94.8728L348.687 94.2898C349.042 93.4115 348.446 92.4675 347.357 92.1813Z" fill="#CCEAFC"/>
<path d="M333.578 58.0499L328.049 63.8692C327.352 64.6024 327.525 65.6522 328.434 66.214L329.037 66.587C329.947 67.1488 331.249 67.0099 331.945 66.2766L337.474 60.4574C338.171 59.7242 337.999 58.6743 337.089 58.1125L336.486 57.7396C335.577 57.1778 334.275 57.3167 333.578 58.0499Z" fill="#FFF5BE"/>
<path d="M374.038 47.4807L365.15 45.9415C364.03 45.7476 362.928 46.3225 362.687 47.2256L362.527 47.8251C362.287 48.7283 363 49.6176 364.12 49.8115L373.008 51.3508C374.128 51.5447 375.231 50.9698 375.471 50.0667L375.631 49.4671C375.871 48.564 375.158 47.6747 374.038 47.4807Z" fill="#CA9755"/>
<path d="M286.599 35.022L283.791 41.9947C283.438 42.8733 284.034 43.8167 285.123 44.102L285.847 44.2914C286.936 44.5767 288.106 44.0958 288.46 43.2172L291.267 36.2445C291.621 35.366 291.025 34.4225 289.935 34.1373L289.212 33.9479C288.123 33.6626 286.953 34.1435 286.599 35.022Z" fill="#F39B97"/>
<path d="M222.444 74.4584L223.166 81.7664C223.256 82.6871 224.256 83.3742 225.398 83.3009L226.156 83.2523C227.297 83.179 228.149 82.3731 228.058 81.4523L227.337 74.1443C227.246 73.2236 226.247 72.5365 225.105 72.6098L224.347 72.6585C223.205 72.7317 222.354 73.5376 222.444 74.4584Z" fill="#FFF5BE"/>
<path d="M243.829 44.7646L235.947 48.418C234.954 48.8783 234.612 49.9007 235.182 50.7015L235.561 51.2332C236.132 52.034 237.4 52.3101 238.393 51.8498L246.275 48.1964C247.268 47.7361 247.61 46.7137 247.039 45.9129L246.66 45.3812C246.089 44.5804 244.822 44.3043 243.829 44.7646Z" fill="#CA9755"/>
<path d="M279.439 93.0079L277.626 85.824C277.398 84.9188 276.303 84.3343 275.181 84.5185L274.435 84.6407C273.313 84.8249 272.588 85.708 272.817 86.6131L274.629 93.7971C274.857 94.7022 275.952 95.2867 277.075 95.1025L277.82 94.9803C278.942 94.7961 279.667 93.9131 279.439 93.0079Z" fill="#72C1E3"/>
<path d="M257.898 122.085L249.391 124.669C248.319 124.995 247.777 125.96 248.181 126.824L248.449 127.398C248.853 128.262 250.049 128.699 251.121 128.373L259.628 125.789C260.7 125.464 261.242 124.499 260.838 123.635L260.57 123.061C260.166 122.196 258.97 121.759 257.898 122.085Z" fill="#F3A2B4"/>
<path d="M576.021 155.758L568.804 151.299C567.895 150.737 566.593 150.876 565.897 151.609L565.434 152.096C564.738 152.829 564.91 153.879 565.819 154.441L573.035 158.9C573.944 159.462 575.246 159.323 575.943 158.589L576.405 158.103C577.102 157.369 576.93 156.32 576.021 155.758Z" fill="#FCE3ED"/>
<path d="M636.712 91.5849L628.839 95.2504C627.847 95.7123 627.507 96.7351 628.08 97.535L628.46 98.0661C629.033 98.8661 630.301 99.1402 631.293 98.6783L639.166 95.0128C640.158 94.5509 640.498 93.528 639.925 92.7281L639.545 92.197C638.972 91.397 637.704 91.123 636.712 91.5849Z" fill="#F39B97"/>
<path d="M570.132 120.422L561.489 118.15C560.4 117.864 559.229 118.344 558.874 119.222L558.639 119.805C558.284 120.683 558.879 121.627 559.968 121.913L568.612 124.185C569.701 124.471 570.871 123.991 571.226 123.113L571.462 122.53C571.817 121.652 571.221 120.708 570.132 120.422Z" fill="#CCEAFC"/>
<path d="M556.371 86.3077L550.842 92.127C550.145 92.8602 550.318 93.91 551.227 94.4718L551.83 94.8448C552.74 95.4066 554.041 95.2676 554.738 94.5344L560.267 88.7152C560.964 87.9819 560.792 86.9321 559.882 86.3704L559.279 85.9974C558.369 85.4356 557.068 85.5745 556.371 86.3077Z" fill="#FFF5BE"/>
<path d="M596.82 75.7073L587.932 74.1681C586.812 73.9741 585.709 74.549 585.469 75.4521L585.309 76.0517C585.069 76.9548 585.782 77.8442 586.901 78.0381L595.79 79.5773C596.909 79.7713 598.012 79.1964 598.253 78.2933L598.412 77.6937C598.653 76.7906 597.94 75.9012 596.82 75.7073Z" fill="#CA9755"/>
<path d="M509.398 63.2632L506.591 70.236C506.237 71.1145 506.833 72.0579 507.923 72.3432L508.646 72.5326C509.735 72.8179 510.905 72.337 511.259 71.4585L514.067 64.4858C514.421 63.6072 513.824 62.6638 512.735 62.3785L512.012 62.1891C510.922 61.9038 509.752 62.3847 509.398 63.2632Z" fill="#F39B97"/>
<path d="M445.294 102.709L446.015 110.017C446.106 110.937 447.105 111.624 448.247 111.551L449.005 111.503C450.146 111.429 450.998 110.623 450.907 109.703L450.186 102.395C450.095 101.474 449.096 100.787 447.954 100.86L447.196 100.909C446.055 100.982 445.203 101.788 445.294 102.709Z" fill="#FFF5BE"/>
<path d="M466.588 73.0015L458.706 76.6548C457.713 77.1151 457.371 78.1374 457.942 78.9382L458.321 79.4699C458.891 80.2708 460.159 80.5468 461.152 80.0865L469.034 76.4332C470.027 75.9728 470.369 74.9505 469.798 74.1497L469.419 73.618C468.849 72.8172 467.581 72.5412 466.588 73.0015Z" fill="#CA9755"/>
<path d="M502.227 121.261L500.415 114.077C500.187 113.172 499.092 112.587 497.969 112.771L497.224 112.894C496.102 113.078 495.377 113.961 495.605 114.866L497.418 122.05C497.646 122.955 498.741 123.54 499.863 123.355L500.609 123.233C501.731 123.049 502.456 122.166 502.227 121.261Z" fill="#72C1E3"/>
<path d="M480.693 150.335L472.185 152.919C471.114 153.245 470.572 154.209 470.976 155.074L471.244 155.648C471.647 156.512 472.844 156.949 473.916 156.623L482.423 154.039C483.495 153.713 484.036 152.749 483.633 151.884L483.365 151.31C482.961 150.446 481.765 150.009 480.693 150.335Z" fill="#F3A2B4"/>
<path d="M857.125 125.437L849.908 120.978C848.999 120.416 847.697 120.555 847.001 121.289L846.538 121.775C845.842 122.509 846.014 123.558 846.923 124.12L854.139 128.579C855.048 129.141 856.35 129.002 857.047 128.269L857.509 127.782C858.206 127.049 858.034 125.999 857.125 125.437Z" fill="#FCE3ED"/>
<path d="M711.217 146.038L703.344 149.704C702.352 150.166 702.012 151.189 702.585 151.989L702.965 152.52C703.538 153.32 704.806 153.594 705.798 153.132L713.671 149.466C714.663 149.005 715.003 147.982 714.43 147.182L714.05 146.651C713.477 145.851 712.209 145.577 711.217 146.038Z" fill="#F39B97"/>
<path d="M851.24 90.0771L842.596 87.8056C841.507 87.5194 840.337 87.9993 839.982 88.8776L839.746 89.4606C839.391 90.3389 839.987 91.2829 841.076 91.5691L849.719 93.8406C850.808 94.1268 851.979 93.6468 852.333 92.7686L852.569 92.1855C852.924 91.3073 852.329 90.3633 851.24 90.0771Z" fill="#CCEAFC"/>
<path d="M837.484 55.9671L831.955 61.7864C831.258 62.5196 831.43 63.5694 832.34 64.1312L832.943 64.5042C833.852 65.066 835.154 64.927 835.851 64.1938L841.38 58.3746C842.077 57.6413 841.904 56.5915 840.995 56.0297L840.391 55.6567C839.482 55.0949 838.181 55.2339 837.484 55.9671Z" fill="#FFF5BE"/>
<path d="M877.934 45.3618L869.046 43.8226C867.926 43.6287 866.824 44.2035 866.583 45.1066L866.423 45.7062C866.183 46.6093 866.896 47.4987 868.016 47.6926L876.904 49.2318C878.024 49.4258 879.127 48.8509 879.367 47.9478L879.527 47.3482C879.767 46.4451 879.054 45.5558 877.934 45.3618Z" fill="#CA9755"/>
<path d="M790.485 32.9146L787.678 39.8873C787.324 40.7658 787.92 41.7093 789.01 41.9946L789.733 42.184C790.822 42.4693 791.992 41.9883 792.346 41.1098L795.154 34.1371C795.507 33.2586 794.911 32.3151 793.822 32.0298L793.098 31.8404C792.009 31.5551 790.839 32.0361 790.485 32.9146Z" fill="#F39B97"/>
<path d="M726.409 72.3661L727.13 79.6741C727.221 80.5949 728.221 81.2819 729.362 81.2086L730.12 81.16C731.262 81.0867 732.114 80.2809 732.023 79.3601L731.302 72.0521C731.211 71.1313 730.212 70.4443 729.07 70.5176L728.312 70.5662C727.17 70.6395 726.318 71.4453 726.409 72.3661Z" fill="#FFF5BE"/>
<path d="M747.687 42.6472L739.805 46.3006C738.812 46.7609 738.47 47.7832 739.041 48.584L739.42 49.1157C739.991 49.9165 741.258 50.1926 742.251 49.7323L750.133 46.0789C751.126 45.6186 751.468 44.5963 750.898 43.7954L750.519 43.2637C749.948 42.4629 748.68 42.1869 747.687 42.6472Z" fill="#CA9755"/>
<path d="M783.333 90.9115L781.521 83.7276C781.293 82.8224 780.198 82.2379 779.075 82.4221L778.33 82.5443C777.208 82.7285 776.483 83.6115 776.711 84.5167L778.524 91.7006C778.752 92.6058 779.847 93.1902 780.969 93.0061L781.714 92.8838C782.837 92.6997 783.562 91.8166 783.333 90.9115Z" fill="#72C1E3"/>
<path d="M761.786 119.985L753.279 122.57C752.207 122.895 751.665 123.86 752.069 124.724L752.337 125.298C752.741 126.163 753.937 126.599 755.009 126.274L763.516 123.69C764.588 123.364 765.13 122.399 764.726 121.535L764.458 120.961C764.054 120.097 762.858 119.66 761.786 119.985Z" fill="#F3A2B4"/>
<path d="M1070.05 156.54L1062.84 152.081C1061.93 151.519 1060.63 151.658 1059.93 152.391L1059.47 152.878C1058.77 153.611 1058.94 154.661 1059.85 155.223L1067.07 159.682C1067.98 160.243 1069.28 160.104 1069.98 159.371L1070.44 158.884C1071.13 158.151 1070.96 157.101 1070.05 156.54Z" fill="#FCE3ED"/>
<path d="M1130.75 92.3412L1122.88 96.0068C1121.88 96.4686 1121.54 97.4915 1122.12 98.2915L1122.5 98.8225C1123.07 99.6225 1124.34 99.8966 1125.33 99.4347L1133.2 95.7692C1134.19 95.3074 1134.53 94.2845 1133.96 93.4845L1133.58 92.9534C1133.01 92.1535 1131.74 91.8794 1130.75 92.3412Z" fill="#F39B97"/>
<path d="M1064.17 121.183L1055.53 118.912C1054.44 118.625 1053.27 119.105 1052.91 119.984L1052.68 120.567C1052.32 121.445 1052.92 122.389 1054.01 122.675L1062.65 124.947C1063.74 125.233 1064.91 124.753 1065.26 123.875L1065.5 123.291C1065.86 122.413 1065.26 121.469 1064.17 121.183Z" fill="#CCEAFC"/>
<path d="M1050.44 87.0728L1044.91 92.8921C1044.21 93.6253 1044.38 94.6751 1045.29 95.2369L1045.9 95.6099C1046.81 96.1717 1048.11 96.0327 1048.8 95.2995L1054.33 89.4802C1055.03 88.747 1054.86 87.6973 1053.95 87.1355L1053.34 86.7625C1052.44 86.2007 1051.13 86.3396 1050.44 87.0728Z" fill="#FFF5BE"/>
<path d="M1090.88 76.4419L1081.99 74.9027C1080.87 74.7087 1079.77 75.2836 1079.52 76.1867L1079.36 76.7863C1079.12 77.6894 1079.84 78.5788 1080.96 78.7727L1089.85 80.312C1090.97 80.5059 1092.07 79.931 1092.31 79.0279L1092.47 78.4283C1092.71 77.5252 1092 76.6359 1090.88 76.4419Z" fill="#CA9755"/>
<path d="M796.842 148.809L794.035 155.782C793.681 156.66 794.277 157.604 795.367 157.889L796.09 158.079C797.179 158.364 798.349 157.883 798.703 157.004L801.511 150.032C801.864 149.153 801.268 148.21 800.179 147.924L799.455 147.735C798.366 147.45 797.196 147.931 796.842 148.809Z" fill="#F39B97"/>
<path d="M939.36 103.458L940.082 110.766C940.172 111.687 941.172 112.374 942.314 112.301L943.072 112.252C944.213 112.179 945.065 111.373 944.974 110.452L944.253 103.144C944.162 102.224 943.163 101.537 942.021 101.61L941.263 101.658C940.122 101.732 939.27 102.538 939.36 103.458Z" fill="#FFF5BE"/>
<path d="M754.027 158.524L746.145 162.177C745.152 162.638 744.81 163.66 745.381 164.461L745.76 164.992C746.33 165.793 747.598 166.069 748.591 165.609L756.473 161.956C757.466 161.495 757.808 160.473 757.237 159.672L756.858 159.14C756.288 158.34 755.02 158.064 754.027 158.524Z" fill="#CA9755"/>
<path d="M899.32 89.2338L892.67 84.2359C891.832 83.6062 890.519 83.6435 889.738 84.3193L889.22 84.768C888.439 85.4437 888.485 86.502 889.323 87.1318L895.974 92.1297C896.812 92.7594 898.124 92.722 898.905 92.0463L899.424 91.5976C900.205 90.9219 900.158 89.8635 899.32 89.2338Z" fill="#F39B97"/>
<path d="M921.078 156.029L911.988 155.905C910.843 155.89 909.899 156.626 909.879 157.549L909.867 158.162C909.847 159.086 910.76 159.847 911.905 159.863L920.995 159.987C922.14 160.003 923.084 159.267 923.103 158.343L923.116 157.73C923.136 156.806 922.223 156.045 921.078 156.029Z" fill="#F39B97"/>
<path d="M896.8 125.901L890.162 120.892C889.326 120.26 888.013 120.296 887.231 120.97L886.711 121.418C885.929 122.092 885.972 123.151 886.809 123.782L893.446 128.791C894.283 129.422 895.595 129.387 896.378 128.712L896.897 128.265C897.68 127.59 897.636 126.532 896.8 125.901Z" fill="#CA9755"/>
<path d="M996.262 122.012L994.45 114.828C994.221 113.923 993.126 113.338 992.004 113.523L991.259 113.645C990.136 113.829 989.412 114.712 989.64 115.617L991.452 122.801C991.681 123.706 992.776 124.291 993.898 124.107L994.643 123.984C995.766 123.8 996.49 122.917 996.262 122.012Z" fill="#72C1E3"/>
<path d="M981.111 67.9881L979.298 60.8041C979.07 59.899 977.975 59.3146 976.852 59.4987L976.107 59.621C974.985 59.8051 974.26 60.6881 974.488 61.5933L976.301 68.7772C976.529 69.6824 977.624 70.2669 978.747 70.0827L979.492 69.9605C980.614 69.7763 981.339 68.8932 981.111 67.9881Z" fill="#72C1E3"/>
<path d="M974.738 151.076L966.231 153.66C965.159 153.986 964.617 154.95 965.021 155.815L965.289 156.388C965.693 157.253 966.889 157.69 967.961 157.364L976.468 154.78C977.54 154.454 978.082 153.49 977.678 152.625L977.41 152.051C977.006 151.187 975.81 150.75 974.738 151.076Z" fill="#F3A2B4"/>
<path d="M1311.9 157.374L1304.69 152.915C1303.78 152.353 1302.48 152.492 1301.78 153.226L1301.32 153.712C1300.62 154.446 1300.79 155.495 1301.7 156.057L1308.92 160.516C1309.83 161.078 1311.13 160.939 1311.83 160.206L1312.29 159.719C1312.98 158.986 1312.81 157.936 1311.9 157.374Z" fill="#FCE3ED"/>
<path d="M1372.62 93.1838L1364.75 96.8493C1363.76 97.3112 1363.42 98.334 1363.99 99.134L1364.37 99.6651C1364.94 100.465 1366.21 100.739 1367.2 100.277L1375.08 96.6117C1376.07 96.1499 1376.41 95.127 1375.83 94.327L1375.45 93.796C1374.88 92.996 1373.61 92.7219 1372.62 93.1838Z" fill="#F39B97"/>
<path d="M1306.04 122.024L1297.39 119.753C1296.31 119.466 1295.14 119.946 1294.78 120.824L1294.54 121.408C1294.19 122.286 1294.78 123.23 1295.87 123.516L1304.52 125.787C1305.61 126.074 1306.78 125.594 1307.13 124.716L1307.37 124.132C1307.72 123.254 1307.13 122.31 1306.04 122.024Z" fill="#CCEAFC"/>
<path d="M1292.31 87.9142L1286.78 93.7334C1286.08 94.4666 1286.26 95.5165 1287.17 96.0783L1287.77 96.4513C1288.68 97.0131 1289.98 96.8741 1290.68 96.1409L1296.21 90.3217C1296.9 89.5885 1296.73 88.5386 1295.82 87.9768L1295.22 87.6038C1294.31 87.042 1293.01 87.181 1292.31 87.9142Z" fill="#FFF5BE"/>
<path d="M1332.74 77.2791L1323.85 75.7398C1322.73 75.5459 1321.63 76.1208 1321.39 77.0239L1321.23 77.6235C1320.99 78.5266 1321.7 79.4159 1322.82 79.6098L1331.71 81.149C1332.83 81.343 1333.93 80.7681 1334.17 79.865L1334.33 79.2654C1334.57 78.3623 1333.86 77.473 1332.74 77.2791Z" fill="#CA9755"/>
<path d="M1245.27 64.8468L1242.47 71.8195C1242.11 72.698 1242.71 73.6414 1243.8 73.9267L1244.52 74.1161C1245.61 74.4014 1246.78 73.9205 1247.13 73.042L1249.94 66.0693C1250.3 65.1908 1249.7 64.2473 1248.61 63.962L1247.89 63.7726C1246.8 63.4873 1245.63 63.9683 1245.27 64.8468Z" fill="#F39B97"/>
<path d="M1181.24 104.286L1181.97 111.593C1182.06 112.514 1183.06 113.201 1184.2 113.128L1184.96 113.079C1186.1 113.006 1186.95 112.2 1186.86 111.28L1186.14 103.972C1186.05 103.051 1185.05 102.364 1183.91 102.437L1183.15 102.486C1182.01 102.559 1181.15 103.365 1181.24 104.286Z" fill="#FFF5BE"/>
<path d="M1202.49 74.551L1194.61 78.2044C1193.62 78.6647 1193.27 79.6871 1193.84 80.4879L1194.22 81.0196C1194.79 81.8204 1196.06 82.0964 1197.05 81.6361L1204.94 77.9828C1205.93 77.5225 1206.27 76.5001 1205.7 75.6993L1205.32 75.1676C1204.75 74.3668 1203.48 74.0907 1202.49 74.551Z" fill="#CA9755"/>
<path d="M1238.12 122.835L1236.31 115.651C1236.08 114.746 1234.98 114.161 1233.86 114.345L1233.12 114.468C1231.99 114.652 1231.27 115.535 1231.5 116.44L1233.31 123.624C1233.54 124.529 1234.63 125.114 1235.76 124.929L1236.5 124.807C1237.62 124.623 1238.35 123.74 1238.12 122.835Z" fill="#72C1E3"/>
<path d="M1216.59 151.931L1208.09 154.515C1207.01 154.841 1206.47 155.805 1206.88 156.67L1207.14 157.244C1207.55 158.108 1208.74 158.545 1209.82 158.219L1218.32 155.635C1219.39 155.309 1219.94 154.345 1219.53 153.48L1219.26 152.906C1218.86 152.042 1217.66 151.605 1216.59 151.931Z" fill="#F3A2B4"/>
<path d="M412.453 164.473L403.81 162.202C402.721 161.915 401.55 162.395 401.195 163.274L400.96 163.857C400.605 164.735 401.2 165.679 402.289 165.965L410.932 168.237C412.021 168.523 413.192 168.043 413.547 167.165L413.782 166.582C414.137 165.703 413.542 164.759 412.453 164.473Z" fill="#CCEAFC"/>
<path d="M398.677 130.343L393.148 136.162C392.451 136.896 392.623 137.945 393.532 138.507L394.136 138.88C395.045 139.442 396.347 139.303 397.044 138.57L402.573 132.751C403.269 132.017 403.097 130.967 402.188 130.406L401.584 130.033C400.675 129.471 399.373 129.61 398.677 130.343Z" fill="#FFF5BE"/>
<path d="M632.801 150.639L623.912 149.1C622.793 148.906 621.69 149.481 621.449 150.384L621.29 150.983C621.049 151.886 621.762 152.776 622.882 152.97L631.77 154.509C632.89 154.703 633.993 154.128 634.233 153.225L634.393 152.625C634.633 151.722 633.92 150.833 632.801 150.639Z" fill="#CA9755"/>
<path d="M355.973 117.055L353.165 124.028C352.811 124.906 353.408 125.85 354.497 126.135L355.22 126.325C356.31 126.61 357.48 126.129 357.833 125.25L360.641 118.278C360.995 117.399 360.398 116.456 359.309 116.17L358.586 115.981C357.496 115.696 356.326 116.177 355.973 117.055Z" fill="#F39B97"/>
<path d="M202.753 138.431L194.11 136.16C193.021 135.873 191.85 136.353 191.495 137.232L191.259 137.815C190.905 138.693 191.5 139.637 192.589 139.923L201.232 142.195C202.321 142.481 203.492 142.001 203.847 141.123L204.082 140.54C204.437 139.661 203.842 138.717 202.753 138.431Z" fill="#CCEAFC"/>
<path d="M244.956 161.224L239.427 167.043C238.73 167.776 238.903 168.826 239.812 169.388L240.415 169.761C241.325 170.323 242.626 170.184 243.323 169.45L248.852 163.631C249.549 162.898 249.376 161.848 248.467 161.286L247.864 160.913C246.954 160.352 245.653 160.491 244.956 161.224Z" fill="#FFF5BE"/>
<path d="M285.432 150.653L276.544 149.114C275.424 148.92 274.321 149.495 274.081 150.398L273.921 150.998C273.681 151.901 274.393 152.79 275.513 152.984L284.401 154.523C285.521 154.717 286.624 154.142 286.865 153.239L287.024 152.639C287.265 151.736 286.552 150.847 285.432 150.653Z" fill="#CA9755"/>
<path d="M1415.95 110.83L1416.67 118.138C1416.76 119.059 1417.76 119.746 1418.9 119.673L1419.66 119.624C1420.8 119.551 1421.65 118.745 1421.56 117.824L1420.84 110.516C1420.75 109.596 1419.75 108.909 1418.61 108.982L1417.85 109.031C1416.71 109.104 1415.86 109.91 1415.95 110.83Z" fill="#FFF5BE"/>
<path d="M1437.18 81.0766L1429.3 84.73C1428.31 85.1903 1427.96 86.2127 1428.53 87.0135L1428.91 87.5452C1429.48 88.346 1430.75 88.6221 1431.74 88.1618L1439.63 84.5084C1440.62 84.0481 1440.96 83.0258 1440.39 82.2249L1440.01 81.6932C1439.44 80.8924 1438.17 80.6163 1437.18 81.0766Z" fill="#CA9755"/>
<path d="M1142.15 154.921L1140.34 147.737C1140.11 146.832 1139.01 146.247 1137.89 146.432L1137.15 146.554C1136.02 146.738 1135.3 147.621 1135.53 148.526L1137.34 155.71C1137.57 156.615 1138.66 157.2 1139.79 157.016L1140.53 156.893C1141.65 156.709 1142.38 155.826 1142.15 154.921Z" fill="#72C1E3"/>
<path d="M0.741057 0H1441V41.6234C1409.35 58.3759 1400.17 74.0405 1397.91 85.5901C1395.12 99.8319 1402.87 107.755 1396.12 125.47C1391.45 137.717 1380.22 153.688 1369.24 152.977C1361.11 152.447 1355.89 142.934 1353.12 137.857C1345.24 123.461 1349.84 115.301 1347.74 102.106C1344.6 82.3959 1329.27 68.6841 1314.42 55.3909C1300.09 42.5579 1288.78 32.459 1271.81 27.9256C1230.24 16.8223 1208.55 53.4659 1151.57 54.0378C1101.32 54.54 1098.03 26.2099 1040.1 24.5221C992.068 23.1133 984.781 42.3208 935.523 39.2939C894.174 36.7552 894.191 22.918 845.916 16.8642C825.965 14.3534 768.145 7.09998 727.623 33.3657C722.454 36.7134 698.713 52.1129 692.132 76.5234C686.532 97.3072 696.284 113.851 681.415 135.722C679.038 139.21 673.3 147.467 667.098 147.021C661.206 146.589 657.639 138.484 654.831 131.036C640.876 93.8061 644.683 68.9911 635.225 67.0801C629.608 65.9363 621.218 73.2594 617.6 78.0438C611.259 86.4411 614.016 94.4198 607.193 96.8888C604.644 97.8094 600.922 97.9209 598.493 96.5679C591.825 92.8296 600.267 80.8336 600.56 67.2474C600.957 49.2813 587.173 27.9396 569.634 24.5221C552.767 21.2441 547.375 37.4666 523.875 38.0664C495.981 38.7778 486.746 16.3759 455.648 16.7247C441.762 16.8781 440.177 21.3836 423.275 25.0521C386.492 33.0169 369.349 17.0176 326.225 14.0465C280.741 10.922 284.049 27.6466 225.73 27.9674C182.227 28.2046 155.367 19.0262 142.962 31.0502C132.694 40.9957 137.363 60.6078 128.904 61.7376C126.474 62.0585 124.217 60.7054 124.011 60.5659C118.928 57.4274 124.045 50.6762 121.616 43.5204C118.256 33.5889 102.509 29.1252 101.027 28.7207C89.4151 25.5682 79.2328 28.5115 68.7577 31.5384C59.1268 34.3281 39.2792 40.0611 28.6834 54.3308C14.9176 72.8967 26.013 93.5549 18.1566 95.3683C13.9528 96.3447 7.68147 91.1 4.61474 86.6503C-2.15619 76.8163 4.87317 68.1401 5.51064 53.7031C5.82076 46.8263 7.23633 53.5299 0.741057 41.5339C3.30815 49.8614 -1.82604 33.1925 0.741057 41.5339L0.741057 0Z" fill="#FCE3ED"/>
</svg>
